%TF.GenerationSoftware,KiCad,Pcbnew,(6.0.0)*%
%TF.CreationDate,2022-12-07T10:32:59-05:00*%
%TF.ProjectId,onix-coax-adapter-xfl-a_panel,6f6e6978-2d63-46f6-9178-2d6164617074,A*%
%TF.SameCoordinates,Original*%
%TF.FileFunction,Component,L1,Top*%
%TF.FilePolarity,Positive*%
%FSLAX46Y46*%
G04 Gerber Fmt 4.6, Leading zero omitted, Abs format (unit mm)*
G04 Created by KiCad (PCBNEW (6.0.0)) date 2022-12-07 10:32:59*
%MOMM*%
%LPD*%
G01*
G04 APERTURE LIST*
%TA.AperFunction,ComponentMain*%
%ADD10C,0.300000*%
%TD*%
%TA.AperFunction,ComponentOutline,Courtyard*%
%ADD11C,0.100000*%
%TD*%
%TA.AperFunction,ComponentPin*%
%ADD12P,0.360000X4X0.000000*%
%TD*%
%TA.AperFunction,ComponentPin*%
%ADD13C,0.000000*%
%TD*%
%TA.AperFunction,ComponentOutline,Footprint*%
%ADD14C,0.100000*%
%TD*%
G04 APERTURE END LIST*
D10*
%TO.C,"J1"*%
%TO.CFtp,"LINX_CONMHF4-SMD-G"*%
%TO.CVal,"Conn_Coaxial"*%
%TO.CLbN,"jonnew"*%
%TO.CMnt,SMD*%
%TO.CRot,0*%
X170760000Y-108960081D03*
D11*
X172059999Y-110310080D02*
X169460001Y-110310080D01*
X169460001Y-107610082D01*
X172059999Y-107610082D01*
X172059999Y-110310080D01*
D12*
%TO.P,"J1","1","In"*%
X170760000Y-109935081D03*
D13*
%TO.P,"J1","2","Ext"*%
X171746000Y-109022081D03*
X170760000Y-107960081D03*
X169774000Y-108898081D03*
%TD*%
D10*
%TO.C,"J1"*%
%TO.CFtp,"LINX_CONMHF4-SMD-G"*%
%TO.CVal,"Conn_Coaxial"*%
%TO.CLbN,"jonnew"*%
%TO.CMnt,SMD*%
%TO.CRot,0*%
X194760000Y-108960081D03*
D11*
X196059999Y-110310080D02*
X193460001Y-110310080D01*
X193460001Y-107610082D01*
X196059999Y-107610082D01*
X196059999Y-110310080D01*
D12*
%TO.P,"J1","1","In"*%
X194760000Y-109935081D03*
D13*
%TO.P,"J1","2","Ext"*%
X195746000Y-109022081D03*
X194760000Y-107960081D03*
X193774000Y-108898081D03*
%TD*%
D10*
%TO.C,"TP2"*%
%TO.CFtp,"Castellation"*%
%TO.CVal,"TestPoint"*%
%TO.CLbN,"Headstage-64s"*%
%TO.CMnt,TH*%
%TO.CRot,90*%
X169546000Y-88984081D03*
D14*
X168671000Y-89609081D02*
X170421000Y-89609081D01*
X170421000Y-88359081D01*
X168671000Y-88359081D01*
X168671000Y-89609081D01*
D12*
%TO.P,"TP2","1","1"*%
X169546000Y-88984081D03*
%TD*%
D10*
%TO.C,"TP2"*%
%TO.CFtp,"Castellation"*%
%TO.CVal,"TestPoint"*%
%TO.CLbN,"Headstage-64s"*%
%TO.CMnt,TH*%
%TO.CRot,90*%
X157546000Y-77984081D03*
D14*
X156671000Y-78609081D02*
X158421000Y-78609081D01*
X158421000Y-77359081D01*
X156671000Y-77359081D01*
X156671000Y-78609081D01*
D12*
%TO.P,"TP2","1","1"*%
X157546000Y-77984081D03*
%TD*%
D10*
%TO.C,"TP1"*%
%TO.CFtp,"Castellation"*%
%TO.CVal,"TestPoint"*%
%TO.CLbN,"Headstage-64s"*%
%TO.CMnt,TH*%
%TO.CRot,90*%
X171946000Y-99984081D03*
D14*
X171071000Y-100609081D02*
X172821000Y-100609081D01*
X172821000Y-99359081D01*
X171071000Y-99359081D01*
X171071000Y-100609081D01*
D12*
%TO.P,"TP1","1","1"*%
X171946000Y-99984081D03*
%TD*%
D10*
%TO.C,"TP1"*%
%TO.CFtp,"Castellation"*%
%TO.CVal,"TestPoint"*%
%TO.CLbN,"Headstage-64s"*%
%TO.CMnt,TH*%
%TO.CRot,90*%
X207946000Y-89022081D03*
D14*
X207071000Y-89647081D02*
X208821000Y-89647081D01*
X208821000Y-88397081D01*
X207071000Y-88397081D01*
X207071000Y-89647081D01*
D12*
%TO.P,"TP1","1","1"*%
X207946000Y-89022081D03*
%TD*%
D10*
%TO.C,"TP1"*%
%TO.CFtp,"Castellation"*%
%TO.CVal,"TestPoint"*%
%TO.CLbN,"Headstage-64s"*%
%TO.CMnt,TH*%
%TO.CRot,90*%
X159946000Y-99984081D03*
D14*
X159071000Y-100609081D02*
X160821000Y-100609081D01*
X160821000Y-99359081D01*
X159071000Y-99359081D01*
X159071000Y-100609081D01*
D12*
%TO.P,"TP1","1","1"*%
X159946000Y-99984081D03*
%TD*%
D10*
%TO.C,"J1"*%
%TO.CFtp,"LINX_CONMHF4-SMD-G"*%
%TO.CVal,"Conn_Coaxial"*%
%TO.CLbN,"jonnew"*%
%TO.CMnt,SMD*%
%TO.CRot,0*%
X170746000Y-76022081D03*
D11*
X172045999Y-77372080D02*
X169446001Y-77372080D01*
X169446001Y-74672082D01*
X172045999Y-74672082D01*
X172045999Y-77372080D01*
D12*
%TO.P,"J1","1","In"*%
X170746000Y-76997081D03*
D13*
%TO.P,"J1","2","Ext"*%
X171732000Y-76084081D03*
X170746000Y-75022081D03*
X169760000Y-75960081D03*
%TD*%
D10*
%TO.C,"TP2"*%
%TO.CFtp,"Castellation"*%
%TO.CVal,"TestPoint"*%
%TO.CLbN,"Headstage-64s"*%
%TO.CMnt,TH*%
%TO.CRot,90*%
X157560000Y-110922081D03*
D14*
X156685000Y-111547081D02*
X158435000Y-111547081D01*
X158435000Y-110297081D01*
X156685000Y-110297081D01*
X156685000Y-111547081D01*
D12*
%TO.P,"TP2","1","1"*%
X157560000Y-110922081D03*
%TD*%
D10*
%TO.C,"TP1"*%
%TO.CFtp,"Castellation"*%
%TO.CVal,"TestPoint"*%
%TO.CLbN,"Headstage-64s"*%
%TO.CMnt,TH*%
%TO.CRot,90*%
X195946000Y-99984081D03*
D14*
X195071000Y-100609081D02*
X196821000Y-100609081D01*
X196821000Y-99359081D01*
X195071000Y-99359081D01*
X195071000Y-100609081D01*
D12*
%TO.P,"TP1","1","1"*%
X195946000Y-99984081D03*
%TD*%
D10*
%TO.C,"J1"*%
%TO.CFtp,"LINX_CONMHF4-SMD-G"*%
%TO.CVal,"Conn_Coaxial"*%
%TO.CLbN,"jonnew"*%
%TO.CMnt,SMD*%
%TO.CRot,0*%
X194746000Y-76022081D03*
D11*
X196045999Y-77372080D02*
X193446001Y-77372080D01*
X193446001Y-74672082D01*
X196045999Y-74672082D01*
X196045999Y-77372080D01*
D12*
%TO.P,"J1","1","In"*%
X194746000Y-76997081D03*
D13*
%TO.P,"J1","2","Ext"*%
X195732000Y-76084081D03*
X194746000Y-75022081D03*
X193760000Y-75960081D03*
%TD*%
D10*
%TO.C,"TP2"*%
%TO.CFtp,"Castellation"*%
%TO.CVal,"TestPoint"*%
%TO.CLbN,"Headstage-64s"*%
%TO.CMnt,TH*%
%TO.CRot,90*%
X181546000Y-88984081D03*
D14*
X180671000Y-89609081D02*
X182421000Y-89609081D01*
X182421000Y-88359081D01*
X180671000Y-88359081D01*
X180671000Y-89609081D01*
D12*
%TO.P,"TP2","1","1"*%
X181546000Y-88984081D03*
%TD*%
D10*
%TO.C,""*%
%TO.CFtp,""*%
%TO.CVal,""*%
%TO.CLbN,""*%
%TO.CMnt,Other*%
%TO.CRot,0*%
X221200000Y-54850000D03*
D14*
X220700000Y-54350000D02*
X220700000Y-55350000D01*
X221700000Y-55350000D01*
X221700000Y-54350000D01*
X220700000Y-54350000D01*
D13*
%TO.P,"",*%
X221200000Y-54850000D03*
%TD*%
D10*
%TO.C,"TP1"*%
%TO.CFtp,"Castellation"*%
%TO.CVal,"TestPoint"*%
%TO.CLbN,"Headstage-64s"*%
%TO.CMnt,TH*%
%TO.CRot,90*%
X159946000Y-66984081D03*
D14*
X159071000Y-67609081D02*
X160821000Y-67609081D01*
X160821000Y-66359081D01*
X159071000Y-66359081D01*
X159071000Y-67609081D01*
D12*
%TO.P,"TP1","1","1"*%
X159946000Y-66984081D03*
%TD*%
D10*
%TO.C,"TP2"*%
%TO.CFtp,"Castellation"*%
%TO.CVal,"TestPoint"*%
%TO.CLbN,"Headstage-64s"*%
%TO.CMnt,TH*%
%TO.CRot,90*%
X169546000Y-99984081D03*
D14*
X168671000Y-100609081D02*
X170421000Y-100609081D01*
X170421000Y-99359081D01*
X168671000Y-99359081D01*
X168671000Y-100609081D01*
D12*
%TO.P,"TP2","1","1"*%
X169546000Y-99984081D03*
%TD*%
D10*
%TO.C,"TP1"*%
%TO.CFtp,"Castellation"*%
%TO.CVal,"TestPoint"*%
%TO.CLbN,"Headstage-64s"*%
%TO.CMnt,TH*%
%TO.CRot,90*%
X159960000Y-110922081D03*
D14*
X159085000Y-111547081D02*
X160835000Y-111547081D01*
X160835000Y-110297081D01*
X159085000Y-110297081D01*
X159085000Y-111547081D01*
D12*
%TO.P,"TP1","1","1"*%
X159960000Y-110922081D03*
%TD*%
D10*
%TO.C,"TP2"*%
%TO.CFtp,"Castellation"*%
%TO.CVal,"TestPoint"*%
%TO.CLbN,"Headstage-64s"*%
%TO.CMnt,TH*%
%TO.CRot,90*%
X181546000Y-66984081D03*
D14*
X180671000Y-67609081D02*
X182421000Y-67609081D01*
X182421000Y-66359081D01*
X180671000Y-66359081D01*
X180671000Y-67609081D01*
D12*
%TO.P,"TP2","1","1"*%
X181546000Y-66984081D03*
%TD*%
D10*
%TO.C,"J1"*%
%TO.CFtp,"LINX_CONMHF4-SMD-G"*%
%TO.CVal,"Conn_Coaxial"*%
%TO.CLbN,"jonnew"*%
%TO.CMnt,SMD*%
%TO.CRot,0*%
X182746000Y-76022081D03*
D11*
X184045999Y-77372080D02*
X181446001Y-77372080D01*
X181446001Y-74672082D01*
X184045999Y-74672082D01*
X184045999Y-77372080D01*
D12*
%TO.P,"J1","1","In"*%
X182746000Y-76997081D03*
D13*
%TO.P,"J1","2","Ext"*%
X183732000Y-76084081D03*
X182746000Y-75022081D03*
X181760000Y-75960081D03*
%TD*%
D10*
%TO.C,"TP1"*%
%TO.CFtp,"Castellation"*%
%TO.CVal,"TestPoint"*%
%TO.CLbN,"Headstage-64s"*%
%TO.CMnt,TH*%
%TO.CRot,90*%
X207946000Y-100022081D03*
D14*
X207071000Y-100647081D02*
X208821000Y-100647081D01*
X208821000Y-99397081D01*
X207071000Y-99397081D01*
X207071000Y-100647081D01*
D12*
%TO.P,"TP1","1","1"*%
X207946000Y-100022081D03*
%TD*%
D10*
%TO.C,"J1"*%
%TO.CFtp,"LINX_CONMHF4-SMD-G"*%
%TO.CVal,"Conn_Coaxial"*%
%TO.CLbN,"jonnew"*%
%TO.CMnt,SMD*%
%TO.CRot,0*%
X182760000Y-108960081D03*
D11*
X184059999Y-110310080D02*
X181460001Y-110310080D01*
X181460001Y-107610082D01*
X184059999Y-107610082D01*
X184059999Y-110310080D01*
D12*
%TO.P,"J1","1","In"*%
X182760000Y-109935081D03*
D13*
%TO.P,"J1","2","Ext"*%
X183746000Y-109022081D03*
X182760000Y-107960081D03*
X181774000Y-108898081D03*
%TD*%
D10*
%TO.C,"TP2"*%
%TO.CFtp,"Castellation"*%
%TO.CVal,"TestPoint"*%
%TO.CLbN,"Headstage-64s"*%
%TO.CMnt,TH*%
%TO.CRot,90*%
X169560000Y-110922081D03*
D14*
X168685000Y-111547081D02*
X170435000Y-111547081D01*
X170435000Y-110297081D01*
X168685000Y-110297081D01*
X168685000Y-111547081D01*
D12*
%TO.P,"TP2","1","1"*%
X169560000Y-110922081D03*
%TD*%
D10*
%TO.C,"TP2"*%
%TO.CFtp,"Castellation"*%
%TO.CVal,"TestPoint"*%
%TO.CLbN,"Headstage-64s"*%
%TO.CMnt,TH*%
%TO.CRot,90*%
X193546000Y-77984081D03*
D14*
X192671000Y-78609081D02*
X194421000Y-78609081D01*
X194421000Y-77359081D01*
X192671000Y-77359081D01*
X192671000Y-78609081D01*
D12*
%TO.P,"TP2","1","1"*%
X193546000Y-77984081D03*
%TD*%
D10*
%TO.C,"TP2"*%
%TO.CFtp,"Castellation"*%
%TO.CVal,"TestPoint"*%
%TO.CLbN,"Headstage-64s"*%
%TO.CMnt,TH*%
%TO.CRot,90*%
X157546000Y-88984081D03*
D14*
X156671000Y-89609081D02*
X158421000Y-89609081D01*
X158421000Y-88359081D01*
X156671000Y-88359081D01*
X156671000Y-89609081D01*
D12*
%TO.P,"TP2","1","1"*%
X157546000Y-88984081D03*
%TD*%
D10*
%TO.C,""*%
%TO.CFtp,""*%
%TO.CVal,""*%
%TO.CLbN,""*%
%TO.CMnt,Other*%
%TO.CRot,0*%
X143200000Y-120850000D03*
D14*
X142700000Y-120350000D02*
X142700000Y-121350000D01*
X143700000Y-121350000D01*
X143700000Y-120350000D01*
X142700000Y-120350000D01*
D13*
%TO.P,"",*%
X143200000Y-120850000D03*
%TD*%
D10*
%TO.C,"TP1"*%
%TO.CFtp,"Castellation"*%
%TO.CVal,"TestPoint"*%
%TO.CLbN,"Headstage-64s"*%
%TO.CMnt,TH*%
%TO.CRot,90*%
X207960000Y-110960081D03*
D14*
X207085000Y-111585081D02*
X208835000Y-111585081D01*
X208835000Y-110335081D01*
X207085000Y-110335081D01*
X207085000Y-111585081D01*
D12*
%TO.P,"TP1","1","1"*%
X207960000Y-110960081D03*
%TD*%
D10*
%TO.C,"TP1"*%
%TO.CFtp,"Castellation"*%
%TO.CVal,"TestPoint"*%
%TO.CLbN,"Headstage-64s"*%
%TO.CMnt,TH*%
%TO.CRot,90*%
X171946000Y-88984081D03*
D14*
X171071000Y-89609081D02*
X172821000Y-89609081D01*
X172821000Y-88359081D01*
X171071000Y-88359081D01*
X171071000Y-89609081D01*
D12*
%TO.P,"TP1","1","1"*%
X171946000Y-88984081D03*
%TD*%
D10*
%TO.C,"J1"*%
%TO.CFtp,"LINX_CONMHF4-SMD-G"*%
%TO.CVal,"Conn_Coaxial"*%
%TO.CLbN,"jonnew"*%
%TO.CMnt,SMD*%
%TO.CRot,0*%
X194746000Y-65022081D03*
D11*
X196045999Y-66372080D02*
X193446001Y-66372080D01*
X193446001Y-63672082D01*
X196045999Y-63672082D01*
X196045999Y-66372080D01*
D12*
%TO.P,"J1","1","In"*%
X194746000Y-65997081D03*
D13*
%TO.P,"J1","2","Ext"*%
X195732000Y-65084081D03*
X194746000Y-64022081D03*
X193760000Y-64960081D03*
%TD*%
D10*
%TO.C,"J1"*%
%TO.CFtp,"LINX_CONMHF4-SMD-G"*%
%TO.CVal,"Conn_Coaxial"*%
%TO.CLbN,"jonnew"*%
%TO.CMnt,SMD*%
%TO.CRot,0*%
X182746000Y-87022081D03*
D11*
X184045999Y-88372080D02*
X181446001Y-88372080D01*
X181446001Y-85672082D01*
X184045999Y-85672082D01*
X184045999Y-88372080D01*
D12*
%TO.P,"J1","1","In"*%
X182746000Y-87997081D03*
D13*
%TO.P,"J1","2","Ext"*%
X183732000Y-87084081D03*
X182746000Y-86022081D03*
X181760000Y-86960081D03*
%TD*%
D10*
%TO.C,"TP1"*%
%TO.CFtp,"Castellation"*%
%TO.CVal,"TestPoint"*%
%TO.CLbN,"Headstage-64s"*%
%TO.CMnt,TH*%
%TO.CRot,90*%
X171946000Y-66984081D03*
D14*
X171071000Y-67609081D02*
X172821000Y-67609081D01*
X172821000Y-66359081D01*
X171071000Y-66359081D01*
X171071000Y-67609081D01*
D12*
%TO.P,"TP1","1","1"*%
X171946000Y-66984081D03*
%TD*%
D10*
%TO.C,"TP2"*%
%TO.CFtp,"Castellation"*%
%TO.CVal,"TestPoint"*%
%TO.CLbN,"Headstage-64s"*%
%TO.CMnt,TH*%
%TO.CRot,90*%
X181546000Y-99984081D03*
D14*
X180671000Y-100609081D02*
X182421000Y-100609081D01*
X182421000Y-99359081D01*
X180671000Y-99359081D01*
X180671000Y-100609081D01*
D12*
%TO.P,"TP2","1","1"*%
X181546000Y-99984081D03*
%TD*%
D10*
%TO.C,"J1"*%
%TO.CFtp,"LINX_CONMHF4-SMD-G"*%
%TO.CVal,"Conn_Coaxial"*%
%TO.CLbN,"jonnew"*%
%TO.CMnt,SMD*%
%TO.CRot,0*%
X158746000Y-98022081D03*
D11*
X160045999Y-99372080D02*
X157446001Y-99372080D01*
X157446001Y-96672082D01*
X160045999Y-96672082D01*
X160045999Y-99372080D01*
D12*
%TO.P,"J1","1","In"*%
X158746000Y-98997081D03*
D13*
%TO.P,"J1","2","Ext"*%
X159732000Y-98084081D03*
X158746000Y-97022081D03*
X157760000Y-97960081D03*
%TD*%
D10*
%TO.C,"J1"*%
%TO.CFtp,"LINX_CONMHF4-SMD-G"*%
%TO.CVal,"Conn_Coaxial"*%
%TO.CLbN,"jonnew"*%
%TO.CMnt,SMD*%
%TO.CRot,0*%
X182746000Y-98022081D03*
D11*
X184045999Y-99372080D02*
X181446001Y-99372080D01*
X181446001Y-96672082D01*
X184045999Y-96672082D01*
X184045999Y-99372080D01*
D12*
%TO.P,"J1","1","In"*%
X182746000Y-98997081D03*
D13*
%TO.P,"J1","2","Ext"*%
X183732000Y-98084081D03*
X182746000Y-97022081D03*
X181760000Y-97960081D03*
%TD*%
D10*
%TO.C,"TP2"*%
%TO.CFtp,"Castellation"*%
%TO.CVal,"TestPoint"*%
%TO.CLbN,"Headstage-64s"*%
%TO.CMnt,TH*%
%TO.CRot,90*%
X181560000Y-110922081D03*
D14*
X180685000Y-111547081D02*
X182435000Y-111547081D01*
X182435000Y-110297081D01*
X180685000Y-110297081D01*
X180685000Y-111547081D01*
D12*
%TO.P,"TP2","1","1"*%
X181560000Y-110922081D03*
%TD*%
D10*
%TO.C,"J1"*%
%TO.CFtp,"LINX_CONMHF4-SMD-G"*%
%TO.CVal,"Conn_Coaxial"*%
%TO.CLbN,"jonnew"*%
%TO.CMnt,SMD*%
%TO.CRot,0*%
X206746000Y-98060081D03*
D11*
X208045999Y-99410080D02*
X205446001Y-99410080D01*
X205446001Y-96710082D01*
X208045999Y-96710082D01*
X208045999Y-99410080D01*
D12*
%TO.P,"J1","1","In"*%
X206746000Y-99035081D03*
D13*
%TO.P,"J1","2","Ext"*%
X207732000Y-98122081D03*
X206746000Y-97060081D03*
X205760000Y-97998081D03*
%TD*%
D10*
%TO.C,"TP2"*%
%TO.CFtp,"Castellation"*%
%TO.CVal,"TestPoint"*%
%TO.CLbN,"Headstage-64s"*%
%TO.CMnt,TH*%
%TO.CRot,90*%
X181546000Y-77984081D03*
D14*
X180671000Y-78609081D02*
X182421000Y-78609081D01*
X182421000Y-77359081D01*
X180671000Y-77359081D01*
X180671000Y-78609081D01*
D12*
%TO.P,"TP2","1","1"*%
X181546000Y-77984081D03*
%TD*%
D10*
%TO.C,"TP1"*%
%TO.CFtp,"Castellation"*%
%TO.CVal,"TestPoint"*%
%TO.CLbN,"Headstage-64s"*%
%TO.CMnt,TH*%
%TO.CRot,90*%
X171960000Y-110922081D03*
D14*
X171085000Y-111547081D02*
X172835000Y-111547081D01*
X172835000Y-110297081D01*
X171085000Y-110297081D01*
X171085000Y-111547081D01*
D12*
%TO.P,"TP1","1","1"*%
X171960000Y-110922081D03*
%TD*%
D10*
%TO.C,"TP1"*%
%TO.CFtp,"Castellation"*%
%TO.CVal,"TestPoint"*%
%TO.CLbN,"Headstage-64s"*%
%TO.CMnt,TH*%
%TO.CRot,90*%
X195946000Y-66984081D03*
D14*
X195071000Y-67609081D02*
X196821000Y-67609081D01*
X196821000Y-66359081D01*
X195071000Y-66359081D01*
X195071000Y-67609081D01*
D12*
%TO.P,"TP1","1","1"*%
X195946000Y-66984081D03*
%TD*%
D10*
%TO.C,"TP2"*%
%TO.CFtp,"Castellation"*%
%TO.CVal,"TestPoint"*%
%TO.CLbN,"Headstage-64s"*%
%TO.CMnt,TH*%
%TO.CRot,90*%
X193546000Y-88984081D03*
D14*
X192671000Y-89609081D02*
X194421000Y-89609081D01*
X194421000Y-88359081D01*
X192671000Y-88359081D01*
X192671000Y-89609081D01*
D12*
%TO.P,"TP2","1","1"*%
X193546000Y-88984081D03*
%TD*%
D10*
%TO.C,"J1"*%
%TO.CFtp,"LINX_CONMHF4-SMD-G"*%
%TO.CVal,"Conn_Coaxial"*%
%TO.CLbN,"jonnew"*%
%TO.CMnt,SMD*%
%TO.CRot,0*%
X158746000Y-65022081D03*
D11*
X160045999Y-66372080D02*
X157446001Y-66372080D01*
X157446001Y-63672082D01*
X160045999Y-63672082D01*
X160045999Y-66372080D01*
D12*
%TO.P,"J1","1","In"*%
X158746000Y-65997081D03*
D13*
%TO.P,"J1","2","Ext"*%
X159732000Y-65084081D03*
X158746000Y-64022081D03*
X157760000Y-64960081D03*
%TD*%
D10*
%TO.C,"J1"*%
%TO.CFtp,"LINX_CONMHF4-SMD-G"*%
%TO.CVal,"Conn_Coaxial"*%
%TO.CLbN,"jonnew"*%
%TO.CMnt,SMD*%
%TO.CRot,0*%
X170746000Y-65022081D03*
D11*
X172045999Y-66372080D02*
X169446001Y-66372080D01*
X169446001Y-63672082D01*
X172045999Y-63672082D01*
X172045999Y-66372080D01*
D12*
%TO.P,"J1","1","In"*%
X170746000Y-65997081D03*
D13*
%TO.P,"J1","2","Ext"*%
X171732000Y-65084081D03*
X170746000Y-64022081D03*
X169760000Y-64960081D03*
%TD*%
D10*
%TO.C,"TP2"*%
%TO.CFtp,"Castellation"*%
%TO.CVal,"TestPoint"*%
%TO.CLbN,"Headstage-64s"*%
%TO.CMnt,TH*%
%TO.CRot,90*%
X169546000Y-66984081D03*
D14*
X168671000Y-67609081D02*
X170421000Y-67609081D01*
X170421000Y-66359081D01*
X168671000Y-66359081D01*
X168671000Y-67609081D01*
D12*
%TO.P,"TP2","1","1"*%
X169546000Y-66984081D03*
%TD*%
D10*
%TO.C,"TP2"*%
%TO.CFtp,"Castellation"*%
%TO.CVal,"TestPoint"*%
%TO.CLbN,"Headstage-64s"*%
%TO.CMnt,TH*%
%TO.CRot,90*%
X193560000Y-110922081D03*
D14*
X192685000Y-111547081D02*
X194435000Y-111547081D01*
X194435000Y-110297081D01*
X192685000Y-110297081D01*
X192685000Y-111547081D01*
D12*
%TO.P,"TP2","1","1"*%
X193560000Y-110922081D03*
%TD*%
D10*
%TO.C,"J1"*%
%TO.CFtp,"LINX_CONMHF4-SMD-G"*%
%TO.CVal,"Conn_Coaxial"*%
%TO.CLbN,"jonnew"*%
%TO.CMnt,SMD*%
%TO.CRot,0*%
X182746000Y-65022081D03*
D11*
X184045999Y-66372080D02*
X181446001Y-66372080D01*
X181446001Y-63672082D01*
X184045999Y-63672082D01*
X184045999Y-66372080D01*
D12*
%TO.P,"J1","1","In"*%
X182746000Y-65997081D03*
D13*
%TO.P,"J1","2","Ext"*%
X183732000Y-65084081D03*
X182746000Y-64022081D03*
X181760000Y-64960081D03*
%TD*%
D10*
%TO.C,"TP1"*%
%TO.CFtp,"Castellation"*%
%TO.CVal,"TestPoint"*%
%TO.CLbN,"Headstage-64s"*%
%TO.CMnt,TH*%
%TO.CRot,90*%
X207946000Y-67022081D03*
D14*
X207071000Y-67647081D02*
X208821000Y-67647081D01*
X208821000Y-66397081D01*
X207071000Y-66397081D01*
X207071000Y-67647081D01*
D12*
%TO.P,"TP1","1","1"*%
X207946000Y-67022081D03*
%TD*%
D10*
%TO.C,"J1"*%
%TO.CFtp,"LINX_CONMHF4-SMD-G"*%
%TO.CVal,"Conn_Coaxial"*%
%TO.CLbN,"jonnew"*%
%TO.CMnt,SMD*%
%TO.CRot,0*%
X206746000Y-87060081D03*
D11*
X208045999Y-88410080D02*
X205446001Y-88410080D01*
X205446001Y-85710082D01*
X208045999Y-85710082D01*
X208045999Y-88410080D01*
D12*
%TO.P,"J1","1","In"*%
X206746000Y-88035081D03*
D13*
%TO.P,"J1","2","Ext"*%
X207732000Y-87122081D03*
X206746000Y-86060081D03*
X205760000Y-86998081D03*
%TD*%
D10*
%TO.C,"TP1"*%
%TO.CFtp,"Castellation"*%
%TO.CVal,"TestPoint"*%
%TO.CLbN,"Headstage-64s"*%
%TO.CMnt,TH*%
%TO.CRot,90*%
X183946000Y-66984081D03*
D14*
X183071000Y-67609081D02*
X184821000Y-67609081D01*
X184821000Y-66359081D01*
X183071000Y-66359081D01*
X183071000Y-67609081D01*
D12*
%TO.P,"TP1","1","1"*%
X183946000Y-66984081D03*
%TD*%
D10*
%TO.C,"J1"*%
%TO.CFtp,"LINX_CONMHF4-SMD-G"*%
%TO.CVal,"Conn_Coaxial"*%
%TO.CLbN,"jonnew"*%
%TO.CMnt,SMD*%
%TO.CRot,0*%
X206746000Y-76060081D03*
D11*
X208045999Y-77410080D02*
X205446001Y-77410080D01*
X205446001Y-74710082D01*
X208045999Y-74710082D01*
X208045999Y-77410080D01*
D12*
%TO.P,"J1","1","In"*%
X206746000Y-77035081D03*
D13*
%TO.P,"J1","2","Ext"*%
X207732000Y-76122081D03*
X206746000Y-75060081D03*
X205760000Y-75998081D03*
%TD*%
D10*
%TO.C,"TP2"*%
%TO.CFtp,"Castellation"*%
%TO.CVal,"TestPoint"*%
%TO.CLbN,"Headstage-64s"*%
%TO.CMnt,TH*%
%TO.CRot,90*%
X193546000Y-99984081D03*
D14*
X192671000Y-100609081D02*
X194421000Y-100609081D01*
X194421000Y-99359081D01*
X192671000Y-99359081D01*
X192671000Y-100609081D01*
D12*
%TO.P,"TP2","1","1"*%
X193546000Y-99984081D03*
%TD*%
D10*
%TO.C,"TP2"*%
%TO.CFtp,"Castellation"*%
%TO.CVal,"TestPoint"*%
%TO.CLbN,"Headstage-64s"*%
%TO.CMnt,TH*%
%TO.CRot,90*%
X193546000Y-66984081D03*
D14*
X192671000Y-67609081D02*
X194421000Y-67609081D01*
X194421000Y-66359081D01*
X192671000Y-66359081D01*
X192671000Y-67609081D01*
D12*
%TO.P,"TP2","1","1"*%
X193546000Y-66984081D03*
%TD*%
D10*
%TO.C,"J1"*%
%TO.CFtp,"LINX_CONMHF4-SMD-G"*%
%TO.CVal,"Conn_Coaxial"*%
%TO.CLbN,"jonnew"*%
%TO.CMnt,SMD*%
%TO.CRot,0*%
X194746000Y-87022081D03*
D11*
X196045999Y-88372080D02*
X193446001Y-88372080D01*
X193446001Y-85672082D01*
X196045999Y-85672082D01*
X196045999Y-88372080D01*
D12*
%TO.P,"J1","1","In"*%
X194746000Y-87997081D03*
D13*
%TO.P,"J1","2","Ext"*%
X195732000Y-87084081D03*
X194746000Y-86022081D03*
X193760000Y-86960081D03*
%TD*%
D10*
%TO.C,"TP2"*%
%TO.CFtp,"Castellation"*%
%TO.CVal,"TestPoint"*%
%TO.CLbN,"Headstage-64s"*%
%TO.CMnt,TH*%
%TO.CRot,90*%
X169546000Y-77984081D03*
D14*
X168671000Y-78609081D02*
X170421000Y-78609081D01*
X170421000Y-77359081D01*
X168671000Y-77359081D01*
X168671000Y-78609081D01*
D12*
%TO.P,"TP2","1","1"*%
X169546000Y-77984081D03*
%TD*%
D10*
%TO.C,"TP2"*%
%TO.CFtp,"Castellation"*%
%TO.CVal,"TestPoint"*%
%TO.CLbN,"Headstage-64s"*%
%TO.CMnt,TH*%
%TO.CRot,90*%
X157546000Y-66984081D03*
D14*
X156671000Y-67609081D02*
X158421000Y-67609081D01*
X158421000Y-66359081D01*
X156671000Y-66359081D01*
X156671000Y-67609081D01*
D12*
%TO.P,"TP2","1","1"*%
X157546000Y-66984081D03*
%TD*%
D10*
%TO.C,"TP1"*%
%TO.CFtp,"Castellation"*%
%TO.CVal,"TestPoint"*%
%TO.CLbN,"Headstage-64s"*%
%TO.CMnt,TH*%
%TO.CRot,90*%
X183960000Y-110922081D03*
D14*
X183085000Y-111547081D02*
X184835000Y-111547081D01*
X184835000Y-110297081D01*
X183085000Y-110297081D01*
X183085000Y-111547081D01*
D12*
%TO.P,"TP1","1","1"*%
X183960000Y-110922081D03*
%TD*%
D10*
%TO.C,"J1"*%
%TO.CFtp,"LINX_CONMHF4-SMD-G"*%
%TO.CVal,"Conn_Coaxial"*%
%TO.CLbN,"jonnew"*%
%TO.CMnt,SMD*%
%TO.CRot,0*%
X206746000Y-65060081D03*
D11*
X208045999Y-66410080D02*
X205446001Y-66410080D01*
X205446001Y-63710082D01*
X208045999Y-63710082D01*
X208045999Y-66410080D01*
D12*
%TO.P,"J1","1","In"*%
X206746000Y-66035081D03*
D13*
%TO.P,"J1","2","Ext"*%
X207732000Y-65122081D03*
X206746000Y-64060081D03*
X205760000Y-64998081D03*
%TD*%
D10*
%TO.C,"TP1"*%
%TO.CFtp,"Castellation"*%
%TO.CVal,"TestPoint"*%
%TO.CLbN,"Headstage-64s"*%
%TO.CMnt,TH*%
%TO.CRot,90*%
X195960000Y-110922081D03*
D14*
X195085000Y-111547081D02*
X196835000Y-111547081D01*
X196835000Y-110297081D01*
X195085000Y-110297081D01*
X195085000Y-111547081D01*
D12*
%TO.P,"TP1","1","1"*%
X195960000Y-110922081D03*
%TD*%
D10*
%TO.C,"J1"*%
%TO.CFtp,"LINX_CONMHF4-SMD-G"*%
%TO.CVal,"Conn_Coaxial"*%
%TO.CLbN,"jonnew"*%
%TO.CMnt,SMD*%
%TO.CRot,0*%
X158760000Y-108960081D03*
D11*
X160059999Y-110310080D02*
X157460001Y-110310080D01*
X157460001Y-107610082D01*
X160059999Y-107610082D01*
X160059999Y-110310080D01*
D12*
%TO.P,"J1","1","In"*%
X158760000Y-109935081D03*
D13*
%TO.P,"J1","2","Ext"*%
X159746000Y-109022081D03*
X158760000Y-107960081D03*
X157774000Y-108898081D03*
%TD*%
D10*
%TO.C,"TP1"*%
%TO.CFtp,"Castellation"*%
%TO.CVal,"TestPoint"*%
%TO.CLbN,"Headstage-64s"*%
%TO.CMnt,TH*%
%TO.CRot,90*%
X207946000Y-78022081D03*
D14*
X207071000Y-78647081D02*
X208821000Y-78647081D01*
X208821000Y-77397081D01*
X207071000Y-77397081D01*
X207071000Y-78647081D01*
D12*
%TO.P,"TP1","1","1"*%
X207946000Y-78022081D03*
%TD*%
D10*
%TO.C,"J1"*%
%TO.CFtp,"LINX_CONMHF4-SMD-G"*%
%TO.CVal,"Conn_Coaxial"*%
%TO.CLbN,"jonnew"*%
%TO.CMnt,SMD*%
%TO.CRot,0*%
X194746000Y-98022081D03*
D11*
X196045999Y-99372080D02*
X193446001Y-99372080D01*
X193446001Y-96672082D01*
X196045999Y-96672082D01*
X196045999Y-99372080D01*
D12*
%TO.P,"J1","1","In"*%
X194746000Y-98997081D03*
D13*
%TO.P,"J1","2","Ext"*%
X195732000Y-98084081D03*
X194746000Y-97022081D03*
X193760000Y-97960081D03*
%TD*%
D10*
%TO.C,"J1"*%
%TO.CFtp,"LINX_CONMHF4-SMD-G"*%
%TO.CVal,"Conn_Coaxial"*%
%TO.CLbN,"jonnew"*%
%TO.CMnt,SMD*%
%TO.CRot,0*%
X158746000Y-87022081D03*
D11*
X160045999Y-88372080D02*
X157446001Y-88372080D01*
X157446001Y-85672082D01*
X160045999Y-85672082D01*
X160045999Y-88372080D01*
D12*
%TO.P,"J1","1","In"*%
X158746000Y-87997081D03*
D13*
%TO.P,"J1","2","Ext"*%
X159732000Y-87084081D03*
X158746000Y-86022081D03*
X157760000Y-86960081D03*
%TD*%
D10*
%TO.C,"TP2"*%
%TO.CFtp,"Castellation"*%
%TO.CVal,"TestPoint"*%
%TO.CLbN,"Headstage-64s"*%
%TO.CMnt,TH*%
%TO.CRot,90*%
X205546000Y-67022081D03*
D14*
X204671000Y-67647081D02*
X206421000Y-67647081D01*
X206421000Y-66397081D01*
X204671000Y-66397081D01*
X204671000Y-67647081D01*
D12*
%TO.P,"TP2","1","1"*%
X205546000Y-67022081D03*
%TD*%
D10*
%TO.C,"J1"*%
%TO.CFtp,"LINX_CONMHF4-SMD-G"*%
%TO.CVal,"Conn_Coaxial"*%
%TO.CLbN,"jonnew"*%
%TO.CMnt,SMD*%
%TO.CRot,0*%
X170746000Y-87022081D03*
D11*
X172045999Y-88372080D02*
X169446001Y-88372080D01*
X169446001Y-85672082D01*
X172045999Y-85672082D01*
X172045999Y-88372080D01*
D12*
%TO.P,"J1","1","In"*%
X170746000Y-87997081D03*
D13*
%TO.P,"J1","2","Ext"*%
X171732000Y-87084081D03*
X170746000Y-86022081D03*
X169760000Y-86960081D03*
%TD*%
D10*
%TO.C,"TP1"*%
%TO.CFtp,"Castellation"*%
%TO.CVal,"TestPoint"*%
%TO.CLbN,"Headstage-64s"*%
%TO.CMnt,TH*%
%TO.CRot,90*%
X195946000Y-77984081D03*
D14*
X195071000Y-78609081D02*
X196821000Y-78609081D01*
X196821000Y-77359081D01*
X195071000Y-77359081D01*
X195071000Y-78609081D01*
D12*
%TO.P,"TP1","1","1"*%
X195946000Y-77984081D03*
%TD*%
D10*
%TO.C,"J1"*%
%TO.CFtp,"LINX_CONMHF4-SMD-G"*%
%TO.CVal,"Conn_Coaxial"*%
%TO.CLbN,"jonnew"*%
%TO.CMnt,SMD*%
%TO.CRot,0*%
X206760000Y-108998081D03*
D11*
X208059999Y-110348080D02*
X205460001Y-110348080D01*
X205460001Y-107648082D01*
X208059999Y-107648082D01*
X208059999Y-110348080D01*
D12*
%TO.P,"J1","1","In"*%
X206760000Y-109973081D03*
D13*
%TO.P,"J1","2","Ext"*%
X207746000Y-109060081D03*
X206760000Y-107998081D03*
X205774000Y-108936081D03*
%TD*%
D10*
%TO.C,"TP1"*%
%TO.CFtp,"Castellation"*%
%TO.CVal,"TestPoint"*%
%TO.CLbN,"Headstage-64s"*%
%TO.CMnt,TH*%
%TO.CRot,90*%
X171946000Y-77984081D03*
D14*
X171071000Y-78609081D02*
X172821000Y-78609081D01*
X172821000Y-77359081D01*
X171071000Y-77359081D01*
X171071000Y-78609081D01*
D12*
%TO.P,"TP1","1","1"*%
X171946000Y-77984081D03*
%TD*%
D10*
%TO.C,"J1"*%
%TO.CFtp,"LINX_CONMHF4-SMD-G"*%
%TO.CVal,"Conn_Coaxial"*%
%TO.CLbN,"jonnew"*%
%TO.CMnt,SMD*%
%TO.CRot,0*%
X170746000Y-98022081D03*
D11*
X172045999Y-99372080D02*
X169446001Y-99372080D01*
X169446001Y-96672082D01*
X172045999Y-96672082D01*
X172045999Y-99372080D01*
D12*
%TO.P,"J1","1","In"*%
X170746000Y-98997081D03*
D13*
%TO.P,"J1","2","Ext"*%
X171732000Y-98084081D03*
X170746000Y-97022081D03*
X169760000Y-97960081D03*
%TD*%
D10*
%TO.C,""*%
%TO.CFtp,"OE-LOGO-7X5"*%
%TO.CVal,""*%
%TO.CLbN,"jonnew-eagle"*%
%TO.CMnt,Other*%
%TO.CRot,0*%
X209820000Y-120638750D03*
%TD*%
%TO.C,"TP2"*%
%TO.CFtp,"Castellation"*%
%TO.CVal,"TestPoint"*%
%TO.CLbN,"Headstage-64s"*%
%TO.CMnt,TH*%
%TO.CRot,90*%
X205546000Y-78022081D03*
D14*
X204671000Y-78647081D02*
X206421000Y-78647081D01*
X206421000Y-77397081D01*
X204671000Y-77397081D01*
X204671000Y-78647081D01*
D12*
%TO.P,"TP2","1","1"*%
X205546000Y-78022081D03*
%TD*%
D10*
%TO.C,"TP2"*%
%TO.CFtp,"Castellation"*%
%TO.CVal,"TestPoint"*%
%TO.CLbN,"Headstage-64s"*%
%TO.CMnt,TH*%
%TO.CRot,90*%
X205546000Y-89022081D03*
D14*
X204671000Y-89647081D02*
X206421000Y-89647081D01*
X206421000Y-88397081D01*
X204671000Y-88397081D01*
X204671000Y-89647081D01*
D12*
%TO.P,"TP2","1","1"*%
X205546000Y-89022081D03*
%TD*%
D10*
%TO.C,"J1"*%
%TO.CFtp,"LINX_CONMHF4-SMD-G"*%
%TO.CVal,"Conn_Coaxial"*%
%TO.CLbN,"jonnew"*%
%TO.CMnt,SMD*%
%TO.CRot,0*%
X158746000Y-76022081D03*
D11*
X160045999Y-77372080D02*
X157446001Y-77372080D01*
X157446001Y-74672082D01*
X160045999Y-74672082D01*
X160045999Y-77372080D01*
D12*
%TO.P,"J1","1","In"*%
X158746000Y-76997081D03*
D13*
%TO.P,"J1","2","Ext"*%
X159732000Y-76084081D03*
X158746000Y-75022081D03*
X157760000Y-75960081D03*
%TD*%
D10*
%TO.C,"TP1"*%
%TO.CFtp,"Castellation"*%
%TO.CVal,"TestPoint"*%
%TO.CLbN,"Headstage-64s"*%
%TO.CMnt,TH*%
%TO.CRot,90*%
X159946000Y-88984081D03*
D14*
X159071000Y-89609081D02*
X160821000Y-89609081D01*
X160821000Y-88359081D01*
X159071000Y-88359081D01*
X159071000Y-89609081D01*
D12*
%TO.P,"TP1","1","1"*%
X159946000Y-88984081D03*
%TD*%
D10*
%TO.C,"TP2"*%
%TO.CFtp,"Castellation"*%
%TO.CVal,"TestPoint"*%
%TO.CLbN,"Headstage-64s"*%
%TO.CMnt,TH*%
%TO.CRot,90*%
X157546000Y-99984081D03*
D14*
X156671000Y-100609081D02*
X158421000Y-100609081D01*
X158421000Y-99359081D01*
X156671000Y-99359081D01*
X156671000Y-100609081D01*
D12*
%TO.P,"TP2","1","1"*%
X157546000Y-99984081D03*
%TD*%
D10*
%TO.C,"TP1"*%
%TO.CFtp,"Castellation"*%
%TO.CVal,"TestPoint"*%
%TO.CLbN,"Headstage-64s"*%
%TO.CMnt,TH*%
%TO.CRot,90*%
X195946000Y-88984081D03*
D14*
X195071000Y-89609081D02*
X196821000Y-89609081D01*
X196821000Y-88359081D01*
X195071000Y-88359081D01*
X195071000Y-89609081D01*
D12*
%TO.P,"TP1","1","1"*%
X195946000Y-88984081D03*
%TD*%
D10*
%TO.C,"TP2"*%
%TO.CFtp,"Castellation"*%
%TO.CVal,"TestPoint"*%
%TO.CLbN,"Headstage-64s"*%
%TO.CMnt,TH*%
%TO.CRot,90*%
X205546000Y-100022081D03*
D14*
X204671000Y-100647081D02*
X206421000Y-100647081D01*
X206421000Y-99397081D01*
X204671000Y-99397081D01*
X204671000Y-100647081D01*
D12*
%TO.P,"TP2","1","1"*%
X205546000Y-100022081D03*
%TD*%
D10*
%TO.C,"REF\u002A\u002A"*%
%TO.CFtp,"Fiducial_1mm_Mask2mm"*%
%TO.CVal,"Fiducial_1mm_Mask2mm"*%
%TO.CLbN,"Fiducial"*%
%TO.CMnt,SMD*%
%TO.CRot,0*%
X143200000Y-56850000D03*
D11*
X142025385Y-56422475D02*
X142242445Y-56046515D01*
X142575001Y-55767468D01*
X142982941Y-55618990D01*
X143417060Y-55618990D01*
X143417060Y-55618991D01*
X143825000Y-55767469D01*
X144157556Y-56046516D01*
X144374616Y-56422476D01*
X144449999Y-56850000D01*
X144374615Y-57277525D01*
X144157555Y-57653485D01*
X143824999Y-57932532D01*
X143417060Y-58081010D01*
X143417060Y-58081009D01*
X142982940Y-58081009D01*
X142575000Y-57932531D01*
X142242444Y-57653484D01*
X142025384Y-57277524D01*
X141950000Y-56850000D01*
X141950001Y-56850000D01*
X142025385Y-56422475D01*
D13*
%TO.P,"REF\u002A\u002A",*%
X143200000Y-56850000D03*
%TD*%
D10*
%TO.C,"TP2"*%
%TO.CFtp,"Castellation"*%
%TO.CVal,"TestPoint"*%
%TO.CLbN,"Headstage-64s"*%
%TO.CMnt,TH*%
%TO.CRot,90*%
X205560000Y-110960081D03*
D14*
X204685000Y-111585081D02*
X206435000Y-111585081D01*
X206435000Y-110335081D01*
X204685000Y-110335081D01*
X204685000Y-111585081D01*
D12*
%TO.P,"TP2","1","1"*%
X205560000Y-110960081D03*
%TD*%
D10*
%TO.C,"TP1"*%
%TO.CFtp,"Castellation"*%
%TO.CVal,"TestPoint"*%
%TO.CLbN,"Headstage-64s"*%
%TO.CMnt,TH*%
%TO.CRot,90*%
X183946000Y-99984081D03*
D14*
X183071000Y-100609081D02*
X184821000Y-100609081D01*
X184821000Y-99359081D01*
X183071000Y-99359081D01*
X183071000Y-100609081D01*
D12*
%TO.P,"TP1","1","1"*%
X183946000Y-99984081D03*
%TD*%
D10*
%TO.C,"TP1"*%
%TO.CFtp,"Castellation"*%
%TO.CVal,"TestPoint"*%
%TO.CLbN,"Headstage-64s"*%
%TO.CMnt,TH*%
%TO.CRot,90*%
X183946000Y-77984081D03*
D14*
X183071000Y-78609081D02*
X184821000Y-78609081D01*
X184821000Y-77359081D01*
X183071000Y-77359081D01*
X183071000Y-78609081D01*
D12*
%TO.P,"TP1","1","1"*%
X183946000Y-77984081D03*
%TD*%
D10*
%TO.C,"TP1"*%
%TO.CFtp,"Castellation"*%
%TO.CVal,"TestPoint"*%
%TO.CLbN,"Headstage-64s"*%
%TO.CMnt,TH*%
%TO.CRot,90*%
X159946000Y-77984081D03*
D14*
X159071000Y-78609081D02*
X160821000Y-78609081D01*
X160821000Y-77359081D01*
X159071000Y-77359081D01*
X159071000Y-78609081D01*
D12*
%TO.P,"TP1","1","1"*%
X159946000Y-77984081D03*
%TD*%
D10*
%TO.C,"TP1"*%
%TO.CFtp,"Castellation"*%
%TO.CVal,"TestPoint"*%
%TO.CLbN,"Headstage-64s"*%
%TO.CMnt,TH*%
%TO.CRot,90*%
X183946000Y-88984081D03*
D14*
X183071000Y-89609081D02*
X184821000Y-89609081D01*
X184821000Y-88359081D01*
X183071000Y-88359081D01*
X183071000Y-89609081D01*
D12*
%TO.P,"TP1","1","1"*%
X183946000Y-88984081D03*
%TD*%
M02*
