M48
; DRILL file {KiCad (6.0.0)} date Wed Dec  7 10:36:57 2022
; FORMAT={-:-/ absolute / inch / decimal}
; #@! TF.CreationDate,2022-12-07T10:36:57-05:00
; #@! TF.GenerationSoftware,Kicad,Pcbnew,(6.0.0)
; #@! TF.FileFunction,Plated,1,2,PTH
FMAT,2
INCH
; #@! TA.AperFunction,Plated,PTH,ViaDrill
T1C0.0079
; #@! TA.AperFunction,Plated,PTH,ViaDrill
T2C0.0157
; #@! TA.AperFunction,Plated,PTH,ComponentDrill
T3C0.0197
%
G90
G05
T1
X6.2105Y-2.5978
X6.2105Y-3.0309
X6.2105Y-3.4639
X6.2105Y-3.897
X6.211Y-4.3276
X6.2164Y-2.5166
X6.2164Y-2.9497
X6.2164Y-3.3828
X6.2164Y-3.8158
X6.2169Y-4.2465
X6.2833Y-2.5171
X6.2833Y-2.9502
X6.2833Y-3.3832
X6.2833Y-3.8163
X6.2839Y-4.2469
X6.2892Y-2.5978
X6.2892Y-3.0309
X6.2892Y-3.4639
X6.2892Y-3.897
X6.2898Y-4.3276
X6.6829Y-2.5978
X6.6829Y-3.0309
X6.6829Y-3.4639
X6.6829Y-3.897
X6.6835Y-4.3276
X6.6888Y-2.5166
X6.6888Y-2.9497
X6.6888Y-3.3828
X6.6888Y-3.8158
X6.6894Y-4.2465
X6.7557Y-2.5171
X6.7557Y-2.9502
X6.7557Y-3.3832
X6.7557Y-3.8163
X6.7563Y-4.2469
X6.7617Y-2.5978
X6.7617Y-3.0309
X6.7617Y-3.4639
X6.7617Y-3.897
X6.7622Y-4.3276
X7.1554Y-2.5978
X7.1554Y-3.0309
X7.1554Y-3.4639
X7.1554Y-3.897
X7.1559Y-4.3276
X7.1613Y-2.5166
X7.1613Y-2.9497
X7.1613Y-3.3828
X7.1613Y-3.8158
X7.1618Y-4.2465
X7.2282Y-2.5171
X7.2282Y-2.9502
X7.2282Y-3.3832
X7.2282Y-3.8163
X7.2287Y-4.2469
X7.2341Y-2.5978
X7.2341Y-3.0309
X7.2341Y-3.4639
X7.2341Y-3.897
X7.2346Y-4.3276
X7.6278Y-2.5978
X7.6278Y-3.0309
X7.6278Y-3.4639
X7.6278Y-3.897
X7.6283Y-4.3276
X7.6337Y-2.5166
X7.6337Y-2.9497
X7.6337Y-3.3828
X7.6337Y-3.8158
X7.6343Y-4.2465
X7.7006Y-2.5171
X7.7006Y-2.9502
X7.7006Y-3.3832
X7.7006Y-3.8163
X7.7012Y-4.2469
X7.7065Y-2.5978
X7.7065Y-3.0309
X7.7065Y-3.4639
X7.7065Y-3.897
X7.7071Y-4.3276
X8.1002Y-2.5993
X8.1002Y-3.0324
X8.1002Y-3.4654
X8.1002Y-3.8985
X8.1008Y-4.3291
X8.1061Y-2.5181
X8.1061Y-2.9512
X8.1061Y-3.3843
X8.1061Y-3.8173
X8.1067Y-4.248
X8.1731Y-2.5186
X8.1731Y-2.9517
X8.1731Y-3.3847
X8.1731Y-3.8178
X8.1736Y-4.2484
X8.179Y-2.5993
X8.179Y-3.0324
X8.179Y-3.4654
X8.179Y-3.8985
X8.1795Y-4.3291
T2
X5.737Y-3.0293
X5.8567Y-4.1717
X7.1953Y-4.6835
X7.2346Y-2.2425
X8.5339Y-2.5969
X8.6126Y-4.0142
T3
G00X6.1928Y-2.6372
M15
G01X6.2124Y-2.6372
M16
G05
G00X6.1928Y-3.0702
M15
G01X6.2124Y-3.0702
M16
G05
G00X6.1928Y-3.5033
M15
G01X6.2124Y-3.5033
M16
G05
G00X6.1928Y-3.9364
M15
G01X6.2124Y-3.9364
M16
G05
G00X6.1933Y-4.367
M15
G01X6.213Y-4.367
M16
G05
G00X6.2872Y-2.6372
M15
G01X6.3069Y-2.6372
M16
G05
G00X6.2872Y-3.0702
M15
G01X6.3069Y-3.0702
M16
G05
G00X6.2872Y-3.5033
M15
G01X6.3069Y-3.5033
M16
G05
G00X6.2872Y-3.9364
M15
G01X6.3069Y-3.9364
M16
G05
G00X6.2878Y-4.367
M15
G01X6.3075Y-4.367
M16
G05
G00X6.6652Y-2.6372
M15
G01X6.6849Y-2.6372
M16
G05
G00X6.6652Y-3.0702
M15
G01X6.6849Y-3.0702
M16
G05
G00X6.6652Y-3.5033
M15
G01X6.6849Y-3.5033
M16
G05
G00X6.6652Y-3.9364
M15
G01X6.6849Y-3.9364
M16
G05
G00X6.6657Y-4.367
M15
G01X6.6854Y-4.367
M16
G05
G00X6.7597Y-2.6372
M15
G01X6.7794Y-2.6372
M16
G05
G00X6.7597Y-3.0702
M15
G01X6.7794Y-3.0702
M16
G05
G00X6.7597Y-3.5033
M15
G01X6.7794Y-3.5033
M16
G05
G00X6.7597Y-3.9364
M15
G01X6.7794Y-3.9364
M16
G05
G00X6.7602Y-4.367
M15
G01X6.7799Y-4.367
M16
G05
G00X7.1376Y-2.6372
M15
G01X7.1573Y-2.6372
M16
G05
G00X7.1376Y-3.0702
M15
G01X7.1573Y-3.0702
M16
G05
G00X7.1376Y-3.5033
M15
G01X7.1573Y-3.5033
M16
G05
G00X7.1376Y-3.9364
M15
G01X7.1573Y-3.9364
M16
G05
G00X7.1382Y-4.367
M15
G01X7.1579Y-4.367
M16
G05
G00X7.2321Y-2.6372
M15
G01X7.2518Y-2.6372
M16
G05
G00X7.2321Y-3.0702
M15
G01X7.2518Y-3.0702
M16
G05
G00X7.2321Y-3.5033
M15
G01X7.2518Y-3.5033
M16
G05
G00X7.2321Y-3.9364
M15
G01X7.2518Y-3.9364
M16
G05
G00X7.2327Y-4.367
M15
G01X7.2524Y-4.367
M16
G05
G00X7.6101Y-2.6372
M15
G01X7.6298Y-2.6372
M16
G05
G00X7.6101Y-3.0702
M15
G01X7.6298Y-3.0702
M16
G05
G00X7.6101Y-3.5033
M15
G01X7.6298Y-3.5033
M16
G05
G00X7.6101Y-3.9364
M15
G01X7.6298Y-3.9364
M16
G05
G00X7.6106Y-4.367
M15
G01X7.6303Y-4.367
M16
G05
G00X7.7046Y-2.6372
M15
G01X7.7243Y-2.6372
M16
G05
G00X7.7046Y-3.0702
M15
G01X7.7243Y-3.0702
M16
G05
G00X7.7046Y-3.5033
M15
G01X7.7243Y-3.5033
M16
G05
G00X7.7046Y-3.9364
M15
G01X7.7243Y-3.9364
M16
G05
G00X7.7051Y-4.367
M15
G01X7.7248Y-4.367
M16
G05
G00X8.0825Y-2.6387
M15
G01X8.1022Y-2.6387
M16
G05
G00X8.0825Y-3.0717
M15
G01X8.1022Y-3.0717
M16
G05
G00X8.0825Y-3.5048
M15
G01X8.1022Y-3.5048
M16
G05
G00X8.0825Y-3.9379
M15
G01X8.1022Y-3.9379
M16
G05
G00X8.0831Y-4.3685
M15
G01X8.1028Y-4.3685
M16
G05
G00X8.177Y-2.6387
M15
G01X8.1967Y-2.6387
M16
G05
G00X8.177Y-3.0717
M15
G01X8.1967Y-3.0717
M16
G05
G00X8.177Y-3.5048
M15
G01X8.1967Y-3.5048
M16
G05
G00X8.177Y-3.9379
M15
G01X8.1967Y-3.9379
M16
G05
G00X8.1776Y-4.3685
M15
G01X8.1972Y-4.3685
M16
G05
T0
M30
