%TF.GenerationSoftware,KiCad,Pcbnew,(6.0.0)*%
%TF.CreationDate,2022-12-07T10:36:55-05:00*%
%TF.ProjectId,onix-coax-adapter-xfl-a_panel,6f6e6978-2d63-46f6-9178-2d6164617074,A*%
%TF.SameCoordinates,Original*%
%TF.FileFunction,AssemblyDrawing,Top*%
%FSLAX46Y46*%
G04 Gerber Fmt 4.6, Leading zero omitted, Abs format (unit mm)*
G04 Created by KiCad (PCBNEW (6.0.0)) date 2022-12-07 10:36:55*
%MOMM*%
%LPD*%
G01*
G04 APERTURE LIST*
%ADD10C,0.150000*%
%ADD11C,0.100000*%
G04 APERTURE END LIST*
D10*
%TO.C,J1*%
X170026666Y-108474461D02*
X170026666Y-109188747D01*
X169979047Y-109331604D01*
X169883809Y-109426842D01*
X169740952Y-109474461D01*
X169645714Y-109474461D01*
X171026666Y-109474461D02*
X170455238Y-109474461D01*
X170740952Y-109474461D02*
X170740952Y-108474461D01*
X170645714Y-108617319D01*
X170550476Y-108712557D01*
X170455238Y-108760176D01*
X194026666Y-108474461D02*
X194026666Y-109188747D01*
X193979047Y-109331604D01*
X193883809Y-109426842D01*
X193740952Y-109474461D01*
X193645714Y-109474461D01*
X195026666Y-109474461D02*
X194455238Y-109474461D01*
X194740952Y-109474461D02*
X194740952Y-108474461D01*
X194645714Y-108617319D01*
X194550476Y-108712557D01*
X194455238Y-108760176D01*
%TO.C,TP2*%
X168798380Y-90245985D02*
X168798380Y-89674557D01*
X169798380Y-89960271D02*
X168798380Y-89960271D01*
X169798380Y-89341223D02*
X168798380Y-89341223D01*
X168798380Y-88960271D01*
X168846000Y-88865033D01*
X168893619Y-88817414D01*
X168988857Y-88769795D01*
X169131714Y-88769795D01*
X169226952Y-88817414D01*
X169274571Y-88865033D01*
X169322190Y-88960271D01*
X169322190Y-89341223D01*
X168893619Y-88388842D02*
X168846000Y-88341223D01*
X168798380Y-88245985D01*
X168798380Y-88007890D01*
X168846000Y-87912652D01*
X168893619Y-87865033D01*
X168988857Y-87817414D01*
X169084095Y-87817414D01*
X169226952Y-87865033D01*
X169798380Y-88436461D01*
X169798380Y-87817414D01*
X156798380Y-79245985D02*
X156798380Y-78674557D01*
X157798380Y-78960271D02*
X156798380Y-78960271D01*
X157798380Y-78341223D02*
X156798380Y-78341223D01*
X156798380Y-77960271D01*
X156846000Y-77865033D01*
X156893619Y-77817414D01*
X156988857Y-77769795D01*
X157131714Y-77769795D01*
X157226952Y-77817414D01*
X157274571Y-77865033D01*
X157322190Y-77960271D01*
X157322190Y-78341223D01*
X156893619Y-77388842D02*
X156846000Y-77341223D01*
X156798380Y-77245985D01*
X156798380Y-77007890D01*
X156846000Y-76912652D01*
X156893619Y-76865033D01*
X156988857Y-76817414D01*
X157084095Y-76817414D01*
X157226952Y-76865033D01*
X157798380Y-77436461D01*
X157798380Y-76817414D01*
%TO.C,TP1*%
X171198380Y-101245985D02*
X171198380Y-100674557D01*
X172198380Y-100960271D02*
X171198380Y-100960271D01*
X172198380Y-100341223D02*
X171198380Y-100341223D01*
X171198380Y-99960271D01*
X171246000Y-99865033D01*
X171293619Y-99817414D01*
X171388857Y-99769795D01*
X171531714Y-99769795D01*
X171626952Y-99817414D01*
X171674571Y-99865033D01*
X171722190Y-99960271D01*
X171722190Y-100341223D01*
X172198380Y-98817414D02*
X172198380Y-99388842D01*
X172198380Y-99103128D02*
X171198380Y-99103128D01*
X171341238Y-99198366D01*
X171436476Y-99293604D01*
X171484095Y-99388842D01*
X207198380Y-90283985D02*
X207198380Y-89712557D01*
X208198380Y-89998271D02*
X207198380Y-89998271D01*
X208198380Y-89379223D02*
X207198380Y-89379223D01*
X207198380Y-88998271D01*
X207246000Y-88903033D01*
X207293619Y-88855414D01*
X207388857Y-88807795D01*
X207531714Y-88807795D01*
X207626952Y-88855414D01*
X207674571Y-88903033D01*
X207722190Y-88998271D01*
X207722190Y-89379223D01*
X208198380Y-87855414D02*
X208198380Y-88426842D01*
X208198380Y-88141128D02*
X207198380Y-88141128D01*
X207341238Y-88236366D01*
X207436476Y-88331604D01*
X207484095Y-88426842D01*
X159198380Y-101245985D02*
X159198380Y-100674557D01*
X160198380Y-100960271D02*
X159198380Y-100960271D01*
X160198380Y-100341223D02*
X159198380Y-100341223D01*
X159198380Y-99960271D01*
X159246000Y-99865033D01*
X159293619Y-99817414D01*
X159388857Y-99769795D01*
X159531714Y-99769795D01*
X159626952Y-99817414D01*
X159674571Y-99865033D01*
X159722190Y-99960271D01*
X159722190Y-100341223D01*
X160198380Y-98817414D02*
X160198380Y-99388842D01*
X160198380Y-99103128D02*
X159198380Y-99103128D01*
X159341238Y-99198366D01*
X159436476Y-99293604D01*
X159484095Y-99388842D01*
%TO.C,J1*%
X170426666Y-75274461D02*
X170426666Y-75988747D01*
X170379047Y-76131604D01*
X170283809Y-76226842D01*
X170140952Y-76274461D01*
X170045714Y-76274461D01*
X171426666Y-76274461D02*
X170855238Y-76274461D01*
X171140952Y-76274461D02*
X171140952Y-75274461D01*
X171045714Y-75417319D01*
X170950476Y-75512557D01*
X170855238Y-75560176D01*
%TO.C,TP2*%
X156812380Y-112183985D02*
X156812380Y-111612557D01*
X157812380Y-111898271D02*
X156812380Y-111898271D01*
X157812380Y-111279223D02*
X156812380Y-111279223D01*
X156812380Y-110898271D01*
X156860000Y-110803033D01*
X156907619Y-110755414D01*
X157002857Y-110707795D01*
X157145714Y-110707795D01*
X157240952Y-110755414D01*
X157288571Y-110803033D01*
X157336190Y-110898271D01*
X157336190Y-111279223D01*
X156907619Y-110326842D02*
X156860000Y-110279223D01*
X156812380Y-110183985D01*
X156812380Y-109945890D01*
X156860000Y-109850652D01*
X156907619Y-109803033D01*
X157002857Y-109755414D01*
X157098095Y-109755414D01*
X157240952Y-109803033D01*
X157812380Y-110374461D01*
X157812380Y-109755414D01*
%TO.C,TP1*%
X195198380Y-101245985D02*
X195198380Y-100674557D01*
X196198380Y-100960271D02*
X195198380Y-100960271D01*
X196198380Y-100341223D02*
X195198380Y-100341223D01*
X195198380Y-99960271D01*
X195246000Y-99865033D01*
X195293619Y-99817414D01*
X195388857Y-99769795D01*
X195531714Y-99769795D01*
X195626952Y-99817414D01*
X195674571Y-99865033D01*
X195722190Y-99960271D01*
X195722190Y-100341223D01*
X196198380Y-98817414D02*
X196198380Y-99388842D01*
X196198380Y-99103128D02*
X195198380Y-99103128D01*
X195341238Y-99198366D01*
X195436476Y-99293604D01*
X195484095Y-99388842D01*
%TO.C,J1*%
X194426666Y-75274461D02*
X194426666Y-75988747D01*
X194379047Y-76131604D01*
X194283809Y-76226842D01*
X194140952Y-76274461D01*
X194045714Y-76274461D01*
X195426666Y-76274461D02*
X194855238Y-76274461D01*
X195140952Y-76274461D02*
X195140952Y-75274461D01*
X195045714Y-75417319D01*
X194950476Y-75512557D01*
X194855238Y-75560176D01*
%TO.C,TP2*%
X180798380Y-90245985D02*
X180798380Y-89674557D01*
X181798380Y-89960271D02*
X180798380Y-89960271D01*
X181798380Y-89341223D02*
X180798380Y-89341223D01*
X180798380Y-88960271D01*
X180846000Y-88865033D01*
X180893619Y-88817414D01*
X180988857Y-88769795D01*
X181131714Y-88769795D01*
X181226952Y-88817414D01*
X181274571Y-88865033D01*
X181322190Y-88960271D01*
X181322190Y-89341223D01*
X180893619Y-88388842D02*
X180846000Y-88341223D01*
X180798380Y-88245985D01*
X180798380Y-88007890D01*
X180846000Y-87912652D01*
X180893619Y-87865033D01*
X180988857Y-87817414D01*
X181084095Y-87817414D01*
X181226952Y-87865033D01*
X181798380Y-88436461D01*
X181798380Y-87817414D01*
%TO.C,TP1*%
X159198380Y-68245985D02*
X159198380Y-67674557D01*
X160198380Y-67960271D02*
X159198380Y-67960271D01*
X160198380Y-67341223D02*
X159198380Y-67341223D01*
X159198380Y-66960271D01*
X159246000Y-66865033D01*
X159293619Y-66817414D01*
X159388857Y-66769795D01*
X159531714Y-66769795D01*
X159626952Y-66817414D01*
X159674571Y-66865033D01*
X159722190Y-66960271D01*
X159722190Y-67341223D01*
X160198380Y-65817414D02*
X160198380Y-66388842D01*
X160198380Y-66103128D02*
X159198380Y-66103128D01*
X159341238Y-66198366D01*
X159436476Y-66293604D01*
X159484095Y-66388842D01*
%TO.C,TP2*%
X168798380Y-101245985D02*
X168798380Y-100674557D01*
X169798380Y-100960271D02*
X168798380Y-100960271D01*
X169798380Y-100341223D02*
X168798380Y-100341223D01*
X168798380Y-99960271D01*
X168846000Y-99865033D01*
X168893619Y-99817414D01*
X168988857Y-99769795D01*
X169131714Y-99769795D01*
X169226952Y-99817414D01*
X169274571Y-99865033D01*
X169322190Y-99960271D01*
X169322190Y-100341223D01*
X168893619Y-99388842D02*
X168846000Y-99341223D01*
X168798380Y-99245985D01*
X168798380Y-99007890D01*
X168846000Y-98912652D01*
X168893619Y-98865033D01*
X168988857Y-98817414D01*
X169084095Y-98817414D01*
X169226952Y-98865033D01*
X169798380Y-99436461D01*
X169798380Y-98817414D01*
%TO.C,TP1*%
X159212380Y-112183985D02*
X159212380Y-111612557D01*
X160212380Y-111898271D02*
X159212380Y-111898271D01*
X160212380Y-111279223D02*
X159212380Y-111279223D01*
X159212380Y-110898271D01*
X159260000Y-110803033D01*
X159307619Y-110755414D01*
X159402857Y-110707795D01*
X159545714Y-110707795D01*
X159640952Y-110755414D01*
X159688571Y-110803033D01*
X159736190Y-110898271D01*
X159736190Y-111279223D01*
X160212380Y-109755414D02*
X160212380Y-110326842D01*
X160212380Y-110041128D02*
X159212380Y-110041128D01*
X159355238Y-110136366D01*
X159450476Y-110231604D01*
X159498095Y-110326842D01*
%TO.C,TP2*%
X180798380Y-68245985D02*
X180798380Y-67674557D01*
X181798380Y-67960271D02*
X180798380Y-67960271D01*
X181798380Y-67341223D02*
X180798380Y-67341223D01*
X180798380Y-66960271D01*
X180846000Y-66865033D01*
X180893619Y-66817414D01*
X180988857Y-66769795D01*
X181131714Y-66769795D01*
X181226952Y-66817414D01*
X181274571Y-66865033D01*
X181322190Y-66960271D01*
X181322190Y-67341223D01*
X180893619Y-66388842D02*
X180846000Y-66341223D01*
X180798380Y-66245985D01*
X180798380Y-66007890D01*
X180846000Y-65912652D01*
X180893619Y-65865033D01*
X180988857Y-65817414D01*
X181084095Y-65817414D01*
X181226952Y-65865033D01*
X181798380Y-66436461D01*
X181798380Y-65817414D01*
%TO.C,J1*%
X182426666Y-75274461D02*
X182426666Y-75988747D01*
X182379047Y-76131604D01*
X182283809Y-76226842D01*
X182140952Y-76274461D01*
X182045714Y-76274461D01*
X183426666Y-76274461D02*
X182855238Y-76274461D01*
X183140952Y-76274461D02*
X183140952Y-75274461D01*
X183045714Y-75417319D01*
X182950476Y-75512557D01*
X182855238Y-75560176D01*
%TO.C,TP1*%
X207198380Y-101283985D02*
X207198380Y-100712557D01*
X208198380Y-100998271D02*
X207198380Y-100998271D01*
X208198380Y-100379223D02*
X207198380Y-100379223D01*
X207198380Y-99998271D01*
X207246000Y-99903033D01*
X207293619Y-99855414D01*
X207388857Y-99807795D01*
X207531714Y-99807795D01*
X207626952Y-99855414D01*
X207674571Y-99903033D01*
X207722190Y-99998271D01*
X207722190Y-100379223D01*
X208198380Y-98855414D02*
X208198380Y-99426842D01*
X208198380Y-99141128D02*
X207198380Y-99141128D01*
X207341238Y-99236366D01*
X207436476Y-99331604D01*
X207484095Y-99426842D01*
%TO.C,J1*%
X182026666Y-108474461D02*
X182026666Y-109188747D01*
X181979047Y-109331604D01*
X181883809Y-109426842D01*
X181740952Y-109474461D01*
X181645714Y-109474461D01*
X183026666Y-109474461D02*
X182455238Y-109474461D01*
X182740952Y-109474461D02*
X182740952Y-108474461D01*
X182645714Y-108617319D01*
X182550476Y-108712557D01*
X182455238Y-108760176D01*
%TO.C,TP2*%
X168812380Y-112183985D02*
X168812380Y-111612557D01*
X169812380Y-111898271D02*
X168812380Y-111898271D01*
X169812380Y-111279223D02*
X168812380Y-111279223D01*
X168812380Y-110898271D01*
X168860000Y-110803033D01*
X168907619Y-110755414D01*
X169002857Y-110707795D01*
X169145714Y-110707795D01*
X169240952Y-110755414D01*
X169288571Y-110803033D01*
X169336190Y-110898271D01*
X169336190Y-111279223D01*
X168907619Y-110326842D02*
X168860000Y-110279223D01*
X168812380Y-110183985D01*
X168812380Y-109945890D01*
X168860000Y-109850652D01*
X168907619Y-109803033D01*
X169002857Y-109755414D01*
X169098095Y-109755414D01*
X169240952Y-109803033D01*
X169812380Y-110374461D01*
X169812380Y-109755414D01*
X192798380Y-79245985D02*
X192798380Y-78674557D01*
X193798380Y-78960271D02*
X192798380Y-78960271D01*
X193798380Y-78341223D02*
X192798380Y-78341223D01*
X192798380Y-77960271D01*
X192846000Y-77865033D01*
X192893619Y-77817414D01*
X192988857Y-77769795D01*
X193131714Y-77769795D01*
X193226952Y-77817414D01*
X193274571Y-77865033D01*
X193322190Y-77960271D01*
X193322190Y-78341223D01*
X192893619Y-77388842D02*
X192846000Y-77341223D01*
X192798380Y-77245985D01*
X192798380Y-77007890D01*
X192846000Y-76912652D01*
X192893619Y-76865033D01*
X192988857Y-76817414D01*
X193084095Y-76817414D01*
X193226952Y-76865033D01*
X193798380Y-77436461D01*
X193798380Y-76817414D01*
X156798380Y-90245985D02*
X156798380Y-89674557D01*
X157798380Y-89960271D02*
X156798380Y-89960271D01*
X157798380Y-89341223D02*
X156798380Y-89341223D01*
X156798380Y-88960271D01*
X156846000Y-88865033D01*
X156893619Y-88817414D01*
X156988857Y-88769795D01*
X157131714Y-88769795D01*
X157226952Y-88817414D01*
X157274571Y-88865033D01*
X157322190Y-88960271D01*
X157322190Y-89341223D01*
X156893619Y-88388842D02*
X156846000Y-88341223D01*
X156798380Y-88245985D01*
X156798380Y-88007890D01*
X156846000Y-87912652D01*
X156893619Y-87865033D01*
X156988857Y-87817414D01*
X157084095Y-87817414D01*
X157226952Y-87865033D01*
X157798380Y-88436461D01*
X157798380Y-87817414D01*
%TO.C,TP1*%
X207612380Y-112021985D02*
X207612380Y-111450557D01*
X208612380Y-111736271D02*
X207612380Y-111736271D01*
X208612380Y-111117223D02*
X207612380Y-111117223D01*
X207612380Y-110736271D01*
X207660000Y-110641033D01*
X207707619Y-110593414D01*
X207802857Y-110545795D01*
X207945714Y-110545795D01*
X208040952Y-110593414D01*
X208088571Y-110641033D01*
X208136190Y-110736271D01*
X208136190Y-111117223D01*
X208612380Y-109593414D02*
X208612380Y-110164842D01*
X208612380Y-109879128D02*
X207612380Y-109879128D01*
X207755238Y-109974366D01*
X207850476Y-110069604D01*
X207898095Y-110164842D01*
X171198380Y-90245985D02*
X171198380Y-89674557D01*
X172198380Y-89960271D02*
X171198380Y-89960271D01*
X172198380Y-89341223D02*
X171198380Y-89341223D01*
X171198380Y-88960271D01*
X171246000Y-88865033D01*
X171293619Y-88817414D01*
X171388857Y-88769795D01*
X171531714Y-88769795D01*
X171626952Y-88817414D01*
X171674571Y-88865033D01*
X171722190Y-88960271D01*
X171722190Y-89341223D01*
X172198380Y-87817414D02*
X172198380Y-88388842D01*
X172198380Y-88103128D02*
X171198380Y-88103128D01*
X171341238Y-88198366D01*
X171436476Y-88293604D01*
X171484095Y-88388842D01*
%TO.C,J1*%
X194326666Y-64374461D02*
X194326666Y-65088747D01*
X194279047Y-65231604D01*
X194183809Y-65326842D01*
X194040952Y-65374461D01*
X193945714Y-65374461D01*
X195326666Y-65374461D02*
X194755238Y-65374461D01*
X195040952Y-65374461D02*
X195040952Y-64374461D01*
X194945714Y-64517319D01*
X194850476Y-64612557D01*
X194755238Y-64660176D01*
X182326666Y-86274461D02*
X182326666Y-86988747D01*
X182279047Y-87131604D01*
X182183809Y-87226842D01*
X182040952Y-87274461D01*
X181945714Y-87274461D01*
X183326666Y-87274461D02*
X182755238Y-87274461D01*
X183040952Y-87274461D02*
X183040952Y-86274461D01*
X182945714Y-86417319D01*
X182850476Y-86512557D01*
X182755238Y-86560176D01*
%TO.C,TP1*%
X171198380Y-68245985D02*
X171198380Y-67674557D01*
X172198380Y-67960271D02*
X171198380Y-67960271D01*
X172198380Y-67341223D02*
X171198380Y-67341223D01*
X171198380Y-66960271D01*
X171246000Y-66865033D01*
X171293619Y-66817414D01*
X171388857Y-66769795D01*
X171531714Y-66769795D01*
X171626952Y-66817414D01*
X171674571Y-66865033D01*
X171722190Y-66960271D01*
X171722190Y-67341223D01*
X172198380Y-65817414D02*
X172198380Y-66388842D01*
X172198380Y-66103128D02*
X171198380Y-66103128D01*
X171341238Y-66198366D01*
X171436476Y-66293604D01*
X171484095Y-66388842D01*
%TO.C,TP2*%
X180798380Y-101245985D02*
X180798380Y-100674557D01*
X181798380Y-100960271D02*
X180798380Y-100960271D01*
X181798380Y-100341223D02*
X180798380Y-100341223D01*
X180798380Y-99960271D01*
X180846000Y-99865033D01*
X180893619Y-99817414D01*
X180988857Y-99769795D01*
X181131714Y-99769795D01*
X181226952Y-99817414D01*
X181274571Y-99865033D01*
X181322190Y-99960271D01*
X181322190Y-100341223D01*
X180893619Y-99388842D02*
X180846000Y-99341223D01*
X180798380Y-99245985D01*
X180798380Y-99007890D01*
X180846000Y-98912652D01*
X180893619Y-98865033D01*
X180988857Y-98817414D01*
X181084095Y-98817414D01*
X181226952Y-98865033D01*
X181798380Y-99436461D01*
X181798380Y-98817414D01*
%TO.C,J1*%
X158426666Y-97274461D02*
X158426666Y-97988747D01*
X158379047Y-98131604D01*
X158283809Y-98226842D01*
X158140952Y-98274461D01*
X158045714Y-98274461D01*
X159426666Y-98274461D02*
X158855238Y-98274461D01*
X159140952Y-98274461D02*
X159140952Y-97274461D01*
X159045714Y-97417319D01*
X158950476Y-97512557D01*
X158855238Y-97560176D01*
X182426666Y-97274461D02*
X182426666Y-97988747D01*
X182379047Y-98131604D01*
X182283809Y-98226842D01*
X182140952Y-98274461D01*
X182045714Y-98274461D01*
X183426666Y-98274461D02*
X182855238Y-98274461D01*
X183140952Y-98274461D02*
X183140952Y-97274461D01*
X183045714Y-97417319D01*
X182950476Y-97512557D01*
X182855238Y-97560176D01*
%TO.C,TP2*%
X180812380Y-112183985D02*
X180812380Y-111612557D01*
X181812380Y-111898271D02*
X180812380Y-111898271D01*
X181812380Y-111279223D02*
X180812380Y-111279223D01*
X180812380Y-110898271D01*
X180860000Y-110803033D01*
X180907619Y-110755414D01*
X181002857Y-110707795D01*
X181145714Y-110707795D01*
X181240952Y-110755414D01*
X181288571Y-110803033D01*
X181336190Y-110898271D01*
X181336190Y-111279223D01*
X180907619Y-110326842D02*
X180860000Y-110279223D01*
X180812380Y-110183985D01*
X180812380Y-109945890D01*
X180860000Y-109850652D01*
X180907619Y-109803033D01*
X181002857Y-109755414D01*
X181098095Y-109755414D01*
X181240952Y-109803033D01*
X181812380Y-110374461D01*
X181812380Y-109755414D01*
%TO.C,J1*%
X206426666Y-97312461D02*
X206426666Y-98026747D01*
X206379047Y-98169604D01*
X206283809Y-98264842D01*
X206140952Y-98312461D01*
X206045714Y-98312461D01*
X207426666Y-98312461D02*
X206855238Y-98312461D01*
X207140952Y-98312461D02*
X207140952Y-97312461D01*
X207045714Y-97455319D01*
X206950476Y-97550557D01*
X206855238Y-97598176D01*
%TO.C,TP2*%
X180798380Y-79245985D02*
X180798380Y-78674557D01*
X181798380Y-78960271D02*
X180798380Y-78960271D01*
X181798380Y-78341223D02*
X180798380Y-78341223D01*
X180798380Y-77960271D01*
X180846000Y-77865033D01*
X180893619Y-77817414D01*
X180988857Y-77769795D01*
X181131714Y-77769795D01*
X181226952Y-77817414D01*
X181274571Y-77865033D01*
X181322190Y-77960271D01*
X181322190Y-78341223D01*
X180893619Y-77388842D02*
X180846000Y-77341223D01*
X180798380Y-77245985D01*
X180798380Y-77007890D01*
X180846000Y-76912652D01*
X180893619Y-76865033D01*
X180988857Y-76817414D01*
X181084095Y-76817414D01*
X181226952Y-76865033D01*
X181798380Y-77436461D01*
X181798380Y-76817414D01*
%TO.C,TP1*%
X171212380Y-112183985D02*
X171212380Y-111612557D01*
X172212380Y-111898271D02*
X171212380Y-111898271D01*
X172212380Y-111279223D02*
X171212380Y-111279223D01*
X171212380Y-110898271D01*
X171260000Y-110803033D01*
X171307619Y-110755414D01*
X171402857Y-110707795D01*
X171545714Y-110707795D01*
X171640952Y-110755414D01*
X171688571Y-110803033D01*
X171736190Y-110898271D01*
X171736190Y-111279223D01*
X172212380Y-109755414D02*
X172212380Y-110326842D01*
X172212380Y-110041128D02*
X171212380Y-110041128D01*
X171355238Y-110136366D01*
X171450476Y-110231604D01*
X171498095Y-110326842D01*
X195198380Y-68245985D02*
X195198380Y-67674557D01*
X196198380Y-67960271D02*
X195198380Y-67960271D01*
X196198380Y-67341223D02*
X195198380Y-67341223D01*
X195198380Y-66960271D01*
X195246000Y-66865033D01*
X195293619Y-66817414D01*
X195388857Y-66769795D01*
X195531714Y-66769795D01*
X195626952Y-66817414D01*
X195674571Y-66865033D01*
X195722190Y-66960271D01*
X195722190Y-67341223D01*
X196198380Y-65817414D02*
X196198380Y-66388842D01*
X196198380Y-66103128D02*
X195198380Y-66103128D01*
X195341238Y-66198366D01*
X195436476Y-66293604D01*
X195484095Y-66388842D01*
%TO.C,TP2*%
X192798380Y-90245985D02*
X192798380Y-89674557D01*
X193798380Y-89960271D02*
X192798380Y-89960271D01*
X193798380Y-89341223D02*
X192798380Y-89341223D01*
X192798380Y-88960271D01*
X192846000Y-88865033D01*
X192893619Y-88817414D01*
X192988857Y-88769795D01*
X193131714Y-88769795D01*
X193226952Y-88817414D01*
X193274571Y-88865033D01*
X193322190Y-88960271D01*
X193322190Y-89341223D01*
X192893619Y-88388842D02*
X192846000Y-88341223D01*
X192798380Y-88245985D01*
X192798380Y-88007890D01*
X192846000Y-87912652D01*
X192893619Y-87865033D01*
X192988857Y-87817414D01*
X193084095Y-87817414D01*
X193226952Y-87865033D01*
X193798380Y-88436461D01*
X193798380Y-87817414D01*
%TO.C,J1*%
X158326666Y-64374461D02*
X158326666Y-65088747D01*
X158279047Y-65231604D01*
X158183809Y-65326842D01*
X158040952Y-65374461D01*
X157945714Y-65374461D01*
X159326666Y-65374461D02*
X158755238Y-65374461D01*
X159040952Y-65374461D02*
X159040952Y-64374461D01*
X158945714Y-64517319D01*
X158850476Y-64612557D01*
X158755238Y-64660176D01*
X170326666Y-64374461D02*
X170326666Y-65088747D01*
X170279047Y-65231604D01*
X170183809Y-65326842D01*
X170040952Y-65374461D01*
X169945714Y-65374461D01*
X171326666Y-65374461D02*
X170755238Y-65374461D01*
X171040952Y-65374461D02*
X171040952Y-64374461D01*
X170945714Y-64517319D01*
X170850476Y-64612557D01*
X170755238Y-64660176D01*
%TO.C,TP2*%
X168798380Y-68245985D02*
X168798380Y-67674557D01*
X169798380Y-67960271D02*
X168798380Y-67960271D01*
X169798380Y-67341223D02*
X168798380Y-67341223D01*
X168798380Y-66960271D01*
X168846000Y-66865033D01*
X168893619Y-66817414D01*
X168988857Y-66769795D01*
X169131714Y-66769795D01*
X169226952Y-66817414D01*
X169274571Y-66865033D01*
X169322190Y-66960271D01*
X169322190Y-67341223D01*
X168893619Y-66388842D02*
X168846000Y-66341223D01*
X168798380Y-66245985D01*
X168798380Y-66007890D01*
X168846000Y-65912652D01*
X168893619Y-65865033D01*
X168988857Y-65817414D01*
X169084095Y-65817414D01*
X169226952Y-65865033D01*
X169798380Y-66436461D01*
X169798380Y-65817414D01*
X192812380Y-112183985D02*
X192812380Y-111612557D01*
X193812380Y-111898271D02*
X192812380Y-111898271D01*
X193812380Y-111279223D02*
X192812380Y-111279223D01*
X192812380Y-110898271D01*
X192860000Y-110803033D01*
X192907619Y-110755414D01*
X193002857Y-110707795D01*
X193145714Y-110707795D01*
X193240952Y-110755414D01*
X193288571Y-110803033D01*
X193336190Y-110898271D01*
X193336190Y-111279223D01*
X192907619Y-110326842D02*
X192860000Y-110279223D01*
X192812380Y-110183985D01*
X192812380Y-109945890D01*
X192860000Y-109850652D01*
X192907619Y-109803033D01*
X193002857Y-109755414D01*
X193098095Y-109755414D01*
X193240952Y-109803033D01*
X193812380Y-110374461D01*
X193812380Y-109755414D01*
%TO.C,J1*%
X182326666Y-64374461D02*
X182326666Y-65088747D01*
X182279047Y-65231604D01*
X182183809Y-65326842D01*
X182040952Y-65374461D01*
X181945714Y-65374461D01*
X183326666Y-65374461D02*
X182755238Y-65374461D01*
X183040952Y-65374461D02*
X183040952Y-64374461D01*
X182945714Y-64517319D01*
X182850476Y-64612557D01*
X182755238Y-64660176D01*
%TO.C,TP1*%
X207198380Y-68283985D02*
X207198380Y-67712557D01*
X208198380Y-67998271D02*
X207198380Y-67998271D01*
X208198380Y-67379223D02*
X207198380Y-67379223D01*
X207198380Y-66998271D01*
X207246000Y-66903033D01*
X207293619Y-66855414D01*
X207388857Y-66807795D01*
X207531714Y-66807795D01*
X207626952Y-66855414D01*
X207674571Y-66903033D01*
X207722190Y-66998271D01*
X207722190Y-67379223D01*
X208198380Y-65855414D02*
X208198380Y-66426842D01*
X208198380Y-66141128D02*
X207198380Y-66141128D01*
X207341238Y-66236366D01*
X207436476Y-66331604D01*
X207484095Y-66426842D01*
%TO.C,J1*%
X206326666Y-86312461D02*
X206326666Y-87026747D01*
X206279047Y-87169604D01*
X206183809Y-87264842D01*
X206040952Y-87312461D01*
X205945714Y-87312461D01*
X207326666Y-87312461D02*
X206755238Y-87312461D01*
X207040952Y-87312461D02*
X207040952Y-86312461D01*
X206945714Y-86455319D01*
X206850476Y-86550557D01*
X206755238Y-86598176D01*
%TO.C,TP1*%
X183198380Y-68245985D02*
X183198380Y-67674557D01*
X184198380Y-67960271D02*
X183198380Y-67960271D01*
X184198380Y-67341223D02*
X183198380Y-67341223D01*
X183198380Y-66960271D01*
X183246000Y-66865033D01*
X183293619Y-66817414D01*
X183388857Y-66769795D01*
X183531714Y-66769795D01*
X183626952Y-66817414D01*
X183674571Y-66865033D01*
X183722190Y-66960271D01*
X183722190Y-67341223D01*
X184198380Y-65817414D02*
X184198380Y-66388842D01*
X184198380Y-66103128D02*
X183198380Y-66103128D01*
X183341238Y-66198366D01*
X183436476Y-66293604D01*
X183484095Y-66388842D01*
%TO.C,J1*%
X206426666Y-75312461D02*
X206426666Y-76026747D01*
X206379047Y-76169604D01*
X206283809Y-76264842D01*
X206140952Y-76312461D01*
X206045714Y-76312461D01*
X207426666Y-76312461D02*
X206855238Y-76312461D01*
X207140952Y-76312461D02*
X207140952Y-75312461D01*
X207045714Y-75455319D01*
X206950476Y-75550557D01*
X206855238Y-75598176D01*
%TO.C,TP2*%
X192798380Y-101245985D02*
X192798380Y-100674557D01*
X193798380Y-100960271D02*
X192798380Y-100960271D01*
X193798380Y-100341223D02*
X192798380Y-100341223D01*
X192798380Y-99960271D01*
X192846000Y-99865033D01*
X192893619Y-99817414D01*
X192988857Y-99769795D01*
X193131714Y-99769795D01*
X193226952Y-99817414D01*
X193274571Y-99865033D01*
X193322190Y-99960271D01*
X193322190Y-100341223D01*
X192893619Y-99388842D02*
X192846000Y-99341223D01*
X192798380Y-99245985D01*
X192798380Y-99007890D01*
X192846000Y-98912652D01*
X192893619Y-98865033D01*
X192988857Y-98817414D01*
X193084095Y-98817414D01*
X193226952Y-98865033D01*
X193798380Y-99436461D01*
X193798380Y-98817414D01*
X192798380Y-68245985D02*
X192798380Y-67674557D01*
X193798380Y-67960271D02*
X192798380Y-67960271D01*
X193798380Y-67341223D02*
X192798380Y-67341223D01*
X192798380Y-66960271D01*
X192846000Y-66865033D01*
X192893619Y-66817414D01*
X192988857Y-66769795D01*
X193131714Y-66769795D01*
X193226952Y-66817414D01*
X193274571Y-66865033D01*
X193322190Y-66960271D01*
X193322190Y-67341223D01*
X192893619Y-66388842D02*
X192846000Y-66341223D01*
X192798380Y-66245985D01*
X192798380Y-66007890D01*
X192846000Y-65912652D01*
X192893619Y-65865033D01*
X192988857Y-65817414D01*
X193084095Y-65817414D01*
X193226952Y-65865033D01*
X193798380Y-66436461D01*
X193798380Y-65817414D01*
%TO.C,J1*%
X194326666Y-86274461D02*
X194326666Y-86988747D01*
X194279047Y-87131604D01*
X194183809Y-87226842D01*
X194040952Y-87274461D01*
X193945714Y-87274461D01*
X195326666Y-87274461D02*
X194755238Y-87274461D01*
X195040952Y-87274461D02*
X195040952Y-86274461D01*
X194945714Y-86417319D01*
X194850476Y-86512557D01*
X194755238Y-86560176D01*
%TO.C,TP2*%
X168798380Y-79245985D02*
X168798380Y-78674557D01*
X169798380Y-78960271D02*
X168798380Y-78960271D01*
X169798380Y-78341223D02*
X168798380Y-78341223D01*
X168798380Y-77960271D01*
X168846000Y-77865033D01*
X168893619Y-77817414D01*
X168988857Y-77769795D01*
X169131714Y-77769795D01*
X169226952Y-77817414D01*
X169274571Y-77865033D01*
X169322190Y-77960271D01*
X169322190Y-78341223D01*
X168893619Y-77388842D02*
X168846000Y-77341223D01*
X168798380Y-77245985D01*
X168798380Y-77007890D01*
X168846000Y-76912652D01*
X168893619Y-76865033D01*
X168988857Y-76817414D01*
X169084095Y-76817414D01*
X169226952Y-76865033D01*
X169798380Y-77436461D01*
X169798380Y-76817414D01*
X156798380Y-68245985D02*
X156798380Y-67674557D01*
X157798380Y-67960271D02*
X156798380Y-67960271D01*
X157798380Y-67341223D02*
X156798380Y-67341223D01*
X156798380Y-66960271D01*
X156846000Y-66865033D01*
X156893619Y-66817414D01*
X156988857Y-66769795D01*
X157131714Y-66769795D01*
X157226952Y-66817414D01*
X157274571Y-66865033D01*
X157322190Y-66960271D01*
X157322190Y-67341223D01*
X156893619Y-66388842D02*
X156846000Y-66341223D01*
X156798380Y-66245985D01*
X156798380Y-66007890D01*
X156846000Y-65912652D01*
X156893619Y-65865033D01*
X156988857Y-65817414D01*
X157084095Y-65817414D01*
X157226952Y-65865033D01*
X157798380Y-66436461D01*
X157798380Y-65817414D01*
%TO.C,TP1*%
X183212380Y-112183985D02*
X183212380Y-111612557D01*
X184212380Y-111898271D02*
X183212380Y-111898271D01*
X184212380Y-111279223D02*
X183212380Y-111279223D01*
X183212380Y-110898271D01*
X183260000Y-110803033D01*
X183307619Y-110755414D01*
X183402857Y-110707795D01*
X183545714Y-110707795D01*
X183640952Y-110755414D01*
X183688571Y-110803033D01*
X183736190Y-110898271D01*
X183736190Y-111279223D01*
X184212380Y-109755414D02*
X184212380Y-110326842D01*
X184212380Y-110041128D02*
X183212380Y-110041128D01*
X183355238Y-110136366D01*
X183450476Y-110231604D01*
X183498095Y-110326842D01*
%TO.C,J1*%
X206326666Y-64412461D02*
X206326666Y-65126747D01*
X206279047Y-65269604D01*
X206183809Y-65364842D01*
X206040952Y-65412461D01*
X205945714Y-65412461D01*
X207326666Y-65412461D02*
X206755238Y-65412461D01*
X207040952Y-65412461D02*
X207040952Y-64412461D01*
X206945714Y-64555319D01*
X206850476Y-64650557D01*
X206755238Y-64698176D01*
%TO.C,TP1*%
X195212380Y-112183985D02*
X195212380Y-111612557D01*
X196212380Y-111898271D02*
X195212380Y-111898271D01*
X196212380Y-111279223D02*
X195212380Y-111279223D01*
X195212380Y-110898271D01*
X195260000Y-110803033D01*
X195307619Y-110755414D01*
X195402857Y-110707795D01*
X195545714Y-110707795D01*
X195640952Y-110755414D01*
X195688571Y-110803033D01*
X195736190Y-110898271D01*
X195736190Y-111279223D01*
X196212380Y-109755414D02*
X196212380Y-110326842D01*
X196212380Y-110041128D02*
X195212380Y-110041128D01*
X195355238Y-110136366D01*
X195450476Y-110231604D01*
X195498095Y-110326842D01*
%TO.C,J1*%
X158026666Y-108474461D02*
X158026666Y-109188747D01*
X157979047Y-109331604D01*
X157883809Y-109426842D01*
X157740952Y-109474461D01*
X157645714Y-109474461D01*
X159026666Y-109474461D02*
X158455238Y-109474461D01*
X158740952Y-109474461D02*
X158740952Y-108474461D01*
X158645714Y-108617319D01*
X158550476Y-108712557D01*
X158455238Y-108760176D01*
%TO.C,TP1*%
X207198380Y-79283985D02*
X207198380Y-78712557D01*
X208198380Y-78998271D02*
X207198380Y-78998271D01*
X208198380Y-78379223D02*
X207198380Y-78379223D01*
X207198380Y-77998271D01*
X207246000Y-77903033D01*
X207293619Y-77855414D01*
X207388857Y-77807795D01*
X207531714Y-77807795D01*
X207626952Y-77855414D01*
X207674571Y-77903033D01*
X207722190Y-77998271D01*
X207722190Y-78379223D01*
X208198380Y-76855414D02*
X208198380Y-77426842D01*
X208198380Y-77141128D02*
X207198380Y-77141128D01*
X207341238Y-77236366D01*
X207436476Y-77331604D01*
X207484095Y-77426842D01*
%TO.C,J1*%
X194426666Y-97274461D02*
X194426666Y-97988747D01*
X194379047Y-98131604D01*
X194283809Y-98226842D01*
X194140952Y-98274461D01*
X194045714Y-98274461D01*
X195426666Y-98274461D02*
X194855238Y-98274461D01*
X195140952Y-98274461D02*
X195140952Y-97274461D01*
X195045714Y-97417319D01*
X194950476Y-97512557D01*
X194855238Y-97560176D01*
X158326666Y-86274461D02*
X158326666Y-86988747D01*
X158279047Y-87131604D01*
X158183809Y-87226842D01*
X158040952Y-87274461D01*
X157945714Y-87274461D01*
X159326666Y-87274461D02*
X158755238Y-87274461D01*
X159040952Y-87274461D02*
X159040952Y-86274461D01*
X158945714Y-86417319D01*
X158850476Y-86512557D01*
X158755238Y-86560176D01*
%TO.C,TP2*%
X204798380Y-68283985D02*
X204798380Y-67712557D01*
X205798380Y-67998271D02*
X204798380Y-67998271D01*
X205798380Y-67379223D02*
X204798380Y-67379223D01*
X204798380Y-66998271D01*
X204846000Y-66903033D01*
X204893619Y-66855414D01*
X204988857Y-66807795D01*
X205131714Y-66807795D01*
X205226952Y-66855414D01*
X205274571Y-66903033D01*
X205322190Y-66998271D01*
X205322190Y-67379223D01*
X204893619Y-66426842D02*
X204846000Y-66379223D01*
X204798380Y-66283985D01*
X204798380Y-66045890D01*
X204846000Y-65950652D01*
X204893619Y-65903033D01*
X204988857Y-65855414D01*
X205084095Y-65855414D01*
X205226952Y-65903033D01*
X205798380Y-66474461D01*
X205798380Y-65855414D01*
%TO.C,J1*%
X170326666Y-86274461D02*
X170326666Y-86988747D01*
X170279047Y-87131604D01*
X170183809Y-87226842D01*
X170040952Y-87274461D01*
X169945714Y-87274461D01*
X171326666Y-87274461D02*
X170755238Y-87274461D01*
X171040952Y-87274461D02*
X171040952Y-86274461D01*
X170945714Y-86417319D01*
X170850476Y-86512557D01*
X170755238Y-86560176D01*
%TO.C,TP1*%
X195198380Y-79245985D02*
X195198380Y-78674557D01*
X196198380Y-78960271D02*
X195198380Y-78960271D01*
X196198380Y-78341223D02*
X195198380Y-78341223D01*
X195198380Y-77960271D01*
X195246000Y-77865033D01*
X195293619Y-77817414D01*
X195388857Y-77769795D01*
X195531714Y-77769795D01*
X195626952Y-77817414D01*
X195674571Y-77865033D01*
X195722190Y-77960271D01*
X195722190Y-78341223D01*
X196198380Y-76817414D02*
X196198380Y-77388842D01*
X196198380Y-77103128D02*
X195198380Y-77103128D01*
X195341238Y-77198366D01*
X195436476Y-77293604D01*
X195484095Y-77388842D01*
%TO.C,J1*%
X206426666Y-108312461D02*
X206426666Y-109026747D01*
X206379047Y-109169604D01*
X206283809Y-109264842D01*
X206140952Y-109312461D01*
X206045714Y-109312461D01*
X207426666Y-109312461D02*
X206855238Y-109312461D01*
X207140952Y-109312461D02*
X207140952Y-108312461D01*
X207045714Y-108455319D01*
X206950476Y-108550557D01*
X206855238Y-108598176D01*
%TO.C,TP1*%
X171198380Y-79245985D02*
X171198380Y-78674557D01*
X172198380Y-78960271D02*
X171198380Y-78960271D01*
X172198380Y-78341223D02*
X171198380Y-78341223D01*
X171198380Y-77960271D01*
X171246000Y-77865033D01*
X171293619Y-77817414D01*
X171388857Y-77769795D01*
X171531714Y-77769795D01*
X171626952Y-77817414D01*
X171674571Y-77865033D01*
X171722190Y-77960271D01*
X171722190Y-78341223D01*
X172198380Y-76817414D02*
X172198380Y-77388842D01*
X172198380Y-77103128D02*
X171198380Y-77103128D01*
X171341238Y-77198366D01*
X171436476Y-77293604D01*
X171484095Y-77388842D01*
%TO.C,J1*%
X170426666Y-97274461D02*
X170426666Y-97988747D01*
X170379047Y-98131604D01*
X170283809Y-98226842D01*
X170140952Y-98274461D01*
X170045714Y-98274461D01*
X171426666Y-98274461D02*
X170855238Y-98274461D01*
X171140952Y-98274461D02*
X171140952Y-97274461D01*
X171045714Y-97417319D01*
X170950476Y-97512557D01*
X170855238Y-97560176D01*
%TO.C,TP2*%
X204798380Y-79283985D02*
X204798380Y-78712557D01*
X205798380Y-78998271D02*
X204798380Y-78998271D01*
X205798380Y-78379223D02*
X204798380Y-78379223D01*
X204798380Y-77998271D01*
X204846000Y-77903033D01*
X204893619Y-77855414D01*
X204988857Y-77807795D01*
X205131714Y-77807795D01*
X205226952Y-77855414D01*
X205274571Y-77903033D01*
X205322190Y-77998271D01*
X205322190Y-78379223D01*
X204893619Y-77426842D02*
X204846000Y-77379223D01*
X204798380Y-77283985D01*
X204798380Y-77045890D01*
X204846000Y-76950652D01*
X204893619Y-76903033D01*
X204988857Y-76855414D01*
X205084095Y-76855414D01*
X205226952Y-76903033D01*
X205798380Y-77474461D01*
X205798380Y-76855414D01*
X204798380Y-90283985D02*
X204798380Y-89712557D01*
X205798380Y-89998271D02*
X204798380Y-89998271D01*
X205798380Y-89379223D02*
X204798380Y-89379223D01*
X204798380Y-88998271D01*
X204846000Y-88903033D01*
X204893619Y-88855414D01*
X204988857Y-88807795D01*
X205131714Y-88807795D01*
X205226952Y-88855414D01*
X205274571Y-88903033D01*
X205322190Y-88998271D01*
X205322190Y-89379223D01*
X204893619Y-88426842D02*
X204846000Y-88379223D01*
X204798380Y-88283985D01*
X204798380Y-88045890D01*
X204846000Y-87950652D01*
X204893619Y-87903033D01*
X204988857Y-87855414D01*
X205084095Y-87855414D01*
X205226952Y-87903033D01*
X205798380Y-88474461D01*
X205798380Y-87855414D01*
%TO.C,J1*%
X158426666Y-75274461D02*
X158426666Y-75988747D01*
X158379047Y-76131604D01*
X158283809Y-76226842D01*
X158140952Y-76274461D01*
X158045714Y-76274461D01*
X159426666Y-76274461D02*
X158855238Y-76274461D01*
X159140952Y-76274461D02*
X159140952Y-75274461D01*
X159045714Y-75417319D01*
X158950476Y-75512557D01*
X158855238Y-75560176D01*
%TO.C,TP1*%
X159198380Y-90245985D02*
X159198380Y-89674557D01*
X160198380Y-89960271D02*
X159198380Y-89960271D01*
X160198380Y-89341223D02*
X159198380Y-89341223D01*
X159198380Y-88960271D01*
X159246000Y-88865033D01*
X159293619Y-88817414D01*
X159388857Y-88769795D01*
X159531714Y-88769795D01*
X159626952Y-88817414D01*
X159674571Y-88865033D01*
X159722190Y-88960271D01*
X159722190Y-89341223D01*
X160198380Y-87817414D02*
X160198380Y-88388842D01*
X160198380Y-88103128D02*
X159198380Y-88103128D01*
X159341238Y-88198366D01*
X159436476Y-88293604D01*
X159484095Y-88388842D01*
%TO.C,TP2*%
X156798380Y-101245985D02*
X156798380Y-100674557D01*
X157798380Y-100960271D02*
X156798380Y-100960271D01*
X157798380Y-100341223D02*
X156798380Y-100341223D01*
X156798380Y-99960271D01*
X156846000Y-99865033D01*
X156893619Y-99817414D01*
X156988857Y-99769795D01*
X157131714Y-99769795D01*
X157226952Y-99817414D01*
X157274571Y-99865033D01*
X157322190Y-99960271D01*
X157322190Y-100341223D01*
X156893619Y-99388842D02*
X156846000Y-99341223D01*
X156798380Y-99245985D01*
X156798380Y-99007890D01*
X156846000Y-98912652D01*
X156893619Y-98865033D01*
X156988857Y-98817414D01*
X157084095Y-98817414D01*
X157226952Y-98865033D01*
X157798380Y-99436461D01*
X157798380Y-98817414D01*
%TO.C,TP1*%
X195198380Y-90245985D02*
X195198380Y-89674557D01*
X196198380Y-89960271D02*
X195198380Y-89960271D01*
X196198380Y-89341223D02*
X195198380Y-89341223D01*
X195198380Y-88960271D01*
X195246000Y-88865033D01*
X195293619Y-88817414D01*
X195388857Y-88769795D01*
X195531714Y-88769795D01*
X195626952Y-88817414D01*
X195674571Y-88865033D01*
X195722190Y-88960271D01*
X195722190Y-89341223D01*
X196198380Y-87817414D02*
X196198380Y-88388842D01*
X196198380Y-88103128D02*
X195198380Y-88103128D01*
X195341238Y-88198366D01*
X195436476Y-88293604D01*
X195484095Y-88388842D01*
%TO.C,TP2*%
X204798380Y-101283985D02*
X204798380Y-100712557D01*
X205798380Y-100998271D02*
X204798380Y-100998271D01*
X205798380Y-100379223D02*
X204798380Y-100379223D01*
X204798380Y-99998271D01*
X204846000Y-99903033D01*
X204893619Y-99855414D01*
X204988857Y-99807795D01*
X205131714Y-99807795D01*
X205226952Y-99855414D01*
X205274571Y-99903033D01*
X205322190Y-99998271D01*
X205322190Y-100379223D01*
X204893619Y-99426842D02*
X204846000Y-99379223D01*
X204798380Y-99283985D01*
X204798380Y-99045890D01*
X204846000Y-98950652D01*
X204893619Y-98903033D01*
X204988857Y-98855414D01*
X205084095Y-98855414D01*
X205226952Y-98903033D01*
X205798380Y-99474461D01*
X205798380Y-98855414D01*
X205212380Y-112021985D02*
X205212380Y-111450557D01*
X206212380Y-111736271D02*
X205212380Y-111736271D01*
X206212380Y-111117223D02*
X205212380Y-111117223D01*
X205212380Y-110736271D01*
X205260000Y-110641033D01*
X205307619Y-110593414D01*
X205402857Y-110545795D01*
X205545714Y-110545795D01*
X205640952Y-110593414D01*
X205688571Y-110641033D01*
X205736190Y-110736271D01*
X205736190Y-111117223D01*
X205307619Y-110164842D02*
X205260000Y-110117223D01*
X205212380Y-110021985D01*
X205212380Y-109783890D01*
X205260000Y-109688652D01*
X205307619Y-109641033D01*
X205402857Y-109593414D01*
X205498095Y-109593414D01*
X205640952Y-109641033D01*
X206212380Y-110212461D01*
X206212380Y-109593414D01*
%TO.C,TP1*%
X183198380Y-101245985D02*
X183198380Y-100674557D01*
X184198380Y-100960271D02*
X183198380Y-100960271D01*
X184198380Y-100341223D02*
X183198380Y-100341223D01*
X183198380Y-99960271D01*
X183246000Y-99865033D01*
X183293619Y-99817414D01*
X183388857Y-99769795D01*
X183531714Y-99769795D01*
X183626952Y-99817414D01*
X183674571Y-99865033D01*
X183722190Y-99960271D01*
X183722190Y-100341223D01*
X184198380Y-98817414D02*
X184198380Y-99388842D01*
X184198380Y-99103128D02*
X183198380Y-99103128D01*
X183341238Y-99198366D01*
X183436476Y-99293604D01*
X183484095Y-99388842D01*
X183198380Y-79245985D02*
X183198380Y-78674557D01*
X184198380Y-78960271D02*
X183198380Y-78960271D01*
X184198380Y-78341223D02*
X183198380Y-78341223D01*
X183198380Y-77960271D01*
X183246000Y-77865033D01*
X183293619Y-77817414D01*
X183388857Y-77769795D01*
X183531714Y-77769795D01*
X183626952Y-77817414D01*
X183674571Y-77865033D01*
X183722190Y-77960271D01*
X183722190Y-78341223D01*
X184198380Y-76817414D02*
X184198380Y-77388842D01*
X184198380Y-77103128D02*
X183198380Y-77103128D01*
X183341238Y-77198366D01*
X183436476Y-77293604D01*
X183484095Y-77388842D01*
X159198380Y-79245985D02*
X159198380Y-78674557D01*
X160198380Y-78960271D02*
X159198380Y-78960271D01*
X160198380Y-78341223D02*
X159198380Y-78341223D01*
X159198380Y-77960271D01*
X159246000Y-77865033D01*
X159293619Y-77817414D01*
X159388857Y-77769795D01*
X159531714Y-77769795D01*
X159626952Y-77817414D01*
X159674571Y-77865033D01*
X159722190Y-77960271D01*
X159722190Y-78341223D01*
X160198380Y-76817414D02*
X160198380Y-77388842D01*
X160198380Y-77103128D02*
X159198380Y-77103128D01*
X159341238Y-77198366D01*
X159436476Y-77293604D01*
X159484095Y-77388842D01*
X183198380Y-90245985D02*
X183198380Y-89674557D01*
X184198380Y-89960271D02*
X183198380Y-89960271D01*
X184198380Y-89341223D02*
X183198380Y-89341223D01*
X183198380Y-88960271D01*
X183246000Y-88865033D01*
X183293619Y-88817414D01*
X183388857Y-88769795D01*
X183531714Y-88769795D01*
X183626952Y-88817414D01*
X183674571Y-88865033D01*
X183722190Y-88960271D01*
X183722190Y-89341223D01*
X184198380Y-87817414D02*
X184198380Y-88388842D01*
X184198380Y-88103128D02*
X183198380Y-88103128D01*
X183341238Y-88198366D01*
X183436476Y-88293604D01*
X183484095Y-88388842D01*
D11*
%TO.C,REF\u002A\u002A*%
X144200000Y-56850000D02*
G75*
G03*
X144200000Y-56850000I-1000000J0D01*
G01*
%TD*%
M02*
