G04 EAGLE Gerber RS-274X export*
G75*
%MOMM*%
%FSLAX34Y34*%
%LPD*%
%INSolderpaste Bottom*%
%IPPOS*%
%AMOC8*
5,1,8,0,0,1.08239X$1,22.5*%
G01*
%ADD10R,0.700000X1.300000*%
%ADD11R,0.300000X0.400000*%
%ADD12R,0.600000X0.350000*%


D10*
X42800Y24080D03*
X22800Y24080D03*
D11*
X12800Y9900D03*
X6800Y9900D03*
D12*
X15300Y21550D03*
X15300Y15050D03*
D10*
X152800Y24080D03*
X132800Y24080D03*
D11*
X122800Y9900D03*
X116800Y9900D03*
D12*
X125300Y21550D03*
X125300Y15050D03*
D10*
X262800Y24080D03*
X242800Y24080D03*
D11*
X232800Y9900D03*
X226800Y9900D03*
D12*
X235300Y21550D03*
X235300Y15050D03*
D10*
X372800Y24080D03*
X352800Y24080D03*
D11*
X342800Y9900D03*
X336800Y9900D03*
D12*
X345300Y21550D03*
X345300Y15050D03*
D10*
X42800Y134080D03*
X22800Y134080D03*
D11*
X12800Y119900D03*
X6800Y119900D03*
D12*
X15300Y131550D03*
X15300Y125050D03*
D10*
X152800Y134080D03*
X132800Y134080D03*
D11*
X122800Y119900D03*
X116800Y119900D03*
D12*
X125300Y131550D03*
X125300Y125050D03*
D10*
X262800Y134080D03*
X242800Y134080D03*
D11*
X232800Y119900D03*
X226800Y119900D03*
D12*
X235300Y131550D03*
X235300Y125050D03*
D10*
X372800Y134080D03*
X352800Y134080D03*
D11*
X342800Y119900D03*
X336800Y119900D03*
D12*
X345300Y131550D03*
X345300Y125050D03*
D10*
X42800Y244080D03*
X22800Y244080D03*
D11*
X12800Y229900D03*
X6800Y229900D03*
D12*
X15300Y241550D03*
X15300Y235050D03*
D10*
X152800Y244080D03*
X132800Y244080D03*
D11*
X122800Y229900D03*
X116800Y229900D03*
D12*
X125300Y241550D03*
X125300Y235050D03*
D10*
X262800Y244080D03*
X242800Y244080D03*
D11*
X232800Y229900D03*
X226800Y229900D03*
D12*
X235300Y241550D03*
X235300Y235050D03*
D10*
X372800Y244080D03*
X352800Y244080D03*
D11*
X342800Y229900D03*
X336800Y229900D03*
D12*
X345300Y241550D03*
X345300Y235050D03*
D10*
X42800Y354080D03*
X22800Y354080D03*
D11*
X12800Y339900D03*
X6800Y339900D03*
D12*
X15300Y351550D03*
X15300Y345050D03*
D10*
X152800Y354080D03*
X132800Y354080D03*
D11*
X122800Y339900D03*
X116800Y339900D03*
D12*
X125300Y351550D03*
X125300Y345050D03*
D10*
X262800Y354080D03*
X242800Y354080D03*
D11*
X232800Y339900D03*
X226800Y339900D03*
D12*
X235300Y351550D03*
X235300Y345050D03*
D10*
X372800Y354080D03*
X352800Y354080D03*
D11*
X342800Y339900D03*
X336800Y339900D03*
D12*
X345300Y351550D03*
X345300Y345050D03*
M02*
