%TF.GenerationSoftware,KiCad,Pcbnew,(6.0.0)*%
%TF.CreationDate,2022-12-07T10:36:55-05:00*%
%TF.ProjectId,onix-coax-adapter-xfl-a_panel,6f6e6978-2d63-46f6-9178-2d6164617074,A*%
%TF.SameCoordinates,Original*%
%TF.FileFunction,Soldermask,Top*%
%TF.FilePolarity,Negative*%
%FSLAX46Y46*%
G04 Gerber Fmt 4.6, Leading zero omitted, Abs format (unit mm)*
G04 Created by KiCad (PCBNEW (6.0.0)) date 2022-12-07 10:36:55*
%MOMM*%
%LPD*%
G01*
G04 APERTURE LIST*
G04 Aperture macros list*
%AMRoundRect*
0 Rectangle with rounded corners*
0 $1 Rounding radius*
0 $2 $3 $4 $5 $6 $7 $8 $9 X,Y pos of 4 corners*
0 Add a 4 corners polygon primitive as box body*
4,1,4,$2,$3,$4,$5,$6,$7,$8,$9,$2,$3,0*
0 Add four circle primitives for the rounded corners*
1,1,$1+$1,$2,$3*
1,1,$1+$1,$4,$5*
1,1,$1+$1,$6,$7*
1,1,$1+$1,$8,$9*
0 Add four rect primitives between the rounded corners*
20,1,$1+$1,$2,$3,$4,$5,0*
20,1,$1+$1,$4,$5,$6,$7,0*
20,1,$1+$1,$6,$7,$8,$9,0*
20,1,$1+$1,$8,$9,$2,$3,0*%
%AMFreePoly0*
4,1,9,0.200000,-0.700000,-0.316000,-0.700000,-0.316000,-0.220000,-0.236000,-0.140000,-0.236000,0.260000,-0.316000,0.340000,-0.316000,0.824000,0.200000,0.824000,0.200000,-0.700000,0.200000,-0.700000,$1*%
G04 Aperture macros list end*
%ADD10C,0.180000*%
%ADD11C,0.275000*%
%ADD12R,0.600000X0.550000*%
%ADD13FreePoly0,0.000000*%
%ADD14R,0.500000X0.500000*%
%ADD15FreePoly0,180.000000*%
%ADD16RoundRect,0.312500X0.562500X-0.312500X0.562500X0.312500X-0.562500X0.312500X-0.562500X-0.312500X0*%
%ADD17C,2.000000*%
G04 APERTURE END LIST*
D10*
%TO.C,*%
X208440000Y-121098750D02*
X208320000Y-121098750D01*
X213490000Y-122008750D02*
X213450000Y-121988750D01*
X206700000Y-121978750D02*
X206820000Y-121978750D01*
X211440000Y-121798750D02*
X211440000Y-121278750D01*
X213370000Y-121348750D02*
X213410000Y-121408750D01*
X206520000Y-121278750D02*
X206520000Y-121798750D01*
X207330000Y-121098750D02*
X207330000Y-121978750D01*
X210340000Y-121978750D02*
X210520000Y-121978750D01*
D11*
X208920000Y-117938750D02*
X210720000Y-120438750D01*
D10*
X213360000Y-121298750D02*
X213370000Y-121348750D01*
X207330000Y-121988750D02*
X207330000Y-122508750D01*
D11*
X210120000Y-117238750D02*
X211020000Y-119438750D01*
D10*
X213660000Y-121058750D02*
X213540000Y-121058750D01*
X210960000Y-121988750D02*
X210960000Y-122508750D01*
D11*
X211020000Y-119438750D02*
X208920000Y-117938750D01*
D10*
X212720000Y-122378750D02*
X212650000Y-122478750D01*
X208200000Y-121538750D02*
X208620000Y-121538750D01*
X210220000Y-121538750D02*
X210640000Y-121538750D01*
X207630000Y-121098750D02*
X207330000Y-121098750D01*
X208620000Y-121298750D02*
X208620000Y-121538750D01*
X213450000Y-121988750D02*
X213400000Y-121958750D01*
D11*
X207620000Y-119138750D02*
X211020000Y-119438750D01*
D10*
X211260000Y-121098750D02*
X210960000Y-121098750D01*
X213700000Y-121628750D02*
X213540000Y-121508750D01*
X213400000Y-121958750D02*
X213380000Y-121928750D01*
X213410000Y-121408750D02*
X213570000Y-121528750D01*
X210960000Y-121978750D02*
X211260000Y-121978750D01*
X208960000Y-121098750D02*
X208960000Y-121978750D01*
D11*
X210720000Y-120438750D02*
X207620000Y-119138750D01*
D10*
X211800000Y-121968750D02*
X211800000Y-120548750D01*
X210960000Y-121098750D02*
X210960000Y-121978750D01*
X212560000Y-122498750D02*
X212510000Y-122498750D01*
X207810000Y-121798750D02*
X207810000Y-121278750D01*
X209440000Y-121978750D02*
X209440000Y-121278750D01*
X212650000Y-122478750D02*
X212560000Y-122498750D01*
X208320000Y-121978750D02*
X208500000Y-121978750D01*
X209260000Y-121098750D02*
X208960000Y-121098750D01*
X213790000Y-121718750D02*
X213700000Y-121628750D01*
X213500000Y-122008750D02*
X213620000Y-122008750D01*
X212100000Y-121098750D02*
X211870000Y-121098750D01*
D11*
X207620000Y-119138750D02*
X208920000Y-117938750D01*
D10*
X212290000Y-121978750D02*
X212280000Y-121278750D01*
D11*
X210720000Y-120438750D02*
X211020000Y-119438750D01*
D10*
X207330000Y-121978750D02*
X207630000Y-121978750D01*
X206820000Y-121098750D02*
X206700000Y-121098750D01*
X213380000Y-121928750D02*
X213380000Y-121908750D01*
X213800000Y-121768750D02*
X213790000Y-121718750D01*
X213150000Y-121008750D02*
X212730000Y-122358750D01*
X208140000Y-121278750D02*
X208140000Y-121798750D01*
X212510000Y-121008750D02*
X212840000Y-121968750D01*
X210160000Y-121278750D02*
X210160000Y-121798750D01*
X207000000Y-121798750D02*
X207000000Y-121278750D01*
X210460000Y-121098750D02*
X210340000Y-121098750D01*
X213800000Y-121818750D02*
X213800000Y-121768750D01*
X213760000Y-121108750D02*
X213780000Y-121138750D01*
X213780000Y-121138750D02*
X213780000Y-121158750D01*
X210640000Y-121298750D02*
X210640000Y-121538750D01*
X213670000Y-121058750D02*
X213710000Y-121078750D01*
X213710000Y-121078750D02*
X213760000Y-121108750D01*
X213360000Y-121248750D02*
X213360000Y-121298750D01*
D11*
X210720000Y-120438750D02*
X210120000Y-117238750D01*
D10*
X207810000Y-121278750D02*
G75*
G03*
X207630000Y-121098750I-180001J-1D01*
G01*
X208140000Y-121798750D02*
G75*
G03*
X208320000Y-121978750I180001J1D01*
G01*
X206700000Y-121098750D02*
G75*
G03*
X206520000Y-121278750I1J-180001D01*
G01*
X208620000Y-121278750D02*
G75*
G03*
X208440000Y-121098750I-180001J-1D01*
G01*
X210520000Y-121978750D02*
G75*
G03*
X210590000Y-121908750I-2J70002D01*
G01*
X209440000Y-121278750D02*
G75*
G03*
X209260000Y-121098750I-180001J-1D01*
G01*
X207000000Y-121278750D02*
G75*
G03*
X206820000Y-121098750I-180001J-1D01*
G01*
X210640000Y-121278750D02*
G75*
G03*
X210460000Y-121098750I-180001J-1D01*
G01*
X210160000Y-121798750D02*
G75*
G03*
X210340000Y-121978750I180001J1D01*
G01*
X213620000Y-122008750D02*
G75*
G03*
X213800000Y-121828750I-1J180001D01*
G01*
X211440000Y-121278750D02*
G75*
G03*
X211260000Y-121098750I-180001J-1D01*
G01*
X207630000Y-121978750D02*
G75*
G03*
X207810000Y-121798750I-1J180001D01*
G01*
X206820000Y-121978750D02*
G75*
G03*
X207000000Y-121798750I-1J180001D01*
G01*
X210340000Y-121098750D02*
G75*
G03*
X210160000Y-121278750I1J-180001D01*
G01*
X213540000Y-121058750D02*
G75*
G03*
X213360000Y-121238750I1J-180001D01*
G01*
X206520000Y-121798750D02*
G75*
G03*
X206700000Y-121978750I180001J1D01*
G01*
X212280000Y-121278750D02*
G75*
G03*
X212100000Y-121098750I-180001J-1D01*
G01*
X208500000Y-121978750D02*
G75*
G03*
X208570000Y-121908750I-2J70002D01*
G01*
X211260000Y-121978750D02*
G75*
G03*
X211440000Y-121798750I-1J180001D01*
G01*
X208320000Y-121098750D02*
G75*
G03*
X208140000Y-121278750I1J-180001D01*
G01*
%TD*%
D12*
%TO.C,J1*%
X170760000Y-109935081D03*
D13*
X171746000Y-109022081D03*
D14*
X170760000Y-107960081D03*
D15*
X169774000Y-108898081D03*
%TD*%
D12*
%TO.C,J1*%
X194760000Y-109935081D03*
D13*
X195746000Y-109022081D03*
D14*
X194760000Y-107960081D03*
D15*
X193774000Y-108898081D03*
%TD*%
D16*
%TO.C,TP2*%
X169546000Y-88984081D03*
%TD*%
%TO.C,TP2*%
X157546000Y-77984081D03*
%TD*%
%TO.C,TP1*%
X171946000Y-99984081D03*
%TD*%
%TO.C,TP1*%
X207946000Y-89022081D03*
%TD*%
%TO.C,TP1*%
X159946000Y-99984081D03*
%TD*%
D12*
%TO.C,J1*%
X170746000Y-76997081D03*
D13*
X171732000Y-76084081D03*
D14*
X170746000Y-75022081D03*
D15*
X169760000Y-75960081D03*
%TD*%
D16*
%TO.C,TP2*%
X157560000Y-110922081D03*
%TD*%
%TO.C,TP1*%
X195946000Y-99984081D03*
%TD*%
D12*
%TO.C,J1*%
X194746000Y-76997081D03*
D13*
X195732000Y-76084081D03*
D14*
X194746000Y-75022081D03*
D15*
X193760000Y-75960081D03*
%TD*%
D16*
%TO.C,TP2*%
X181546000Y-88984081D03*
%TD*%
D17*
%TO.C,*%
X221200000Y-54850000D03*
%TD*%
D16*
%TO.C,TP1*%
X159946000Y-66984081D03*
%TD*%
%TO.C,TP2*%
X169546000Y-99984081D03*
%TD*%
%TO.C,TP1*%
X159960000Y-110922081D03*
%TD*%
%TO.C,TP2*%
X181546000Y-66984081D03*
%TD*%
D12*
%TO.C,J1*%
X182746000Y-76997081D03*
D13*
X183732000Y-76084081D03*
D14*
X182746000Y-75022081D03*
D15*
X181760000Y-75960081D03*
%TD*%
D16*
%TO.C,TP1*%
X207946000Y-100022081D03*
%TD*%
D12*
%TO.C,J1*%
X182760000Y-109935081D03*
D13*
X183746000Y-109022081D03*
D14*
X182760000Y-107960081D03*
D15*
X181774000Y-108898081D03*
%TD*%
D16*
%TO.C,TP2*%
X169560000Y-110922081D03*
%TD*%
%TO.C,TP2*%
X193546000Y-77984081D03*
%TD*%
%TO.C,TP2*%
X157546000Y-88984081D03*
%TD*%
D17*
%TO.C,*%
X143200000Y-120850000D03*
%TD*%
D16*
%TO.C,TP1*%
X207960000Y-110960081D03*
%TD*%
%TO.C,TP1*%
X171946000Y-88984081D03*
%TD*%
D12*
%TO.C,J1*%
X194746000Y-65997081D03*
D13*
X195732000Y-65084081D03*
D14*
X194746000Y-64022081D03*
D15*
X193760000Y-64960081D03*
%TD*%
D12*
%TO.C,J1*%
X182746000Y-87997081D03*
D13*
X183732000Y-87084081D03*
D14*
X182746000Y-86022081D03*
D15*
X181760000Y-86960081D03*
%TD*%
D16*
%TO.C,TP1*%
X171946000Y-66984081D03*
%TD*%
%TO.C,TP2*%
X181546000Y-99984081D03*
%TD*%
D12*
%TO.C,J1*%
X158746000Y-98997081D03*
D13*
X159732000Y-98084081D03*
D14*
X158746000Y-97022081D03*
D15*
X157760000Y-97960081D03*
%TD*%
D12*
%TO.C,J1*%
X182746000Y-98997081D03*
D13*
X183732000Y-98084081D03*
D14*
X182746000Y-97022081D03*
D15*
X181760000Y-97960081D03*
%TD*%
D16*
%TO.C,TP2*%
X181560000Y-110922081D03*
%TD*%
D12*
%TO.C,J1*%
X206746000Y-99035081D03*
D13*
X207732000Y-98122081D03*
D14*
X206746000Y-97060081D03*
D15*
X205760000Y-97998081D03*
%TD*%
D16*
%TO.C,TP2*%
X181546000Y-77984081D03*
%TD*%
%TO.C,TP1*%
X171960000Y-110922081D03*
%TD*%
%TO.C,TP1*%
X195946000Y-66984081D03*
%TD*%
%TO.C,TP2*%
X193546000Y-88984081D03*
%TD*%
D12*
%TO.C,J1*%
X158746000Y-65997081D03*
D13*
X159732000Y-65084081D03*
D14*
X158746000Y-64022081D03*
D15*
X157760000Y-64960081D03*
%TD*%
D12*
%TO.C,J1*%
X170746000Y-65997081D03*
D13*
X171732000Y-65084081D03*
D14*
X170746000Y-64022081D03*
D15*
X169760000Y-64960081D03*
%TD*%
D16*
%TO.C,TP2*%
X169546000Y-66984081D03*
%TD*%
%TO.C,TP2*%
X193560000Y-110922081D03*
%TD*%
D12*
%TO.C,J1*%
X182746000Y-65997081D03*
D13*
X183732000Y-65084081D03*
D14*
X182746000Y-64022081D03*
D15*
X181760000Y-64960081D03*
%TD*%
D16*
%TO.C,TP1*%
X207946000Y-67022081D03*
%TD*%
D12*
%TO.C,J1*%
X206746000Y-88035081D03*
D13*
X207732000Y-87122081D03*
D14*
X206746000Y-86060081D03*
D15*
X205760000Y-86998081D03*
%TD*%
D16*
%TO.C,TP1*%
X183946000Y-66984081D03*
%TD*%
D12*
%TO.C,J1*%
X206746000Y-77035081D03*
D13*
X207732000Y-76122081D03*
D14*
X206746000Y-75060081D03*
D15*
X205760000Y-75998081D03*
%TD*%
D16*
%TO.C,TP2*%
X193546000Y-99984081D03*
%TD*%
%TO.C,TP2*%
X193546000Y-66984081D03*
%TD*%
D12*
%TO.C,J1*%
X194746000Y-87997081D03*
D13*
X195732000Y-87084081D03*
D14*
X194746000Y-86022081D03*
D15*
X193760000Y-86960081D03*
%TD*%
D16*
%TO.C,TP2*%
X169546000Y-77984081D03*
%TD*%
%TO.C,TP2*%
X157546000Y-66984081D03*
%TD*%
%TO.C,TP1*%
X183960000Y-110922081D03*
%TD*%
D12*
%TO.C,J1*%
X206746000Y-66035081D03*
D13*
X207732000Y-65122081D03*
D14*
X206746000Y-64060081D03*
D15*
X205760000Y-64998081D03*
%TD*%
D16*
%TO.C,TP1*%
X195960000Y-110922081D03*
%TD*%
D12*
%TO.C,J1*%
X158760000Y-109935081D03*
D13*
X159746000Y-109022081D03*
D14*
X158760000Y-107960081D03*
D15*
X157774000Y-108898081D03*
%TD*%
D16*
%TO.C,TP1*%
X207946000Y-78022081D03*
%TD*%
D12*
%TO.C,J1*%
X194746000Y-98997081D03*
D13*
X195732000Y-98084081D03*
D14*
X194746000Y-97022081D03*
D15*
X193760000Y-97960081D03*
%TD*%
D12*
%TO.C,J1*%
X158746000Y-87997081D03*
D13*
X159732000Y-87084081D03*
D14*
X158746000Y-86022081D03*
D15*
X157760000Y-86960081D03*
%TD*%
D16*
%TO.C,TP2*%
X205546000Y-67022081D03*
%TD*%
D12*
%TO.C,J1*%
X170746000Y-87997081D03*
D13*
X171732000Y-87084081D03*
D14*
X170746000Y-86022081D03*
D15*
X169760000Y-86960081D03*
%TD*%
D16*
%TO.C,TP1*%
X195946000Y-77984081D03*
%TD*%
D12*
%TO.C,J1*%
X206760000Y-109973081D03*
D13*
X207746000Y-109060081D03*
D14*
X206760000Y-107998081D03*
D15*
X205774000Y-108936081D03*
%TD*%
D16*
%TO.C,TP1*%
X171946000Y-77984081D03*
%TD*%
D12*
%TO.C,J1*%
X170746000Y-98997081D03*
D13*
X171732000Y-98084081D03*
D14*
X170746000Y-97022081D03*
D15*
X169760000Y-97960081D03*
%TD*%
D16*
%TO.C,TP2*%
X205546000Y-78022081D03*
%TD*%
%TO.C,TP2*%
X205546000Y-89022081D03*
%TD*%
D12*
%TO.C,J1*%
X158746000Y-76997081D03*
D13*
X159732000Y-76084081D03*
D14*
X158746000Y-75022081D03*
D15*
X157760000Y-75960081D03*
%TD*%
D16*
%TO.C,TP1*%
X159946000Y-88984081D03*
%TD*%
%TO.C,TP2*%
X157546000Y-99984081D03*
%TD*%
%TO.C,TP1*%
X195946000Y-88984081D03*
%TD*%
%TO.C,TP2*%
X205546000Y-100022081D03*
%TD*%
D17*
%TO.C,REF\u002A\u002A*%
X143200000Y-56850000D03*
%TD*%
D16*
%TO.C,TP2*%
X205560000Y-110960081D03*
%TD*%
%TO.C,TP1*%
X183946000Y-99984081D03*
%TD*%
%TO.C,TP1*%
X183946000Y-77984081D03*
%TD*%
%TO.C,TP1*%
X159946000Y-77984081D03*
%TD*%
%TO.C,TP1*%
X183946000Y-88984081D03*
%TD*%
M02*
