G04 EAGLE Gerber RS-274X export*
G75*
%MOMM*%
%FSLAX34Y34*%
%LPD*%
%INCopper Layer 15*%
%IPPOS*%
%AMOC8*
5,1,8,0,0,1.08239X$1,22.5*%
G01*
%ADD10R,48.000000X4.000000*%
%ADD11R,2.000000X43.000000*%
%ADD12C,0.804800*%
%ADD13C,0.403200*%

G36*
X23957Y331002D02*
X23957Y331002D01*
X23962Y331001D01*
X24055Y331022D01*
X24149Y331040D01*
X24153Y331043D01*
X24158Y331044D01*
X24236Y331100D01*
X24314Y331153D01*
X24317Y331157D01*
X24321Y331160D01*
X24372Y331242D01*
X24424Y331321D01*
X24424Y331326D01*
X24427Y331331D01*
X24459Y331508D01*
X24459Y332088D01*
X27412Y335041D01*
X31588Y335041D01*
X34541Y332088D01*
X34541Y331508D01*
X34542Y331503D01*
X34541Y331498D01*
X34562Y331405D01*
X34580Y331311D01*
X34583Y331307D01*
X34584Y331302D01*
X34640Y331224D01*
X34693Y331146D01*
X34697Y331143D01*
X34700Y331139D01*
X34782Y331088D01*
X34861Y331036D01*
X34866Y331036D01*
X34871Y331033D01*
X35048Y331001D01*
X47492Y331001D01*
X47497Y331002D01*
X47502Y331001D01*
X47595Y331022D01*
X47689Y331040D01*
X47693Y331043D01*
X47698Y331044D01*
X47776Y331100D01*
X47854Y331153D01*
X47857Y331157D01*
X47861Y331160D01*
X47912Y331242D01*
X47964Y331321D01*
X47964Y331326D01*
X47967Y331331D01*
X47999Y331508D01*
X47999Y342804D01*
X48250Y343238D01*
X48262Y343274D01*
X48282Y343305D01*
X48294Y343368D01*
X48314Y343428D01*
X48311Y343466D01*
X48318Y343502D01*
X48304Y343565D01*
X48299Y343628D01*
X48282Y343662D01*
X48274Y343698D01*
X48237Y343750D01*
X48208Y343807D01*
X48180Y343831D01*
X48158Y343861D01*
X48104Y343895D01*
X48102Y343897D01*
X45999Y346000D01*
X45999Y362000D01*
X48073Y364074D01*
X48120Y364117D01*
X48173Y364153D01*
X48193Y364184D01*
X48221Y364210D01*
X48248Y364268D01*
X48282Y364321D01*
X48289Y364358D01*
X48305Y364392D01*
X48307Y364455D01*
X48318Y364518D01*
X48310Y364555D01*
X48311Y364592D01*
X48286Y364662D01*
X48274Y364714D01*
X48260Y364734D01*
X48250Y364762D01*
X47999Y365196D01*
X47999Y366575D01*
X47998Y366583D01*
X47999Y366591D01*
X47978Y366681D01*
X47960Y366772D01*
X47955Y366778D01*
X47953Y366786D01*
X47851Y366934D01*
X45734Y369051D01*
X45727Y369055D01*
X45723Y369061D01*
X45644Y369110D01*
X45567Y369162D01*
X45559Y369163D01*
X45553Y369167D01*
X45375Y369199D01*
X31062Y369199D01*
X29437Y370137D01*
X28499Y371762D01*
X28499Y375638D01*
X29437Y377263D01*
X30746Y378018D01*
X30801Y378067D01*
X30861Y378110D01*
X30876Y378133D01*
X30896Y378151D01*
X30928Y378217D01*
X30967Y378280D01*
X30972Y378309D01*
X30983Y378331D01*
X30986Y378385D01*
X30999Y378457D01*
X30999Y379282D01*
X30990Y379328D01*
X30991Y379375D01*
X30969Y379432D01*
X30960Y379479D01*
X30941Y379506D01*
X30927Y379543D01*
X27488Y385275D01*
X27453Y385314D01*
X27411Y385373D01*
X27044Y385739D01*
X26501Y387042D01*
X26501Y387125D01*
X26499Y387131D01*
X26499Y387142D01*
X26500Y387146D01*
X26499Y387149D01*
X26499Y387748D01*
X26499Y387749D01*
X26498Y388243D01*
X26497Y388248D01*
X26498Y388252D01*
X26477Y388347D01*
X26458Y388439D01*
X26456Y388443D01*
X26455Y388448D01*
X26399Y388527D01*
X26345Y388605D01*
X26341Y388608D01*
X26339Y388611D01*
X26257Y388662D01*
X26177Y388714D01*
X26172Y388715D01*
X26168Y388717D01*
X25991Y388749D01*
X25009Y388749D01*
X25004Y388748D01*
X25000Y388749D01*
X24907Y388729D01*
X24813Y388710D01*
X24809Y388707D01*
X24804Y388706D01*
X24726Y388651D01*
X24647Y388597D01*
X24644Y388593D01*
X24640Y388590D01*
X24589Y388508D01*
X24537Y388429D01*
X24537Y388424D01*
X24534Y388420D01*
X24502Y388243D01*
X24501Y387748D01*
X24501Y387747D01*
X24501Y387131D01*
X24500Y387130D01*
X24499Y387125D01*
X24499Y387042D01*
X23956Y385739D01*
X23589Y385373D01*
X23559Y385329D01*
X23512Y385275D01*
X20073Y379543D01*
X20057Y379499D01*
X20033Y379460D01*
X20022Y379399D01*
X20006Y379354D01*
X20008Y379321D01*
X20001Y379282D01*
X20001Y378457D01*
X20015Y378385D01*
X20022Y378311D01*
X20035Y378287D01*
X20040Y378261D01*
X20082Y378200D01*
X20117Y378134D01*
X20139Y378116D01*
X20153Y378095D01*
X20198Y378066D01*
X20254Y378018D01*
X21563Y377263D01*
X22501Y375638D01*
X22501Y371762D01*
X21563Y370137D01*
X19938Y369199D01*
X3625Y369199D01*
X3617Y369198D01*
X3609Y369199D01*
X3519Y369178D01*
X3428Y369160D01*
X3422Y369155D01*
X3414Y369153D01*
X3266Y369051D01*
X1149Y366934D01*
X1145Y366928D01*
X1139Y366923D01*
X1090Y366844D01*
X1038Y366767D01*
X1037Y366759D01*
X1033Y366753D01*
X1001Y366575D01*
X1001Y365196D01*
X750Y364762D01*
X738Y364726D01*
X718Y364695D01*
X706Y364632D01*
X686Y364572D01*
X689Y364534D01*
X682Y364498D01*
X696Y364435D01*
X701Y364372D01*
X718Y364339D01*
X726Y364302D01*
X763Y364250D01*
X792Y364193D01*
X820Y364169D01*
X842Y364139D01*
X896Y364105D01*
X898Y364103D01*
X3001Y362000D01*
X3001Y346000D01*
X927Y343926D01*
X880Y343883D01*
X827Y343847D01*
X807Y343816D01*
X779Y343790D01*
X752Y343732D01*
X718Y343679D01*
X711Y343642D01*
X695Y343608D01*
X693Y343545D01*
X682Y343482D01*
X690Y343445D01*
X689Y343408D01*
X714Y343338D01*
X726Y343286D01*
X740Y343266D01*
X750Y343238D01*
X1001Y342804D01*
X1001Y333854D01*
X1001Y333851D01*
X1001Y333849D01*
X1021Y333754D01*
X1040Y333657D01*
X1042Y333655D01*
X1042Y333653D01*
X1098Y333572D01*
X1153Y333492D01*
X1155Y333490D01*
X1157Y333488D01*
X1240Y333435D01*
X1321Y333382D01*
X1324Y333382D01*
X1326Y333381D01*
X1422Y333364D01*
X1518Y333347D01*
X1521Y333347D01*
X1523Y333347D01*
X1618Y333369D01*
X1714Y333390D01*
X1716Y333392D01*
X1719Y333393D01*
X1867Y333495D01*
X3412Y335041D01*
X7588Y335041D01*
X10541Y332088D01*
X10541Y331508D01*
X10542Y331503D01*
X10541Y331498D01*
X10562Y331405D01*
X10580Y331311D01*
X10583Y331307D01*
X10584Y331302D01*
X10640Y331224D01*
X10693Y331146D01*
X10697Y331143D01*
X10700Y331139D01*
X10782Y331088D01*
X10861Y331036D01*
X10866Y331036D01*
X10871Y331033D01*
X11048Y331001D01*
X23952Y331001D01*
X23957Y331002D01*
G37*
G36*
X243957Y331002D02*
X243957Y331002D01*
X243962Y331001D01*
X244055Y331022D01*
X244149Y331040D01*
X244153Y331043D01*
X244158Y331044D01*
X244236Y331100D01*
X244314Y331153D01*
X244317Y331157D01*
X244321Y331160D01*
X244372Y331242D01*
X244424Y331321D01*
X244424Y331326D01*
X244427Y331331D01*
X244459Y331508D01*
X244459Y332088D01*
X247412Y335041D01*
X251588Y335041D01*
X254541Y332088D01*
X254541Y331508D01*
X254542Y331503D01*
X254541Y331498D01*
X254562Y331405D01*
X254580Y331311D01*
X254583Y331307D01*
X254584Y331302D01*
X254640Y331224D01*
X254693Y331146D01*
X254697Y331143D01*
X254700Y331139D01*
X254782Y331088D01*
X254861Y331036D01*
X254866Y331036D01*
X254871Y331033D01*
X255048Y331001D01*
X267492Y331001D01*
X267497Y331002D01*
X267502Y331001D01*
X267595Y331022D01*
X267689Y331040D01*
X267693Y331043D01*
X267698Y331044D01*
X267776Y331100D01*
X267854Y331153D01*
X267857Y331157D01*
X267861Y331160D01*
X267912Y331242D01*
X267964Y331321D01*
X267964Y331326D01*
X267967Y331331D01*
X267999Y331508D01*
X267999Y342804D01*
X268250Y343238D01*
X268262Y343274D01*
X268282Y343305D01*
X268294Y343368D01*
X268314Y343428D01*
X268311Y343466D01*
X268318Y343502D01*
X268304Y343565D01*
X268299Y343628D01*
X268282Y343662D01*
X268274Y343698D01*
X268237Y343750D01*
X268208Y343807D01*
X268180Y343831D01*
X268158Y343861D01*
X268104Y343895D01*
X268102Y343897D01*
X265999Y346000D01*
X265999Y362000D01*
X266148Y362149D01*
X267851Y363852D01*
X268073Y364074D01*
X268120Y364117D01*
X268173Y364153D01*
X268193Y364184D01*
X268221Y364210D01*
X268248Y364268D01*
X268282Y364321D01*
X268289Y364358D01*
X268305Y364392D01*
X268307Y364455D01*
X268318Y364518D01*
X268310Y364555D01*
X268311Y364592D01*
X268286Y364662D01*
X268274Y364714D01*
X268260Y364734D01*
X268250Y364762D01*
X267999Y365196D01*
X267999Y366575D01*
X267998Y366583D01*
X267999Y366591D01*
X267978Y366681D01*
X267960Y366772D01*
X267955Y366778D01*
X267953Y366786D01*
X267851Y366934D01*
X265734Y369051D01*
X265727Y369055D01*
X265723Y369061D01*
X265644Y369110D01*
X265567Y369162D01*
X265559Y369163D01*
X265553Y369167D01*
X265375Y369199D01*
X251062Y369199D01*
X249437Y370137D01*
X248499Y371762D01*
X248499Y375638D01*
X249437Y377263D01*
X250746Y378018D01*
X250801Y378067D01*
X250861Y378110D01*
X250876Y378133D01*
X250896Y378151D01*
X250928Y378217D01*
X250967Y378280D01*
X250972Y378309D01*
X250983Y378331D01*
X250986Y378385D01*
X250999Y378457D01*
X250999Y379282D01*
X250990Y379328D01*
X250991Y379375D01*
X250969Y379432D01*
X250960Y379479D01*
X250941Y379506D01*
X250927Y379543D01*
X247488Y385275D01*
X247453Y385314D01*
X247411Y385373D01*
X247044Y385739D01*
X246501Y387042D01*
X246501Y387125D01*
X246499Y387131D01*
X246499Y387142D01*
X246500Y387146D01*
X246499Y387149D01*
X246499Y387747D01*
X246499Y387748D01*
X246498Y388243D01*
X246497Y388248D01*
X246498Y388252D01*
X246477Y388347D01*
X246458Y388439D01*
X246456Y388443D01*
X246455Y388448D01*
X246399Y388527D01*
X246345Y388605D01*
X246341Y388608D01*
X246339Y388611D01*
X246257Y388662D01*
X246177Y388714D01*
X246172Y388715D01*
X246168Y388717D01*
X245991Y388749D01*
X245009Y388749D01*
X245004Y388748D01*
X245000Y388749D01*
X244907Y388729D01*
X244813Y388710D01*
X244809Y388707D01*
X244804Y388706D01*
X244726Y388651D01*
X244647Y388597D01*
X244644Y388593D01*
X244640Y388590D01*
X244589Y388508D01*
X244537Y388429D01*
X244537Y388424D01*
X244534Y388420D01*
X244502Y388243D01*
X244501Y387748D01*
X244501Y387747D01*
X244501Y387131D01*
X244500Y387130D01*
X244499Y387125D01*
X244499Y387042D01*
X243956Y385739D01*
X243589Y385373D01*
X243559Y385329D01*
X243512Y385275D01*
X240073Y379543D01*
X240057Y379499D01*
X240033Y379460D01*
X240022Y379399D01*
X240006Y379354D01*
X240008Y379321D01*
X240001Y379282D01*
X240001Y378457D01*
X240015Y378385D01*
X240022Y378311D01*
X240035Y378287D01*
X240040Y378261D01*
X240082Y378200D01*
X240117Y378134D01*
X240139Y378116D01*
X240153Y378095D01*
X240198Y378066D01*
X240254Y378018D01*
X241563Y377263D01*
X242501Y375638D01*
X242501Y371762D01*
X241563Y370137D01*
X239938Y369199D01*
X223625Y369199D01*
X223617Y369198D01*
X223609Y369199D01*
X223519Y369178D01*
X223428Y369160D01*
X223422Y369155D01*
X223414Y369153D01*
X223266Y369051D01*
X221149Y366934D01*
X221145Y366928D01*
X221139Y366923D01*
X221090Y366844D01*
X221038Y366767D01*
X221037Y366759D01*
X221033Y366753D01*
X221001Y366575D01*
X221001Y365196D01*
X220750Y364762D01*
X220738Y364726D01*
X220718Y364695D01*
X220706Y364632D01*
X220686Y364572D01*
X220689Y364534D01*
X220682Y364498D01*
X220696Y364435D01*
X220701Y364372D01*
X220718Y364338D01*
X220726Y364302D01*
X220763Y364250D01*
X220792Y364193D01*
X220820Y364169D01*
X220842Y364139D01*
X220896Y364105D01*
X220898Y364103D01*
X221149Y363852D01*
X222852Y362149D01*
X223001Y362000D01*
X223001Y346000D01*
X220927Y343926D01*
X220880Y343883D01*
X220827Y343847D01*
X220807Y343816D01*
X220779Y343790D01*
X220752Y343732D01*
X220718Y343679D01*
X220711Y343642D01*
X220695Y343608D01*
X220693Y343545D01*
X220682Y343482D01*
X220690Y343445D01*
X220689Y343408D01*
X220714Y343338D01*
X220726Y343286D01*
X220740Y343266D01*
X220750Y343238D01*
X221001Y342804D01*
X221001Y333854D01*
X221001Y333851D01*
X221001Y333849D01*
X221021Y333754D01*
X221040Y333657D01*
X221042Y333655D01*
X221042Y333653D01*
X221098Y333572D01*
X221153Y333492D01*
X221155Y333490D01*
X221157Y333488D01*
X221240Y333435D01*
X221321Y333382D01*
X221324Y333382D01*
X221326Y333381D01*
X221422Y333364D01*
X221518Y333347D01*
X221521Y333347D01*
X221523Y333347D01*
X221618Y333369D01*
X221714Y333390D01*
X221716Y333392D01*
X221719Y333393D01*
X221867Y333495D01*
X223412Y335041D01*
X227588Y335041D01*
X230541Y332088D01*
X230541Y331508D01*
X230542Y331503D01*
X230541Y331498D01*
X230562Y331405D01*
X230580Y331311D01*
X230583Y331307D01*
X230584Y331302D01*
X230640Y331224D01*
X230693Y331146D01*
X230697Y331143D01*
X230700Y331139D01*
X230782Y331088D01*
X230861Y331036D01*
X230866Y331036D01*
X230871Y331033D01*
X231048Y331001D01*
X243952Y331001D01*
X243957Y331002D01*
G37*
G36*
X133957Y1002D02*
X133957Y1002D01*
X133962Y1001D01*
X134055Y1022D01*
X134149Y1040D01*
X134153Y1043D01*
X134158Y1044D01*
X134236Y1100D01*
X134314Y1153D01*
X134317Y1157D01*
X134321Y1160D01*
X134372Y1242D01*
X134424Y1321D01*
X134424Y1326D01*
X134427Y1331D01*
X134459Y1508D01*
X134459Y2088D01*
X137412Y5041D01*
X141588Y5041D01*
X144541Y2088D01*
X144541Y1508D01*
X144542Y1503D01*
X144541Y1498D01*
X144562Y1405D01*
X144580Y1311D01*
X144583Y1307D01*
X144584Y1302D01*
X144640Y1224D01*
X144693Y1146D01*
X144697Y1143D01*
X144700Y1139D01*
X144782Y1088D01*
X144861Y1036D01*
X144866Y1036D01*
X144871Y1033D01*
X145048Y1001D01*
X157492Y1001D01*
X157497Y1002D01*
X157502Y1001D01*
X157595Y1022D01*
X157689Y1040D01*
X157693Y1043D01*
X157698Y1044D01*
X157776Y1100D01*
X157854Y1153D01*
X157857Y1157D01*
X157861Y1160D01*
X157912Y1242D01*
X157964Y1321D01*
X157964Y1326D01*
X157967Y1331D01*
X157999Y1508D01*
X157999Y12804D01*
X158250Y13238D01*
X158262Y13274D01*
X158282Y13305D01*
X158294Y13368D01*
X158314Y13428D01*
X158311Y13466D01*
X158318Y13502D01*
X158304Y13565D01*
X158299Y13628D01*
X158282Y13662D01*
X158274Y13698D01*
X158237Y13750D01*
X158208Y13807D01*
X158180Y13831D01*
X158158Y13861D01*
X158104Y13895D01*
X158102Y13897D01*
X155999Y16000D01*
X155999Y32000D01*
X158073Y34074D01*
X158120Y34117D01*
X158173Y34153D01*
X158193Y34184D01*
X158221Y34210D01*
X158248Y34268D01*
X158282Y34321D01*
X158289Y34358D01*
X158305Y34392D01*
X158307Y34455D01*
X158318Y34518D01*
X158310Y34555D01*
X158311Y34592D01*
X158286Y34662D01*
X158274Y34714D01*
X158260Y34734D01*
X158250Y34762D01*
X157999Y35196D01*
X157999Y36575D01*
X157998Y36583D01*
X157999Y36591D01*
X157978Y36681D01*
X157960Y36772D01*
X157955Y36778D01*
X157953Y36786D01*
X157851Y36934D01*
X155734Y39051D01*
X155727Y39055D01*
X155723Y39061D01*
X155644Y39110D01*
X155567Y39162D01*
X155559Y39163D01*
X155553Y39167D01*
X155375Y39199D01*
X141062Y39199D01*
X139437Y40137D01*
X138499Y41762D01*
X138499Y45638D01*
X139437Y47263D01*
X140746Y48018D01*
X140801Y48067D01*
X140861Y48110D01*
X140876Y48133D01*
X140896Y48151D01*
X140928Y48217D01*
X140967Y48280D01*
X140972Y48309D01*
X140983Y48331D01*
X140986Y48385D01*
X140999Y48457D01*
X140999Y49282D01*
X140990Y49328D01*
X140991Y49375D01*
X140969Y49432D01*
X140960Y49479D01*
X140941Y49506D01*
X140927Y49543D01*
X137488Y55275D01*
X137453Y55314D01*
X137411Y55373D01*
X137044Y55739D01*
X136501Y57042D01*
X136501Y57125D01*
X136499Y57131D01*
X136499Y57142D01*
X136500Y57146D01*
X136499Y57149D01*
X136499Y57748D01*
X136499Y57749D01*
X136498Y58243D01*
X136497Y58248D01*
X136498Y58252D01*
X136477Y58347D01*
X136458Y58439D01*
X136456Y58443D01*
X136455Y58448D01*
X136399Y58527D01*
X136345Y58605D01*
X136341Y58608D01*
X136339Y58611D01*
X136257Y58662D01*
X136177Y58714D01*
X136172Y58715D01*
X136168Y58717D01*
X135991Y58749D01*
X135009Y58749D01*
X135004Y58748D01*
X135000Y58749D01*
X134907Y58729D01*
X134813Y58710D01*
X134809Y58707D01*
X134804Y58706D01*
X134726Y58651D01*
X134647Y58597D01*
X134644Y58593D01*
X134640Y58590D01*
X134589Y58508D01*
X134537Y58429D01*
X134537Y58424D01*
X134534Y58420D01*
X134502Y58243D01*
X134501Y57748D01*
X134501Y57747D01*
X134501Y57131D01*
X134500Y57130D01*
X134499Y57125D01*
X134499Y57042D01*
X133956Y55739D01*
X133589Y55373D01*
X133559Y55329D01*
X133512Y55275D01*
X130073Y49543D01*
X130057Y49499D01*
X130033Y49460D01*
X130022Y49399D01*
X130006Y49354D01*
X130008Y49321D01*
X130001Y49282D01*
X130001Y48457D01*
X130015Y48385D01*
X130022Y48311D01*
X130035Y48287D01*
X130040Y48261D01*
X130082Y48200D01*
X130117Y48134D01*
X130139Y48116D01*
X130153Y48095D01*
X130198Y48066D01*
X130254Y48018D01*
X131563Y47263D01*
X132501Y45638D01*
X132501Y41762D01*
X131563Y40137D01*
X129938Y39199D01*
X113625Y39199D01*
X113617Y39198D01*
X113609Y39199D01*
X113519Y39178D01*
X113428Y39160D01*
X113422Y39155D01*
X113414Y39153D01*
X113266Y39051D01*
X111149Y36934D01*
X111145Y36928D01*
X111139Y36923D01*
X111090Y36844D01*
X111038Y36767D01*
X111037Y36759D01*
X111033Y36753D01*
X111001Y36575D01*
X111001Y35196D01*
X110750Y34762D01*
X110738Y34726D01*
X110718Y34695D01*
X110706Y34632D01*
X110686Y34572D01*
X110689Y34534D01*
X110682Y34498D01*
X110696Y34435D01*
X110701Y34372D01*
X110718Y34338D01*
X110726Y34302D01*
X110763Y34250D01*
X110792Y34193D01*
X110820Y34169D01*
X110842Y34139D01*
X110896Y34105D01*
X110898Y34103D01*
X111149Y33852D01*
X112852Y32149D01*
X113001Y32000D01*
X113001Y16000D01*
X110927Y13926D01*
X110880Y13883D01*
X110827Y13847D01*
X110807Y13816D01*
X110779Y13790D01*
X110752Y13732D01*
X110718Y13679D01*
X110711Y13642D01*
X110695Y13608D01*
X110693Y13545D01*
X110682Y13482D01*
X110690Y13445D01*
X110689Y13408D01*
X110714Y13338D01*
X110726Y13286D01*
X110740Y13266D01*
X110750Y13238D01*
X111001Y12804D01*
X111001Y3854D01*
X111001Y3851D01*
X111001Y3849D01*
X111021Y3754D01*
X111040Y3657D01*
X111042Y3655D01*
X111042Y3653D01*
X111098Y3572D01*
X111153Y3492D01*
X111155Y3490D01*
X111157Y3488D01*
X111240Y3435D01*
X111321Y3382D01*
X111324Y3382D01*
X111326Y3381D01*
X111422Y3364D01*
X111518Y3347D01*
X111521Y3347D01*
X111523Y3347D01*
X111618Y3369D01*
X111714Y3390D01*
X111716Y3392D01*
X111719Y3393D01*
X111867Y3495D01*
X113412Y5041D01*
X117588Y5041D01*
X120541Y2088D01*
X120541Y1508D01*
X120542Y1503D01*
X120541Y1498D01*
X120562Y1405D01*
X120580Y1311D01*
X120583Y1307D01*
X120584Y1302D01*
X120640Y1224D01*
X120693Y1146D01*
X120697Y1143D01*
X120700Y1139D01*
X120782Y1088D01*
X120861Y1036D01*
X120866Y1036D01*
X120871Y1033D01*
X121048Y1001D01*
X133952Y1001D01*
X133957Y1002D01*
G37*
G36*
X24149Y1040D02*
X24149Y1040D01*
X24153Y1043D01*
X24158Y1044D01*
X24236Y1100D01*
X24314Y1153D01*
X24317Y1157D01*
X24321Y1160D01*
X24372Y1242D01*
X24424Y1321D01*
X24424Y1326D01*
X24427Y1331D01*
X24459Y1508D01*
X24459Y2088D01*
X27412Y5041D01*
X31588Y5041D01*
X34541Y2088D01*
X34541Y1508D01*
X34542Y1503D01*
X34541Y1498D01*
X34562Y1405D01*
X34580Y1311D01*
X34583Y1307D01*
X34584Y1302D01*
X34640Y1224D01*
X34693Y1146D01*
X34697Y1143D01*
X34700Y1139D01*
X34782Y1088D01*
X34861Y1036D01*
X34866Y1036D01*
X34871Y1033D01*
X35048Y1001D01*
X47492Y1001D01*
X47497Y1002D01*
X47502Y1001D01*
X47595Y1022D01*
X47689Y1040D01*
X47693Y1043D01*
X47698Y1044D01*
X47776Y1100D01*
X47854Y1153D01*
X47857Y1157D01*
X47861Y1160D01*
X47912Y1242D01*
X47964Y1321D01*
X47964Y1326D01*
X47967Y1331D01*
X47999Y1508D01*
X47999Y12804D01*
X48250Y13238D01*
X48262Y13274D01*
X48282Y13305D01*
X48294Y13368D01*
X48314Y13428D01*
X48311Y13466D01*
X48318Y13502D01*
X48304Y13565D01*
X48299Y13628D01*
X48282Y13662D01*
X48274Y13698D01*
X48237Y13750D01*
X48208Y13807D01*
X48180Y13831D01*
X48158Y13861D01*
X48104Y13895D01*
X48102Y13897D01*
X45999Y16000D01*
X45999Y32000D01*
X48073Y34074D01*
X48120Y34117D01*
X48173Y34153D01*
X48193Y34184D01*
X48221Y34210D01*
X48248Y34268D01*
X48282Y34321D01*
X48289Y34358D01*
X48305Y34392D01*
X48307Y34455D01*
X48318Y34518D01*
X48310Y34555D01*
X48311Y34592D01*
X48286Y34662D01*
X48274Y34714D01*
X48260Y34734D01*
X48250Y34762D01*
X47999Y35196D01*
X47999Y36575D01*
X47998Y36583D01*
X47999Y36591D01*
X47978Y36681D01*
X47960Y36772D01*
X47955Y36778D01*
X47953Y36786D01*
X47851Y36934D01*
X45734Y39051D01*
X45728Y39055D01*
X45723Y39061D01*
X45644Y39110D01*
X45567Y39162D01*
X45559Y39163D01*
X45553Y39167D01*
X45375Y39199D01*
X31062Y39199D01*
X29437Y40137D01*
X28499Y41762D01*
X28499Y45638D01*
X29437Y47263D01*
X30746Y48018D01*
X30801Y48067D01*
X30861Y48110D01*
X30876Y48133D01*
X30896Y48151D01*
X30928Y48217D01*
X30967Y48280D01*
X30972Y48309D01*
X30983Y48331D01*
X30986Y48385D01*
X30999Y48457D01*
X30999Y49282D01*
X30990Y49328D01*
X30991Y49375D01*
X30969Y49432D01*
X30960Y49479D01*
X30941Y49506D01*
X30927Y49543D01*
X27488Y55275D01*
X27453Y55314D01*
X27411Y55373D01*
X27044Y55739D01*
X26501Y57042D01*
X26501Y57125D01*
X26499Y57131D01*
X26499Y57142D01*
X26500Y57146D01*
X26499Y57149D01*
X26499Y57748D01*
X26499Y57749D01*
X26498Y58243D01*
X26497Y58248D01*
X26498Y58252D01*
X26477Y58347D01*
X26458Y58439D01*
X26456Y58443D01*
X26455Y58448D01*
X26399Y58527D01*
X26345Y58605D01*
X26341Y58608D01*
X26339Y58611D01*
X26257Y58662D01*
X26177Y58714D01*
X26172Y58715D01*
X26168Y58717D01*
X25991Y58749D01*
X25009Y58749D01*
X25004Y58748D01*
X25000Y58749D01*
X24907Y58729D01*
X24813Y58710D01*
X24809Y58707D01*
X24804Y58706D01*
X24726Y58651D01*
X24647Y58597D01*
X24644Y58593D01*
X24640Y58590D01*
X24589Y58508D01*
X24537Y58429D01*
X24537Y58424D01*
X24534Y58420D01*
X24502Y58243D01*
X24501Y57748D01*
X24501Y57747D01*
X24501Y57131D01*
X24500Y57130D01*
X24499Y57125D01*
X24499Y57042D01*
X23956Y55739D01*
X23589Y55373D01*
X23559Y55329D01*
X23512Y55275D01*
X20073Y49543D01*
X20057Y49499D01*
X20033Y49460D01*
X20022Y49399D01*
X20006Y49354D01*
X20008Y49321D01*
X20001Y49282D01*
X20001Y48457D01*
X20015Y48385D01*
X20022Y48311D01*
X20035Y48287D01*
X20040Y48261D01*
X20082Y48200D01*
X20117Y48134D01*
X20139Y48116D01*
X20153Y48095D01*
X20198Y48066D01*
X20254Y48018D01*
X21563Y47263D01*
X22501Y45638D01*
X22501Y41762D01*
X21563Y40137D01*
X19938Y39199D01*
X3625Y39199D01*
X3617Y39198D01*
X3609Y39199D01*
X3519Y39178D01*
X3428Y39160D01*
X3422Y39155D01*
X3414Y39153D01*
X3266Y39051D01*
X1149Y36934D01*
X1145Y36928D01*
X1139Y36923D01*
X1090Y36844D01*
X1038Y36767D01*
X1037Y36759D01*
X1033Y36753D01*
X1001Y36575D01*
X1001Y35196D01*
X750Y34762D01*
X738Y34726D01*
X718Y34695D01*
X706Y34632D01*
X686Y34572D01*
X689Y34534D01*
X682Y34498D01*
X696Y34435D01*
X701Y34372D01*
X718Y34338D01*
X726Y34302D01*
X763Y34250D01*
X792Y34193D01*
X820Y34169D01*
X842Y34139D01*
X896Y34105D01*
X898Y34103D01*
X3001Y32000D01*
X3001Y16000D01*
X927Y13926D01*
X880Y13883D01*
X827Y13847D01*
X807Y13816D01*
X779Y13790D01*
X752Y13732D01*
X718Y13679D01*
X711Y13642D01*
X695Y13608D01*
X693Y13545D01*
X682Y13482D01*
X690Y13445D01*
X689Y13408D01*
X714Y13338D01*
X726Y13286D01*
X740Y13266D01*
X750Y13238D01*
X1001Y12804D01*
X1001Y3854D01*
X1001Y3851D01*
X1001Y3849D01*
X1021Y3754D01*
X1040Y3657D01*
X1042Y3655D01*
X1042Y3653D01*
X1098Y3572D01*
X1153Y3492D01*
X1155Y3490D01*
X1157Y3488D01*
X1240Y3435D01*
X1321Y3382D01*
X1324Y3382D01*
X1326Y3381D01*
X1422Y3364D01*
X1518Y3347D01*
X1521Y3347D01*
X1523Y3347D01*
X1618Y3369D01*
X1714Y3390D01*
X1716Y3392D01*
X1719Y3393D01*
X1867Y3495D01*
X3412Y5041D01*
X7588Y5041D01*
X10541Y2088D01*
X10541Y1508D01*
X10542Y1503D01*
X10541Y1498D01*
X10562Y1405D01*
X10580Y1311D01*
X10583Y1307D01*
X10584Y1302D01*
X10640Y1224D01*
X10693Y1146D01*
X10697Y1143D01*
X10700Y1139D01*
X10782Y1088D01*
X10861Y1036D01*
X10866Y1036D01*
X10871Y1033D01*
X11048Y1001D01*
X23952Y1001D01*
X23957Y1002D01*
X23962Y1001D01*
X24055Y1022D01*
X24149Y1040D01*
G37*
G36*
X133957Y221002D02*
X133957Y221002D01*
X133962Y221001D01*
X134055Y221022D01*
X134149Y221040D01*
X134153Y221043D01*
X134158Y221044D01*
X134236Y221100D01*
X134314Y221153D01*
X134317Y221157D01*
X134321Y221160D01*
X134372Y221242D01*
X134424Y221321D01*
X134424Y221326D01*
X134427Y221331D01*
X134459Y221508D01*
X134459Y222088D01*
X137412Y225041D01*
X141588Y225041D01*
X144541Y222088D01*
X144541Y221508D01*
X144542Y221503D01*
X144541Y221498D01*
X144562Y221405D01*
X144580Y221311D01*
X144583Y221307D01*
X144584Y221302D01*
X144640Y221224D01*
X144693Y221146D01*
X144697Y221143D01*
X144700Y221139D01*
X144782Y221088D01*
X144861Y221036D01*
X144866Y221036D01*
X144871Y221033D01*
X145048Y221001D01*
X157492Y221001D01*
X157497Y221002D01*
X157502Y221001D01*
X157595Y221022D01*
X157689Y221040D01*
X157693Y221043D01*
X157698Y221044D01*
X157776Y221100D01*
X157854Y221153D01*
X157857Y221157D01*
X157861Y221160D01*
X157912Y221242D01*
X157964Y221321D01*
X157964Y221326D01*
X157967Y221331D01*
X157999Y221508D01*
X157999Y232804D01*
X158250Y233238D01*
X158262Y233274D01*
X158282Y233305D01*
X158294Y233368D01*
X158314Y233428D01*
X158311Y233466D01*
X158318Y233502D01*
X158304Y233565D01*
X158299Y233628D01*
X158282Y233662D01*
X158274Y233698D01*
X158237Y233750D01*
X158208Y233807D01*
X158180Y233831D01*
X158158Y233861D01*
X158104Y233895D01*
X158102Y233897D01*
X155999Y236000D01*
X155999Y252000D01*
X156148Y252149D01*
X157851Y253852D01*
X158073Y254074D01*
X158120Y254117D01*
X158173Y254153D01*
X158193Y254184D01*
X158221Y254210D01*
X158248Y254268D01*
X158282Y254321D01*
X158289Y254358D01*
X158305Y254392D01*
X158307Y254455D01*
X158318Y254518D01*
X158310Y254555D01*
X158311Y254592D01*
X158286Y254662D01*
X158274Y254714D01*
X158260Y254734D01*
X158250Y254762D01*
X157999Y255196D01*
X157999Y256575D01*
X157998Y256583D01*
X157999Y256591D01*
X157978Y256681D01*
X157960Y256772D01*
X157955Y256778D01*
X157953Y256786D01*
X157851Y256934D01*
X155734Y259051D01*
X155727Y259055D01*
X155723Y259061D01*
X155644Y259110D01*
X155567Y259162D01*
X155559Y259163D01*
X155553Y259167D01*
X155375Y259199D01*
X141062Y259199D01*
X139437Y260137D01*
X138499Y261762D01*
X138499Y265638D01*
X139437Y267263D01*
X140746Y268018D01*
X140801Y268067D01*
X140861Y268110D01*
X140876Y268133D01*
X140896Y268151D01*
X140928Y268217D01*
X140967Y268280D01*
X140972Y268309D01*
X140983Y268331D01*
X140986Y268385D01*
X140999Y268457D01*
X140999Y269282D01*
X140990Y269328D01*
X140991Y269375D01*
X140969Y269432D01*
X140960Y269479D01*
X140941Y269506D01*
X140927Y269543D01*
X137488Y275275D01*
X137453Y275314D01*
X137411Y275373D01*
X137044Y275739D01*
X136501Y277042D01*
X136501Y277125D01*
X136499Y277131D01*
X136499Y277142D01*
X136500Y277146D01*
X136499Y277149D01*
X136499Y277748D01*
X136499Y277749D01*
X136498Y278243D01*
X136497Y278248D01*
X136498Y278252D01*
X136477Y278347D01*
X136458Y278439D01*
X136456Y278443D01*
X136455Y278448D01*
X136399Y278527D01*
X136345Y278605D01*
X136341Y278608D01*
X136339Y278611D01*
X136257Y278662D01*
X136177Y278714D01*
X136172Y278715D01*
X136168Y278717D01*
X135991Y278749D01*
X135009Y278749D01*
X135004Y278748D01*
X135000Y278749D01*
X134907Y278729D01*
X134813Y278710D01*
X134809Y278707D01*
X134804Y278706D01*
X134726Y278651D01*
X134647Y278597D01*
X134644Y278593D01*
X134640Y278590D01*
X134589Y278508D01*
X134537Y278429D01*
X134537Y278424D01*
X134534Y278420D01*
X134502Y278243D01*
X134501Y277748D01*
X134501Y277747D01*
X134501Y277131D01*
X134500Y277130D01*
X134499Y277125D01*
X134499Y277042D01*
X133956Y275739D01*
X133589Y275373D01*
X133559Y275329D01*
X133512Y275275D01*
X130073Y269543D01*
X130057Y269499D01*
X130033Y269460D01*
X130022Y269399D01*
X130006Y269354D01*
X130008Y269321D01*
X130001Y269282D01*
X130001Y268457D01*
X130015Y268385D01*
X130022Y268311D01*
X130035Y268287D01*
X130040Y268261D01*
X130082Y268200D01*
X130117Y268134D01*
X130139Y268116D01*
X130153Y268095D01*
X130198Y268066D01*
X130254Y268018D01*
X131563Y267263D01*
X132501Y265638D01*
X132501Y261762D01*
X131563Y260137D01*
X129938Y259199D01*
X113625Y259199D01*
X113617Y259198D01*
X113609Y259199D01*
X113519Y259178D01*
X113428Y259160D01*
X113422Y259155D01*
X113414Y259153D01*
X113266Y259051D01*
X111149Y256934D01*
X111145Y256928D01*
X111139Y256923D01*
X111090Y256844D01*
X111038Y256767D01*
X111037Y256759D01*
X111033Y256753D01*
X111001Y256575D01*
X111001Y255196D01*
X110750Y254762D01*
X110738Y254726D01*
X110718Y254695D01*
X110706Y254632D01*
X110686Y254572D01*
X110689Y254534D01*
X110682Y254498D01*
X110696Y254435D01*
X110701Y254372D01*
X110718Y254338D01*
X110726Y254302D01*
X110763Y254250D01*
X110792Y254193D01*
X110820Y254169D01*
X110842Y254139D01*
X110896Y254105D01*
X110898Y254103D01*
X113001Y252000D01*
X113001Y236000D01*
X110927Y233926D01*
X110880Y233883D01*
X110827Y233847D01*
X110807Y233816D01*
X110779Y233790D01*
X110752Y233732D01*
X110718Y233679D01*
X110711Y233642D01*
X110695Y233608D01*
X110693Y233545D01*
X110682Y233482D01*
X110690Y233445D01*
X110689Y233408D01*
X110714Y233338D01*
X110726Y233286D01*
X110740Y233266D01*
X110750Y233238D01*
X111001Y232804D01*
X111001Y223854D01*
X111001Y223851D01*
X111001Y223849D01*
X111021Y223754D01*
X111040Y223657D01*
X111042Y223655D01*
X111042Y223653D01*
X111098Y223572D01*
X111153Y223492D01*
X111155Y223490D01*
X111157Y223488D01*
X111240Y223435D01*
X111321Y223382D01*
X111324Y223382D01*
X111326Y223381D01*
X111422Y223364D01*
X111518Y223347D01*
X111521Y223347D01*
X111523Y223347D01*
X111618Y223369D01*
X111714Y223390D01*
X111716Y223392D01*
X111719Y223393D01*
X111867Y223495D01*
X113412Y225041D01*
X117588Y225041D01*
X120541Y222088D01*
X120541Y221508D01*
X120542Y221503D01*
X120541Y221498D01*
X120562Y221405D01*
X120580Y221311D01*
X120583Y221307D01*
X120584Y221302D01*
X120640Y221224D01*
X120693Y221146D01*
X120697Y221143D01*
X120700Y221139D01*
X120782Y221088D01*
X120861Y221036D01*
X120866Y221036D01*
X120871Y221033D01*
X121048Y221001D01*
X133952Y221001D01*
X133957Y221002D01*
G37*
G36*
X133957Y331002D02*
X133957Y331002D01*
X133962Y331001D01*
X134055Y331022D01*
X134149Y331040D01*
X134153Y331043D01*
X134158Y331044D01*
X134236Y331100D01*
X134314Y331153D01*
X134317Y331157D01*
X134321Y331160D01*
X134372Y331242D01*
X134424Y331321D01*
X134424Y331326D01*
X134427Y331331D01*
X134459Y331508D01*
X134459Y332088D01*
X137412Y335041D01*
X141588Y335041D01*
X144541Y332088D01*
X144541Y331508D01*
X144542Y331503D01*
X144541Y331498D01*
X144562Y331405D01*
X144580Y331311D01*
X144583Y331307D01*
X144584Y331302D01*
X144640Y331224D01*
X144693Y331146D01*
X144697Y331143D01*
X144700Y331139D01*
X144782Y331088D01*
X144861Y331036D01*
X144866Y331036D01*
X144871Y331033D01*
X145048Y331001D01*
X157492Y331001D01*
X157497Y331002D01*
X157502Y331001D01*
X157595Y331022D01*
X157689Y331040D01*
X157693Y331043D01*
X157698Y331044D01*
X157776Y331100D01*
X157854Y331153D01*
X157857Y331157D01*
X157861Y331160D01*
X157912Y331242D01*
X157964Y331321D01*
X157964Y331326D01*
X157967Y331331D01*
X157999Y331508D01*
X157999Y342804D01*
X158250Y343238D01*
X158262Y343274D01*
X158282Y343305D01*
X158294Y343368D01*
X158314Y343428D01*
X158311Y343466D01*
X158318Y343502D01*
X158304Y343565D01*
X158299Y343628D01*
X158282Y343662D01*
X158274Y343698D01*
X158237Y343750D01*
X158208Y343807D01*
X158180Y343831D01*
X158158Y343861D01*
X158104Y343895D01*
X158102Y343897D01*
X155999Y346000D01*
X155999Y362000D01*
X158073Y364074D01*
X158120Y364117D01*
X158173Y364153D01*
X158193Y364184D01*
X158221Y364210D01*
X158248Y364268D01*
X158282Y364321D01*
X158289Y364358D01*
X158305Y364392D01*
X158307Y364455D01*
X158318Y364518D01*
X158310Y364555D01*
X158311Y364592D01*
X158286Y364662D01*
X158274Y364714D01*
X158260Y364734D01*
X158250Y364762D01*
X157999Y365196D01*
X157999Y366575D01*
X157998Y366583D01*
X157999Y366591D01*
X157978Y366681D01*
X157960Y366772D01*
X157955Y366778D01*
X157953Y366786D01*
X157851Y366934D01*
X155734Y369051D01*
X155728Y369055D01*
X155723Y369061D01*
X155644Y369110D01*
X155567Y369162D01*
X155559Y369163D01*
X155553Y369167D01*
X155375Y369199D01*
X141062Y369199D01*
X139437Y370137D01*
X138499Y371762D01*
X138499Y375638D01*
X139437Y377263D01*
X140746Y378018D01*
X140801Y378067D01*
X140861Y378110D01*
X140876Y378133D01*
X140896Y378151D01*
X140928Y378217D01*
X140967Y378280D01*
X140972Y378309D01*
X140983Y378331D01*
X140986Y378385D01*
X140999Y378457D01*
X140999Y379282D01*
X140990Y379328D01*
X140991Y379375D01*
X140969Y379432D01*
X140960Y379479D01*
X140941Y379506D01*
X140927Y379543D01*
X137488Y385275D01*
X137453Y385314D01*
X137411Y385373D01*
X137044Y385739D01*
X136501Y387042D01*
X136501Y387125D01*
X136499Y387131D01*
X136499Y387142D01*
X136500Y387146D01*
X136499Y387149D01*
X136499Y387748D01*
X136499Y387749D01*
X136498Y388243D01*
X136497Y388248D01*
X136498Y388252D01*
X136477Y388347D01*
X136458Y388439D01*
X136456Y388443D01*
X136455Y388448D01*
X136399Y388527D01*
X136345Y388605D01*
X136341Y388608D01*
X136339Y388611D01*
X136257Y388662D01*
X136177Y388714D01*
X136172Y388715D01*
X136168Y388717D01*
X135991Y388749D01*
X135009Y388749D01*
X135004Y388748D01*
X135000Y388749D01*
X134907Y388729D01*
X134813Y388710D01*
X134809Y388707D01*
X134804Y388706D01*
X134726Y388651D01*
X134647Y388597D01*
X134644Y388593D01*
X134640Y388590D01*
X134589Y388508D01*
X134537Y388429D01*
X134537Y388424D01*
X134534Y388420D01*
X134502Y388243D01*
X134501Y387748D01*
X134501Y387747D01*
X134501Y387131D01*
X134500Y387130D01*
X134499Y387125D01*
X134499Y387042D01*
X133956Y385739D01*
X133589Y385373D01*
X133559Y385329D01*
X133512Y385275D01*
X130073Y379543D01*
X130057Y379499D01*
X130033Y379460D01*
X130022Y379399D01*
X130006Y379354D01*
X130008Y379321D01*
X130001Y379282D01*
X130001Y378457D01*
X130015Y378385D01*
X130022Y378311D01*
X130035Y378287D01*
X130040Y378261D01*
X130082Y378200D01*
X130117Y378134D01*
X130139Y378116D01*
X130153Y378095D01*
X130198Y378066D01*
X130254Y378018D01*
X131563Y377263D01*
X132501Y375638D01*
X132501Y371762D01*
X131563Y370137D01*
X129938Y369199D01*
X113625Y369199D01*
X113617Y369198D01*
X113609Y369199D01*
X113519Y369178D01*
X113428Y369160D01*
X113422Y369155D01*
X113414Y369153D01*
X113266Y369051D01*
X111149Y366934D01*
X111145Y366927D01*
X111139Y366923D01*
X111090Y366844D01*
X111038Y366767D01*
X111037Y366759D01*
X111033Y366753D01*
X111001Y366575D01*
X111001Y365196D01*
X110750Y364762D01*
X110738Y364726D01*
X110718Y364695D01*
X110706Y364632D01*
X110686Y364572D01*
X110689Y364534D01*
X110682Y364498D01*
X110696Y364435D01*
X110701Y364372D01*
X110718Y364338D01*
X110726Y364302D01*
X110763Y364250D01*
X110792Y364193D01*
X110820Y364169D01*
X110842Y364139D01*
X110896Y364105D01*
X110898Y364103D01*
X111149Y363852D01*
X112852Y362149D01*
X113001Y362000D01*
X113001Y346000D01*
X110927Y343926D01*
X110880Y343883D01*
X110827Y343847D01*
X110807Y343816D01*
X110779Y343790D01*
X110752Y343732D01*
X110718Y343679D01*
X110711Y343642D01*
X110695Y343608D01*
X110693Y343545D01*
X110682Y343482D01*
X110690Y343445D01*
X110689Y343408D01*
X110714Y343338D01*
X110726Y343286D01*
X110740Y343266D01*
X110750Y343238D01*
X111001Y342804D01*
X111001Y333854D01*
X111001Y333851D01*
X111001Y333849D01*
X111021Y333754D01*
X111040Y333657D01*
X111042Y333655D01*
X111042Y333653D01*
X111098Y333572D01*
X111153Y333492D01*
X111155Y333490D01*
X111157Y333488D01*
X111240Y333435D01*
X111321Y333382D01*
X111324Y333382D01*
X111326Y333381D01*
X111422Y333364D01*
X111518Y333347D01*
X111521Y333347D01*
X111523Y333347D01*
X111618Y333369D01*
X111714Y333390D01*
X111716Y333392D01*
X111719Y333393D01*
X111867Y333495D01*
X113412Y335041D01*
X117588Y335041D01*
X120541Y332088D01*
X120541Y331508D01*
X120542Y331503D01*
X120541Y331498D01*
X120562Y331405D01*
X120580Y331311D01*
X120583Y331307D01*
X120584Y331302D01*
X120640Y331224D01*
X120693Y331146D01*
X120697Y331143D01*
X120700Y331139D01*
X120782Y331088D01*
X120861Y331036D01*
X120866Y331036D01*
X120871Y331033D01*
X121048Y331001D01*
X133952Y331001D01*
X133957Y331002D01*
G37*
G36*
X133957Y111002D02*
X133957Y111002D01*
X133962Y111001D01*
X134055Y111022D01*
X134149Y111040D01*
X134153Y111043D01*
X134158Y111044D01*
X134236Y111100D01*
X134314Y111153D01*
X134317Y111157D01*
X134321Y111160D01*
X134372Y111242D01*
X134424Y111321D01*
X134424Y111326D01*
X134427Y111331D01*
X134459Y111508D01*
X134459Y112088D01*
X137412Y115041D01*
X141588Y115041D01*
X144541Y112088D01*
X144541Y111508D01*
X144542Y111503D01*
X144541Y111498D01*
X144562Y111405D01*
X144580Y111311D01*
X144583Y111307D01*
X144584Y111302D01*
X144640Y111224D01*
X144693Y111146D01*
X144697Y111143D01*
X144700Y111139D01*
X144782Y111088D01*
X144861Y111036D01*
X144866Y111036D01*
X144871Y111033D01*
X145048Y111001D01*
X157492Y111001D01*
X157497Y111002D01*
X157502Y111001D01*
X157595Y111022D01*
X157689Y111040D01*
X157693Y111043D01*
X157698Y111044D01*
X157776Y111100D01*
X157854Y111153D01*
X157857Y111157D01*
X157861Y111160D01*
X157912Y111242D01*
X157964Y111321D01*
X157964Y111326D01*
X157967Y111331D01*
X157999Y111508D01*
X157999Y122804D01*
X158250Y123238D01*
X158262Y123274D01*
X158282Y123305D01*
X158294Y123368D01*
X158314Y123428D01*
X158311Y123466D01*
X158318Y123502D01*
X158304Y123565D01*
X158299Y123628D01*
X158282Y123662D01*
X158274Y123698D01*
X158237Y123750D01*
X158208Y123807D01*
X158180Y123831D01*
X158158Y123861D01*
X158104Y123895D01*
X158102Y123897D01*
X155999Y126000D01*
X155999Y142000D01*
X158073Y144074D01*
X158120Y144117D01*
X158173Y144153D01*
X158193Y144184D01*
X158221Y144210D01*
X158248Y144268D01*
X158282Y144321D01*
X158289Y144358D01*
X158305Y144392D01*
X158307Y144455D01*
X158318Y144518D01*
X158310Y144555D01*
X158311Y144592D01*
X158286Y144662D01*
X158274Y144714D01*
X158260Y144734D01*
X158250Y144762D01*
X157999Y145196D01*
X157999Y146575D01*
X157998Y146583D01*
X157999Y146591D01*
X157978Y146681D01*
X157960Y146772D01*
X157955Y146778D01*
X157953Y146786D01*
X157851Y146934D01*
X155734Y149051D01*
X155727Y149055D01*
X155723Y149061D01*
X155644Y149110D01*
X155567Y149162D01*
X155559Y149163D01*
X155553Y149167D01*
X155375Y149199D01*
X141062Y149199D01*
X139437Y150137D01*
X138499Y151762D01*
X138499Y155638D01*
X139437Y157263D01*
X140746Y158018D01*
X140801Y158067D01*
X140861Y158110D01*
X140876Y158133D01*
X140896Y158151D01*
X140928Y158217D01*
X140967Y158280D01*
X140972Y158309D01*
X140983Y158331D01*
X140986Y158385D01*
X140999Y158457D01*
X140999Y159282D01*
X140990Y159328D01*
X140991Y159375D01*
X140969Y159432D01*
X140960Y159479D01*
X140941Y159506D01*
X140927Y159543D01*
X137488Y165275D01*
X137453Y165314D01*
X137411Y165373D01*
X137044Y165739D01*
X136501Y167042D01*
X136501Y167125D01*
X136499Y167131D01*
X136499Y167142D01*
X136500Y167146D01*
X136499Y167149D01*
X136499Y167743D01*
X136499Y167745D01*
X136499Y167747D01*
X136499Y167748D01*
X136498Y168243D01*
X136497Y168248D01*
X136498Y168252D01*
X136477Y168347D01*
X136458Y168439D01*
X136456Y168443D01*
X136455Y168448D01*
X136399Y168527D01*
X136345Y168605D01*
X136341Y168608D01*
X136339Y168611D01*
X136257Y168662D01*
X136177Y168714D01*
X136172Y168715D01*
X136168Y168717D01*
X135991Y168749D01*
X135009Y168749D01*
X135004Y168748D01*
X135000Y168749D01*
X134907Y168729D01*
X134813Y168710D01*
X134809Y168707D01*
X134804Y168706D01*
X134726Y168651D01*
X134647Y168597D01*
X134644Y168593D01*
X134640Y168590D01*
X134589Y168508D01*
X134537Y168429D01*
X134537Y168424D01*
X134534Y168420D01*
X134502Y168243D01*
X134501Y167748D01*
X134501Y167747D01*
X134501Y167131D01*
X134500Y167130D01*
X134499Y167125D01*
X134499Y167042D01*
X133956Y165739D01*
X133589Y165373D01*
X133559Y165329D01*
X133512Y165275D01*
X130073Y159543D01*
X130057Y159499D01*
X130033Y159460D01*
X130022Y159399D01*
X130006Y159354D01*
X130008Y159321D01*
X130001Y159282D01*
X130001Y158457D01*
X130015Y158385D01*
X130022Y158311D01*
X130035Y158287D01*
X130040Y158261D01*
X130082Y158200D01*
X130117Y158134D01*
X130139Y158116D01*
X130153Y158095D01*
X130198Y158066D01*
X130254Y158018D01*
X131563Y157263D01*
X132501Y155638D01*
X132501Y151762D01*
X131563Y150137D01*
X129938Y149199D01*
X113625Y149199D01*
X113617Y149198D01*
X113609Y149199D01*
X113519Y149178D01*
X113428Y149160D01*
X113422Y149155D01*
X113414Y149153D01*
X113266Y149051D01*
X111149Y146934D01*
X111145Y146928D01*
X111139Y146923D01*
X111090Y146844D01*
X111038Y146767D01*
X111037Y146759D01*
X111033Y146753D01*
X111001Y146575D01*
X111001Y145196D01*
X110750Y144762D01*
X110738Y144726D01*
X110718Y144695D01*
X110706Y144632D01*
X110686Y144572D01*
X110689Y144534D01*
X110682Y144498D01*
X110696Y144435D01*
X110701Y144372D01*
X110718Y144338D01*
X110726Y144302D01*
X110763Y144250D01*
X110792Y144193D01*
X110820Y144169D01*
X110842Y144139D01*
X110896Y144105D01*
X110898Y144103D01*
X113001Y142000D01*
X113001Y126000D01*
X110927Y123926D01*
X110880Y123883D01*
X110827Y123847D01*
X110807Y123816D01*
X110779Y123790D01*
X110752Y123732D01*
X110718Y123679D01*
X110711Y123642D01*
X110695Y123608D01*
X110693Y123545D01*
X110682Y123482D01*
X110690Y123445D01*
X110689Y123408D01*
X110714Y123338D01*
X110726Y123286D01*
X110740Y123266D01*
X110750Y123238D01*
X111001Y122804D01*
X111001Y113854D01*
X111001Y113851D01*
X111001Y113849D01*
X111021Y113754D01*
X111040Y113657D01*
X111042Y113655D01*
X111042Y113653D01*
X111098Y113572D01*
X111153Y113492D01*
X111155Y113490D01*
X111157Y113488D01*
X111240Y113435D01*
X111321Y113382D01*
X111324Y113382D01*
X111326Y113381D01*
X111422Y113364D01*
X111518Y113347D01*
X111521Y113347D01*
X111523Y113347D01*
X111618Y113369D01*
X111714Y113390D01*
X111716Y113392D01*
X111719Y113393D01*
X111867Y113495D01*
X113412Y115041D01*
X117588Y115041D01*
X120541Y112088D01*
X120541Y111508D01*
X120542Y111503D01*
X120541Y111498D01*
X120562Y111405D01*
X120580Y111311D01*
X120583Y111307D01*
X120584Y111302D01*
X120640Y111224D01*
X120693Y111146D01*
X120697Y111143D01*
X120700Y111139D01*
X120782Y111088D01*
X120861Y111036D01*
X120866Y111036D01*
X120871Y111033D01*
X121048Y111001D01*
X133952Y111001D01*
X133957Y111002D01*
G37*
G36*
X243957Y221002D02*
X243957Y221002D01*
X243962Y221001D01*
X244055Y221022D01*
X244149Y221040D01*
X244153Y221043D01*
X244158Y221044D01*
X244236Y221100D01*
X244314Y221153D01*
X244317Y221157D01*
X244321Y221160D01*
X244372Y221242D01*
X244424Y221321D01*
X244424Y221326D01*
X244427Y221331D01*
X244459Y221508D01*
X244459Y222088D01*
X247412Y225041D01*
X251588Y225041D01*
X254541Y222088D01*
X254541Y221508D01*
X254542Y221503D01*
X254541Y221498D01*
X254562Y221405D01*
X254580Y221311D01*
X254583Y221307D01*
X254584Y221302D01*
X254640Y221224D01*
X254693Y221146D01*
X254697Y221143D01*
X254700Y221139D01*
X254782Y221088D01*
X254861Y221036D01*
X254866Y221036D01*
X254871Y221033D01*
X255048Y221001D01*
X267492Y221001D01*
X267497Y221002D01*
X267502Y221001D01*
X267595Y221022D01*
X267689Y221040D01*
X267693Y221043D01*
X267698Y221044D01*
X267776Y221100D01*
X267854Y221153D01*
X267857Y221157D01*
X267861Y221160D01*
X267912Y221242D01*
X267964Y221321D01*
X267964Y221326D01*
X267967Y221331D01*
X267999Y221508D01*
X267999Y232804D01*
X268250Y233238D01*
X268262Y233274D01*
X268282Y233305D01*
X268294Y233368D01*
X268314Y233428D01*
X268311Y233466D01*
X268318Y233502D01*
X268304Y233565D01*
X268299Y233628D01*
X268282Y233662D01*
X268274Y233698D01*
X268237Y233750D01*
X268208Y233807D01*
X268180Y233831D01*
X268158Y233861D01*
X268104Y233895D01*
X268102Y233897D01*
X265999Y236000D01*
X265999Y252000D01*
X268073Y254074D01*
X268120Y254117D01*
X268173Y254153D01*
X268193Y254184D01*
X268221Y254210D01*
X268248Y254268D01*
X268282Y254321D01*
X268289Y254358D01*
X268305Y254392D01*
X268307Y254455D01*
X268318Y254518D01*
X268310Y254555D01*
X268311Y254592D01*
X268286Y254662D01*
X268274Y254714D01*
X268260Y254734D01*
X268250Y254762D01*
X267999Y255196D01*
X267999Y256575D01*
X267998Y256583D01*
X267999Y256591D01*
X267978Y256681D01*
X267960Y256772D01*
X267955Y256778D01*
X267953Y256786D01*
X267851Y256934D01*
X265734Y259051D01*
X265727Y259055D01*
X265723Y259061D01*
X265644Y259110D01*
X265567Y259162D01*
X265559Y259163D01*
X265553Y259167D01*
X265375Y259199D01*
X251062Y259199D01*
X249437Y260137D01*
X248499Y261762D01*
X248499Y265638D01*
X249437Y267263D01*
X250746Y268018D01*
X250801Y268067D01*
X250861Y268110D01*
X250876Y268133D01*
X250896Y268151D01*
X250928Y268217D01*
X250967Y268280D01*
X250972Y268309D01*
X250983Y268331D01*
X250986Y268385D01*
X250999Y268457D01*
X250999Y269282D01*
X250990Y269328D01*
X250991Y269375D01*
X250969Y269432D01*
X250960Y269479D01*
X250941Y269506D01*
X250927Y269543D01*
X247488Y275275D01*
X247453Y275314D01*
X247411Y275373D01*
X247044Y275739D01*
X246501Y277042D01*
X246501Y277125D01*
X246499Y277131D01*
X246499Y277142D01*
X246500Y277146D01*
X246499Y277149D01*
X246499Y277748D01*
X246499Y277749D01*
X246498Y278243D01*
X246497Y278248D01*
X246498Y278252D01*
X246477Y278347D01*
X246458Y278439D01*
X246456Y278443D01*
X246455Y278448D01*
X246399Y278527D01*
X246345Y278605D01*
X246341Y278608D01*
X246339Y278611D01*
X246257Y278662D01*
X246177Y278714D01*
X246172Y278715D01*
X246168Y278717D01*
X245991Y278749D01*
X245009Y278749D01*
X245004Y278748D01*
X245000Y278749D01*
X244907Y278729D01*
X244813Y278710D01*
X244809Y278707D01*
X244804Y278706D01*
X244726Y278651D01*
X244647Y278597D01*
X244644Y278593D01*
X244640Y278590D01*
X244589Y278508D01*
X244537Y278429D01*
X244537Y278424D01*
X244534Y278420D01*
X244502Y278243D01*
X244501Y277748D01*
X244501Y277747D01*
X244501Y277131D01*
X244500Y277130D01*
X244499Y277125D01*
X244499Y277042D01*
X243956Y275739D01*
X243589Y275373D01*
X243559Y275329D01*
X243512Y275275D01*
X240073Y269543D01*
X240057Y269499D01*
X240033Y269460D01*
X240022Y269399D01*
X240006Y269354D01*
X240008Y269321D01*
X240001Y269282D01*
X240001Y268457D01*
X240015Y268385D01*
X240022Y268311D01*
X240035Y268287D01*
X240040Y268261D01*
X240082Y268200D01*
X240117Y268134D01*
X240139Y268116D01*
X240153Y268095D01*
X240198Y268066D01*
X240254Y268018D01*
X241563Y267263D01*
X242501Y265638D01*
X242501Y261762D01*
X241563Y260137D01*
X239938Y259199D01*
X223625Y259199D01*
X223617Y259198D01*
X223609Y259199D01*
X223519Y259178D01*
X223428Y259160D01*
X223422Y259155D01*
X223414Y259153D01*
X223266Y259051D01*
X221149Y256934D01*
X221145Y256927D01*
X221139Y256923D01*
X221090Y256844D01*
X221038Y256767D01*
X221037Y256759D01*
X221033Y256753D01*
X221001Y256575D01*
X221001Y255196D01*
X220750Y254762D01*
X220738Y254726D01*
X220718Y254695D01*
X220706Y254632D01*
X220686Y254572D01*
X220689Y254534D01*
X220682Y254498D01*
X220696Y254435D01*
X220701Y254372D01*
X220718Y254338D01*
X220726Y254302D01*
X220763Y254250D01*
X220792Y254193D01*
X220820Y254169D01*
X220842Y254139D01*
X220896Y254105D01*
X220898Y254103D01*
X223001Y252000D01*
X223001Y236000D01*
X220927Y233926D01*
X220880Y233883D01*
X220827Y233847D01*
X220807Y233816D01*
X220779Y233790D01*
X220752Y233732D01*
X220718Y233679D01*
X220711Y233642D01*
X220695Y233608D01*
X220693Y233545D01*
X220682Y233482D01*
X220690Y233445D01*
X220689Y233408D01*
X220714Y233338D01*
X220726Y233286D01*
X220740Y233266D01*
X220750Y233238D01*
X221001Y232804D01*
X221001Y223854D01*
X221001Y223851D01*
X221001Y223849D01*
X221021Y223754D01*
X221040Y223657D01*
X221042Y223655D01*
X221042Y223653D01*
X221098Y223572D01*
X221153Y223492D01*
X221155Y223490D01*
X221157Y223488D01*
X221240Y223435D01*
X221321Y223382D01*
X221324Y223382D01*
X221326Y223381D01*
X221422Y223364D01*
X221518Y223347D01*
X221521Y223347D01*
X221523Y223347D01*
X221618Y223369D01*
X221714Y223390D01*
X221716Y223392D01*
X221719Y223393D01*
X221867Y223495D01*
X223412Y225041D01*
X227588Y225041D01*
X230541Y222088D01*
X230541Y221508D01*
X230542Y221503D01*
X230541Y221498D01*
X230562Y221405D01*
X230580Y221311D01*
X230583Y221307D01*
X230584Y221302D01*
X230640Y221224D01*
X230693Y221146D01*
X230697Y221143D01*
X230700Y221139D01*
X230782Y221088D01*
X230861Y221036D01*
X230866Y221036D01*
X230871Y221033D01*
X231048Y221001D01*
X243952Y221001D01*
X243957Y221002D01*
G37*
G36*
X23957Y111002D02*
X23957Y111002D01*
X23962Y111001D01*
X24055Y111022D01*
X24149Y111040D01*
X24153Y111043D01*
X24158Y111044D01*
X24236Y111100D01*
X24314Y111153D01*
X24317Y111157D01*
X24321Y111160D01*
X24372Y111242D01*
X24424Y111321D01*
X24424Y111326D01*
X24427Y111331D01*
X24459Y111508D01*
X24459Y112088D01*
X27412Y115041D01*
X31588Y115041D01*
X34541Y112088D01*
X34541Y111508D01*
X34542Y111503D01*
X34541Y111498D01*
X34562Y111405D01*
X34580Y111311D01*
X34583Y111307D01*
X34584Y111302D01*
X34640Y111224D01*
X34693Y111146D01*
X34697Y111143D01*
X34700Y111139D01*
X34782Y111088D01*
X34861Y111036D01*
X34866Y111036D01*
X34871Y111033D01*
X35048Y111001D01*
X47492Y111001D01*
X47497Y111002D01*
X47502Y111001D01*
X47595Y111022D01*
X47689Y111040D01*
X47693Y111043D01*
X47698Y111044D01*
X47776Y111100D01*
X47854Y111153D01*
X47857Y111157D01*
X47861Y111160D01*
X47912Y111242D01*
X47964Y111321D01*
X47964Y111326D01*
X47967Y111331D01*
X47999Y111508D01*
X47999Y122804D01*
X48250Y123238D01*
X48262Y123274D01*
X48282Y123305D01*
X48294Y123368D01*
X48314Y123428D01*
X48311Y123466D01*
X48318Y123502D01*
X48304Y123565D01*
X48299Y123628D01*
X48282Y123662D01*
X48274Y123698D01*
X48237Y123750D01*
X48208Y123807D01*
X48180Y123831D01*
X48158Y123861D01*
X48104Y123895D01*
X48102Y123897D01*
X45999Y126000D01*
X45999Y142000D01*
X48073Y144074D01*
X48120Y144117D01*
X48173Y144153D01*
X48193Y144184D01*
X48221Y144210D01*
X48248Y144268D01*
X48282Y144321D01*
X48289Y144358D01*
X48305Y144392D01*
X48307Y144455D01*
X48318Y144518D01*
X48310Y144555D01*
X48311Y144592D01*
X48286Y144662D01*
X48274Y144714D01*
X48260Y144734D01*
X48250Y144762D01*
X47999Y145196D01*
X47999Y146575D01*
X47998Y146583D01*
X47999Y146591D01*
X47978Y146681D01*
X47960Y146772D01*
X47955Y146778D01*
X47953Y146786D01*
X47851Y146934D01*
X45734Y149051D01*
X45727Y149055D01*
X45723Y149061D01*
X45644Y149110D01*
X45567Y149162D01*
X45559Y149163D01*
X45553Y149167D01*
X45375Y149199D01*
X31062Y149199D01*
X29437Y150137D01*
X28499Y151762D01*
X28499Y155638D01*
X29437Y157263D01*
X30746Y158018D01*
X30801Y158067D01*
X30861Y158110D01*
X30876Y158133D01*
X30896Y158151D01*
X30928Y158217D01*
X30967Y158280D01*
X30972Y158309D01*
X30983Y158331D01*
X30986Y158385D01*
X30999Y158457D01*
X30999Y159282D01*
X30990Y159328D01*
X30991Y159375D01*
X30969Y159432D01*
X30960Y159479D01*
X30941Y159506D01*
X30927Y159543D01*
X27488Y165275D01*
X27453Y165314D01*
X27411Y165373D01*
X27044Y165739D01*
X26501Y167042D01*
X26501Y167125D01*
X26499Y167131D01*
X26499Y167142D01*
X26500Y167146D01*
X26499Y167149D01*
X26499Y167748D01*
X26499Y167749D01*
X26498Y168243D01*
X26497Y168248D01*
X26498Y168252D01*
X26477Y168347D01*
X26458Y168439D01*
X26456Y168443D01*
X26455Y168448D01*
X26399Y168527D01*
X26345Y168605D01*
X26341Y168608D01*
X26339Y168611D01*
X26257Y168662D01*
X26177Y168714D01*
X26172Y168715D01*
X26168Y168717D01*
X25991Y168749D01*
X25009Y168749D01*
X25004Y168748D01*
X25000Y168749D01*
X24907Y168729D01*
X24813Y168710D01*
X24809Y168707D01*
X24804Y168706D01*
X24726Y168651D01*
X24647Y168597D01*
X24644Y168593D01*
X24640Y168590D01*
X24589Y168508D01*
X24537Y168429D01*
X24537Y168424D01*
X24534Y168420D01*
X24502Y168243D01*
X24501Y167748D01*
X24501Y167747D01*
X24501Y167131D01*
X24500Y167130D01*
X24499Y167125D01*
X24499Y167042D01*
X23956Y165739D01*
X23589Y165373D01*
X23559Y165329D01*
X23512Y165275D01*
X20073Y159543D01*
X20057Y159499D01*
X20033Y159460D01*
X20022Y159399D01*
X20006Y159354D01*
X20008Y159321D01*
X20001Y159282D01*
X20001Y158457D01*
X20015Y158385D01*
X20022Y158311D01*
X20035Y158287D01*
X20040Y158261D01*
X20082Y158200D01*
X20117Y158134D01*
X20139Y158116D01*
X20153Y158095D01*
X20198Y158066D01*
X20254Y158018D01*
X21563Y157263D01*
X22501Y155638D01*
X22501Y151762D01*
X21563Y150137D01*
X19938Y149199D01*
X3625Y149199D01*
X3617Y149198D01*
X3609Y149199D01*
X3519Y149178D01*
X3428Y149160D01*
X3422Y149155D01*
X3414Y149153D01*
X3266Y149051D01*
X1149Y146934D01*
X1145Y146927D01*
X1139Y146923D01*
X1090Y146844D01*
X1038Y146767D01*
X1037Y146759D01*
X1033Y146753D01*
X1001Y146575D01*
X1001Y145196D01*
X750Y144762D01*
X738Y144726D01*
X718Y144695D01*
X706Y144632D01*
X686Y144572D01*
X689Y144534D01*
X682Y144498D01*
X696Y144435D01*
X701Y144372D01*
X718Y144338D01*
X726Y144302D01*
X763Y144250D01*
X792Y144193D01*
X820Y144169D01*
X842Y144139D01*
X896Y144105D01*
X898Y144103D01*
X3001Y142000D01*
X3001Y126000D01*
X927Y123926D01*
X880Y123883D01*
X827Y123847D01*
X807Y123816D01*
X779Y123790D01*
X752Y123732D01*
X718Y123679D01*
X711Y123642D01*
X695Y123608D01*
X693Y123545D01*
X682Y123482D01*
X690Y123445D01*
X689Y123408D01*
X714Y123338D01*
X726Y123286D01*
X740Y123266D01*
X750Y123238D01*
X1001Y122804D01*
X1001Y113854D01*
X1001Y113851D01*
X1001Y113849D01*
X1021Y113754D01*
X1040Y113657D01*
X1042Y113655D01*
X1042Y113653D01*
X1098Y113572D01*
X1153Y113492D01*
X1155Y113490D01*
X1157Y113488D01*
X1240Y113435D01*
X1321Y113382D01*
X1324Y113382D01*
X1326Y113381D01*
X1422Y113364D01*
X1518Y113347D01*
X1521Y113347D01*
X1523Y113347D01*
X1618Y113369D01*
X1714Y113390D01*
X1716Y113392D01*
X1719Y113393D01*
X1867Y113495D01*
X3412Y115041D01*
X7588Y115041D01*
X10541Y112088D01*
X10541Y111508D01*
X10542Y111503D01*
X10541Y111498D01*
X10562Y111405D01*
X10580Y111311D01*
X10583Y111307D01*
X10584Y111302D01*
X10640Y111224D01*
X10693Y111146D01*
X10697Y111143D01*
X10700Y111139D01*
X10782Y111088D01*
X10861Y111036D01*
X10866Y111036D01*
X10871Y111033D01*
X11048Y111001D01*
X23952Y111001D01*
X23957Y111002D01*
G37*
G36*
X243957Y1002D02*
X243957Y1002D01*
X243962Y1001D01*
X244055Y1022D01*
X244149Y1040D01*
X244153Y1043D01*
X244158Y1044D01*
X244236Y1100D01*
X244314Y1153D01*
X244317Y1157D01*
X244321Y1160D01*
X244372Y1242D01*
X244424Y1321D01*
X244424Y1326D01*
X244427Y1331D01*
X244459Y1508D01*
X244459Y2088D01*
X247412Y5041D01*
X251588Y5041D01*
X254541Y2088D01*
X254541Y1508D01*
X254542Y1503D01*
X254541Y1498D01*
X254562Y1405D01*
X254580Y1311D01*
X254583Y1307D01*
X254584Y1302D01*
X254640Y1224D01*
X254693Y1146D01*
X254697Y1143D01*
X254700Y1139D01*
X254782Y1088D01*
X254861Y1036D01*
X254866Y1036D01*
X254871Y1033D01*
X255048Y1001D01*
X267492Y1001D01*
X267497Y1002D01*
X267502Y1001D01*
X267595Y1022D01*
X267689Y1040D01*
X267693Y1043D01*
X267698Y1044D01*
X267776Y1100D01*
X267854Y1153D01*
X267857Y1157D01*
X267861Y1160D01*
X267912Y1242D01*
X267964Y1321D01*
X267964Y1326D01*
X267967Y1331D01*
X267999Y1508D01*
X267999Y12804D01*
X268250Y13238D01*
X268262Y13274D01*
X268282Y13305D01*
X268294Y13368D01*
X268314Y13428D01*
X268311Y13466D01*
X268318Y13502D01*
X268304Y13565D01*
X268299Y13628D01*
X268282Y13661D01*
X268274Y13698D01*
X268237Y13750D01*
X268208Y13807D01*
X268180Y13831D01*
X268158Y13861D01*
X268104Y13895D01*
X268102Y13897D01*
X265999Y16000D01*
X265999Y32000D01*
X266148Y32149D01*
X267851Y33852D01*
X268073Y34074D01*
X268120Y34117D01*
X268173Y34153D01*
X268193Y34184D01*
X268221Y34210D01*
X268248Y34268D01*
X268282Y34321D01*
X268289Y34358D01*
X268305Y34392D01*
X268307Y34455D01*
X268318Y34518D01*
X268310Y34555D01*
X268311Y34592D01*
X268286Y34662D01*
X268274Y34714D01*
X268260Y34734D01*
X268250Y34762D01*
X267999Y35196D01*
X267999Y36575D01*
X267998Y36583D01*
X267999Y36591D01*
X267978Y36681D01*
X267960Y36772D01*
X267955Y36778D01*
X267953Y36786D01*
X267851Y36934D01*
X265734Y39051D01*
X265727Y39055D01*
X265723Y39061D01*
X265644Y39110D01*
X265567Y39162D01*
X265559Y39163D01*
X265553Y39167D01*
X265375Y39199D01*
X251062Y39199D01*
X249437Y40137D01*
X248499Y41762D01*
X248499Y45638D01*
X249437Y47263D01*
X250746Y48018D01*
X250801Y48067D01*
X250861Y48110D01*
X250876Y48133D01*
X250896Y48151D01*
X250928Y48217D01*
X250967Y48280D01*
X250972Y48309D01*
X250983Y48331D01*
X250986Y48385D01*
X250999Y48457D01*
X250999Y49282D01*
X250990Y49328D01*
X250991Y49375D01*
X250969Y49432D01*
X250960Y49479D01*
X250941Y49506D01*
X250927Y49543D01*
X247488Y55275D01*
X247453Y55314D01*
X247411Y55373D01*
X247044Y55739D01*
X246501Y57042D01*
X246501Y57125D01*
X246499Y57131D01*
X246499Y57142D01*
X246500Y57146D01*
X246499Y57149D01*
X246499Y57748D01*
X246499Y57749D01*
X246498Y58243D01*
X246497Y58248D01*
X246498Y58252D01*
X246477Y58347D01*
X246458Y58439D01*
X246456Y58443D01*
X246455Y58448D01*
X246399Y58527D01*
X246345Y58605D01*
X246341Y58608D01*
X246339Y58611D01*
X246257Y58662D01*
X246177Y58714D01*
X246172Y58715D01*
X246168Y58717D01*
X245991Y58749D01*
X245009Y58749D01*
X245004Y58748D01*
X245000Y58749D01*
X244907Y58729D01*
X244813Y58710D01*
X244809Y58707D01*
X244804Y58706D01*
X244726Y58651D01*
X244647Y58597D01*
X244644Y58593D01*
X244640Y58590D01*
X244589Y58508D01*
X244537Y58429D01*
X244537Y58424D01*
X244534Y58420D01*
X244502Y58243D01*
X244501Y57748D01*
X244501Y57747D01*
X244501Y57131D01*
X244500Y57130D01*
X244499Y57125D01*
X244499Y57042D01*
X243956Y55739D01*
X243589Y55373D01*
X243559Y55329D01*
X243512Y55275D01*
X240073Y49543D01*
X240057Y49499D01*
X240033Y49460D01*
X240022Y49399D01*
X240006Y49354D01*
X240008Y49321D01*
X240001Y49282D01*
X240001Y48457D01*
X240015Y48385D01*
X240022Y48311D01*
X240035Y48287D01*
X240040Y48261D01*
X240082Y48200D01*
X240117Y48134D01*
X240139Y48116D01*
X240153Y48095D01*
X240198Y48066D01*
X240254Y48018D01*
X241563Y47263D01*
X242501Y45638D01*
X242501Y41762D01*
X241563Y40137D01*
X239938Y39199D01*
X223625Y39199D01*
X223617Y39198D01*
X223609Y39199D01*
X223519Y39178D01*
X223428Y39160D01*
X223422Y39155D01*
X223414Y39153D01*
X223266Y39051D01*
X221149Y36934D01*
X221145Y36927D01*
X221139Y36923D01*
X221090Y36844D01*
X221038Y36767D01*
X221037Y36759D01*
X221033Y36753D01*
X221001Y36575D01*
X221001Y35196D01*
X220750Y34762D01*
X220738Y34726D01*
X220718Y34695D01*
X220706Y34632D01*
X220686Y34572D01*
X220689Y34534D01*
X220682Y34498D01*
X220696Y34435D01*
X220701Y34372D01*
X220718Y34338D01*
X220726Y34302D01*
X220763Y34250D01*
X220792Y34193D01*
X220820Y34169D01*
X220842Y34139D01*
X220896Y34105D01*
X220898Y34103D01*
X221149Y33852D01*
X222852Y32149D01*
X223001Y32000D01*
X223001Y16000D01*
X220927Y13926D01*
X220880Y13883D01*
X220827Y13847D01*
X220807Y13816D01*
X220779Y13790D01*
X220752Y13732D01*
X220718Y13679D01*
X220711Y13642D01*
X220695Y13608D01*
X220693Y13545D01*
X220682Y13482D01*
X220690Y13445D01*
X220689Y13408D01*
X220714Y13338D01*
X220726Y13286D01*
X220740Y13266D01*
X220750Y13238D01*
X221001Y12804D01*
X221001Y3854D01*
X221001Y3851D01*
X221001Y3849D01*
X221021Y3754D01*
X221040Y3657D01*
X221042Y3655D01*
X221042Y3653D01*
X221098Y3572D01*
X221153Y3492D01*
X221155Y3490D01*
X221157Y3488D01*
X221240Y3435D01*
X221321Y3382D01*
X221324Y3382D01*
X221326Y3381D01*
X221422Y3364D01*
X221518Y3347D01*
X221521Y3347D01*
X221523Y3347D01*
X221618Y3369D01*
X221714Y3390D01*
X221716Y3392D01*
X221719Y3393D01*
X221867Y3495D01*
X223412Y5041D01*
X227588Y5041D01*
X230541Y2088D01*
X230541Y1508D01*
X230542Y1503D01*
X230541Y1498D01*
X230562Y1405D01*
X230580Y1311D01*
X230583Y1307D01*
X230584Y1302D01*
X230640Y1224D01*
X230693Y1146D01*
X230697Y1143D01*
X230700Y1139D01*
X230782Y1088D01*
X230861Y1036D01*
X230866Y1036D01*
X230871Y1033D01*
X231048Y1001D01*
X243952Y1001D01*
X243957Y1002D01*
G37*
G36*
X23957Y221002D02*
X23957Y221002D01*
X23962Y221001D01*
X24055Y221022D01*
X24149Y221040D01*
X24153Y221043D01*
X24158Y221044D01*
X24236Y221100D01*
X24314Y221153D01*
X24317Y221157D01*
X24321Y221160D01*
X24372Y221242D01*
X24424Y221321D01*
X24424Y221326D01*
X24427Y221331D01*
X24459Y221508D01*
X24459Y222088D01*
X27412Y225041D01*
X31588Y225041D01*
X34541Y222088D01*
X34541Y221508D01*
X34542Y221503D01*
X34541Y221498D01*
X34562Y221405D01*
X34580Y221311D01*
X34583Y221307D01*
X34584Y221302D01*
X34640Y221224D01*
X34693Y221146D01*
X34697Y221143D01*
X34700Y221139D01*
X34782Y221088D01*
X34861Y221036D01*
X34866Y221036D01*
X34871Y221033D01*
X35048Y221001D01*
X47492Y221001D01*
X47497Y221002D01*
X47502Y221001D01*
X47595Y221022D01*
X47689Y221040D01*
X47693Y221043D01*
X47698Y221044D01*
X47776Y221100D01*
X47854Y221153D01*
X47857Y221157D01*
X47861Y221160D01*
X47912Y221242D01*
X47964Y221321D01*
X47964Y221326D01*
X47967Y221331D01*
X47999Y221508D01*
X47999Y232804D01*
X48250Y233238D01*
X48262Y233274D01*
X48282Y233305D01*
X48294Y233368D01*
X48314Y233428D01*
X48311Y233466D01*
X48318Y233502D01*
X48304Y233565D01*
X48299Y233628D01*
X48282Y233662D01*
X48274Y233698D01*
X48237Y233750D01*
X48208Y233807D01*
X48180Y233831D01*
X48158Y233861D01*
X48104Y233895D01*
X48102Y233897D01*
X45999Y236000D01*
X45999Y252000D01*
X46148Y252149D01*
X47851Y253852D01*
X48073Y254074D01*
X48120Y254117D01*
X48173Y254153D01*
X48193Y254184D01*
X48221Y254210D01*
X48248Y254268D01*
X48282Y254321D01*
X48289Y254358D01*
X48305Y254392D01*
X48307Y254455D01*
X48318Y254518D01*
X48310Y254555D01*
X48311Y254592D01*
X48286Y254662D01*
X48274Y254714D01*
X48260Y254734D01*
X48250Y254762D01*
X47999Y255196D01*
X47999Y256575D01*
X47998Y256583D01*
X47999Y256591D01*
X47978Y256681D01*
X47960Y256772D01*
X47955Y256778D01*
X47953Y256786D01*
X47851Y256934D01*
X45734Y259051D01*
X45727Y259055D01*
X45723Y259061D01*
X45644Y259110D01*
X45567Y259162D01*
X45559Y259163D01*
X45553Y259167D01*
X45375Y259199D01*
X31062Y259199D01*
X29437Y260137D01*
X28499Y261762D01*
X28499Y265638D01*
X29437Y267263D01*
X30746Y268018D01*
X30801Y268067D01*
X30861Y268110D01*
X30876Y268133D01*
X30896Y268151D01*
X30928Y268217D01*
X30967Y268280D01*
X30972Y268309D01*
X30983Y268331D01*
X30986Y268385D01*
X30999Y268457D01*
X30999Y269282D01*
X30990Y269328D01*
X30991Y269375D01*
X30969Y269432D01*
X30960Y269479D01*
X30941Y269506D01*
X30927Y269543D01*
X27488Y275275D01*
X27453Y275314D01*
X27411Y275373D01*
X27044Y275739D01*
X26501Y277042D01*
X26501Y277125D01*
X26499Y277131D01*
X26499Y277142D01*
X26500Y277146D01*
X26499Y277149D01*
X26499Y277748D01*
X26499Y277749D01*
X26498Y278243D01*
X26497Y278248D01*
X26498Y278252D01*
X26477Y278347D01*
X26458Y278439D01*
X26456Y278443D01*
X26455Y278448D01*
X26399Y278527D01*
X26345Y278605D01*
X26341Y278608D01*
X26339Y278611D01*
X26257Y278662D01*
X26177Y278714D01*
X26172Y278715D01*
X26168Y278717D01*
X25991Y278749D01*
X25009Y278749D01*
X25004Y278748D01*
X25000Y278749D01*
X24907Y278729D01*
X24813Y278710D01*
X24809Y278707D01*
X24804Y278706D01*
X24726Y278651D01*
X24647Y278597D01*
X24644Y278593D01*
X24640Y278590D01*
X24589Y278508D01*
X24537Y278429D01*
X24537Y278424D01*
X24534Y278420D01*
X24502Y278243D01*
X24501Y277748D01*
X24501Y277745D01*
X24501Y277744D01*
X24501Y277742D01*
X24501Y277131D01*
X24500Y277130D01*
X24499Y277125D01*
X24499Y277042D01*
X23956Y275739D01*
X23589Y275373D01*
X23559Y275329D01*
X23512Y275275D01*
X20073Y269543D01*
X20057Y269499D01*
X20033Y269460D01*
X20022Y269399D01*
X20006Y269354D01*
X20008Y269321D01*
X20001Y269282D01*
X20001Y268457D01*
X20015Y268385D01*
X20022Y268311D01*
X20035Y268287D01*
X20040Y268261D01*
X20082Y268200D01*
X20117Y268134D01*
X20139Y268116D01*
X20153Y268095D01*
X20198Y268066D01*
X20254Y268018D01*
X21563Y267263D01*
X22501Y265638D01*
X22501Y261762D01*
X21563Y260137D01*
X19938Y259199D01*
X3625Y259199D01*
X3617Y259198D01*
X3609Y259199D01*
X3519Y259178D01*
X3428Y259160D01*
X3422Y259155D01*
X3414Y259153D01*
X3266Y259051D01*
X1149Y256934D01*
X1145Y256927D01*
X1139Y256923D01*
X1090Y256844D01*
X1038Y256767D01*
X1037Y256759D01*
X1033Y256753D01*
X1001Y256575D01*
X1001Y255196D01*
X750Y254762D01*
X738Y254726D01*
X718Y254695D01*
X706Y254632D01*
X686Y254572D01*
X689Y254534D01*
X682Y254498D01*
X696Y254435D01*
X701Y254372D01*
X718Y254338D01*
X726Y254302D01*
X763Y254250D01*
X792Y254193D01*
X820Y254169D01*
X842Y254139D01*
X896Y254105D01*
X898Y254103D01*
X1149Y253852D01*
X2852Y252149D01*
X3001Y252000D01*
X3001Y236000D01*
X927Y233926D01*
X880Y233883D01*
X827Y233847D01*
X807Y233816D01*
X779Y233790D01*
X752Y233732D01*
X718Y233679D01*
X711Y233642D01*
X695Y233608D01*
X693Y233545D01*
X682Y233482D01*
X690Y233445D01*
X689Y233408D01*
X714Y233338D01*
X726Y233286D01*
X740Y233266D01*
X750Y233238D01*
X1001Y232804D01*
X1001Y223854D01*
X1001Y223851D01*
X1001Y223849D01*
X1021Y223754D01*
X1040Y223657D01*
X1042Y223655D01*
X1042Y223653D01*
X1098Y223572D01*
X1153Y223492D01*
X1155Y223490D01*
X1157Y223488D01*
X1240Y223435D01*
X1321Y223382D01*
X1324Y223382D01*
X1326Y223381D01*
X1422Y223364D01*
X1518Y223347D01*
X1521Y223347D01*
X1523Y223347D01*
X1618Y223369D01*
X1714Y223390D01*
X1716Y223392D01*
X1719Y223393D01*
X1867Y223495D01*
X3412Y225041D01*
X7588Y225041D01*
X10541Y222088D01*
X10541Y221508D01*
X10542Y221503D01*
X10541Y221498D01*
X10562Y221405D01*
X10580Y221311D01*
X10583Y221307D01*
X10584Y221302D01*
X10640Y221224D01*
X10693Y221146D01*
X10697Y221143D01*
X10700Y221139D01*
X10782Y221088D01*
X10861Y221036D01*
X10866Y221036D01*
X10871Y221033D01*
X11048Y221001D01*
X23952Y221001D01*
X23957Y221002D01*
G37*
G36*
X243957Y111002D02*
X243957Y111002D01*
X243962Y111001D01*
X244055Y111022D01*
X244149Y111040D01*
X244153Y111043D01*
X244158Y111044D01*
X244236Y111100D01*
X244314Y111153D01*
X244317Y111157D01*
X244321Y111160D01*
X244372Y111242D01*
X244424Y111321D01*
X244424Y111326D01*
X244427Y111331D01*
X244459Y111508D01*
X244459Y112088D01*
X247412Y115041D01*
X251588Y115041D01*
X254541Y112088D01*
X254541Y111508D01*
X254542Y111503D01*
X254541Y111498D01*
X254562Y111405D01*
X254580Y111311D01*
X254583Y111307D01*
X254584Y111302D01*
X254640Y111224D01*
X254693Y111146D01*
X254697Y111143D01*
X254700Y111139D01*
X254782Y111088D01*
X254861Y111036D01*
X254866Y111036D01*
X254871Y111033D01*
X255048Y111001D01*
X267492Y111001D01*
X267497Y111002D01*
X267502Y111001D01*
X267595Y111022D01*
X267689Y111040D01*
X267693Y111043D01*
X267698Y111044D01*
X267776Y111100D01*
X267854Y111153D01*
X267857Y111157D01*
X267861Y111160D01*
X267912Y111242D01*
X267964Y111321D01*
X267964Y111326D01*
X267967Y111331D01*
X267999Y111508D01*
X267999Y122804D01*
X268250Y123238D01*
X268262Y123274D01*
X268282Y123305D01*
X268294Y123368D01*
X268314Y123428D01*
X268311Y123466D01*
X268318Y123502D01*
X268304Y123565D01*
X268299Y123628D01*
X268282Y123662D01*
X268274Y123698D01*
X268237Y123750D01*
X268208Y123807D01*
X268180Y123831D01*
X268158Y123861D01*
X268104Y123895D01*
X268102Y123897D01*
X265999Y126000D01*
X265999Y142000D01*
X268073Y144074D01*
X268120Y144117D01*
X268173Y144153D01*
X268193Y144184D01*
X268221Y144210D01*
X268248Y144268D01*
X268282Y144321D01*
X268289Y144358D01*
X268305Y144392D01*
X268307Y144455D01*
X268318Y144518D01*
X268310Y144555D01*
X268311Y144592D01*
X268286Y144662D01*
X268274Y144714D01*
X268260Y144734D01*
X268250Y144762D01*
X267999Y145196D01*
X267999Y146575D01*
X267998Y146583D01*
X267999Y146591D01*
X267978Y146681D01*
X267960Y146772D01*
X267955Y146778D01*
X267953Y146786D01*
X267851Y146934D01*
X265734Y149051D01*
X265727Y149055D01*
X265723Y149061D01*
X265644Y149110D01*
X265567Y149162D01*
X265559Y149163D01*
X265553Y149167D01*
X265375Y149199D01*
X251062Y149199D01*
X249437Y150137D01*
X248499Y151762D01*
X248499Y155638D01*
X249437Y157263D01*
X250746Y158018D01*
X250801Y158067D01*
X250861Y158110D01*
X250876Y158133D01*
X250896Y158151D01*
X250928Y158217D01*
X250967Y158280D01*
X250972Y158309D01*
X250983Y158331D01*
X250986Y158385D01*
X250999Y158457D01*
X250999Y159282D01*
X250990Y159328D01*
X250991Y159375D01*
X250969Y159432D01*
X250960Y159479D01*
X250941Y159506D01*
X250927Y159543D01*
X247488Y165275D01*
X247453Y165314D01*
X247411Y165373D01*
X247044Y165739D01*
X246501Y167042D01*
X246501Y167125D01*
X246499Y167131D01*
X246499Y167142D01*
X246500Y167146D01*
X246499Y167149D01*
X246499Y167748D01*
X246499Y167749D01*
X246498Y168243D01*
X246497Y168248D01*
X246498Y168252D01*
X246477Y168347D01*
X246458Y168439D01*
X246456Y168443D01*
X246455Y168448D01*
X246399Y168527D01*
X246345Y168605D01*
X246341Y168608D01*
X246339Y168611D01*
X246257Y168662D01*
X246177Y168714D01*
X246172Y168715D01*
X246168Y168717D01*
X245991Y168749D01*
X245009Y168749D01*
X245004Y168748D01*
X245000Y168749D01*
X244907Y168729D01*
X244813Y168710D01*
X244809Y168707D01*
X244804Y168706D01*
X244726Y168651D01*
X244647Y168597D01*
X244644Y168593D01*
X244640Y168590D01*
X244589Y168508D01*
X244537Y168429D01*
X244537Y168424D01*
X244534Y168420D01*
X244502Y168243D01*
X244501Y167748D01*
X244501Y167747D01*
X244501Y167131D01*
X244500Y167130D01*
X244499Y167125D01*
X244499Y167042D01*
X243956Y165739D01*
X243589Y165373D01*
X243560Y165329D01*
X243512Y165275D01*
X240073Y159543D01*
X240057Y159499D01*
X240033Y159460D01*
X240022Y159399D01*
X240006Y159354D01*
X240008Y159321D01*
X240001Y159282D01*
X240001Y158457D01*
X240015Y158385D01*
X240022Y158311D01*
X240035Y158287D01*
X240040Y158261D01*
X240082Y158200D01*
X240117Y158134D01*
X240139Y158116D01*
X240153Y158095D01*
X240198Y158066D01*
X240254Y158018D01*
X241563Y157263D01*
X242501Y155638D01*
X242501Y151762D01*
X241563Y150137D01*
X239938Y149199D01*
X223625Y149199D01*
X223617Y149198D01*
X223609Y149199D01*
X223519Y149178D01*
X223428Y149160D01*
X223422Y149155D01*
X223414Y149153D01*
X223266Y149051D01*
X221149Y146934D01*
X221145Y146927D01*
X221139Y146923D01*
X221090Y146844D01*
X221038Y146767D01*
X221037Y146759D01*
X221033Y146753D01*
X221001Y146575D01*
X221001Y145196D01*
X220750Y144762D01*
X220738Y144726D01*
X220718Y144695D01*
X220706Y144632D01*
X220686Y144572D01*
X220689Y144534D01*
X220682Y144498D01*
X220696Y144435D01*
X220701Y144372D01*
X220718Y144338D01*
X220726Y144302D01*
X220763Y144250D01*
X220792Y144193D01*
X220820Y144169D01*
X220842Y144139D01*
X220896Y144105D01*
X220898Y144103D01*
X223001Y142000D01*
X223001Y126000D01*
X220927Y123926D01*
X220880Y123883D01*
X220827Y123847D01*
X220807Y123816D01*
X220779Y123790D01*
X220752Y123732D01*
X220718Y123679D01*
X220711Y123642D01*
X220695Y123608D01*
X220693Y123545D01*
X220682Y123482D01*
X220690Y123445D01*
X220689Y123408D01*
X220714Y123338D01*
X220726Y123286D01*
X220740Y123266D01*
X220750Y123238D01*
X221001Y122804D01*
X221001Y113854D01*
X221001Y113851D01*
X221001Y113849D01*
X221021Y113754D01*
X221040Y113657D01*
X221042Y113655D01*
X221042Y113653D01*
X221098Y113572D01*
X221153Y113492D01*
X221155Y113490D01*
X221157Y113488D01*
X221240Y113435D01*
X221321Y113382D01*
X221324Y113382D01*
X221326Y113381D01*
X221422Y113364D01*
X221518Y113347D01*
X221521Y113347D01*
X221523Y113347D01*
X221618Y113369D01*
X221714Y113390D01*
X221716Y113392D01*
X221719Y113393D01*
X221867Y113495D01*
X223412Y115041D01*
X227588Y115041D01*
X230541Y112088D01*
X230541Y111508D01*
X230542Y111503D01*
X230541Y111498D01*
X230562Y111405D01*
X230580Y111311D01*
X230583Y111307D01*
X230584Y111302D01*
X230640Y111224D01*
X230693Y111146D01*
X230697Y111143D01*
X230700Y111139D01*
X230782Y111088D01*
X230861Y111036D01*
X230866Y111036D01*
X230871Y111033D01*
X231048Y111001D01*
X243952Y111001D01*
X243957Y111002D01*
G37*
G36*
X353957Y221002D02*
X353957Y221002D01*
X353962Y221001D01*
X354055Y221022D01*
X354149Y221040D01*
X354153Y221043D01*
X354158Y221044D01*
X354236Y221100D01*
X354314Y221153D01*
X354317Y221157D01*
X354321Y221160D01*
X354372Y221242D01*
X354424Y221321D01*
X354424Y221326D01*
X354427Y221331D01*
X354459Y221508D01*
X354459Y222088D01*
X357412Y225041D01*
X361588Y225041D01*
X364541Y222088D01*
X364541Y221508D01*
X364542Y221503D01*
X364541Y221498D01*
X364562Y221405D01*
X364580Y221311D01*
X364583Y221307D01*
X364584Y221302D01*
X364640Y221224D01*
X364693Y221146D01*
X364697Y221143D01*
X364700Y221139D01*
X364782Y221088D01*
X364861Y221036D01*
X364866Y221036D01*
X364871Y221033D01*
X365048Y221001D01*
X377492Y221001D01*
X377497Y221002D01*
X377502Y221001D01*
X377595Y221022D01*
X377689Y221040D01*
X377693Y221043D01*
X377698Y221044D01*
X377776Y221100D01*
X377854Y221153D01*
X377857Y221157D01*
X377861Y221160D01*
X377912Y221242D01*
X377964Y221321D01*
X377964Y221326D01*
X377967Y221331D01*
X377999Y221508D01*
X377999Y232804D01*
X378250Y233238D01*
X378262Y233274D01*
X378282Y233305D01*
X378294Y233368D01*
X378314Y233428D01*
X378311Y233466D01*
X378318Y233502D01*
X378304Y233565D01*
X378299Y233628D01*
X378282Y233662D01*
X378274Y233698D01*
X378237Y233750D01*
X378208Y233807D01*
X378180Y233831D01*
X378158Y233861D01*
X378104Y233895D01*
X378102Y233897D01*
X375999Y236000D01*
X375999Y252000D01*
X378073Y254074D01*
X378120Y254117D01*
X378173Y254153D01*
X378193Y254184D01*
X378221Y254210D01*
X378248Y254268D01*
X378282Y254321D01*
X378289Y254358D01*
X378305Y254392D01*
X378307Y254455D01*
X378318Y254518D01*
X378310Y254555D01*
X378311Y254592D01*
X378286Y254662D01*
X378274Y254714D01*
X378260Y254734D01*
X378250Y254762D01*
X377999Y255196D01*
X377999Y256575D01*
X377998Y256583D01*
X377999Y256591D01*
X377978Y256681D01*
X377960Y256772D01*
X377955Y256778D01*
X377953Y256786D01*
X377851Y256934D01*
X375734Y259051D01*
X375727Y259055D01*
X375723Y259061D01*
X375644Y259110D01*
X375567Y259162D01*
X375559Y259163D01*
X375553Y259167D01*
X375375Y259199D01*
X361062Y259199D01*
X359437Y260137D01*
X358499Y261762D01*
X358499Y265638D01*
X359437Y267263D01*
X360746Y268018D01*
X360801Y268067D01*
X360861Y268110D01*
X360876Y268133D01*
X360896Y268151D01*
X360928Y268217D01*
X360967Y268280D01*
X360972Y268309D01*
X360983Y268331D01*
X360986Y268385D01*
X360999Y268457D01*
X360999Y269282D01*
X360990Y269328D01*
X360991Y269375D01*
X360969Y269432D01*
X360960Y269479D01*
X360941Y269506D01*
X360927Y269543D01*
X357488Y275275D01*
X357453Y275314D01*
X357411Y275373D01*
X356502Y276278D01*
X356501Y277125D01*
X356499Y277131D01*
X356499Y277134D01*
X356500Y277139D01*
X356499Y277143D01*
X356499Y277748D01*
X356499Y277749D01*
X356498Y278243D01*
X356497Y278248D01*
X356498Y278252D01*
X356477Y278347D01*
X356458Y278439D01*
X356456Y278443D01*
X356455Y278448D01*
X356399Y278527D01*
X356345Y278605D01*
X356341Y278608D01*
X356339Y278611D01*
X356257Y278662D01*
X356177Y278714D01*
X356172Y278715D01*
X356168Y278717D01*
X355991Y278749D01*
X355009Y278749D01*
X355004Y278748D01*
X355000Y278749D01*
X354907Y278729D01*
X354813Y278710D01*
X354809Y278707D01*
X354804Y278706D01*
X354726Y278651D01*
X354647Y278597D01*
X354644Y278593D01*
X354640Y278590D01*
X354589Y278508D01*
X354537Y278429D01*
X354537Y278424D01*
X354534Y278420D01*
X354502Y278243D01*
X354501Y277748D01*
X354501Y277747D01*
X354501Y277131D01*
X354499Y277125D01*
X354498Y276278D01*
X353589Y275373D01*
X353559Y275329D01*
X353512Y275275D01*
X350073Y269543D01*
X350057Y269499D01*
X350033Y269460D01*
X350022Y269399D01*
X350006Y269354D01*
X350008Y269321D01*
X350001Y269282D01*
X350001Y268457D01*
X350015Y268385D01*
X350022Y268311D01*
X350035Y268287D01*
X350040Y268261D01*
X350082Y268200D01*
X350117Y268134D01*
X350139Y268116D01*
X350153Y268095D01*
X350198Y268066D01*
X350254Y268018D01*
X351563Y267263D01*
X352501Y265638D01*
X352501Y261762D01*
X351563Y260137D01*
X349938Y259199D01*
X333625Y259199D01*
X333617Y259198D01*
X333609Y259199D01*
X333519Y259178D01*
X333428Y259160D01*
X333422Y259155D01*
X333414Y259153D01*
X333266Y259051D01*
X331149Y256934D01*
X331145Y256928D01*
X331139Y256923D01*
X331090Y256844D01*
X331038Y256767D01*
X331037Y256759D01*
X331033Y256753D01*
X331001Y256575D01*
X331001Y255196D01*
X330750Y254762D01*
X330738Y254726D01*
X330718Y254695D01*
X330706Y254632D01*
X330686Y254572D01*
X330689Y254534D01*
X330682Y254498D01*
X330696Y254435D01*
X330701Y254372D01*
X330718Y254338D01*
X330726Y254302D01*
X330763Y254250D01*
X330792Y254193D01*
X330820Y254169D01*
X330842Y254139D01*
X330896Y254105D01*
X330898Y254103D01*
X333001Y252000D01*
X333001Y236000D01*
X330927Y233926D01*
X330880Y233883D01*
X330827Y233847D01*
X330807Y233816D01*
X330779Y233790D01*
X330752Y233732D01*
X330718Y233679D01*
X330711Y233642D01*
X330695Y233608D01*
X330693Y233545D01*
X330682Y233482D01*
X330690Y233445D01*
X330689Y233408D01*
X330714Y233338D01*
X330726Y233286D01*
X330740Y233266D01*
X330750Y233238D01*
X331001Y232804D01*
X331001Y223854D01*
X331001Y223851D01*
X331001Y223849D01*
X331021Y223754D01*
X331040Y223657D01*
X331042Y223655D01*
X331042Y223653D01*
X331098Y223572D01*
X331153Y223492D01*
X331155Y223490D01*
X331157Y223488D01*
X331240Y223435D01*
X331321Y223382D01*
X331324Y223382D01*
X331326Y223381D01*
X331422Y223364D01*
X331518Y223347D01*
X331521Y223347D01*
X331523Y223347D01*
X331618Y223369D01*
X331714Y223390D01*
X331716Y223392D01*
X331719Y223393D01*
X331867Y223495D01*
X333412Y225041D01*
X337588Y225041D01*
X340541Y222088D01*
X340541Y221508D01*
X340542Y221503D01*
X340541Y221498D01*
X340562Y221405D01*
X340580Y221311D01*
X340583Y221307D01*
X340584Y221302D01*
X340640Y221224D01*
X340693Y221146D01*
X340697Y221143D01*
X340700Y221139D01*
X340782Y221088D01*
X340861Y221036D01*
X340866Y221036D01*
X340871Y221033D01*
X341048Y221001D01*
X353952Y221001D01*
X353957Y221002D01*
G37*
G36*
X353957Y1002D02*
X353957Y1002D01*
X353962Y1001D01*
X354055Y1022D01*
X354149Y1040D01*
X354153Y1043D01*
X354158Y1044D01*
X354236Y1100D01*
X354314Y1153D01*
X354317Y1157D01*
X354321Y1160D01*
X354372Y1242D01*
X354424Y1321D01*
X354424Y1326D01*
X354427Y1331D01*
X354459Y1508D01*
X354459Y2088D01*
X357412Y5041D01*
X361588Y5041D01*
X364541Y2088D01*
X364541Y1508D01*
X364542Y1503D01*
X364541Y1498D01*
X364562Y1405D01*
X364580Y1311D01*
X364583Y1307D01*
X364584Y1302D01*
X364640Y1224D01*
X364693Y1146D01*
X364697Y1143D01*
X364700Y1139D01*
X364782Y1088D01*
X364861Y1036D01*
X364866Y1036D01*
X364871Y1033D01*
X365048Y1001D01*
X377492Y1001D01*
X377497Y1002D01*
X377502Y1001D01*
X377595Y1022D01*
X377689Y1040D01*
X377693Y1043D01*
X377698Y1044D01*
X377776Y1100D01*
X377854Y1153D01*
X377857Y1157D01*
X377861Y1160D01*
X377912Y1242D01*
X377964Y1321D01*
X377964Y1326D01*
X377967Y1331D01*
X377999Y1508D01*
X377999Y12804D01*
X378250Y13238D01*
X378262Y13274D01*
X378282Y13305D01*
X378294Y13368D01*
X378314Y13428D01*
X378311Y13466D01*
X378318Y13502D01*
X378304Y13565D01*
X378299Y13628D01*
X378282Y13662D01*
X378274Y13698D01*
X378237Y13750D01*
X378208Y13807D01*
X378180Y13831D01*
X378158Y13861D01*
X378104Y13895D01*
X378102Y13897D01*
X375999Y16000D01*
X375999Y32000D01*
X376148Y32149D01*
X377851Y33852D01*
X378073Y34074D01*
X378120Y34117D01*
X378173Y34153D01*
X378193Y34184D01*
X378221Y34210D01*
X378248Y34268D01*
X378282Y34321D01*
X378289Y34358D01*
X378305Y34392D01*
X378307Y34455D01*
X378318Y34518D01*
X378310Y34555D01*
X378311Y34592D01*
X378286Y34662D01*
X378274Y34714D01*
X378260Y34734D01*
X378250Y34762D01*
X377999Y35196D01*
X377999Y36575D01*
X377998Y36583D01*
X377999Y36591D01*
X377978Y36681D01*
X377960Y36772D01*
X377955Y36778D01*
X377953Y36786D01*
X377851Y36934D01*
X375734Y39051D01*
X375727Y39055D01*
X375723Y39061D01*
X375644Y39110D01*
X375567Y39162D01*
X375559Y39163D01*
X375553Y39167D01*
X375375Y39199D01*
X361062Y39199D01*
X359437Y40137D01*
X358499Y41762D01*
X358499Y45638D01*
X359437Y47263D01*
X360746Y48018D01*
X360801Y48067D01*
X360861Y48110D01*
X360876Y48133D01*
X360896Y48151D01*
X360928Y48217D01*
X360967Y48280D01*
X360972Y48309D01*
X360983Y48331D01*
X360986Y48385D01*
X360999Y48457D01*
X360999Y49282D01*
X360990Y49328D01*
X360991Y49375D01*
X360969Y49432D01*
X360960Y49479D01*
X360941Y49506D01*
X360927Y49543D01*
X357488Y55275D01*
X357453Y55314D01*
X357411Y55373D01*
X356502Y56278D01*
X356501Y57125D01*
X356499Y57131D01*
X356499Y57142D01*
X356500Y57146D01*
X356499Y57149D01*
X356499Y57743D01*
X356499Y57747D01*
X356499Y57748D01*
X356498Y58243D01*
X356497Y58248D01*
X356498Y58252D01*
X356477Y58347D01*
X356458Y58439D01*
X356456Y58443D01*
X356455Y58448D01*
X356399Y58527D01*
X356345Y58605D01*
X356341Y58608D01*
X356339Y58611D01*
X356257Y58662D01*
X356177Y58714D01*
X356172Y58715D01*
X356168Y58717D01*
X355991Y58749D01*
X355009Y58749D01*
X355004Y58748D01*
X355000Y58749D01*
X354907Y58729D01*
X354813Y58710D01*
X354809Y58707D01*
X354804Y58706D01*
X354726Y58651D01*
X354647Y58597D01*
X354644Y58593D01*
X354640Y58590D01*
X354589Y58508D01*
X354537Y58429D01*
X354537Y58424D01*
X354534Y58420D01*
X354502Y58243D01*
X354501Y57748D01*
X354501Y57747D01*
X354501Y57131D01*
X354499Y57125D01*
X354498Y56278D01*
X353589Y55373D01*
X353559Y55329D01*
X353512Y55275D01*
X350073Y49543D01*
X350057Y49499D01*
X350033Y49460D01*
X350022Y49399D01*
X350006Y49354D01*
X350008Y49321D01*
X350001Y49282D01*
X350001Y48457D01*
X350015Y48385D01*
X350022Y48311D01*
X350035Y48287D01*
X350040Y48261D01*
X350082Y48200D01*
X350117Y48134D01*
X350139Y48116D01*
X350153Y48095D01*
X350198Y48066D01*
X350254Y48018D01*
X351563Y47263D01*
X352501Y45638D01*
X352501Y41762D01*
X351563Y40137D01*
X349938Y39199D01*
X333625Y39199D01*
X333617Y39198D01*
X333609Y39199D01*
X333519Y39178D01*
X333428Y39160D01*
X333422Y39155D01*
X333414Y39153D01*
X333266Y39051D01*
X331149Y36934D01*
X331145Y36928D01*
X331139Y36923D01*
X331090Y36844D01*
X331038Y36767D01*
X331037Y36759D01*
X331033Y36753D01*
X331001Y36575D01*
X331001Y35196D01*
X330750Y34762D01*
X330738Y34726D01*
X330718Y34695D01*
X330706Y34632D01*
X330686Y34572D01*
X330689Y34534D01*
X330682Y34498D01*
X330696Y34435D01*
X330701Y34372D01*
X330718Y34338D01*
X330726Y34302D01*
X330763Y34250D01*
X330792Y34193D01*
X330820Y34169D01*
X330842Y34139D01*
X330896Y34105D01*
X330898Y34103D01*
X333001Y32000D01*
X333001Y16000D01*
X330927Y13926D01*
X330880Y13883D01*
X330827Y13847D01*
X330807Y13816D01*
X330779Y13790D01*
X330752Y13732D01*
X330718Y13679D01*
X330711Y13642D01*
X330695Y13608D01*
X330693Y13545D01*
X330682Y13482D01*
X330690Y13445D01*
X330689Y13408D01*
X330714Y13338D01*
X330726Y13286D01*
X330740Y13266D01*
X330750Y13238D01*
X331001Y12804D01*
X331001Y3854D01*
X331001Y3851D01*
X331001Y3849D01*
X331021Y3754D01*
X331040Y3657D01*
X331042Y3655D01*
X331042Y3653D01*
X331098Y3572D01*
X331153Y3492D01*
X331155Y3490D01*
X331157Y3488D01*
X331240Y3435D01*
X331321Y3382D01*
X331324Y3382D01*
X331326Y3381D01*
X331422Y3364D01*
X331518Y3347D01*
X331521Y3347D01*
X331523Y3347D01*
X331618Y3369D01*
X331714Y3390D01*
X331716Y3392D01*
X331719Y3393D01*
X331867Y3495D01*
X333412Y5041D01*
X337588Y5041D01*
X340541Y2088D01*
X340541Y1508D01*
X340542Y1503D01*
X340541Y1498D01*
X340562Y1405D01*
X340580Y1311D01*
X340583Y1307D01*
X340584Y1302D01*
X340640Y1224D01*
X340693Y1146D01*
X340697Y1143D01*
X340700Y1139D01*
X340782Y1088D01*
X340861Y1036D01*
X340866Y1036D01*
X340871Y1033D01*
X341048Y1001D01*
X353952Y1001D01*
X353957Y1002D01*
G37*
G36*
X353957Y111002D02*
X353957Y111002D01*
X353962Y111001D01*
X354055Y111022D01*
X354149Y111040D01*
X354153Y111043D01*
X354158Y111044D01*
X354236Y111100D01*
X354314Y111153D01*
X354317Y111157D01*
X354321Y111160D01*
X354372Y111242D01*
X354424Y111321D01*
X354424Y111326D01*
X354427Y111331D01*
X354459Y111508D01*
X354459Y112088D01*
X357412Y115041D01*
X361588Y115041D01*
X364541Y112088D01*
X364541Y111508D01*
X364542Y111503D01*
X364541Y111498D01*
X364562Y111405D01*
X364580Y111311D01*
X364583Y111307D01*
X364584Y111302D01*
X364640Y111224D01*
X364693Y111146D01*
X364697Y111143D01*
X364700Y111139D01*
X364782Y111088D01*
X364861Y111036D01*
X364866Y111036D01*
X364871Y111033D01*
X365048Y111001D01*
X377492Y111001D01*
X377497Y111002D01*
X377502Y111001D01*
X377595Y111022D01*
X377689Y111040D01*
X377693Y111043D01*
X377698Y111044D01*
X377776Y111100D01*
X377854Y111153D01*
X377857Y111157D01*
X377861Y111160D01*
X377912Y111242D01*
X377964Y111321D01*
X377964Y111326D01*
X377967Y111331D01*
X377999Y111508D01*
X377999Y122804D01*
X378250Y123238D01*
X378262Y123274D01*
X378282Y123305D01*
X378294Y123368D01*
X378314Y123428D01*
X378311Y123466D01*
X378318Y123502D01*
X378304Y123565D01*
X378299Y123628D01*
X378282Y123662D01*
X378274Y123698D01*
X378237Y123750D01*
X378208Y123807D01*
X378180Y123831D01*
X378158Y123861D01*
X378104Y123895D01*
X378102Y123897D01*
X375999Y126000D01*
X375999Y142000D01*
X378073Y144074D01*
X378120Y144117D01*
X378173Y144153D01*
X378193Y144184D01*
X378221Y144210D01*
X378248Y144268D01*
X378282Y144321D01*
X378289Y144358D01*
X378305Y144392D01*
X378307Y144455D01*
X378318Y144518D01*
X378310Y144555D01*
X378311Y144592D01*
X378286Y144662D01*
X378274Y144714D01*
X378260Y144734D01*
X378250Y144762D01*
X377999Y145196D01*
X377999Y146575D01*
X377998Y146583D01*
X377999Y146591D01*
X377978Y146681D01*
X377960Y146772D01*
X377955Y146778D01*
X377953Y146786D01*
X377851Y146934D01*
X375734Y149051D01*
X375727Y149055D01*
X375723Y149061D01*
X375644Y149110D01*
X375567Y149162D01*
X375559Y149163D01*
X375553Y149167D01*
X375375Y149199D01*
X361062Y149199D01*
X359437Y150137D01*
X358499Y151762D01*
X358499Y155638D01*
X359437Y157263D01*
X360746Y158018D01*
X360801Y158067D01*
X360861Y158110D01*
X360876Y158133D01*
X360896Y158151D01*
X360928Y158217D01*
X360967Y158280D01*
X360972Y158309D01*
X360983Y158331D01*
X360986Y158385D01*
X360999Y158457D01*
X360999Y159282D01*
X360990Y159328D01*
X360991Y159375D01*
X360969Y159432D01*
X360960Y159479D01*
X360941Y159506D01*
X360927Y159543D01*
X357488Y165275D01*
X357453Y165314D01*
X357411Y165373D01*
X356502Y166278D01*
X356501Y167125D01*
X356499Y167131D01*
X356499Y167142D01*
X356500Y167146D01*
X356499Y167149D01*
X356499Y167743D01*
X356499Y167745D01*
X356499Y167747D01*
X356499Y167751D01*
X356498Y168243D01*
X356497Y168248D01*
X356498Y168252D01*
X356477Y168347D01*
X356458Y168439D01*
X356456Y168443D01*
X356455Y168448D01*
X356399Y168527D01*
X356345Y168605D01*
X356341Y168608D01*
X356339Y168611D01*
X356257Y168662D01*
X356177Y168714D01*
X356172Y168715D01*
X356168Y168717D01*
X355991Y168749D01*
X355009Y168749D01*
X355004Y168748D01*
X355000Y168749D01*
X354907Y168729D01*
X354813Y168710D01*
X354809Y168707D01*
X354804Y168706D01*
X354726Y168651D01*
X354647Y168597D01*
X354644Y168593D01*
X354640Y168590D01*
X354589Y168508D01*
X354537Y168429D01*
X354537Y168424D01*
X354534Y168420D01*
X354502Y168243D01*
X354501Y167748D01*
X354501Y167747D01*
X354501Y167131D01*
X354499Y167125D01*
X354498Y166278D01*
X353589Y165373D01*
X353559Y165329D01*
X353512Y165275D01*
X350073Y159543D01*
X350057Y159499D01*
X350033Y159460D01*
X350022Y159399D01*
X350006Y159354D01*
X350008Y159321D01*
X350001Y159282D01*
X350001Y158457D01*
X350015Y158385D01*
X350022Y158311D01*
X350035Y158287D01*
X350040Y158261D01*
X350082Y158200D01*
X350117Y158134D01*
X350139Y158116D01*
X350153Y158095D01*
X350198Y158066D01*
X350254Y158018D01*
X351563Y157263D01*
X352501Y155638D01*
X352501Y151762D01*
X351563Y150137D01*
X349938Y149199D01*
X333625Y149199D01*
X333617Y149198D01*
X333609Y149199D01*
X333519Y149178D01*
X333428Y149160D01*
X333422Y149155D01*
X333414Y149153D01*
X333266Y149051D01*
X331149Y146934D01*
X331145Y146928D01*
X331139Y146923D01*
X331090Y146844D01*
X331038Y146767D01*
X331037Y146759D01*
X331033Y146753D01*
X331001Y146575D01*
X331001Y145196D01*
X330750Y144762D01*
X330738Y144726D01*
X330718Y144695D01*
X330706Y144632D01*
X330686Y144572D01*
X330689Y144534D01*
X330682Y144498D01*
X330696Y144435D01*
X330701Y144372D01*
X330718Y144338D01*
X330726Y144302D01*
X330763Y144250D01*
X330792Y144193D01*
X330820Y144169D01*
X330842Y144139D01*
X330896Y144105D01*
X330898Y144103D01*
X331149Y143852D01*
X332852Y142149D01*
X333001Y142000D01*
X333001Y126000D01*
X330927Y123926D01*
X330880Y123883D01*
X330827Y123847D01*
X330807Y123816D01*
X330779Y123790D01*
X330752Y123732D01*
X330718Y123679D01*
X330711Y123642D01*
X330695Y123608D01*
X330693Y123545D01*
X330682Y123482D01*
X330690Y123445D01*
X330689Y123408D01*
X330714Y123338D01*
X330726Y123286D01*
X330740Y123266D01*
X330750Y123238D01*
X331001Y122804D01*
X331001Y113854D01*
X331001Y113851D01*
X331001Y113849D01*
X331021Y113754D01*
X331040Y113657D01*
X331042Y113655D01*
X331042Y113653D01*
X331098Y113572D01*
X331153Y113492D01*
X331155Y113490D01*
X331157Y113488D01*
X331240Y113435D01*
X331321Y113382D01*
X331324Y113382D01*
X331326Y113381D01*
X331422Y113364D01*
X331518Y113347D01*
X331521Y113347D01*
X331523Y113347D01*
X331618Y113369D01*
X331714Y113390D01*
X331716Y113392D01*
X331719Y113393D01*
X331867Y113495D01*
X333412Y115041D01*
X337588Y115041D01*
X340541Y112088D01*
X340541Y111508D01*
X340542Y111503D01*
X340541Y111498D01*
X340562Y111405D01*
X340580Y111311D01*
X340583Y111307D01*
X340584Y111302D01*
X340640Y111224D01*
X340693Y111146D01*
X340697Y111143D01*
X340700Y111139D01*
X340782Y111088D01*
X340861Y111036D01*
X340866Y111036D01*
X340871Y111033D01*
X341048Y111001D01*
X353952Y111001D01*
X353957Y111002D01*
G37*
G36*
X353957Y331002D02*
X353957Y331002D01*
X353962Y331001D01*
X354055Y331022D01*
X354149Y331040D01*
X354153Y331043D01*
X354158Y331044D01*
X354236Y331100D01*
X354314Y331153D01*
X354317Y331157D01*
X354321Y331160D01*
X354372Y331242D01*
X354424Y331321D01*
X354424Y331326D01*
X354427Y331331D01*
X354459Y331508D01*
X354459Y332088D01*
X357412Y335041D01*
X361588Y335041D01*
X364541Y332088D01*
X364541Y331508D01*
X364542Y331503D01*
X364541Y331498D01*
X364562Y331405D01*
X364580Y331311D01*
X364583Y331307D01*
X364584Y331302D01*
X364640Y331224D01*
X364693Y331146D01*
X364697Y331143D01*
X364700Y331139D01*
X364782Y331088D01*
X364861Y331036D01*
X364866Y331036D01*
X364871Y331033D01*
X365048Y331001D01*
X377492Y331001D01*
X377497Y331002D01*
X377502Y331001D01*
X377595Y331022D01*
X377689Y331040D01*
X377693Y331043D01*
X377698Y331044D01*
X377776Y331100D01*
X377854Y331153D01*
X377857Y331157D01*
X377861Y331160D01*
X377912Y331242D01*
X377964Y331321D01*
X377964Y331326D01*
X377967Y331331D01*
X377999Y331508D01*
X377999Y342804D01*
X378250Y343238D01*
X378262Y343274D01*
X378282Y343305D01*
X378294Y343368D01*
X378314Y343428D01*
X378311Y343466D01*
X378318Y343502D01*
X378304Y343565D01*
X378299Y343628D01*
X378282Y343662D01*
X378274Y343698D01*
X378237Y343750D01*
X378208Y343807D01*
X378180Y343831D01*
X378158Y343861D01*
X378104Y343895D01*
X378102Y343897D01*
X375999Y346000D01*
X375999Y362000D01*
X376148Y362149D01*
X377851Y363852D01*
X378073Y364074D01*
X378120Y364117D01*
X378173Y364153D01*
X378193Y364184D01*
X378221Y364210D01*
X378248Y364268D01*
X378282Y364321D01*
X378289Y364358D01*
X378305Y364392D01*
X378307Y364455D01*
X378318Y364518D01*
X378310Y364555D01*
X378311Y364592D01*
X378286Y364662D01*
X378274Y364714D01*
X378260Y364734D01*
X378250Y364762D01*
X377999Y365196D01*
X377999Y366575D01*
X377998Y366583D01*
X377999Y366591D01*
X377978Y366681D01*
X377960Y366772D01*
X377955Y366778D01*
X377953Y366786D01*
X377851Y366934D01*
X375734Y369051D01*
X375727Y369055D01*
X375723Y369061D01*
X375644Y369110D01*
X375567Y369162D01*
X375559Y369163D01*
X375553Y369167D01*
X375375Y369199D01*
X361062Y369199D01*
X359437Y370137D01*
X358499Y371762D01*
X358499Y375638D01*
X359437Y377263D01*
X360746Y378018D01*
X360801Y378067D01*
X360861Y378110D01*
X360876Y378133D01*
X360896Y378151D01*
X360928Y378217D01*
X360967Y378280D01*
X360972Y378309D01*
X360983Y378331D01*
X360986Y378385D01*
X360999Y378457D01*
X360999Y379282D01*
X360990Y379328D01*
X360991Y379375D01*
X360969Y379432D01*
X360960Y379479D01*
X360941Y379506D01*
X360927Y379543D01*
X357488Y385275D01*
X357453Y385314D01*
X357411Y385373D01*
X356502Y386278D01*
X356501Y387125D01*
X356499Y387131D01*
X356499Y387134D01*
X356500Y387139D01*
X356499Y387143D01*
X356499Y387748D01*
X356499Y387749D01*
X356498Y388243D01*
X356497Y388248D01*
X356498Y388252D01*
X356477Y388347D01*
X356458Y388439D01*
X356456Y388443D01*
X356455Y388448D01*
X356399Y388527D01*
X356345Y388605D01*
X356341Y388608D01*
X356339Y388611D01*
X356257Y388662D01*
X356177Y388714D01*
X356172Y388715D01*
X356168Y388717D01*
X355991Y388749D01*
X355009Y388749D01*
X355004Y388748D01*
X355000Y388749D01*
X354907Y388729D01*
X354813Y388710D01*
X354809Y388707D01*
X354804Y388706D01*
X354726Y388651D01*
X354647Y388597D01*
X354644Y388593D01*
X354640Y388590D01*
X354589Y388508D01*
X354537Y388429D01*
X354537Y388424D01*
X354534Y388420D01*
X354502Y388243D01*
X354501Y387748D01*
X354501Y387747D01*
X354501Y387131D01*
X354500Y387130D01*
X354499Y387125D01*
X354498Y386278D01*
X353589Y385373D01*
X353559Y385329D01*
X353512Y385275D01*
X350073Y379543D01*
X350057Y379499D01*
X350033Y379460D01*
X350022Y379399D01*
X350006Y379354D01*
X350008Y379321D01*
X350001Y379282D01*
X350001Y378457D01*
X350015Y378385D01*
X350022Y378311D01*
X350035Y378287D01*
X350040Y378261D01*
X350082Y378200D01*
X350117Y378134D01*
X350139Y378116D01*
X350153Y378095D01*
X350198Y378066D01*
X350254Y378018D01*
X351563Y377263D01*
X352501Y375638D01*
X352501Y371762D01*
X351563Y370137D01*
X349938Y369199D01*
X333625Y369199D01*
X333617Y369198D01*
X333609Y369199D01*
X333519Y369178D01*
X333428Y369160D01*
X333422Y369155D01*
X333414Y369153D01*
X333266Y369051D01*
X331149Y366934D01*
X331145Y366927D01*
X331139Y366923D01*
X331090Y366844D01*
X331038Y366767D01*
X331037Y366759D01*
X331033Y366753D01*
X331001Y366575D01*
X331001Y365196D01*
X330750Y364762D01*
X330738Y364726D01*
X330718Y364695D01*
X330706Y364632D01*
X330686Y364572D01*
X330689Y364534D01*
X330682Y364498D01*
X330696Y364435D01*
X330701Y364372D01*
X330718Y364338D01*
X330726Y364302D01*
X330763Y364250D01*
X330792Y364193D01*
X330820Y364169D01*
X330842Y364139D01*
X330896Y364105D01*
X330898Y364103D01*
X333001Y362000D01*
X333001Y346000D01*
X330927Y343926D01*
X330880Y343883D01*
X330827Y343847D01*
X330807Y343816D01*
X330779Y343790D01*
X330752Y343732D01*
X330718Y343679D01*
X330711Y343642D01*
X330695Y343608D01*
X330693Y343545D01*
X330682Y343482D01*
X330690Y343445D01*
X330689Y343408D01*
X330714Y343338D01*
X330726Y343286D01*
X330740Y343266D01*
X330750Y343238D01*
X331001Y342804D01*
X331001Y333854D01*
X331001Y333851D01*
X331001Y333849D01*
X331021Y333754D01*
X331040Y333657D01*
X331042Y333655D01*
X331042Y333653D01*
X331098Y333572D01*
X331153Y333492D01*
X331155Y333490D01*
X331157Y333488D01*
X331240Y333435D01*
X331321Y333382D01*
X331324Y333382D01*
X331326Y333381D01*
X331422Y333364D01*
X331518Y333347D01*
X331521Y333347D01*
X331523Y333347D01*
X331618Y333369D01*
X331714Y333390D01*
X331716Y333392D01*
X331719Y333393D01*
X331867Y333495D01*
X333412Y335041D01*
X337588Y335041D01*
X340541Y332088D01*
X340541Y331508D01*
X340542Y331503D01*
X340541Y331498D01*
X340562Y331405D01*
X340580Y331311D01*
X340583Y331307D01*
X340584Y331302D01*
X340640Y331224D01*
X340693Y331146D01*
X340697Y331143D01*
X340700Y331139D01*
X340782Y331088D01*
X340861Y331036D01*
X340866Y331036D01*
X340871Y331033D01*
X341048Y331001D01*
X353952Y331001D01*
X353957Y331002D01*
G37*
%LPC*%
G36*
X121744Y336967D02*
X121744Y336967D01*
X119967Y338744D01*
X119967Y341256D01*
X121744Y343033D01*
X124256Y343033D01*
X126033Y341256D01*
X126033Y338744D01*
X124256Y336967D01*
X121744Y336967D01*
G37*
%LPD*%
%LPC*%
G36*
X231744Y336967D02*
X231744Y336967D01*
X229967Y338744D01*
X229967Y341256D01*
X231744Y343033D01*
X234256Y343033D01*
X236033Y341256D01*
X236033Y338744D01*
X234256Y336967D01*
X231744Y336967D01*
G37*
%LPD*%
%LPC*%
G36*
X341744Y336967D02*
X341744Y336967D01*
X339967Y338744D01*
X339967Y341256D01*
X341744Y343033D01*
X344256Y343033D01*
X346033Y341256D01*
X346033Y338744D01*
X344256Y336967D01*
X341744Y336967D01*
G37*
%LPD*%
%LPC*%
G36*
X11744Y336967D02*
X11744Y336967D01*
X9967Y338744D01*
X9967Y341256D01*
X11744Y343033D01*
X14256Y343033D01*
X16033Y341256D01*
X16033Y338744D01*
X14256Y336967D01*
X11744Y336967D01*
G37*
%LPD*%
%LPC*%
G36*
X341744Y226967D02*
X341744Y226967D01*
X339967Y228744D01*
X339967Y231256D01*
X341744Y233033D01*
X344256Y233033D01*
X346033Y231256D01*
X346033Y228744D01*
X344256Y226967D01*
X341744Y226967D01*
G37*
%LPD*%
%LPC*%
G36*
X121744Y226967D02*
X121744Y226967D01*
X119967Y228744D01*
X119967Y231256D01*
X121744Y233033D01*
X124256Y233033D01*
X126033Y231256D01*
X126033Y228744D01*
X124256Y226967D01*
X121744Y226967D01*
G37*
%LPD*%
%LPC*%
G36*
X231744Y226967D02*
X231744Y226967D01*
X229967Y228744D01*
X229967Y231256D01*
X231744Y233033D01*
X234256Y233033D01*
X236033Y231256D01*
X236033Y228744D01*
X234256Y226967D01*
X231744Y226967D01*
G37*
%LPD*%
%LPC*%
G36*
X11744Y226967D02*
X11744Y226967D01*
X9967Y228744D01*
X9967Y231256D01*
X11744Y233033D01*
X14256Y233033D01*
X16033Y231256D01*
X16033Y228744D01*
X14256Y226967D01*
X11744Y226967D01*
G37*
%LPD*%
%LPC*%
G36*
X121744Y116967D02*
X121744Y116967D01*
X119967Y118744D01*
X119967Y121256D01*
X121744Y123033D01*
X124256Y123033D01*
X126033Y121256D01*
X126033Y118744D01*
X124256Y116967D01*
X121744Y116967D01*
G37*
%LPD*%
%LPC*%
G36*
X11744Y116967D02*
X11744Y116967D01*
X9967Y118744D01*
X9967Y121256D01*
X11744Y123033D01*
X14256Y123033D01*
X16033Y121256D01*
X16033Y118744D01*
X14256Y116967D01*
X11744Y116967D01*
G37*
%LPD*%
%LPC*%
G36*
X231744Y116967D02*
X231744Y116967D01*
X229967Y118744D01*
X229967Y121256D01*
X231744Y123033D01*
X234256Y123033D01*
X236033Y121256D01*
X236033Y118744D01*
X234256Y116967D01*
X231744Y116967D01*
G37*
%LPD*%
%LPC*%
G36*
X341744Y116967D02*
X341744Y116967D01*
X339967Y118744D01*
X339967Y121256D01*
X341744Y123033D01*
X344256Y123033D01*
X346033Y121256D01*
X346033Y118744D01*
X344256Y116967D01*
X341744Y116967D01*
G37*
%LPD*%
%LPC*%
G36*
X231744Y6967D02*
X231744Y6967D01*
X229967Y8744D01*
X229967Y11256D01*
X231744Y13033D01*
X234256Y13033D01*
X236033Y11256D01*
X236033Y8744D01*
X234256Y6967D01*
X231744Y6967D01*
G37*
%LPD*%
%LPC*%
G36*
X341744Y6967D02*
X341744Y6967D01*
X339967Y8744D01*
X339967Y11256D01*
X341744Y13033D01*
X344256Y13033D01*
X346033Y11256D01*
X346033Y8744D01*
X344256Y6967D01*
X341744Y6967D01*
G37*
%LPD*%
%LPC*%
G36*
X121744Y6967D02*
X121744Y6967D01*
X119967Y8744D01*
X119967Y11256D01*
X121744Y13033D01*
X124256Y13033D01*
X126033Y11256D01*
X126033Y8744D01*
X124256Y6967D01*
X121744Y6967D01*
G37*
%LPD*%
%LPC*%
G36*
X11744Y6967D02*
X11744Y6967D01*
X9967Y8744D01*
X9967Y11256D01*
X11744Y13033D01*
X14256Y13033D01*
X16033Y11256D01*
X16033Y8744D01*
X14256Y6967D01*
X11744Y6967D01*
G37*
%LPD*%
D10*
X190000Y-40000D03*
X190000Y420000D03*
D11*
X80000Y190000D03*
X190000Y190000D03*
X300000Y190000D03*
X-40000Y190000D03*
X420000Y190000D03*
D12*
X5500Y0D03*
X17500Y0D03*
X29500Y0D03*
X42500Y0D03*
X115500Y0D03*
X127500Y0D03*
X139500Y0D03*
X152500Y0D03*
X225500Y0D03*
X237500Y0D03*
X249500Y0D03*
X262500Y0D03*
X335500Y0D03*
X347500Y0D03*
X359500Y0D03*
X372500Y0D03*
X5500Y110000D03*
X17500Y110000D03*
X29500Y110000D03*
X42500Y110000D03*
X115500Y110000D03*
X127500Y110000D03*
X139500Y110000D03*
X152500Y110000D03*
X225500Y110000D03*
X237500Y110000D03*
X249500Y110000D03*
X262500Y110000D03*
X335500Y110000D03*
X347500Y110000D03*
X359500Y110000D03*
X372500Y110000D03*
X5500Y220000D03*
X17500Y220000D03*
X29500Y220000D03*
X42500Y220000D03*
X115500Y220000D03*
X127500Y220000D03*
X139500Y220000D03*
X152500Y220000D03*
X225500Y220000D03*
X237500Y220000D03*
X249500Y220000D03*
X262500Y220000D03*
X335500Y220000D03*
X347500Y220000D03*
X359500Y220000D03*
X372500Y220000D03*
X5500Y330000D03*
X17500Y330000D03*
X29500Y330000D03*
X42500Y330000D03*
X115500Y330000D03*
X127500Y330000D03*
X139500Y330000D03*
X152500Y330000D03*
X225500Y330000D03*
X237500Y330000D03*
X249500Y330000D03*
X262500Y330000D03*
X335500Y330000D03*
X347500Y330000D03*
X359500Y330000D03*
X372500Y330000D03*
D13*
X13000Y10000D03*
X15408Y22300D03*
X24500Y6000D03*
X3100Y14206D03*
X35300Y22200D03*
X19500Y34800D03*
X13100Y34800D03*
X38484Y10500D03*
X34500Y6000D03*
X35000Y28500D03*
X31300Y34900D03*
X4624Y30708D03*
X7608Y34454D03*
X44300Y33900D03*
X19500Y10000D03*
X12008Y4492D03*
X43754Y12738D03*
X38300Y34900D03*
X123000Y10000D03*
X125408Y22300D03*
X134500Y6000D03*
X113100Y14206D03*
X145300Y22200D03*
X129500Y34800D03*
X123100Y34800D03*
X148484Y10500D03*
X144500Y6000D03*
X145000Y28500D03*
X141300Y34900D03*
X114624Y30708D03*
X117608Y34454D03*
X154300Y33900D03*
X129500Y10000D03*
X122008Y4492D03*
X153754Y12738D03*
X148300Y34900D03*
X233000Y10000D03*
X235408Y22300D03*
X244500Y6000D03*
X223100Y14206D03*
X255300Y22200D03*
X239500Y34800D03*
X233100Y34800D03*
X258484Y10500D03*
X254500Y6000D03*
X255000Y28500D03*
X251300Y34900D03*
X224624Y30708D03*
X227608Y34454D03*
X264300Y33900D03*
X239500Y10000D03*
X232008Y4492D03*
X263754Y12738D03*
X258300Y34900D03*
X343000Y10000D03*
X345408Y22300D03*
X354500Y6000D03*
X333100Y14206D03*
X365300Y22200D03*
X349500Y34800D03*
X343100Y34800D03*
X368484Y10500D03*
X364500Y6000D03*
X365000Y28500D03*
X361300Y34900D03*
X334624Y30708D03*
X337608Y34454D03*
X374300Y33900D03*
X349500Y10000D03*
X342008Y4492D03*
X373754Y12738D03*
X368300Y34900D03*
X13000Y120000D03*
X15408Y132300D03*
X24500Y116000D03*
X3100Y124206D03*
X35300Y132200D03*
X19500Y144800D03*
X13100Y144800D03*
X38484Y120500D03*
X34500Y116000D03*
X35000Y138500D03*
X31300Y144900D03*
X4624Y140708D03*
X7608Y144454D03*
X44300Y143900D03*
X19500Y120000D03*
X12008Y114492D03*
X43754Y122738D03*
X38300Y144900D03*
X123000Y120000D03*
X125408Y132300D03*
X134500Y116000D03*
X113100Y124206D03*
X145300Y132200D03*
X129500Y144800D03*
X123100Y144800D03*
X148484Y120500D03*
X144500Y116000D03*
X145000Y138500D03*
X141300Y144900D03*
X114624Y140708D03*
X117608Y144454D03*
X154300Y143900D03*
X129500Y120000D03*
X122008Y114492D03*
X153754Y122738D03*
X148300Y144900D03*
X233000Y120000D03*
X235408Y132300D03*
X244500Y116000D03*
X223100Y124206D03*
X255300Y132200D03*
X239500Y144800D03*
X233100Y144800D03*
X258484Y120500D03*
X254500Y116000D03*
X255000Y138500D03*
X251300Y144900D03*
X224624Y140708D03*
X227608Y144454D03*
X264300Y143900D03*
X239500Y120000D03*
X232008Y114492D03*
X263754Y122738D03*
X258300Y144900D03*
X343000Y120000D03*
X345408Y132300D03*
X354500Y116000D03*
X333100Y124206D03*
X365300Y132200D03*
X349500Y144800D03*
X343100Y144800D03*
X368484Y120500D03*
X364500Y116000D03*
X365000Y138500D03*
X361300Y144900D03*
X334624Y140708D03*
X337608Y144454D03*
X374300Y143900D03*
X349500Y120000D03*
X342008Y114492D03*
X373754Y122738D03*
X368300Y144900D03*
X13000Y230000D03*
X15408Y242300D03*
X24500Y226000D03*
X3100Y234206D03*
X35300Y242200D03*
X19500Y254800D03*
X13100Y254800D03*
X38484Y230500D03*
X34500Y226000D03*
X35000Y248500D03*
X31300Y254900D03*
X4624Y250708D03*
X7608Y254454D03*
X44300Y253900D03*
X19500Y230000D03*
X12008Y224492D03*
X43754Y232738D03*
X38300Y254900D03*
X123000Y230000D03*
X125408Y242300D03*
X134500Y226000D03*
X113100Y234206D03*
X145300Y242200D03*
X129500Y254800D03*
X123100Y254800D03*
X148484Y230500D03*
X144500Y226000D03*
X145000Y248500D03*
X141300Y254900D03*
X114624Y250708D03*
X117608Y254454D03*
X154300Y253900D03*
X129500Y230000D03*
X122008Y224492D03*
X153754Y232738D03*
X148300Y254900D03*
X233000Y230000D03*
X235408Y242300D03*
X244500Y226000D03*
X223100Y234206D03*
X255300Y242200D03*
X239500Y254800D03*
X233100Y254800D03*
X258484Y230500D03*
X254500Y226000D03*
X255000Y248500D03*
X251300Y254900D03*
X224624Y250708D03*
X227608Y254454D03*
X264300Y253900D03*
X239500Y230000D03*
X232008Y224492D03*
X263754Y232738D03*
X258300Y254900D03*
X343000Y230000D03*
X345408Y242300D03*
X354500Y226000D03*
X333100Y234206D03*
X365300Y242200D03*
X349500Y254800D03*
X343100Y254800D03*
X368484Y230500D03*
X364500Y226000D03*
X365000Y248500D03*
X361300Y254900D03*
X334624Y250708D03*
X337608Y254454D03*
X374300Y253900D03*
X349500Y230000D03*
X342008Y224492D03*
X373754Y232738D03*
X368300Y254900D03*
X13000Y340000D03*
X15408Y352300D03*
X24500Y336000D03*
X3100Y344206D03*
X35300Y352200D03*
X19500Y364800D03*
X13100Y364800D03*
X38484Y340500D03*
X34500Y336000D03*
X35000Y358500D03*
X31300Y364900D03*
X4624Y360708D03*
X7608Y364454D03*
X44300Y363900D03*
X19500Y340000D03*
X12008Y334492D03*
X43754Y342738D03*
X38300Y364900D03*
X123000Y340000D03*
X125408Y352300D03*
X134500Y336000D03*
X113100Y344206D03*
X145300Y352200D03*
X129500Y364800D03*
X123100Y364800D03*
X148484Y340500D03*
X144500Y336000D03*
X145000Y358500D03*
X141300Y364900D03*
X114624Y360708D03*
X117608Y364454D03*
X154300Y363900D03*
X129500Y340000D03*
X122008Y334492D03*
X153754Y342738D03*
X148300Y364900D03*
X233000Y340000D03*
X235408Y352300D03*
X244500Y336000D03*
X223100Y344206D03*
X255300Y352200D03*
X239500Y364800D03*
X233100Y364800D03*
X258484Y340500D03*
X254500Y336000D03*
X255000Y358500D03*
X251300Y364900D03*
X224624Y360708D03*
X227608Y364454D03*
X264300Y363900D03*
X239500Y340000D03*
X232008Y334492D03*
X263754Y342738D03*
X258300Y364900D03*
X343000Y340000D03*
X345408Y352300D03*
X354500Y336000D03*
X333100Y344206D03*
X365300Y352200D03*
X349500Y364800D03*
X343100Y364800D03*
X368484Y340500D03*
X364500Y336000D03*
X365000Y358500D03*
X361300Y364900D03*
X334624Y360708D03*
X337608Y364454D03*
X374300Y363900D03*
X349500Y340000D03*
X342008Y334492D03*
X373754Y342738D03*
X368300Y364900D03*
M02*
