G04 EAGLE Gerber RS-274X export*
G75*
%MOMM*%
%FSLAX34Y34*%
%LPD*%
%INTop Copper*%
%IPPOS*%
%AMOC8*
5,1,8,0,0,1.08239X$1,22.5*%
G01*
%ADD10R,48.000000X4.000000*%
%ADD11R,2.000000X43.000000*%
%ADD12R,2.000000X28.500000*%
%ADD13R,2.000000X30.500000*%
%ADD14R,0.500000X0.700000*%
%ADD15R,0.600000X1.500000*%
%ADD16R,0.500000X0.600000*%
%ADD17C,0.804800*%
%ADD18C,0.500000*%
%ADD19C,0.403200*%
%ADD20C,0.370000*%

G36*
X23957Y331002D02*
X23957Y331002D01*
X23962Y331001D01*
X24055Y331022D01*
X24149Y331040D01*
X24153Y331043D01*
X24158Y331044D01*
X24236Y331100D01*
X24314Y331153D01*
X24317Y331157D01*
X24321Y331160D01*
X24372Y331242D01*
X24424Y331321D01*
X24424Y331326D01*
X24427Y331331D01*
X24459Y331508D01*
X24459Y332088D01*
X26485Y334113D01*
X26489Y334120D01*
X26495Y334124D01*
X26544Y334203D01*
X26596Y334280D01*
X26597Y334288D01*
X26601Y334295D01*
X26633Y334472D01*
X26633Y337278D01*
X26632Y337283D01*
X26633Y337288D01*
X26612Y337381D01*
X26594Y337475D01*
X26591Y337479D01*
X26590Y337484D01*
X26534Y337562D01*
X26481Y337640D01*
X26477Y337643D01*
X26474Y337647D01*
X26392Y337698D01*
X26313Y337750D01*
X26308Y337750D01*
X26303Y337753D01*
X26126Y337785D01*
X15284Y337785D01*
X15277Y337784D01*
X15269Y337785D01*
X15179Y337764D01*
X15088Y337746D01*
X15081Y337741D01*
X15074Y337739D01*
X14926Y337637D01*
X14256Y336967D01*
X11744Y336967D01*
X11074Y337637D01*
X11068Y337641D01*
X11063Y337647D01*
X10985Y337696D01*
X10907Y337748D01*
X10900Y337749D01*
X10893Y337753D01*
X10716Y337785D01*
X10398Y337785D01*
X10397Y337786D01*
X10397Y338104D01*
X10396Y338108D01*
X10397Y338113D01*
X10396Y338116D01*
X10397Y338119D01*
X10376Y338209D01*
X10358Y338300D01*
X10354Y338305D01*
X10354Y338308D01*
X10353Y338310D01*
X10351Y338314D01*
X10249Y338462D01*
X9967Y338744D01*
X9967Y341256D01*
X9985Y341274D01*
X9989Y341280D01*
X9995Y341285D01*
X10044Y341363D01*
X10096Y341441D01*
X10097Y341448D01*
X10101Y341455D01*
X10133Y341632D01*
X10133Y342108D01*
X10329Y342447D01*
X10339Y342475D01*
X10342Y342481D01*
X10344Y342489D01*
X10365Y342524D01*
X10377Y342590D01*
X10393Y342637D01*
X10391Y342667D01*
X10397Y342701D01*
X10397Y348000D01*
X10398Y348001D01*
X17792Y348001D01*
X17797Y348002D01*
X17802Y348001D01*
X17895Y348022D01*
X17989Y348040D01*
X17993Y348043D01*
X17998Y348044D01*
X18076Y348100D01*
X18154Y348153D01*
X18157Y348157D01*
X18161Y348160D01*
X18212Y348242D01*
X18264Y348321D01*
X18264Y348326D01*
X18267Y348331D01*
X18299Y348508D01*
X18299Y363083D01*
X18417Y363201D01*
X31583Y363201D01*
X31701Y363083D01*
X31701Y348417D01*
X31583Y348299D01*
X29524Y348299D01*
X29519Y348298D01*
X29514Y348299D01*
X29421Y348278D01*
X29327Y348260D01*
X29323Y348257D01*
X29318Y348256D01*
X29240Y348200D01*
X29162Y348147D01*
X29159Y348143D01*
X29155Y348140D01*
X29104Y348058D01*
X29052Y347979D01*
X29052Y347974D01*
X29049Y347969D01*
X29017Y347792D01*
X29017Y346558D01*
X29031Y346485D01*
X29038Y346411D01*
X29051Y346388D01*
X29056Y346361D01*
X29098Y346300D01*
X29133Y346235D01*
X29155Y346216D01*
X29169Y346195D01*
X29214Y346166D01*
X29270Y346118D01*
X30125Y345625D01*
X32367Y341742D01*
X32367Y334472D01*
X32368Y334464D01*
X32367Y334457D01*
X32388Y334367D01*
X32406Y334276D01*
X32411Y334269D01*
X32413Y334261D01*
X32515Y334113D01*
X34541Y332088D01*
X34541Y331508D01*
X34542Y331503D01*
X34541Y331498D01*
X34562Y331405D01*
X34580Y331311D01*
X34583Y331307D01*
X34584Y331302D01*
X34640Y331224D01*
X34693Y331146D01*
X34697Y331143D01*
X34700Y331139D01*
X34782Y331088D01*
X34861Y331036D01*
X34866Y331036D01*
X34871Y331033D01*
X35048Y331001D01*
X47492Y331001D01*
X47497Y331002D01*
X47502Y331001D01*
X47595Y331022D01*
X47689Y331040D01*
X47693Y331043D01*
X47698Y331044D01*
X47776Y331100D01*
X47854Y331153D01*
X47857Y331157D01*
X47861Y331160D01*
X47912Y331242D01*
X47964Y331321D01*
X47964Y331326D01*
X47967Y331331D01*
X47999Y331508D01*
X47999Y342804D01*
X48250Y343238D01*
X48262Y343274D01*
X48282Y343305D01*
X48294Y343368D01*
X48314Y343428D01*
X48311Y343466D01*
X48318Y343502D01*
X48304Y343565D01*
X48299Y343628D01*
X48282Y343662D01*
X48274Y343698D01*
X48237Y343750D01*
X48208Y343807D01*
X48180Y343831D01*
X48158Y343861D01*
X48104Y343895D01*
X48102Y343897D01*
X47851Y344148D01*
X45999Y346000D01*
X45999Y362000D01*
X48073Y364074D01*
X48120Y364117D01*
X48173Y364153D01*
X48193Y364184D01*
X48221Y364210D01*
X48248Y364268D01*
X48282Y364321D01*
X48289Y364358D01*
X48305Y364392D01*
X48307Y364455D01*
X48318Y364518D01*
X48310Y364555D01*
X48311Y364592D01*
X48286Y364662D01*
X48274Y364714D01*
X48260Y364734D01*
X48250Y364762D01*
X47999Y365196D01*
X47999Y366575D01*
X47998Y366583D01*
X47999Y366591D01*
X47978Y366681D01*
X47960Y366772D01*
X47955Y366778D01*
X47953Y366786D01*
X47851Y366934D01*
X45734Y369051D01*
X45727Y369055D01*
X45723Y369061D01*
X45644Y369110D01*
X45567Y369162D01*
X45559Y369163D01*
X45553Y369167D01*
X45375Y369199D01*
X31062Y369199D01*
X29437Y370137D01*
X28499Y371762D01*
X28499Y375638D01*
X29437Y377263D01*
X30746Y378018D01*
X30801Y378067D01*
X30861Y378110D01*
X30876Y378133D01*
X30896Y378151D01*
X30928Y378217D01*
X30967Y378280D01*
X30972Y378309D01*
X30983Y378331D01*
X30986Y378385D01*
X30999Y378457D01*
X30999Y379282D01*
X30990Y379328D01*
X30991Y379375D01*
X30969Y379432D01*
X30960Y379479D01*
X30941Y379506D01*
X30927Y379543D01*
X27488Y385275D01*
X27453Y385314D01*
X27411Y385373D01*
X27044Y385739D01*
X26501Y387042D01*
X26501Y387125D01*
X26499Y387131D01*
X26499Y387142D01*
X26500Y387146D01*
X26499Y387149D01*
X26499Y387748D01*
X26499Y387749D01*
X26498Y388243D01*
X26497Y388248D01*
X26498Y388252D01*
X26477Y388347D01*
X26458Y388439D01*
X26456Y388443D01*
X26455Y388448D01*
X26399Y388527D01*
X26345Y388605D01*
X26341Y388608D01*
X26339Y388611D01*
X26257Y388662D01*
X26177Y388714D01*
X26172Y388715D01*
X26168Y388717D01*
X25991Y388749D01*
X25009Y388749D01*
X25004Y388748D01*
X25000Y388749D01*
X24907Y388729D01*
X24813Y388710D01*
X24809Y388707D01*
X24804Y388706D01*
X24726Y388651D01*
X24647Y388597D01*
X24644Y388593D01*
X24640Y388590D01*
X24589Y388508D01*
X24537Y388429D01*
X24537Y388424D01*
X24534Y388420D01*
X24502Y388243D01*
X24501Y387748D01*
X24501Y387747D01*
X24501Y387131D01*
X24500Y387130D01*
X24499Y387125D01*
X24499Y387042D01*
X23956Y385739D01*
X23589Y385373D01*
X23559Y385329D01*
X23512Y385275D01*
X20073Y379543D01*
X20057Y379499D01*
X20033Y379460D01*
X20022Y379399D01*
X20006Y379354D01*
X20008Y379321D01*
X20001Y379282D01*
X20001Y378457D01*
X20015Y378385D01*
X20022Y378311D01*
X20035Y378287D01*
X20040Y378261D01*
X20082Y378200D01*
X20117Y378134D01*
X20139Y378116D01*
X20153Y378095D01*
X20198Y378066D01*
X20254Y378018D01*
X21563Y377263D01*
X22501Y375638D01*
X22501Y371762D01*
X21563Y370137D01*
X19938Y369199D01*
X3625Y369199D01*
X3617Y369198D01*
X3609Y369199D01*
X3519Y369178D01*
X3428Y369160D01*
X3422Y369155D01*
X3414Y369153D01*
X3266Y369051D01*
X1149Y366934D01*
X1145Y366928D01*
X1139Y366923D01*
X1090Y366844D01*
X1038Y366767D01*
X1037Y366759D01*
X1033Y366753D01*
X1001Y366575D01*
X1001Y365196D01*
X750Y364762D01*
X738Y364726D01*
X718Y364695D01*
X706Y364632D01*
X686Y364572D01*
X689Y364534D01*
X682Y364498D01*
X696Y364435D01*
X701Y364372D01*
X718Y364339D01*
X726Y364302D01*
X763Y364250D01*
X792Y364193D01*
X820Y364169D01*
X842Y364139D01*
X896Y364105D01*
X898Y364103D01*
X3001Y362000D01*
X3001Y346000D01*
X927Y343926D01*
X880Y343883D01*
X827Y343847D01*
X807Y343816D01*
X779Y343790D01*
X752Y343732D01*
X718Y343679D01*
X711Y343642D01*
X695Y343608D01*
X693Y343545D01*
X682Y343482D01*
X690Y343445D01*
X689Y343408D01*
X714Y343338D01*
X726Y343286D01*
X740Y343266D01*
X750Y343238D01*
X1001Y342804D01*
X1001Y333854D01*
X1001Y333851D01*
X1001Y333849D01*
X1021Y333754D01*
X1040Y333657D01*
X1042Y333655D01*
X1042Y333653D01*
X1098Y333572D01*
X1153Y333492D01*
X1155Y333490D01*
X1157Y333488D01*
X1240Y333435D01*
X1321Y333382D01*
X1324Y333382D01*
X1326Y333381D01*
X1422Y333364D01*
X1518Y333347D01*
X1521Y333347D01*
X1523Y333347D01*
X1618Y333369D01*
X1714Y333390D01*
X1716Y333392D01*
X1719Y333393D01*
X1867Y333495D01*
X3412Y335041D01*
X7588Y335041D01*
X10541Y332088D01*
X10541Y331508D01*
X10542Y331503D01*
X10541Y331498D01*
X10562Y331405D01*
X10580Y331311D01*
X10583Y331307D01*
X10584Y331302D01*
X10640Y331224D01*
X10693Y331146D01*
X10697Y331143D01*
X10700Y331139D01*
X10782Y331088D01*
X10861Y331036D01*
X10866Y331036D01*
X10871Y331033D01*
X11048Y331001D01*
X23952Y331001D01*
X23957Y331002D01*
G37*
G36*
X243957Y221002D02*
X243957Y221002D01*
X243962Y221001D01*
X244055Y221022D01*
X244149Y221040D01*
X244153Y221043D01*
X244158Y221044D01*
X244236Y221100D01*
X244314Y221153D01*
X244317Y221157D01*
X244321Y221160D01*
X244372Y221242D01*
X244424Y221321D01*
X244424Y221326D01*
X244427Y221331D01*
X244459Y221508D01*
X244459Y222088D01*
X246485Y224113D01*
X246489Y224120D01*
X246495Y224124D01*
X246544Y224203D01*
X246596Y224280D01*
X246597Y224288D01*
X246601Y224295D01*
X246633Y224472D01*
X246633Y227278D01*
X246632Y227283D01*
X246633Y227288D01*
X246612Y227381D01*
X246594Y227475D01*
X246591Y227479D01*
X246590Y227484D01*
X246534Y227562D01*
X246481Y227640D01*
X246477Y227643D01*
X246474Y227647D01*
X246392Y227698D01*
X246313Y227750D01*
X246308Y227750D01*
X246303Y227753D01*
X246126Y227785D01*
X235284Y227785D01*
X235277Y227784D01*
X235269Y227785D01*
X235179Y227764D01*
X235088Y227746D01*
X235081Y227741D01*
X235074Y227739D01*
X234926Y227637D01*
X234256Y226967D01*
X231744Y226967D01*
X231074Y227637D01*
X231068Y227641D01*
X231063Y227647D01*
X230985Y227696D01*
X230907Y227748D01*
X230900Y227749D01*
X230893Y227753D01*
X230716Y227785D01*
X230398Y227785D01*
X230397Y227786D01*
X230397Y228104D01*
X230396Y228108D01*
X230397Y228113D01*
X230396Y228116D01*
X230397Y228119D01*
X230376Y228209D01*
X230358Y228300D01*
X230354Y228305D01*
X230354Y228308D01*
X230353Y228310D01*
X230351Y228314D01*
X230249Y228462D01*
X229967Y228744D01*
X229967Y231256D01*
X229985Y231274D01*
X229989Y231280D01*
X229995Y231285D01*
X230044Y231363D01*
X230096Y231441D01*
X230097Y231448D01*
X230101Y231455D01*
X230133Y231632D01*
X230133Y232108D01*
X230329Y232447D01*
X230339Y232475D01*
X230342Y232481D01*
X230344Y232489D01*
X230365Y232524D01*
X230377Y232589D01*
X230393Y232637D01*
X230391Y232667D01*
X230397Y232701D01*
X230397Y238000D01*
X230398Y238001D01*
X237792Y238001D01*
X237797Y238002D01*
X237802Y238001D01*
X237895Y238022D01*
X237989Y238040D01*
X237993Y238043D01*
X237998Y238044D01*
X238076Y238100D01*
X238154Y238153D01*
X238157Y238157D01*
X238161Y238160D01*
X238212Y238242D01*
X238264Y238321D01*
X238264Y238326D01*
X238267Y238331D01*
X238299Y238508D01*
X238299Y253083D01*
X238417Y253201D01*
X251583Y253201D01*
X251701Y253083D01*
X251701Y238417D01*
X251583Y238299D01*
X249524Y238299D01*
X249519Y238298D01*
X249514Y238299D01*
X249421Y238278D01*
X249327Y238260D01*
X249323Y238257D01*
X249318Y238256D01*
X249240Y238200D01*
X249162Y238147D01*
X249159Y238143D01*
X249155Y238140D01*
X249104Y238058D01*
X249052Y237979D01*
X249052Y237974D01*
X249049Y237969D01*
X249017Y237792D01*
X249017Y236558D01*
X249031Y236485D01*
X249038Y236411D01*
X249051Y236388D01*
X249056Y236361D01*
X249098Y236300D01*
X249133Y236235D01*
X249155Y236216D01*
X249169Y236195D01*
X249214Y236166D01*
X249270Y236118D01*
X250125Y235625D01*
X252367Y231742D01*
X252367Y224472D01*
X252368Y224464D01*
X252367Y224457D01*
X252388Y224367D01*
X252406Y224276D01*
X252411Y224269D01*
X252413Y224261D01*
X252515Y224113D01*
X254541Y222088D01*
X254541Y221508D01*
X254542Y221503D01*
X254541Y221498D01*
X254562Y221405D01*
X254580Y221311D01*
X254583Y221307D01*
X254584Y221302D01*
X254640Y221224D01*
X254693Y221146D01*
X254697Y221143D01*
X254700Y221139D01*
X254782Y221088D01*
X254861Y221036D01*
X254866Y221036D01*
X254871Y221033D01*
X255048Y221001D01*
X267492Y221001D01*
X267497Y221002D01*
X267502Y221001D01*
X267595Y221022D01*
X267689Y221040D01*
X267693Y221043D01*
X267698Y221044D01*
X267776Y221100D01*
X267854Y221153D01*
X267857Y221157D01*
X267861Y221160D01*
X267912Y221242D01*
X267964Y221321D01*
X267964Y221326D01*
X267967Y221331D01*
X267999Y221508D01*
X267999Y232804D01*
X268250Y233238D01*
X268262Y233274D01*
X268282Y233305D01*
X268294Y233368D01*
X268314Y233428D01*
X268311Y233466D01*
X268318Y233502D01*
X268304Y233565D01*
X268299Y233628D01*
X268282Y233662D01*
X268274Y233698D01*
X268237Y233750D01*
X268208Y233807D01*
X268180Y233831D01*
X268158Y233861D01*
X268104Y233895D01*
X268102Y233897D01*
X265999Y236000D01*
X265999Y252000D01*
X266148Y252149D01*
X267851Y253852D01*
X268073Y254074D01*
X268120Y254117D01*
X268173Y254153D01*
X268193Y254184D01*
X268221Y254210D01*
X268248Y254268D01*
X268282Y254321D01*
X268289Y254358D01*
X268305Y254392D01*
X268307Y254455D01*
X268318Y254518D01*
X268310Y254555D01*
X268311Y254592D01*
X268286Y254662D01*
X268274Y254714D01*
X268260Y254734D01*
X268250Y254762D01*
X267999Y255196D01*
X267999Y256575D01*
X267998Y256583D01*
X267999Y256591D01*
X267978Y256681D01*
X267960Y256772D01*
X267955Y256778D01*
X267953Y256786D01*
X267851Y256934D01*
X265734Y259051D01*
X265727Y259055D01*
X265723Y259061D01*
X265644Y259110D01*
X265567Y259162D01*
X265559Y259163D01*
X265553Y259167D01*
X265375Y259199D01*
X251062Y259199D01*
X249437Y260137D01*
X248499Y261762D01*
X248499Y265638D01*
X249437Y267263D01*
X250746Y268018D01*
X250801Y268067D01*
X250861Y268110D01*
X250876Y268133D01*
X250896Y268151D01*
X250928Y268217D01*
X250967Y268280D01*
X250972Y268309D01*
X250983Y268331D01*
X250986Y268385D01*
X250999Y268457D01*
X250999Y269282D01*
X250990Y269328D01*
X250991Y269375D01*
X250969Y269432D01*
X250960Y269479D01*
X250941Y269506D01*
X250927Y269543D01*
X247488Y275275D01*
X247453Y275314D01*
X247411Y275373D01*
X247044Y275739D01*
X246501Y277042D01*
X246501Y277125D01*
X246499Y277131D01*
X246499Y277142D01*
X246500Y277146D01*
X246499Y277149D01*
X246499Y277748D01*
X246499Y277749D01*
X246498Y278243D01*
X246497Y278248D01*
X246498Y278252D01*
X246477Y278347D01*
X246458Y278439D01*
X246456Y278443D01*
X246455Y278448D01*
X246399Y278527D01*
X246345Y278605D01*
X246341Y278608D01*
X246339Y278611D01*
X246257Y278662D01*
X246177Y278714D01*
X246172Y278715D01*
X246168Y278717D01*
X245991Y278749D01*
X245009Y278749D01*
X245004Y278748D01*
X245000Y278749D01*
X244907Y278729D01*
X244813Y278710D01*
X244809Y278707D01*
X244804Y278706D01*
X244726Y278651D01*
X244647Y278597D01*
X244644Y278593D01*
X244640Y278590D01*
X244589Y278508D01*
X244537Y278429D01*
X244537Y278424D01*
X244534Y278420D01*
X244502Y278243D01*
X244501Y277748D01*
X244501Y277747D01*
X244501Y277131D01*
X244500Y277130D01*
X244499Y277125D01*
X244499Y277042D01*
X243956Y275739D01*
X243589Y275373D01*
X243559Y275329D01*
X243512Y275275D01*
X240073Y269543D01*
X240057Y269499D01*
X240033Y269460D01*
X240022Y269399D01*
X240006Y269354D01*
X240008Y269321D01*
X240001Y269282D01*
X240001Y268457D01*
X240015Y268385D01*
X240022Y268311D01*
X240035Y268287D01*
X240040Y268261D01*
X240082Y268200D01*
X240117Y268134D01*
X240139Y268116D01*
X240153Y268095D01*
X240198Y268066D01*
X240254Y268018D01*
X241563Y267263D01*
X242501Y265638D01*
X242501Y261762D01*
X241563Y260137D01*
X239938Y259199D01*
X223625Y259199D01*
X223617Y259198D01*
X223609Y259199D01*
X223519Y259178D01*
X223428Y259160D01*
X223422Y259155D01*
X223414Y259153D01*
X223266Y259051D01*
X221149Y256934D01*
X221145Y256927D01*
X221139Y256923D01*
X221090Y256844D01*
X221038Y256767D01*
X221037Y256759D01*
X221033Y256753D01*
X221001Y256575D01*
X221001Y255196D01*
X220750Y254762D01*
X220738Y254726D01*
X220718Y254695D01*
X220706Y254632D01*
X220686Y254572D01*
X220689Y254534D01*
X220682Y254498D01*
X220696Y254435D01*
X220701Y254372D01*
X220718Y254338D01*
X220726Y254302D01*
X220763Y254250D01*
X220792Y254193D01*
X220820Y254169D01*
X220842Y254139D01*
X220896Y254105D01*
X220898Y254103D01*
X221149Y253852D01*
X222852Y252149D01*
X223001Y252000D01*
X223001Y236000D01*
X220927Y233926D01*
X220880Y233883D01*
X220827Y233847D01*
X220807Y233816D01*
X220779Y233790D01*
X220752Y233732D01*
X220718Y233679D01*
X220711Y233642D01*
X220695Y233608D01*
X220693Y233545D01*
X220682Y233482D01*
X220690Y233445D01*
X220689Y233408D01*
X220714Y233338D01*
X220726Y233286D01*
X220740Y233266D01*
X220750Y233238D01*
X221001Y232804D01*
X221001Y223854D01*
X221001Y223851D01*
X221001Y223849D01*
X221021Y223754D01*
X221040Y223657D01*
X221042Y223655D01*
X221042Y223653D01*
X221098Y223572D01*
X221153Y223492D01*
X221155Y223490D01*
X221157Y223488D01*
X221240Y223435D01*
X221321Y223382D01*
X221324Y223382D01*
X221326Y223381D01*
X221422Y223364D01*
X221518Y223347D01*
X221521Y223347D01*
X221523Y223347D01*
X221618Y223369D01*
X221714Y223390D01*
X221716Y223392D01*
X221719Y223393D01*
X221867Y223495D01*
X223412Y225041D01*
X227588Y225041D01*
X230541Y222088D01*
X230541Y221508D01*
X230542Y221503D01*
X230541Y221498D01*
X230562Y221405D01*
X230580Y221311D01*
X230583Y221307D01*
X230584Y221302D01*
X230640Y221224D01*
X230693Y221146D01*
X230697Y221143D01*
X230700Y221139D01*
X230782Y221088D01*
X230861Y221036D01*
X230866Y221036D01*
X230871Y221033D01*
X231048Y221001D01*
X243952Y221001D01*
X243957Y221002D01*
G37*
G36*
X133957Y111002D02*
X133957Y111002D01*
X133962Y111001D01*
X134055Y111022D01*
X134149Y111040D01*
X134153Y111043D01*
X134158Y111044D01*
X134236Y111100D01*
X134314Y111153D01*
X134317Y111157D01*
X134321Y111160D01*
X134372Y111242D01*
X134424Y111321D01*
X134424Y111326D01*
X134427Y111331D01*
X134459Y111508D01*
X134459Y112088D01*
X136485Y114113D01*
X136489Y114120D01*
X136495Y114124D01*
X136544Y114203D01*
X136596Y114280D01*
X136597Y114288D01*
X136601Y114295D01*
X136633Y114472D01*
X136633Y117278D01*
X136632Y117283D01*
X136633Y117288D01*
X136612Y117381D01*
X136594Y117475D01*
X136591Y117479D01*
X136590Y117484D01*
X136534Y117562D01*
X136481Y117640D01*
X136477Y117643D01*
X136474Y117647D01*
X136392Y117698D01*
X136313Y117750D01*
X136308Y117750D01*
X136303Y117753D01*
X136126Y117785D01*
X125284Y117785D01*
X125277Y117784D01*
X125269Y117785D01*
X125179Y117764D01*
X125088Y117746D01*
X125081Y117741D01*
X125074Y117739D01*
X124926Y117637D01*
X124256Y116967D01*
X121744Y116967D01*
X121074Y117637D01*
X121068Y117641D01*
X121063Y117647D01*
X120985Y117696D01*
X120907Y117748D01*
X120900Y117749D01*
X120893Y117753D01*
X120716Y117785D01*
X120398Y117785D01*
X120397Y117786D01*
X120397Y118104D01*
X120396Y118108D01*
X120397Y118113D01*
X120396Y118116D01*
X120397Y118119D01*
X120376Y118209D01*
X120358Y118300D01*
X120354Y118305D01*
X120354Y118308D01*
X120353Y118310D01*
X120351Y118314D01*
X120249Y118462D01*
X119967Y118744D01*
X119967Y121256D01*
X119985Y121274D01*
X119989Y121280D01*
X119995Y121285D01*
X120044Y121363D01*
X120096Y121441D01*
X120097Y121448D01*
X120101Y121455D01*
X120133Y121632D01*
X120133Y122108D01*
X120329Y122447D01*
X120339Y122475D01*
X120342Y122481D01*
X120344Y122489D01*
X120365Y122524D01*
X120377Y122589D01*
X120393Y122637D01*
X120391Y122667D01*
X120397Y122701D01*
X120397Y128000D01*
X120398Y128001D01*
X127792Y128001D01*
X127797Y128002D01*
X127802Y128001D01*
X127895Y128022D01*
X127989Y128040D01*
X127993Y128043D01*
X127998Y128044D01*
X128076Y128100D01*
X128154Y128153D01*
X128157Y128157D01*
X128161Y128160D01*
X128212Y128242D01*
X128264Y128321D01*
X128264Y128326D01*
X128267Y128331D01*
X128299Y128508D01*
X128299Y143083D01*
X128417Y143201D01*
X141583Y143201D01*
X141701Y143083D01*
X141701Y128417D01*
X141583Y128299D01*
X139524Y128299D01*
X139519Y128298D01*
X139514Y128299D01*
X139421Y128278D01*
X139327Y128260D01*
X139323Y128257D01*
X139318Y128256D01*
X139240Y128200D01*
X139162Y128147D01*
X139159Y128143D01*
X139155Y128140D01*
X139104Y128058D01*
X139052Y127979D01*
X139052Y127974D01*
X139049Y127969D01*
X139017Y127792D01*
X139017Y126558D01*
X139031Y126485D01*
X139038Y126411D01*
X139051Y126388D01*
X139056Y126361D01*
X139098Y126300D01*
X139133Y126235D01*
X139155Y126216D01*
X139169Y126195D01*
X139214Y126166D01*
X139270Y126118D01*
X140125Y125625D01*
X142367Y121742D01*
X142367Y114472D01*
X142368Y114464D01*
X142367Y114457D01*
X142388Y114367D01*
X142406Y114276D01*
X142411Y114269D01*
X142413Y114261D01*
X142515Y114113D01*
X144541Y112088D01*
X144541Y111508D01*
X144542Y111503D01*
X144541Y111498D01*
X144562Y111405D01*
X144580Y111311D01*
X144583Y111307D01*
X144584Y111302D01*
X144640Y111224D01*
X144693Y111146D01*
X144697Y111143D01*
X144700Y111139D01*
X144782Y111088D01*
X144861Y111036D01*
X144866Y111036D01*
X144871Y111033D01*
X145048Y111001D01*
X157492Y111001D01*
X157497Y111002D01*
X157502Y111001D01*
X157595Y111022D01*
X157689Y111040D01*
X157693Y111043D01*
X157698Y111044D01*
X157776Y111100D01*
X157854Y111153D01*
X157857Y111157D01*
X157861Y111160D01*
X157912Y111242D01*
X157964Y111321D01*
X157964Y111326D01*
X157967Y111331D01*
X157999Y111508D01*
X157999Y122804D01*
X158250Y123238D01*
X158262Y123274D01*
X158282Y123305D01*
X158294Y123368D01*
X158314Y123428D01*
X158311Y123466D01*
X158318Y123502D01*
X158304Y123565D01*
X158299Y123628D01*
X158282Y123662D01*
X158274Y123698D01*
X158237Y123750D01*
X158208Y123807D01*
X158180Y123831D01*
X158158Y123861D01*
X158104Y123895D01*
X158102Y123897D01*
X155999Y126000D01*
X155999Y142000D01*
X156148Y142149D01*
X157851Y143852D01*
X158073Y144074D01*
X158120Y144117D01*
X158173Y144153D01*
X158193Y144184D01*
X158221Y144210D01*
X158248Y144268D01*
X158282Y144321D01*
X158289Y144358D01*
X158305Y144392D01*
X158307Y144455D01*
X158318Y144518D01*
X158310Y144555D01*
X158311Y144592D01*
X158286Y144662D01*
X158274Y144714D01*
X158260Y144734D01*
X158250Y144762D01*
X157999Y145196D01*
X157999Y146575D01*
X157998Y146583D01*
X157999Y146591D01*
X157978Y146681D01*
X157960Y146772D01*
X157955Y146778D01*
X157953Y146786D01*
X157851Y146934D01*
X155734Y149051D01*
X155727Y149055D01*
X155723Y149061D01*
X155644Y149110D01*
X155567Y149162D01*
X155559Y149163D01*
X155553Y149167D01*
X155375Y149199D01*
X141062Y149199D01*
X139437Y150137D01*
X138499Y151762D01*
X138499Y155638D01*
X139437Y157263D01*
X140746Y158018D01*
X140801Y158067D01*
X140861Y158110D01*
X140876Y158133D01*
X140896Y158151D01*
X140928Y158217D01*
X140967Y158280D01*
X140972Y158309D01*
X140983Y158331D01*
X140986Y158385D01*
X140999Y158457D01*
X140999Y159282D01*
X140990Y159328D01*
X140991Y159375D01*
X140969Y159432D01*
X140960Y159479D01*
X140941Y159506D01*
X140927Y159543D01*
X137488Y165275D01*
X137453Y165314D01*
X137411Y165373D01*
X137044Y165739D01*
X136501Y167042D01*
X136501Y167125D01*
X136499Y167131D01*
X136499Y167142D01*
X136500Y167146D01*
X136499Y167149D01*
X136499Y167743D01*
X136499Y167745D01*
X136499Y167747D01*
X136499Y167748D01*
X136498Y168243D01*
X136497Y168248D01*
X136498Y168252D01*
X136477Y168347D01*
X136458Y168439D01*
X136456Y168443D01*
X136455Y168448D01*
X136399Y168527D01*
X136345Y168605D01*
X136341Y168608D01*
X136339Y168611D01*
X136257Y168662D01*
X136177Y168714D01*
X136172Y168715D01*
X136168Y168717D01*
X135991Y168749D01*
X135009Y168749D01*
X135004Y168748D01*
X135000Y168749D01*
X134907Y168729D01*
X134813Y168710D01*
X134809Y168707D01*
X134804Y168706D01*
X134726Y168651D01*
X134647Y168597D01*
X134644Y168593D01*
X134640Y168590D01*
X134589Y168508D01*
X134537Y168429D01*
X134537Y168424D01*
X134534Y168420D01*
X134502Y168243D01*
X134501Y167748D01*
X134501Y167747D01*
X134501Y167131D01*
X134500Y167130D01*
X134499Y167125D01*
X134499Y167042D01*
X133956Y165739D01*
X133589Y165373D01*
X133559Y165329D01*
X133512Y165275D01*
X130073Y159543D01*
X130057Y159499D01*
X130033Y159460D01*
X130022Y159399D01*
X130006Y159354D01*
X130008Y159321D01*
X130001Y159282D01*
X130001Y158457D01*
X130015Y158385D01*
X130022Y158311D01*
X130035Y158287D01*
X130040Y158261D01*
X130082Y158200D01*
X130117Y158134D01*
X130139Y158116D01*
X130153Y158095D01*
X130198Y158066D01*
X130254Y158018D01*
X131563Y157263D01*
X132501Y155638D01*
X132501Y151762D01*
X131563Y150137D01*
X129938Y149199D01*
X113625Y149199D01*
X113617Y149198D01*
X113609Y149199D01*
X113519Y149178D01*
X113428Y149160D01*
X113422Y149155D01*
X113414Y149153D01*
X113266Y149051D01*
X111149Y146934D01*
X111145Y146928D01*
X111139Y146923D01*
X111090Y146844D01*
X111038Y146767D01*
X111037Y146759D01*
X111033Y146753D01*
X111001Y146575D01*
X111001Y145196D01*
X110750Y144762D01*
X110738Y144726D01*
X110718Y144695D01*
X110706Y144632D01*
X110686Y144572D01*
X110689Y144534D01*
X110682Y144498D01*
X110696Y144435D01*
X110701Y144372D01*
X110718Y144338D01*
X110726Y144302D01*
X110763Y144250D01*
X110792Y144193D01*
X110820Y144169D01*
X110842Y144139D01*
X110896Y144105D01*
X110898Y144103D01*
X111149Y143852D01*
X112852Y142149D01*
X113001Y142000D01*
X113001Y126000D01*
X110927Y123926D01*
X110880Y123883D01*
X110827Y123847D01*
X110807Y123816D01*
X110779Y123790D01*
X110752Y123732D01*
X110718Y123679D01*
X110711Y123642D01*
X110695Y123608D01*
X110693Y123545D01*
X110682Y123482D01*
X110690Y123445D01*
X110689Y123408D01*
X110714Y123338D01*
X110726Y123286D01*
X110740Y123266D01*
X110750Y123238D01*
X111001Y122804D01*
X111001Y113854D01*
X111001Y113851D01*
X111001Y113849D01*
X111021Y113754D01*
X111040Y113657D01*
X111042Y113655D01*
X111042Y113653D01*
X111098Y113572D01*
X111153Y113492D01*
X111155Y113490D01*
X111157Y113488D01*
X111240Y113435D01*
X111321Y113382D01*
X111324Y113382D01*
X111326Y113381D01*
X111422Y113364D01*
X111518Y113347D01*
X111521Y113347D01*
X111523Y113347D01*
X111618Y113369D01*
X111714Y113390D01*
X111716Y113392D01*
X111719Y113393D01*
X111867Y113495D01*
X113412Y115041D01*
X117588Y115041D01*
X120541Y112088D01*
X120541Y111508D01*
X120542Y111503D01*
X120541Y111498D01*
X120562Y111405D01*
X120580Y111311D01*
X120583Y111307D01*
X120584Y111302D01*
X120640Y111224D01*
X120693Y111146D01*
X120697Y111143D01*
X120700Y111139D01*
X120782Y111088D01*
X120861Y111036D01*
X120866Y111036D01*
X120871Y111033D01*
X121048Y111001D01*
X133952Y111001D01*
X133957Y111002D01*
G37*
G36*
X23957Y1002D02*
X23957Y1002D01*
X23962Y1001D01*
X24055Y1022D01*
X24149Y1040D01*
X24153Y1043D01*
X24158Y1044D01*
X24236Y1100D01*
X24314Y1153D01*
X24317Y1157D01*
X24321Y1160D01*
X24372Y1242D01*
X24424Y1321D01*
X24424Y1326D01*
X24427Y1331D01*
X24459Y1508D01*
X24459Y2088D01*
X26485Y4113D01*
X26489Y4120D01*
X26495Y4124D01*
X26544Y4203D01*
X26596Y4280D01*
X26597Y4288D01*
X26601Y4295D01*
X26633Y4472D01*
X26633Y7278D01*
X26632Y7283D01*
X26633Y7288D01*
X26612Y7381D01*
X26594Y7475D01*
X26591Y7479D01*
X26590Y7484D01*
X26534Y7562D01*
X26481Y7640D01*
X26477Y7643D01*
X26474Y7647D01*
X26392Y7698D01*
X26313Y7750D01*
X26308Y7750D01*
X26303Y7753D01*
X26126Y7785D01*
X15284Y7785D01*
X15277Y7784D01*
X15269Y7785D01*
X15179Y7764D01*
X15088Y7746D01*
X15081Y7741D01*
X15074Y7739D01*
X14926Y7637D01*
X14256Y6967D01*
X11744Y6967D01*
X11074Y7637D01*
X11068Y7641D01*
X11063Y7647D01*
X10985Y7696D01*
X10907Y7748D01*
X10900Y7749D01*
X10893Y7753D01*
X10716Y7785D01*
X10398Y7785D01*
X10397Y7786D01*
X10397Y8104D01*
X10396Y8108D01*
X10397Y8113D01*
X10396Y8116D01*
X10397Y8119D01*
X10376Y8209D01*
X10358Y8300D01*
X10354Y8305D01*
X10354Y8308D01*
X10353Y8310D01*
X10351Y8314D01*
X10249Y8462D01*
X9967Y8744D01*
X9967Y11256D01*
X9985Y11274D01*
X9989Y11280D01*
X9995Y11285D01*
X10044Y11363D01*
X10096Y11441D01*
X10097Y11448D01*
X10101Y11455D01*
X10133Y11632D01*
X10133Y12108D01*
X10329Y12447D01*
X10339Y12475D01*
X10342Y12481D01*
X10344Y12489D01*
X10365Y12524D01*
X10377Y12590D01*
X10393Y12637D01*
X10391Y12667D01*
X10397Y12701D01*
X10397Y18000D01*
X10398Y18001D01*
X17792Y18001D01*
X17797Y18002D01*
X17802Y18001D01*
X17895Y18022D01*
X17989Y18040D01*
X17993Y18043D01*
X17998Y18044D01*
X18076Y18100D01*
X18154Y18153D01*
X18157Y18157D01*
X18161Y18160D01*
X18212Y18242D01*
X18264Y18321D01*
X18264Y18326D01*
X18267Y18331D01*
X18299Y18508D01*
X18299Y33083D01*
X18417Y33201D01*
X31583Y33201D01*
X31701Y33083D01*
X31701Y18417D01*
X31583Y18299D01*
X29524Y18299D01*
X29519Y18298D01*
X29514Y18299D01*
X29421Y18278D01*
X29327Y18260D01*
X29323Y18257D01*
X29318Y18256D01*
X29240Y18200D01*
X29162Y18147D01*
X29159Y18143D01*
X29155Y18140D01*
X29104Y18058D01*
X29052Y17979D01*
X29052Y17974D01*
X29049Y17969D01*
X29017Y17792D01*
X29017Y16558D01*
X29031Y16485D01*
X29038Y16411D01*
X29051Y16388D01*
X29056Y16361D01*
X29098Y16300D01*
X29133Y16235D01*
X29155Y16216D01*
X29169Y16195D01*
X29214Y16166D01*
X29270Y16118D01*
X30125Y15625D01*
X32367Y11742D01*
X32367Y4472D01*
X32368Y4464D01*
X32367Y4457D01*
X32388Y4367D01*
X32406Y4276D01*
X32411Y4269D01*
X32413Y4261D01*
X32515Y4113D01*
X34541Y2088D01*
X34541Y1508D01*
X34542Y1503D01*
X34541Y1498D01*
X34562Y1405D01*
X34580Y1311D01*
X34583Y1307D01*
X34584Y1302D01*
X34640Y1224D01*
X34693Y1146D01*
X34697Y1143D01*
X34700Y1139D01*
X34782Y1088D01*
X34861Y1036D01*
X34866Y1036D01*
X34871Y1033D01*
X35048Y1001D01*
X47492Y1001D01*
X47497Y1002D01*
X47502Y1001D01*
X47595Y1022D01*
X47689Y1040D01*
X47693Y1043D01*
X47698Y1044D01*
X47776Y1100D01*
X47854Y1153D01*
X47857Y1157D01*
X47861Y1160D01*
X47912Y1242D01*
X47964Y1321D01*
X47964Y1326D01*
X47967Y1331D01*
X47999Y1508D01*
X47999Y12804D01*
X48250Y13238D01*
X48262Y13274D01*
X48282Y13305D01*
X48294Y13368D01*
X48314Y13428D01*
X48311Y13466D01*
X48318Y13502D01*
X48304Y13565D01*
X48299Y13628D01*
X48282Y13662D01*
X48274Y13698D01*
X48237Y13750D01*
X48208Y13807D01*
X48180Y13831D01*
X48158Y13861D01*
X48104Y13895D01*
X48102Y13897D01*
X45999Y16000D01*
X45999Y32000D01*
X46148Y32149D01*
X47851Y33852D01*
X48073Y34074D01*
X48120Y34117D01*
X48173Y34153D01*
X48193Y34184D01*
X48221Y34210D01*
X48248Y34268D01*
X48282Y34321D01*
X48289Y34358D01*
X48305Y34392D01*
X48307Y34455D01*
X48318Y34518D01*
X48310Y34555D01*
X48311Y34592D01*
X48286Y34662D01*
X48274Y34714D01*
X48260Y34734D01*
X48250Y34762D01*
X47999Y35196D01*
X47999Y36575D01*
X47998Y36583D01*
X47999Y36591D01*
X47978Y36681D01*
X47960Y36772D01*
X47955Y36778D01*
X47953Y36786D01*
X47851Y36934D01*
X45734Y39051D01*
X45728Y39055D01*
X45723Y39061D01*
X45644Y39110D01*
X45567Y39162D01*
X45559Y39163D01*
X45553Y39167D01*
X45375Y39199D01*
X31062Y39199D01*
X29437Y40137D01*
X28499Y41762D01*
X28499Y45638D01*
X29437Y47263D01*
X30746Y48018D01*
X30801Y48067D01*
X30861Y48110D01*
X30876Y48133D01*
X30896Y48151D01*
X30928Y48217D01*
X30967Y48280D01*
X30972Y48309D01*
X30983Y48331D01*
X30986Y48385D01*
X30999Y48457D01*
X30999Y49282D01*
X30990Y49328D01*
X30991Y49375D01*
X30969Y49432D01*
X30960Y49479D01*
X30941Y49506D01*
X30927Y49543D01*
X27488Y55275D01*
X27453Y55314D01*
X27411Y55373D01*
X27044Y55739D01*
X26501Y57042D01*
X26501Y57125D01*
X26499Y57131D01*
X26499Y57142D01*
X26500Y57146D01*
X26499Y57149D01*
X26499Y57748D01*
X26499Y57749D01*
X26498Y58243D01*
X26497Y58248D01*
X26498Y58252D01*
X26477Y58347D01*
X26458Y58439D01*
X26456Y58443D01*
X26455Y58448D01*
X26399Y58527D01*
X26345Y58605D01*
X26341Y58608D01*
X26339Y58611D01*
X26257Y58662D01*
X26177Y58714D01*
X26172Y58715D01*
X26168Y58717D01*
X25991Y58749D01*
X25009Y58749D01*
X25004Y58748D01*
X25000Y58749D01*
X24907Y58729D01*
X24813Y58710D01*
X24809Y58707D01*
X24804Y58706D01*
X24726Y58651D01*
X24647Y58597D01*
X24644Y58593D01*
X24640Y58590D01*
X24589Y58508D01*
X24537Y58429D01*
X24537Y58424D01*
X24534Y58420D01*
X24502Y58243D01*
X24501Y57748D01*
X24501Y57747D01*
X24501Y57131D01*
X24500Y57130D01*
X24499Y57125D01*
X24499Y57042D01*
X23956Y55739D01*
X23589Y55373D01*
X23559Y55329D01*
X23512Y55275D01*
X20073Y49543D01*
X20057Y49499D01*
X20033Y49460D01*
X20022Y49399D01*
X20006Y49354D01*
X20008Y49321D01*
X20001Y49282D01*
X20001Y48457D01*
X20015Y48385D01*
X20022Y48311D01*
X20035Y48287D01*
X20040Y48261D01*
X20082Y48200D01*
X20117Y48134D01*
X20139Y48116D01*
X20153Y48095D01*
X20198Y48066D01*
X20254Y48018D01*
X21563Y47263D01*
X22501Y45638D01*
X22501Y41762D01*
X21563Y40137D01*
X19938Y39199D01*
X3625Y39199D01*
X3617Y39198D01*
X3609Y39199D01*
X3519Y39178D01*
X3428Y39160D01*
X3422Y39155D01*
X3414Y39153D01*
X3266Y39051D01*
X1149Y36934D01*
X1145Y36928D01*
X1139Y36923D01*
X1090Y36844D01*
X1038Y36767D01*
X1037Y36759D01*
X1033Y36753D01*
X1001Y36575D01*
X1001Y35196D01*
X750Y34762D01*
X738Y34726D01*
X718Y34695D01*
X706Y34632D01*
X686Y34572D01*
X689Y34534D01*
X682Y34498D01*
X696Y34435D01*
X701Y34372D01*
X718Y34338D01*
X726Y34302D01*
X763Y34250D01*
X792Y34193D01*
X820Y34169D01*
X842Y34139D01*
X896Y34105D01*
X898Y34103D01*
X1149Y33852D01*
X2852Y32149D01*
X3001Y32000D01*
X3001Y16000D01*
X927Y13926D01*
X880Y13883D01*
X827Y13847D01*
X807Y13816D01*
X779Y13790D01*
X752Y13732D01*
X718Y13679D01*
X711Y13642D01*
X695Y13608D01*
X693Y13545D01*
X682Y13482D01*
X690Y13445D01*
X689Y13408D01*
X714Y13338D01*
X726Y13286D01*
X740Y13266D01*
X750Y13238D01*
X1001Y12804D01*
X1001Y3854D01*
X1001Y3851D01*
X1001Y3849D01*
X1021Y3754D01*
X1040Y3657D01*
X1042Y3655D01*
X1042Y3653D01*
X1098Y3572D01*
X1153Y3492D01*
X1155Y3490D01*
X1157Y3488D01*
X1240Y3435D01*
X1321Y3382D01*
X1324Y3382D01*
X1326Y3381D01*
X1422Y3364D01*
X1518Y3347D01*
X1521Y3347D01*
X1523Y3347D01*
X1618Y3369D01*
X1714Y3390D01*
X1716Y3392D01*
X1719Y3393D01*
X1867Y3495D01*
X3412Y5041D01*
X7588Y5041D01*
X10541Y2088D01*
X10541Y1508D01*
X10542Y1503D01*
X10541Y1498D01*
X10562Y1405D01*
X10580Y1311D01*
X10583Y1307D01*
X10584Y1302D01*
X10640Y1224D01*
X10693Y1146D01*
X10697Y1143D01*
X10700Y1139D01*
X10782Y1088D01*
X10861Y1036D01*
X10866Y1036D01*
X10871Y1033D01*
X11048Y1001D01*
X23952Y1001D01*
X23957Y1002D01*
G37*
G36*
X243957Y331002D02*
X243957Y331002D01*
X243962Y331001D01*
X244055Y331022D01*
X244149Y331040D01*
X244153Y331043D01*
X244158Y331044D01*
X244236Y331100D01*
X244314Y331153D01*
X244317Y331157D01*
X244321Y331160D01*
X244372Y331242D01*
X244424Y331321D01*
X244424Y331326D01*
X244427Y331331D01*
X244459Y331508D01*
X244459Y332088D01*
X246485Y334113D01*
X246489Y334120D01*
X246495Y334124D01*
X246544Y334203D01*
X246596Y334280D01*
X246597Y334288D01*
X246601Y334295D01*
X246633Y334472D01*
X246633Y337278D01*
X246632Y337283D01*
X246633Y337288D01*
X246612Y337381D01*
X246594Y337475D01*
X246591Y337479D01*
X246590Y337484D01*
X246534Y337562D01*
X246481Y337640D01*
X246477Y337643D01*
X246474Y337647D01*
X246392Y337698D01*
X246313Y337750D01*
X246308Y337750D01*
X246303Y337753D01*
X246126Y337785D01*
X235284Y337785D01*
X235277Y337784D01*
X235269Y337785D01*
X235179Y337764D01*
X235088Y337746D01*
X235081Y337741D01*
X235074Y337739D01*
X234926Y337637D01*
X234256Y336967D01*
X231744Y336967D01*
X231074Y337637D01*
X231068Y337641D01*
X231063Y337647D01*
X230985Y337696D01*
X230907Y337748D01*
X230900Y337749D01*
X230893Y337753D01*
X230716Y337785D01*
X230398Y337785D01*
X230397Y337786D01*
X230397Y338104D01*
X230396Y338108D01*
X230397Y338113D01*
X230396Y338116D01*
X230397Y338119D01*
X230376Y338209D01*
X230358Y338300D01*
X230354Y338305D01*
X230354Y338308D01*
X230353Y338310D01*
X230351Y338314D01*
X230249Y338462D01*
X229967Y338744D01*
X229967Y341256D01*
X229985Y341274D01*
X229989Y341280D01*
X229995Y341285D01*
X230044Y341363D01*
X230096Y341441D01*
X230097Y341448D01*
X230101Y341455D01*
X230133Y341632D01*
X230133Y342108D01*
X230329Y342447D01*
X230339Y342475D01*
X230342Y342481D01*
X230344Y342489D01*
X230365Y342524D01*
X230377Y342590D01*
X230393Y342637D01*
X230391Y342667D01*
X230397Y342701D01*
X230397Y348000D01*
X230398Y348001D01*
X237792Y348001D01*
X237797Y348002D01*
X237802Y348001D01*
X237895Y348022D01*
X237989Y348040D01*
X237993Y348043D01*
X237998Y348044D01*
X238076Y348100D01*
X238154Y348153D01*
X238157Y348157D01*
X238161Y348160D01*
X238212Y348242D01*
X238264Y348321D01*
X238264Y348326D01*
X238267Y348331D01*
X238299Y348508D01*
X238299Y363083D01*
X238417Y363201D01*
X251583Y363201D01*
X251701Y363083D01*
X251701Y348417D01*
X251583Y348299D01*
X249524Y348299D01*
X249519Y348298D01*
X249514Y348299D01*
X249421Y348278D01*
X249327Y348260D01*
X249323Y348257D01*
X249318Y348256D01*
X249240Y348200D01*
X249162Y348147D01*
X249159Y348143D01*
X249155Y348140D01*
X249104Y348058D01*
X249052Y347979D01*
X249052Y347974D01*
X249049Y347969D01*
X249017Y347792D01*
X249017Y346558D01*
X249031Y346485D01*
X249038Y346411D01*
X249051Y346388D01*
X249056Y346361D01*
X249098Y346300D01*
X249133Y346235D01*
X249155Y346216D01*
X249169Y346195D01*
X249214Y346166D01*
X249270Y346118D01*
X250125Y345625D01*
X252367Y341742D01*
X252367Y334472D01*
X252368Y334464D01*
X252367Y334457D01*
X252388Y334367D01*
X252406Y334276D01*
X252411Y334269D01*
X252413Y334261D01*
X252515Y334113D01*
X254541Y332088D01*
X254541Y331508D01*
X254542Y331503D01*
X254541Y331498D01*
X254562Y331405D01*
X254580Y331311D01*
X254583Y331307D01*
X254584Y331302D01*
X254640Y331224D01*
X254693Y331146D01*
X254697Y331143D01*
X254700Y331139D01*
X254782Y331088D01*
X254861Y331036D01*
X254866Y331036D01*
X254871Y331033D01*
X255048Y331001D01*
X267492Y331001D01*
X267497Y331002D01*
X267502Y331001D01*
X267595Y331022D01*
X267689Y331040D01*
X267693Y331043D01*
X267698Y331044D01*
X267776Y331100D01*
X267854Y331153D01*
X267857Y331157D01*
X267861Y331160D01*
X267912Y331242D01*
X267964Y331321D01*
X267964Y331326D01*
X267967Y331331D01*
X267999Y331508D01*
X267999Y342804D01*
X268250Y343238D01*
X268262Y343274D01*
X268282Y343305D01*
X268294Y343368D01*
X268314Y343428D01*
X268311Y343466D01*
X268318Y343502D01*
X268304Y343565D01*
X268299Y343628D01*
X268282Y343662D01*
X268274Y343698D01*
X268237Y343750D01*
X268208Y343807D01*
X268180Y343831D01*
X268158Y343861D01*
X268104Y343895D01*
X268102Y343897D01*
X265999Y346000D01*
X265999Y362000D01*
X268073Y364074D01*
X268120Y364117D01*
X268173Y364153D01*
X268193Y364184D01*
X268221Y364210D01*
X268248Y364268D01*
X268282Y364321D01*
X268289Y364358D01*
X268305Y364392D01*
X268307Y364455D01*
X268318Y364518D01*
X268310Y364555D01*
X268311Y364592D01*
X268286Y364662D01*
X268274Y364714D01*
X268260Y364734D01*
X268250Y364762D01*
X267999Y365196D01*
X267999Y366575D01*
X267998Y366583D01*
X267999Y366591D01*
X267978Y366681D01*
X267960Y366772D01*
X267955Y366778D01*
X267953Y366786D01*
X267851Y366934D01*
X265734Y369051D01*
X265727Y369055D01*
X265723Y369061D01*
X265644Y369110D01*
X265567Y369162D01*
X265559Y369163D01*
X265553Y369167D01*
X265375Y369199D01*
X251062Y369199D01*
X249437Y370137D01*
X248499Y371762D01*
X248499Y375638D01*
X249437Y377263D01*
X250746Y378018D01*
X250801Y378067D01*
X250861Y378110D01*
X250876Y378133D01*
X250896Y378151D01*
X250928Y378217D01*
X250967Y378280D01*
X250972Y378309D01*
X250983Y378331D01*
X250986Y378385D01*
X250999Y378457D01*
X250999Y379282D01*
X250990Y379328D01*
X250991Y379375D01*
X250969Y379432D01*
X250960Y379479D01*
X250941Y379506D01*
X250927Y379543D01*
X247488Y385275D01*
X247453Y385314D01*
X247411Y385373D01*
X247044Y385739D01*
X246501Y387042D01*
X246501Y387125D01*
X246499Y387131D01*
X246499Y387142D01*
X246500Y387146D01*
X246499Y387149D01*
X246499Y387747D01*
X246499Y387748D01*
X246498Y388243D01*
X246497Y388248D01*
X246498Y388252D01*
X246477Y388347D01*
X246458Y388439D01*
X246456Y388443D01*
X246455Y388448D01*
X246399Y388527D01*
X246345Y388605D01*
X246341Y388608D01*
X246339Y388611D01*
X246257Y388662D01*
X246177Y388714D01*
X246172Y388715D01*
X246168Y388717D01*
X245991Y388749D01*
X245009Y388749D01*
X245004Y388748D01*
X245000Y388749D01*
X244907Y388729D01*
X244813Y388710D01*
X244809Y388707D01*
X244804Y388706D01*
X244726Y388651D01*
X244647Y388597D01*
X244644Y388593D01*
X244640Y388590D01*
X244589Y388508D01*
X244537Y388429D01*
X244537Y388424D01*
X244534Y388420D01*
X244502Y388243D01*
X244501Y387748D01*
X244501Y387747D01*
X244501Y387131D01*
X244500Y387130D01*
X244499Y387125D01*
X244499Y387042D01*
X243956Y385739D01*
X243589Y385373D01*
X243559Y385329D01*
X243512Y385275D01*
X240073Y379543D01*
X240057Y379499D01*
X240033Y379460D01*
X240022Y379399D01*
X240006Y379354D01*
X240008Y379321D01*
X240001Y379282D01*
X240001Y378457D01*
X240015Y378385D01*
X240022Y378311D01*
X240035Y378287D01*
X240040Y378261D01*
X240082Y378200D01*
X240117Y378134D01*
X240139Y378116D01*
X240153Y378095D01*
X240198Y378066D01*
X240254Y378018D01*
X241563Y377263D01*
X242501Y375638D01*
X242501Y371762D01*
X241563Y370137D01*
X239938Y369199D01*
X223625Y369199D01*
X223617Y369198D01*
X223609Y369199D01*
X223519Y369178D01*
X223428Y369160D01*
X223422Y369155D01*
X223414Y369153D01*
X223266Y369051D01*
X221149Y366934D01*
X221145Y366928D01*
X221139Y366923D01*
X221090Y366844D01*
X221038Y366767D01*
X221037Y366759D01*
X221033Y366753D01*
X221001Y366575D01*
X221001Y365196D01*
X220750Y364762D01*
X220738Y364726D01*
X220718Y364695D01*
X220706Y364632D01*
X220686Y364572D01*
X220689Y364534D01*
X220682Y364498D01*
X220696Y364435D01*
X220701Y364372D01*
X220718Y364338D01*
X220726Y364302D01*
X220763Y364250D01*
X220792Y364193D01*
X220820Y364169D01*
X220842Y364139D01*
X220896Y364105D01*
X220898Y364103D01*
X223001Y362000D01*
X223001Y346000D01*
X220927Y343926D01*
X220880Y343883D01*
X220827Y343847D01*
X220807Y343816D01*
X220779Y343790D01*
X220752Y343732D01*
X220718Y343679D01*
X220711Y343642D01*
X220695Y343608D01*
X220693Y343545D01*
X220682Y343482D01*
X220690Y343445D01*
X220689Y343408D01*
X220714Y343338D01*
X220726Y343286D01*
X220740Y343266D01*
X220750Y343238D01*
X221001Y342804D01*
X221001Y333854D01*
X221001Y333851D01*
X221001Y333849D01*
X221021Y333754D01*
X221040Y333657D01*
X221042Y333655D01*
X221042Y333653D01*
X221098Y333572D01*
X221153Y333492D01*
X221155Y333490D01*
X221157Y333488D01*
X221240Y333435D01*
X221321Y333382D01*
X221324Y333382D01*
X221326Y333381D01*
X221422Y333364D01*
X221518Y333347D01*
X221521Y333347D01*
X221523Y333347D01*
X221618Y333369D01*
X221714Y333390D01*
X221716Y333392D01*
X221719Y333393D01*
X221867Y333495D01*
X223412Y335041D01*
X227588Y335041D01*
X230541Y332088D01*
X230541Y331508D01*
X230542Y331503D01*
X230541Y331498D01*
X230562Y331405D01*
X230580Y331311D01*
X230583Y331307D01*
X230584Y331302D01*
X230640Y331224D01*
X230693Y331146D01*
X230697Y331143D01*
X230700Y331139D01*
X230782Y331088D01*
X230861Y331036D01*
X230866Y331036D01*
X230871Y331033D01*
X231048Y331001D01*
X243952Y331001D01*
X243957Y331002D01*
G37*
G36*
X133957Y1002D02*
X133957Y1002D01*
X133962Y1001D01*
X134055Y1022D01*
X134149Y1040D01*
X134153Y1043D01*
X134158Y1044D01*
X134236Y1100D01*
X134314Y1153D01*
X134317Y1157D01*
X134321Y1160D01*
X134372Y1242D01*
X134424Y1321D01*
X134424Y1326D01*
X134427Y1331D01*
X134459Y1508D01*
X134459Y2088D01*
X136485Y4113D01*
X136489Y4120D01*
X136495Y4124D01*
X136544Y4203D01*
X136596Y4280D01*
X136597Y4288D01*
X136601Y4295D01*
X136633Y4472D01*
X136633Y7278D01*
X136632Y7283D01*
X136633Y7288D01*
X136612Y7381D01*
X136594Y7475D01*
X136591Y7479D01*
X136590Y7484D01*
X136534Y7562D01*
X136481Y7640D01*
X136477Y7643D01*
X136474Y7647D01*
X136392Y7698D01*
X136313Y7750D01*
X136308Y7750D01*
X136303Y7753D01*
X136126Y7785D01*
X125284Y7785D01*
X125277Y7784D01*
X125269Y7785D01*
X125179Y7764D01*
X125088Y7746D01*
X125081Y7741D01*
X125074Y7739D01*
X124926Y7637D01*
X124256Y6967D01*
X121744Y6967D01*
X121074Y7637D01*
X121068Y7641D01*
X121063Y7647D01*
X120985Y7696D01*
X120907Y7748D01*
X120900Y7749D01*
X120893Y7753D01*
X120716Y7785D01*
X120398Y7785D01*
X120397Y7786D01*
X120397Y8104D01*
X120396Y8108D01*
X120397Y8113D01*
X120396Y8116D01*
X120397Y8119D01*
X120376Y8209D01*
X120358Y8300D01*
X120354Y8305D01*
X120354Y8308D01*
X120353Y8310D01*
X120351Y8314D01*
X120249Y8462D01*
X119967Y8744D01*
X119967Y11256D01*
X119985Y11274D01*
X119989Y11280D01*
X119995Y11285D01*
X120044Y11363D01*
X120096Y11441D01*
X120097Y11448D01*
X120101Y11455D01*
X120133Y11632D01*
X120133Y12108D01*
X120329Y12447D01*
X120339Y12475D01*
X120342Y12481D01*
X120344Y12489D01*
X120365Y12524D01*
X120377Y12590D01*
X120393Y12637D01*
X120391Y12667D01*
X120397Y12701D01*
X120397Y18000D01*
X120398Y18001D01*
X127792Y18001D01*
X127797Y18002D01*
X127802Y18001D01*
X127895Y18022D01*
X127989Y18040D01*
X127993Y18043D01*
X127998Y18044D01*
X128076Y18100D01*
X128154Y18153D01*
X128157Y18157D01*
X128161Y18160D01*
X128212Y18242D01*
X128264Y18321D01*
X128264Y18326D01*
X128267Y18331D01*
X128299Y18508D01*
X128299Y33083D01*
X128417Y33201D01*
X141583Y33201D01*
X141701Y33083D01*
X141701Y18417D01*
X141583Y18299D01*
X139524Y18299D01*
X139519Y18298D01*
X139514Y18299D01*
X139421Y18278D01*
X139327Y18260D01*
X139323Y18257D01*
X139318Y18256D01*
X139240Y18200D01*
X139162Y18147D01*
X139159Y18143D01*
X139155Y18140D01*
X139104Y18058D01*
X139052Y17979D01*
X139052Y17974D01*
X139049Y17969D01*
X139017Y17792D01*
X139017Y16557D01*
X139031Y16485D01*
X139038Y16411D01*
X139051Y16388D01*
X139056Y16361D01*
X139098Y16300D01*
X139133Y16235D01*
X139155Y16216D01*
X139169Y16195D01*
X139214Y16166D01*
X139270Y16118D01*
X140125Y15625D01*
X142367Y11742D01*
X142367Y4472D01*
X142368Y4464D01*
X142367Y4457D01*
X142388Y4367D01*
X142406Y4276D01*
X142411Y4269D01*
X142413Y4261D01*
X142515Y4113D01*
X144541Y2088D01*
X144541Y1508D01*
X144542Y1503D01*
X144541Y1498D01*
X144562Y1405D01*
X144580Y1311D01*
X144583Y1307D01*
X144584Y1302D01*
X144640Y1224D01*
X144693Y1146D01*
X144697Y1143D01*
X144700Y1139D01*
X144782Y1088D01*
X144861Y1036D01*
X144866Y1036D01*
X144871Y1033D01*
X145048Y1001D01*
X157492Y1001D01*
X157497Y1002D01*
X157502Y1001D01*
X157595Y1022D01*
X157689Y1040D01*
X157693Y1043D01*
X157698Y1044D01*
X157776Y1100D01*
X157854Y1153D01*
X157857Y1157D01*
X157861Y1160D01*
X157912Y1242D01*
X157964Y1321D01*
X157964Y1326D01*
X157967Y1331D01*
X157999Y1508D01*
X157999Y12804D01*
X158250Y13238D01*
X158262Y13274D01*
X158282Y13305D01*
X158294Y13368D01*
X158314Y13428D01*
X158311Y13466D01*
X158318Y13502D01*
X158304Y13565D01*
X158299Y13628D01*
X158282Y13662D01*
X158274Y13698D01*
X158237Y13750D01*
X158208Y13807D01*
X158180Y13831D01*
X158158Y13861D01*
X158104Y13895D01*
X158102Y13897D01*
X155999Y16000D01*
X155999Y32000D01*
X158073Y34074D01*
X158120Y34117D01*
X158173Y34153D01*
X158193Y34184D01*
X158221Y34210D01*
X158248Y34268D01*
X158282Y34321D01*
X158289Y34358D01*
X158305Y34392D01*
X158307Y34455D01*
X158318Y34518D01*
X158310Y34555D01*
X158311Y34592D01*
X158286Y34662D01*
X158274Y34714D01*
X158260Y34734D01*
X158250Y34762D01*
X157999Y35196D01*
X157999Y36575D01*
X157998Y36583D01*
X157999Y36591D01*
X157978Y36681D01*
X157960Y36772D01*
X157955Y36778D01*
X157953Y36786D01*
X157851Y36934D01*
X155734Y39051D01*
X155727Y39055D01*
X155723Y39061D01*
X155644Y39110D01*
X155567Y39162D01*
X155559Y39163D01*
X155553Y39167D01*
X155375Y39199D01*
X141062Y39199D01*
X139437Y40137D01*
X138499Y41762D01*
X138499Y45638D01*
X139437Y47263D01*
X140746Y48018D01*
X140801Y48067D01*
X140861Y48110D01*
X140876Y48133D01*
X140896Y48151D01*
X140928Y48217D01*
X140967Y48280D01*
X140972Y48309D01*
X140983Y48331D01*
X140986Y48385D01*
X140999Y48457D01*
X140999Y49282D01*
X140990Y49328D01*
X140991Y49375D01*
X140969Y49432D01*
X140960Y49479D01*
X140941Y49506D01*
X140927Y49543D01*
X137488Y55275D01*
X137453Y55314D01*
X137411Y55373D01*
X137044Y55739D01*
X136501Y57042D01*
X136501Y57125D01*
X136499Y57131D01*
X136499Y57142D01*
X136500Y57146D01*
X136499Y57149D01*
X136499Y57748D01*
X136499Y57749D01*
X136498Y58243D01*
X136497Y58248D01*
X136498Y58252D01*
X136477Y58347D01*
X136458Y58439D01*
X136456Y58443D01*
X136455Y58448D01*
X136399Y58527D01*
X136345Y58605D01*
X136341Y58608D01*
X136339Y58611D01*
X136257Y58662D01*
X136177Y58714D01*
X136172Y58715D01*
X136168Y58717D01*
X135991Y58749D01*
X135009Y58749D01*
X135004Y58748D01*
X135000Y58749D01*
X134907Y58729D01*
X134813Y58710D01*
X134809Y58707D01*
X134804Y58706D01*
X134726Y58651D01*
X134647Y58597D01*
X134644Y58593D01*
X134640Y58590D01*
X134589Y58508D01*
X134537Y58429D01*
X134537Y58424D01*
X134534Y58420D01*
X134502Y58243D01*
X134501Y57748D01*
X134501Y57747D01*
X134501Y57131D01*
X134500Y57130D01*
X134499Y57125D01*
X134499Y57042D01*
X133956Y55739D01*
X133589Y55373D01*
X133559Y55329D01*
X133512Y55275D01*
X130073Y49543D01*
X130057Y49499D01*
X130033Y49460D01*
X130022Y49399D01*
X130006Y49354D01*
X130008Y49321D01*
X130001Y49282D01*
X130001Y48457D01*
X130015Y48385D01*
X130022Y48311D01*
X130035Y48287D01*
X130040Y48261D01*
X130082Y48200D01*
X130117Y48134D01*
X130139Y48116D01*
X130153Y48095D01*
X130198Y48066D01*
X130254Y48018D01*
X131563Y47263D01*
X132501Y45638D01*
X132501Y41762D01*
X131563Y40137D01*
X129938Y39199D01*
X113625Y39199D01*
X113617Y39198D01*
X113609Y39199D01*
X113519Y39178D01*
X113428Y39160D01*
X113422Y39155D01*
X113414Y39153D01*
X113266Y39051D01*
X111149Y36934D01*
X111145Y36928D01*
X111139Y36923D01*
X111090Y36844D01*
X111038Y36767D01*
X111037Y36759D01*
X111033Y36753D01*
X111001Y36575D01*
X111001Y35196D01*
X110750Y34762D01*
X110738Y34726D01*
X110718Y34695D01*
X110706Y34632D01*
X110686Y34572D01*
X110689Y34534D01*
X110682Y34498D01*
X110696Y34435D01*
X110701Y34372D01*
X110718Y34338D01*
X110726Y34302D01*
X110763Y34250D01*
X110792Y34193D01*
X110820Y34169D01*
X110842Y34139D01*
X110896Y34105D01*
X110898Y34103D01*
X113001Y32000D01*
X113001Y16000D01*
X110927Y13926D01*
X110880Y13883D01*
X110827Y13847D01*
X110807Y13816D01*
X110779Y13790D01*
X110752Y13732D01*
X110718Y13679D01*
X110711Y13642D01*
X110695Y13608D01*
X110693Y13545D01*
X110682Y13482D01*
X110690Y13445D01*
X110689Y13408D01*
X110714Y13338D01*
X110726Y13286D01*
X110740Y13266D01*
X110750Y13238D01*
X111001Y12804D01*
X111001Y3854D01*
X111001Y3851D01*
X111001Y3849D01*
X111021Y3754D01*
X111040Y3657D01*
X111042Y3655D01*
X111042Y3653D01*
X111098Y3572D01*
X111153Y3492D01*
X111155Y3490D01*
X111157Y3488D01*
X111240Y3435D01*
X111321Y3382D01*
X111324Y3382D01*
X111326Y3381D01*
X111422Y3364D01*
X111518Y3347D01*
X111521Y3347D01*
X111523Y3347D01*
X111618Y3369D01*
X111714Y3390D01*
X111716Y3392D01*
X111719Y3393D01*
X111867Y3495D01*
X113412Y5041D01*
X117588Y5041D01*
X120541Y2088D01*
X120541Y1508D01*
X120542Y1503D01*
X120541Y1498D01*
X120562Y1405D01*
X120580Y1311D01*
X120583Y1307D01*
X120584Y1302D01*
X120640Y1224D01*
X120693Y1146D01*
X120697Y1143D01*
X120700Y1139D01*
X120782Y1088D01*
X120861Y1036D01*
X120866Y1036D01*
X120871Y1033D01*
X121048Y1001D01*
X133952Y1001D01*
X133957Y1002D01*
G37*
G36*
X243957Y1002D02*
X243957Y1002D01*
X243962Y1001D01*
X244055Y1022D01*
X244149Y1040D01*
X244153Y1043D01*
X244158Y1044D01*
X244236Y1100D01*
X244314Y1153D01*
X244317Y1157D01*
X244321Y1160D01*
X244372Y1242D01*
X244424Y1321D01*
X244424Y1326D01*
X244427Y1331D01*
X244459Y1508D01*
X244459Y2088D01*
X246485Y4113D01*
X246489Y4120D01*
X246495Y4124D01*
X246544Y4203D01*
X246596Y4280D01*
X246597Y4288D01*
X246601Y4295D01*
X246633Y4472D01*
X246633Y7278D01*
X246632Y7283D01*
X246633Y7288D01*
X246612Y7381D01*
X246594Y7475D01*
X246591Y7479D01*
X246590Y7484D01*
X246534Y7562D01*
X246481Y7640D01*
X246477Y7643D01*
X246474Y7647D01*
X246392Y7698D01*
X246313Y7750D01*
X246308Y7750D01*
X246303Y7753D01*
X246126Y7785D01*
X235284Y7785D01*
X235277Y7784D01*
X235269Y7785D01*
X235179Y7764D01*
X235088Y7746D01*
X235081Y7741D01*
X235074Y7739D01*
X234926Y7637D01*
X234256Y6967D01*
X231744Y6967D01*
X231074Y7637D01*
X231068Y7641D01*
X231063Y7647D01*
X230985Y7696D01*
X230907Y7748D01*
X230900Y7749D01*
X230893Y7753D01*
X230716Y7785D01*
X230398Y7785D01*
X230397Y7786D01*
X230397Y8104D01*
X230396Y8108D01*
X230397Y8113D01*
X230396Y8116D01*
X230397Y8119D01*
X230376Y8209D01*
X230358Y8300D01*
X230354Y8305D01*
X230354Y8308D01*
X230353Y8310D01*
X230351Y8314D01*
X230249Y8462D01*
X229967Y8744D01*
X229967Y11256D01*
X229985Y11274D01*
X229989Y11280D01*
X229995Y11285D01*
X230044Y11363D01*
X230096Y11441D01*
X230097Y11448D01*
X230101Y11455D01*
X230133Y11632D01*
X230133Y12108D01*
X230329Y12447D01*
X230339Y12475D01*
X230342Y12481D01*
X230344Y12489D01*
X230365Y12524D01*
X230377Y12589D01*
X230393Y12637D01*
X230391Y12667D01*
X230397Y12701D01*
X230397Y18000D01*
X230398Y18001D01*
X237792Y18001D01*
X237797Y18002D01*
X237802Y18001D01*
X237895Y18022D01*
X237989Y18040D01*
X237993Y18043D01*
X237998Y18044D01*
X238076Y18100D01*
X238154Y18153D01*
X238157Y18157D01*
X238161Y18160D01*
X238212Y18242D01*
X238264Y18321D01*
X238264Y18326D01*
X238267Y18331D01*
X238299Y18508D01*
X238299Y33083D01*
X238417Y33201D01*
X251583Y33201D01*
X251701Y33083D01*
X251701Y18417D01*
X251583Y18299D01*
X249524Y18299D01*
X249519Y18298D01*
X249514Y18299D01*
X249421Y18278D01*
X249327Y18260D01*
X249323Y18257D01*
X249318Y18256D01*
X249240Y18200D01*
X249162Y18147D01*
X249159Y18143D01*
X249155Y18140D01*
X249104Y18058D01*
X249052Y17979D01*
X249052Y17974D01*
X249049Y17969D01*
X249017Y17792D01*
X249017Y16558D01*
X249031Y16485D01*
X249038Y16411D01*
X249051Y16388D01*
X249056Y16361D01*
X249098Y16300D01*
X249133Y16235D01*
X249155Y16216D01*
X249169Y16195D01*
X249214Y16166D01*
X249270Y16118D01*
X250125Y15625D01*
X252367Y11742D01*
X252367Y4472D01*
X252368Y4464D01*
X252367Y4457D01*
X252388Y4367D01*
X252406Y4276D01*
X252411Y4269D01*
X252413Y4261D01*
X252515Y4113D01*
X254541Y2088D01*
X254541Y1508D01*
X254542Y1503D01*
X254541Y1498D01*
X254562Y1405D01*
X254580Y1311D01*
X254583Y1307D01*
X254584Y1302D01*
X254640Y1224D01*
X254693Y1146D01*
X254697Y1143D01*
X254700Y1139D01*
X254782Y1088D01*
X254861Y1036D01*
X254866Y1036D01*
X254871Y1033D01*
X255048Y1001D01*
X267492Y1001D01*
X267497Y1002D01*
X267502Y1001D01*
X267595Y1022D01*
X267689Y1040D01*
X267693Y1043D01*
X267698Y1044D01*
X267776Y1100D01*
X267854Y1153D01*
X267857Y1157D01*
X267861Y1160D01*
X267912Y1242D01*
X267964Y1321D01*
X267964Y1326D01*
X267967Y1331D01*
X267999Y1508D01*
X267999Y12804D01*
X268250Y13238D01*
X268262Y13274D01*
X268282Y13305D01*
X268294Y13368D01*
X268314Y13428D01*
X268311Y13466D01*
X268318Y13502D01*
X268304Y13565D01*
X268299Y13628D01*
X268282Y13661D01*
X268274Y13698D01*
X268237Y13750D01*
X268208Y13807D01*
X268180Y13831D01*
X268158Y13861D01*
X268104Y13895D01*
X268102Y13897D01*
X265999Y16000D01*
X265999Y32000D01*
X266148Y32149D01*
X267851Y33852D01*
X268073Y34074D01*
X268120Y34117D01*
X268173Y34153D01*
X268193Y34184D01*
X268221Y34210D01*
X268248Y34268D01*
X268282Y34321D01*
X268289Y34358D01*
X268305Y34392D01*
X268307Y34455D01*
X268318Y34518D01*
X268310Y34555D01*
X268311Y34592D01*
X268286Y34662D01*
X268274Y34714D01*
X268260Y34734D01*
X268250Y34762D01*
X267999Y35196D01*
X267999Y36575D01*
X267998Y36583D01*
X267999Y36591D01*
X267978Y36681D01*
X267960Y36772D01*
X267955Y36778D01*
X267953Y36786D01*
X267851Y36934D01*
X265734Y39051D01*
X265727Y39055D01*
X265723Y39061D01*
X265644Y39110D01*
X265567Y39162D01*
X265559Y39163D01*
X265553Y39167D01*
X265375Y39199D01*
X251062Y39199D01*
X249437Y40137D01*
X248499Y41762D01*
X248499Y45638D01*
X249437Y47263D01*
X250746Y48018D01*
X250801Y48067D01*
X250861Y48110D01*
X250876Y48133D01*
X250896Y48151D01*
X250928Y48217D01*
X250967Y48280D01*
X250972Y48309D01*
X250983Y48331D01*
X250986Y48385D01*
X250999Y48457D01*
X250999Y49282D01*
X250990Y49328D01*
X250991Y49375D01*
X250969Y49432D01*
X250960Y49479D01*
X250941Y49506D01*
X250927Y49543D01*
X247488Y55275D01*
X247453Y55314D01*
X247411Y55373D01*
X247044Y55739D01*
X246501Y57042D01*
X246501Y57125D01*
X246499Y57131D01*
X246499Y57142D01*
X246500Y57146D01*
X246499Y57149D01*
X246499Y57748D01*
X246499Y57749D01*
X246498Y58243D01*
X246497Y58248D01*
X246498Y58252D01*
X246477Y58347D01*
X246458Y58439D01*
X246456Y58443D01*
X246455Y58448D01*
X246399Y58527D01*
X246345Y58605D01*
X246341Y58608D01*
X246339Y58611D01*
X246257Y58662D01*
X246177Y58714D01*
X246172Y58715D01*
X246168Y58717D01*
X245991Y58749D01*
X245009Y58749D01*
X245004Y58748D01*
X245000Y58749D01*
X244907Y58729D01*
X244813Y58710D01*
X244809Y58707D01*
X244804Y58706D01*
X244726Y58651D01*
X244647Y58597D01*
X244644Y58593D01*
X244640Y58590D01*
X244589Y58508D01*
X244537Y58429D01*
X244537Y58424D01*
X244534Y58420D01*
X244502Y58243D01*
X244501Y57748D01*
X244501Y57747D01*
X244501Y57131D01*
X244500Y57130D01*
X244499Y57125D01*
X244499Y57042D01*
X243956Y55739D01*
X243589Y55373D01*
X243559Y55329D01*
X243512Y55275D01*
X240073Y49543D01*
X240057Y49499D01*
X240033Y49460D01*
X240022Y49399D01*
X240006Y49354D01*
X240008Y49321D01*
X240001Y49282D01*
X240001Y48457D01*
X240015Y48385D01*
X240022Y48311D01*
X240035Y48287D01*
X240040Y48261D01*
X240082Y48200D01*
X240117Y48134D01*
X240139Y48116D01*
X240153Y48095D01*
X240198Y48066D01*
X240254Y48018D01*
X241563Y47263D01*
X242501Y45638D01*
X242501Y41762D01*
X241563Y40137D01*
X239938Y39199D01*
X223625Y39199D01*
X223617Y39198D01*
X223609Y39199D01*
X223519Y39178D01*
X223428Y39160D01*
X223422Y39155D01*
X223414Y39153D01*
X223266Y39051D01*
X221149Y36934D01*
X221145Y36927D01*
X221139Y36923D01*
X221090Y36844D01*
X221038Y36767D01*
X221037Y36759D01*
X221033Y36753D01*
X221001Y36575D01*
X221001Y35196D01*
X220750Y34762D01*
X220738Y34726D01*
X220718Y34695D01*
X220706Y34632D01*
X220686Y34572D01*
X220689Y34534D01*
X220682Y34498D01*
X220696Y34435D01*
X220701Y34372D01*
X220718Y34338D01*
X220726Y34302D01*
X220763Y34250D01*
X220792Y34193D01*
X220820Y34169D01*
X220842Y34139D01*
X220896Y34105D01*
X220898Y34103D01*
X223001Y32000D01*
X223001Y16000D01*
X220927Y13926D01*
X220880Y13883D01*
X220827Y13847D01*
X220807Y13816D01*
X220779Y13790D01*
X220752Y13732D01*
X220718Y13679D01*
X220711Y13642D01*
X220695Y13608D01*
X220693Y13545D01*
X220682Y13482D01*
X220690Y13445D01*
X220689Y13408D01*
X220714Y13338D01*
X220726Y13286D01*
X220740Y13266D01*
X220750Y13238D01*
X221001Y12804D01*
X221001Y3854D01*
X221001Y3851D01*
X221001Y3849D01*
X221021Y3754D01*
X221040Y3657D01*
X221042Y3655D01*
X221042Y3653D01*
X221098Y3572D01*
X221153Y3492D01*
X221155Y3490D01*
X221157Y3488D01*
X221240Y3435D01*
X221321Y3382D01*
X221324Y3382D01*
X221326Y3381D01*
X221422Y3364D01*
X221518Y3347D01*
X221521Y3347D01*
X221523Y3347D01*
X221618Y3369D01*
X221714Y3390D01*
X221716Y3392D01*
X221719Y3393D01*
X221867Y3495D01*
X223412Y5041D01*
X227588Y5041D01*
X230541Y2088D01*
X230541Y1508D01*
X230542Y1503D01*
X230541Y1498D01*
X230562Y1405D01*
X230580Y1311D01*
X230583Y1307D01*
X230584Y1302D01*
X230640Y1224D01*
X230693Y1146D01*
X230697Y1143D01*
X230700Y1139D01*
X230782Y1088D01*
X230861Y1036D01*
X230866Y1036D01*
X230871Y1033D01*
X231048Y1001D01*
X243952Y1001D01*
X243957Y1002D01*
G37*
G36*
X133957Y221002D02*
X133957Y221002D01*
X133962Y221001D01*
X134055Y221022D01*
X134149Y221040D01*
X134153Y221043D01*
X134158Y221044D01*
X134236Y221100D01*
X134314Y221153D01*
X134317Y221157D01*
X134321Y221160D01*
X134372Y221242D01*
X134424Y221321D01*
X134424Y221326D01*
X134427Y221331D01*
X134459Y221508D01*
X134459Y222088D01*
X136485Y224113D01*
X136489Y224120D01*
X136495Y224124D01*
X136544Y224203D01*
X136596Y224280D01*
X136597Y224288D01*
X136601Y224295D01*
X136633Y224472D01*
X136633Y227278D01*
X136632Y227283D01*
X136633Y227288D01*
X136612Y227381D01*
X136594Y227475D01*
X136591Y227479D01*
X136590Y227484D01*
X136534Y227562D01*
X136481Y227640D01*
X136477Y227643D01*
X136474Y227647D01*
X136392Y227698D01*
X136313Y227750D01*
X136308Y227750D01*
X136303Y227753D01*
X136126Y227785D01*
X125284Y227785D01*
X125277Y227784D01*
X125269Y227785D01*
X125179Y227764D01*
X125088Y227746D01*
X125081Y227741D01*
X125074Y227739D01*
X124926Y227637D01*
X124256Y226967D01*
X121744Y226967D01*
X121074Y227637D01*
X121068Y227641D01*
X121063Y227647D01*
X120985Y227696D01*
X120907Y227748D01*
X120900Y227749D01*
X120893Y227753D01*
X120716Y227785D01*
X120398Y227785D01*
X120397Y227786D01*
X120397Y228104D01*
X120396Y228108D01*
X120397Y228113D01*
X120396Y228116D01*
X120397Y228119D01*
X120376Y228209D01*
X120358Y228300D01*
X120354Y228305D01*
X120354Y228308D01*
X120353Y228310D01*
X120351Y228314D01*
X120249Y228462D01*
X119967Y228744D01*
X119967Y231256D01*
X119985Y231274D01*
X119989Y231280D01*
X119995Y231285D01*
X120044Y231363D01*
X120096Y231441D01*
X120097Y231448D01*
X120101Y231455D01*
X120133Y231632D01*
X120133Y232108D01*
X120329Y232447D01*
X120339Y232475D01*
X120342Y232481D01*
X120344Y232489D01*
X120365Y232524D01*
X120377Y232590D01*
X120393Y232637D01*
X120391Y232667D01*
X120397Y232701D01*
X120397Y238000D01*
X120398Y238001D01*
X127792Y238001D01*
X127797Y238002D01*
X127802Y238001D01*
X127895Y238022D01*
X127989Y238040D01*
X127993Y238043D01*
X127998Y238044D01*
X128076Y238100D01*
X128154Y238153D01*
X128157Y238157D01*
X128161Y238160D01*
X128212Y238242D01*
X128264Y238321D01*
X128264Y238326D01*
X128267Y238331D01*
X128299Y238508D01*
X128299Y253083D01*
X128417Y253201D01*
X141583Y253201D01*
X141701Y253083D01*
X141701Y238417D01*
X141583Y238299D01*
X139524Y238299D01*
X139519Y238298D01*
X139514Y238299D01*
X139421Y238278D01*
X139327Y238260D01*
X139323Y238257D01*
X139318Y238256D01*
X139240Y238200D01*
X139162Y238147D01*
X139159Y238143D01*
X139155Y238140D01*
X139104Y238058D01*
X139052Y237979D01*
X139052Y237974D01*
X139049Y237969D01*
X139017Y237792D01*
X139017Y236557D01*
X139031Y236485D01*
X139038Y236411D01*
X139051Y236388D01*
X139056Y236361D01*
X139098Y236300D01*
X139133Y236235D01*
X139155Y236216D01*
X139169Y236195D01*
X139214Y236166D01*
X139270Y236118D01*
X140125Y235625D01*
X142367Y231742D01*
X142367Y224472D01*
X142368Y224464D01*
X142367Y224457D01*
X142388Y224367D01*
X142406Y224276D01*
X142411Y224269D01*
X142413Y224261D01*
X142515Y224113D01*
X144541Y222088D01*
X144541Y221508D01*
X144542Y221503D01*
X144541Y221498D01*
X144562Y221405D01*
X144580Y221311D01*
X144583Y221307D01*
X144584Y221302D01*
X144640Y221224D01*
X144693Y221146D01*
X144697Y221143D01*
X144700Y221139D01*
X144782Y221088D01*
X144861Y221036D01*
X144866Y221036D01*
X144871Y221033D01*
X145048Y221001D01*
X157492Y221001D01*
X157497Y221002D01*
X157502Y221001D01*
X157595Y221022D01*
X157689Y221040D01*
X157693Y221043D01*
X157698Y221044D01*
X157776Y221100D01*
X157854Y221153D01*
X157857Y221157D01*
X157861Y221160D01*
X157912Y221242D01*
X157964Y221321D01*
X157964Y221326D01*
X157967Y221331D01*
X157999Y221508D01*
X157999Y232804D01*
X158250Y233238D01*
X158262Y233274D01*
X158282Y233305D01*
X158294Y233368D01*
X158314Y233428D01*
X158311Y233466D01*
X158318Y233502D01*
X158304Y233565D01*
X158299Y233628D01*
X158282Y233662D01*
X158274Y233698D01*
X158237Y233750D01*
X158208Y233807D01*
X158180Y233831D01*
X158158Y233861D01*
X158104Y233895D01*
X158102Y233897D01*
X155999Y236000D01*
X155999Y252000D01*
X158073Y254074D01*
X158120Y254117D01*
X158173Y254153D01*
X158193Y254184D01*
X158221Y254210D01*
X158248Y254268D01*
X158282Y254321D01*
X158289Y254358D01*
X158305Y254392D01*
X158307Y254455D01*
X158318Y254518D01*
X158310Y254555D01*
X158311Y254592D01*
X158286Y254662D01*
X158274Y254714D01*
X158260Y254734D01*
X158250Y254762D01*
X157999Y255196D01*
X157999Y256575D01*
X157998Y256583D01*
X157999Y256591D01*
X157978Y256681D01*
X157960Y256772D01*
X157955Y256778D01*
X157953Y256786D01*
X157851Y256934D01*
X155734Y259051D01*
X155727Y259055D01*
X155723Y259061D01*
X155644Y259110D01*
X155567Y259162D01*
X155559Y259163D01*
X155553Y259167D01*
X155375Y259199D01*
X141062Y259199D01*
X139437Y260137D01*
X138499Y261762D01*
X138499Y265638D01*
X139437Y267263D01*
X140746Y268018D01*
X140801Y268067D01*
X140861Y268110D01*
X140876Y268133D01*
X140896Y268151D01*
X140928Y268217D01*
X140967Y268280D01*
X140972Y268309D01*
X140983Y268331D01*
X140986Y268385D01*
X140999Y268457D01*
X140999Y269282D01*
X140990Y269328D01*
X140991Y269375D01*
X140969Y269432D01*
X140960Y269479D01*
X140941Y269506D01*
X140927Y269543D01*
X137488Y275275D01*
X137453Y275314D01*
X137411Y275373D01*
X137044Y275739D01*
X136501Y277042D01*
X136501Y277125D01*
X136499Y277131D01*
X136499Y277142D01*
X136500Y277146D01*
X136499Y277149D01*
X136499Y277748D01*
X136499Y277749D01*
X136498Y278243D01*
X136497Y278248D01*
X136498Y278252D01*
X136477Y278347D01*
X136458Y278439D01*
X136456Y278443D01*
X136455Y278448D01*
X136399Y278527D01*
X136345Y278605D01*
X136341Y278608D01*
X136339Y278611D01*
X136257Y278662D01*
X136177Y278714D01*
X136172Y278715D01*
X136168Y278717D01*
X135991Y278749D01*
X135009Y278749D01*
X135004Y278748D01*
X135000Y278749D01*
X134907Y278729D01*
X134813Y278710D01*
X134809Y278707D01*
X134804Y278706D01*
X134726Y278651D01*
X134647Y278597D01*
X134644Y278593D01*
X134640Y278590D01*
X134589Y278508D01*
X134537Y278429D01*
X134537Y278424D01*
X134534Y278420D01*
X134502Y278243D01*
X134501Y277748D01*
X134501Y277747D01*
X134501Y277131D01*
X134500Y277130D01*
X134499Y277125D01*
X134499Y277042D01*
X133956Y275739D01*
X133589Y275373D01*
X133559Y275329D01*
X133512Y275275D01*
X130073Y269543D01*
X130057Y269499D01*
X130033Y269460D01*
X130022Y269399D01*
X130006Y269354D01*
X130008Y269321D01*
X130001Y269282D01*
X130001Y268457D01*
X130015Y268385D01*
X130022Y268311D01*
X130035Y268287D01*
X130040Y268261D01*
X130082Y268200D01*
X130117Y268134D01*
X130139Y268116D01*
X130153Y268095D01*
X130198Y268066D01*
X130254Y268018D01*
X131563Y267263D01*
X132501Y265638D01*
X132501Y261762D01*
X131563Y260137D01*
X129938Y259199D01*
X113625Y259199D01*
X113617Y259198D01*
X113609Y259199D01*
X113519Y259178D01*
X113428Y259160D01*
X113422Y259155D01*
X113414Y259153D01*
X113266Y259051D01*
X111149Y256934D01*
X111145Y256928D01*
X111139Y256923D01*
X111090Y256844D01*
X111038Y256767D01*
X111037Y256759D01*
X111033Y256753D01*
X111001Y256575D01*
X111001Y255196D01*
X110750Y254762D01*
X110738Y254726D01*
X110718Y254695D01*
X110706Y254632D01*
X110686Y254572D01*
X110689Y254534D01*
X110682Y254498D01*
X110696Y254435D01*
X110701Y254372D01*
X110718Y254338D01*
X110726Y254302D01*
X110763Y254250D01*
X110792Y254193D01*
X110820Y254169D01*
X110842Y254139D01*
X110896Y254105D01*
X110898Y254103D01*
X113001Y252000D01*
X113001Y236000D01*
X110927Y233926D01*
X110880Y233883D01*
X110827Y233847D01*
X110807Y233816D01*
X110779Y233790D01*
X110752Y233732D01*
X110718Y233679D01*
X110711Y233642D01*
X110695Y233608D01*
X110693Y233545D01*
X110682Y233482D01*
X110690Y233445D01*
X110689Y233408D01*
X110714Y233338D01*
X110726Y233286D01*
X110740Y233266D01*
X110750Y233238D01*
X111001Y232804D01*
X111001Y223854D01*
X111001Y223851D01*
X111001Y223849D01*
X111021Y223754D01*
X111040Y223657D01*
X111042Y223655D01*
X111042Y223653D01*
X111098Y223572D01*
X111153Y223492D01*
X111155Y223490D01*
X111157Y223488D01*
X111240Y223435D01*
X111321Y223382D01*
X111324Y223382D01*
X111326Y223381D01*
X111422Y223364D01*
X111518Y223347D01*
X111521Y223347D01*
X111523Y223347D01*
X111618Y223369D01*
X111714Y223390D01*
X111716Y223392D01*
X111719Y223393D01*
X111867Y223495D01*
X113412Y225041D01*
X117588Y225041D01*
X120541Y222088D01*
X120541Y221508D01*
X120542Y221503D01*
X120541Y221498D01*
X120562Y221405D01*
X120580Y221311D01*
X120583Y221307D01*
X120584Y221302D01*
X120640Y221224D01*
X120693Y221146D01*
X120697Y221143D01*
X120700Y221139D01*
X120782Y221088D01*
X120861Y221036D01*
X120866Y221036D01*
X120871Y221033D01*
X121048Y221001D01*
X133952Y221001D01*
X133957Y221002D01*
G37*
G36*
X23957Y111002D02*
X23957Y111002D01*
X23962Y111001D01*
X24055Y111022D01*
X24149Y111040D01*
X24153Y111043D01*
X24158Y111044D01*
X24236Y111100D01*
X24314Y111153D01*
X24317Y111157D01*
X24321Y111160D01*
X24372Y111242D01*
X24424Y111321D01*
X24424Y111326D01*
X24427Y111331D01*
X24459Y111508D01*
X24459Y112088D01*
X26485Y114113D01*
X26489Y114120D01*
X26495Y114124D01*
X26544Y114203D01*
X26596Y114280D01*
X26597Y114288D01*
X26601Y114295D01*
X26633Y114472D01*
X26633Y117278D01*
X26632Y117283D01*
X26633Y117288D01*
X26612Y117381D01*
X26594Y117475D01*
X26591Y117479D01*
X26590Y117484D01*
X26534Y117562D01*
X26481Y117640D01*
X26477Y117643D01*
X26474Y117647D01*
X26392Y117698D01*
X26313Y117750D01*
X26308Y117750D01*
X26303Y117753D01*
X26126Y117785D01*
X15284Y117785D01*
X15277Y117784D01*
X15269Y117785D01*
X15179Y117764D01*
X15088Y117746D01*
X15081Y117741D01*
X15074Y117739D01*
X14926Y117637D01*
X14256Y116967D01*
X11744Y116967D01*
X11074Y117637D01*
X11068Y117641D01*
X11063Y117647D01*
X10985Y117696D01*
X10907Y117748D01*
X10900Y117749D01*
X10893Y117753D01*
X10716Y117785D01*
X10398Y117785D01*
X10397Y117786D01*
X10397Y118104D01*
X10396Y118108D01*
X10397Y118113D01*
X10396Y118116D01*
X10397Y118119D01*
X10376Y118209D01*
X10358Y118300D01*
X10354Y118305D01*
X10354Y118308D01*
X10353Y118310D01*
X10351Y118314D01*
X10249Y118462D01*
X9967Y118744D01*
X9967Y121256D01*
X9985Y121274D01*
X9989Y121280D01*
X9995Y121285D01*
X10044Y121363D01*
X10096Y121441D01*
X10097Y121448D01*
X10101Y121455D01*
X10133Y121632D01*
X10133Y122108D01*
X10329Y122447D01*
X10339Y122475D01*
X10342Y122481D01*
X10344Y122489D01*
X10365Y122524D01*
X10377Y122590D01*
X10393Y122637D01*
X10391Y122667D01*
X10397Y122701D01*
X10397Y128000D01*
X10398Y128001D01*
X17792Y128001D01*
X17797Y128002D01*
X17802Y128001D01*
X17895Y128022D01*
X17989Y128040D01*
X17993Y128043D01*
X17998Y128044D01*
X18076Y128100D01*
X18154Y128153D01*
X18157Y128157D01*
X18161Y128160D01*
X18212Y128242D01*
X18264Y128321D01*
X18264Y128326D01*
X18267Y128331D01*
X18299Y128508D01*
X18299Y143083D01*
X18417Y143201D01*
X31583Y143201D01*
X31701Y143083D01*
X31701Y128417D01*
X31583Y128299D01*
X29524Y128299D01*
X29519Y128298D01*
X29514Y128299D01*
X29421Y128278D01*
X29327Y128260D01*
X29323Y128257D01*
X29318Y128256D01*
X29240Y128200D01*
X29162Y128147D01*
X29159Y128143D01*
X29155Y128140D01*
X29104Y128058D01*
X29052Y127979D01*
X29052Y127974D01*
X29049Y127969D01*
X29017Y127792D01*
X29017Y126558D01*
X29031Y126485D01*
X29038Y126411D01*
X29051Y126388D01*
X29056Y126361D01*
X29098Y126300D01*
X29133Y126235D01*
X29155Y126216D01*
X29169Y126195D01*
X29214Y126166D01*
X29270Y126118D01*
X30125Y125625D01*
X32367Y121742D01*
X32367Y114472D01*
X32368Y114464D01*
X32367Y114457D01*
X32388Y114367D01*
X32406Y114276D01*
X32411Y114269D01*
X32413Y114261D01*
X32515Y114113D01*
X34541Y112088D01*
X34541Y111508D01*
X34542Y111503D01*
X34541Y111498D01*
X34562Y111405D01*
X34580Y111311D01*
X34583Y111307D01*
X34584Y111302D01*
X34640Y111224D01*
X34693Y111146D01*
X34697Y111143D01*
X34700Y111139D01*
X34782Y111088D01*
X34861Y111036D01*
X34866Y111036D01*
X34871Y111033D01*
X35048Y111001D01*
X47492Y111001D01*
X47497Y111002D01*
X47502Y111001D01*
X47595Y111022D01*
X47689Y111040D01*
X47693Y111043D01*
X47698Y111044D01*
X47776Y111100D01*
X47854Y111153D01*
X47857Y111157D01*
X47861Y111160D01*
X47912Y111242D01*
X47964Y111321D01*
X47964Y111326D01*
X47967Y111331D01*
X47999Y111508D01*
X47999Y122804D01*
X48250Y123238D01*
X48262Y123274D01*
X48282Y123305D01*
X48294Y123368D01*
X48314Y123428D01*
X48311Y123466D01*
X48318Y123502D01*
X48304Y123565D01*
X48299Y123628D01*
X48282Y123662D01*
X48274Y123698D01*
X48237Y123750D01*
X48208Y123807D01*
X48180Y123831D01*
X48158Y123861D01*
X48104Y123895D01*
X48102Y123897D01*
X45999Y126000D01*
X45999Y142000D01*
X48073Y144074D01*
X48120Y144117D01*
X48173Y144153D01*
X48193Y144184D01*
X48221Y144210D01*
X48248Y144268D01*
X48282Y144321D01*
X48289Y144358D01*
X48305Y144392D01*
X48307Y144455D01*
X48318Y144518D01*
X48310Y144555D01*
X48311Y144592D01*
X48286Y144662D01*
X48274Y144714D01*
X48260Y144734D01*
X48250Y144762D01*
X47999Y145196D01*
X47999Y146575D01*
X47998Y146583D01*
X47999Y146591D01*
X47978Y146681D01*
X47960Y146772D01*
X47955Y146778D01*
X47953Y146786D01*
X47851Y146934D01*
X45734Y149051D01*
X45727Y149055D01*
X45723Y149061D01*
X45644Y149110D01*
X45567Y149162D01*
X45559Y149163D01*
X45553Y149167D01*
X45375Y149199D01*
X31062Y149199D01*
X29437Y150137D01*
X28499Y151762D01*
X28499Y155638D01*
X29437Y157263D01*
X30746Y158018D01*
X30801Y158067D01*
X30861Y158110D01*
X30876Y158133D01*
X30896Y158151D01*
X30928Y158217D01*
X30967Y158280D01*
X30972Y158309D01*
X30983Y158331D01*
X30986Y158385D01*
X30999Y158457D01*
X30999Y159282D01*
X30990Y159328D01*
X30991Y159375D01*
X30969Y159432D01*
X30960Y159479D01*
X30941Y159506D01*
X30927Y159543D01*
X27488Y165275D01*
X27453Y165314D01*
X27411Y165373D01*
X27044Y165739D01*
X26501Y167042D01*
X26501Y167125D01*
X26499Y167131D01*
X26499Y167142D01*
X26500Y167146D01*
X26499Y167149D01*
X26499Y167748D01*
X26499Y167749D01*
X26498Y168243D01*
X26497Y168248D01*
X26498Y168252D01*
X26477Y168347D01*
X26458Y168439D01*
X26456Y168443D01*
X26455Y168448D01*
X26399Y168527D01*
X26345Y168605D01*
X26341Y168608D01*
X26339Y168611D01*
X26257Y168662D01*
X26177Y168714D01*
X26172Y168715D01*
X26168Y168717D01*
X25991Y168749D01*
X25009Y168749D01*
X25004Y168748D01*
X25000Y168749D01*
X24907Y168729D01*
X24813Y168710D01*
X24809Y168707D01*
X24804Y168706D01*
X24726Y168651D01*
X24647Y168597D01*
X24644Y168593D01*
X24640Y168590D01*
X24589Y168508D01*
X24537Y168429D01*
X24537Y168424D01*
X24534Y168420D01*
X24502Y168243D01*
X24501Y167748D01*
X24501Y167747D01*
X24501Y167131D01*
X24500Y167130D01*
X24499Y167125D01*
X24499Y167042D01*
X23956Y165739D01*
X23589Y165373D01*
X23559Y165329D01*
X23512Y165275D01*
X20073Y159543D01*
X20057Y159499D01*
X20033Y159460D01*
X20022Y159399D01*
X20006Y159354D01*
X20008Y159321D01*
X20001Y159282D01*
X20001Y158457D01*
X20015Y158385D01*
X20022Y158311D01*
X20035Y158287D01*
X20040Y158261D01*
X20082Y158200D01*
X20117Y158134D01*
X20139Y158116D01*
X20153Y158095D01*
X20198Y158066D01*
X20254Y158018D01*
X21563Y157263D01*
X22501Y155638D01*
X22501Y151762D01*
X21563Y150137D01*
X19938Y149199D01*
X3625Y149199D01*
X3617Y149198D01*
X3609Y149199D01*
X3519Y149178D01*
X3428Y149160D01*
X3422Y149155D01*
X3414Y149153D01*
X3266Y149051D01*
X1149Y146934D01*
X1145Y146927D01*
X1139Y146923D01*
X1090Y146844D01*
X1038Y146767D01*
X1037Y146759D01*
X1033Y146753D01*
X1001Y146575D01*
X1001Y145196D01*
X750Y144762D01*
X738Y144726D01*
X718Y144695D01*
X706Y144632D01*
X686Y144572D01*
X689Y144534D01*
X682Y144498D01*
X696Y144435D01*
X701Y144372D01*
X718Y144338D01*
X726Y144302D01*
X763Y144250D01*
X792Y144193D01*
X820Y144169D01*
X842Y144139D01*
X896Y144105D01*
X898Y144103D01*
X3001Y142000D01*
X3001Y126000D01*
X927Y123926D01*
X880Y123883D01*
X827Y123847D01*
X807Y123816D01*
X779Y123790D01*
X752Y123732D01*
X718Y123679D01*
X711Y123642D01*
X695Y123608D01*
X693Y123545D01*
X682Y123482D01*
X690Y123445D01*
X689Y123408D01*
X714Y123338D01*
X726Y123286D01*
X740Y123266D01*
X750Y123238D01*
X1001Y122804D01*
X1001Y113854D01*
X1001Y113851D01*
X1001Y113849D01*
X1021Y113754D01*
X1040Y113657D01*
X1042Y113655D01*
X1042Y113653D01*
X1098Y113572D01*
X1153Y113492D01*
X1155Y113490D01*
X1157Y113488D01*
X1240Y113435D01*
X1321Y113382D01*
X1324Y113382D01*
X1326Y113381D01*
X1422Y113364D01*
X1518Y113347D01*
X1521Y113347D01*
X1523Y113347D01*
X1618Y113369D01*
X1714Y113390D01*
X1716Y113392D01*
X1719Y113393D01*
X1867Y113495D01*
X3412Y115041D01*
X7588Y115041D01*
X10541Y112088D01*
X10541Y111508D01*
X10542Y111503D01*
X10541Y111498D01*
X10562Y111405D01*
X10580Y111311D01*
X10583Y111307D01*
X10584Y111302D01*
X10640Y111224D01*
X10693Y111146D01*
X10697Y111143D01*
X10700Y111139D01*
X10782Y111088D01*
X10861Y111036D01*
X10866Y111036D01*
X10871Y111033D01*
X11048Y111001D01*
X23952Y111001D01*
X23957Y111002D01*
G37*
G36*
X133957Y331002D02*
X133957Y331002D01*
X133962Y331001D01*
X134055Y331022D01*
X134149Y331040D01*
X134153Y331043D01*
X134158Y331044D01*
X134236Y331100D01*
X134314Y331153D01*
X134317Y331157D01*
X134321Y331160D01*
X134372Y331242D01*
X134424Y331321D01*
X134424Y331326D01*
X134427Y331331D01*
X134459Y331508D01*
X134459Y332088D01*
X136485Y334113D01*
X136489Y334120D01*
X136495Y334124D01*
X136544Y334203D01*
X136596Y334280D01*
X136597Y334288D01*
X136601Y334295D01*
X136633Y334472D01*
X136633Y337278D01*
X136632Y337283D01*
X136633Y337288D01*
X136612Y337381D01*
X136594Y337475D01*
X136591Y337479D01*
X136590Y337484D01*
X136534Y337562D01*
X136481Y337640D01*
X136477Y337643D01*
X136474Y337647D01*
X136392Y337698D01*
X136313Y337750D01*
X136308Y337750D01*
X136303Y337753D01*
X136126Y337785D01*
X125284Y337785D01*
X125277Y337784D01*
X125269Y337785D01*
X125179Y337764D01*
X125088Y337746D01*
X125081Y337741D01*
X125074Y337739D01*
X124926Y337637D01*
X124256Y336967D01*
X121744Y336967D01*
X121074Y337637D01*
X121068Y337641D01*
X121063Y337647D01*
X120985Y337696D01*
X120907Y337748D01*
X120900Y337749D01*
X120893Y337753D01*
X120716Y337785D01*
X120398Y337785D01*
X120397Y337786D01*
X120397Y338104D01*
X120396Y338108D01*
X120397Y338113D01*
X120396Y338116D01*
X120397Y338119D01*
X120376Y338209D01*
X120358Y338300D01*
X120354Y338305D01*
X120354Y338308D01*
X120353Y338310D01*
X120351Y338314D01*
X120249Y338462D01*
X119967Y338744D01*
X119967Y341256D01*
X119985Y341274D01*
X119989Y341280D01*
X119995Y341285D01*
X120044Y341363D01*
X120096Y341441D01*
X120097Y341448D01*
X120101Y341455D01*
X120133Y341632D01*
X120133Y342108D01*
X120329Y342447D01*
X120339Y342475D01*
X120342Y342481D01*
X120344Y342489D01*
X120365Y342524D01*
X120377Y342590D01*
X120393Y342637D01*
X120391Y342667D01*
X120397Y342701D01*
X120397Y348000D01*
X120398Y348001D01*
X127792Y348001D01*
X127797Y348002D01*
X127802Y348001D01*
X127895Y348022D01*
X127989Y348040D01*
X127993Y348043D01*
X127998Y348044D01*
X128076Y348100D01*
X128154Y348153D01*
X128157Y348157D01*
X128161Y348160D01*
X128212Y348242D01*
X128264Y348321D01*
X128264Y348326D01*
X128267Y348331D01*
X128299Y348508D01*
X128299Y363083D01*
X128417Y363201D01*
X141583Y363201D01*
X141701Y363083D01*
X141701Y348417D01*
X141583Y348299D01*
X139524Y348299D01*
X139519Y348298D01*
X139514Y348299D01*
X139421Y348278D01*
X139327Y348260D01*
X139323Y348257D01*
X139318Y348256D01*
X139240Y348200D01*
X139162Y348147D01*
X139159Y348143D01*
X139155Y348140D01*
X139104Y348058D01*
X139052Y347979D01*
X139052Y347974D01*
X139049Y347969D01*
X139017Y347792D01*
X139017Y346558D01*
X139031Y346485D01*
X139038Y346411D01*
X139051Y346388D01*
X139056Y346361D01*
X139098Y346300D01*
X139133Y346235D01*
X139155Y346216D01*
X139169Y346195D01*
X139214Y346166D01*
X139270Y346118D01*
X140125Y345625D01*
X142367Y341742D01*
X142367Y334472D01*
X142368Y334464D01*
X142367Y334457D01*
X142388Y334367D01*
X142406Y334276D01*
X142411Y334269D01*
X142413Y334261D01*
X142515Y334113D01*
X144541Y332088D01*
X144541Y331508D01*
X144542Y331503D01*
X144541Y331498D01*
X144562Y331405D01*
X144580Y331311D01*
X144583Y331307D01*
X144584Y331302D01*
X144640Y331224D01*
X144693Y331146D01*
X144697Y331143D01*
X144700Y331139D01*
X144782Y331088D01*
X144861Y331036D01*
X144866Y331036D01*
X144871Y331033D01*
X145048Y331001D01*
X157492Y331001D01*
X157497Y331002D01*
X157502Y331001D01*
X157595Y331022D01*
X157689Y331040D01*
X157693Y331043D01*
X157698Y331044D01*
X157776Y331100D01*
X157854Y331153D01*
X157857Y331157D01*
X157861Y331160D01*
X157912Y331242D01*
X157964Y331321D01*
X157964Y331326D01*
X157967Y331331D01*
X157999Y331508D01*
X157999Y342804D01*
X158250Y343238D01*
X158262Y343274D01*
X158282Y343305D01*
X158294Y343368D01*
X158314Y343428D01*
X158311Y343466D01*
X158318Y343502D01*
X158304Y343565D01*
X158299Y343628D01*
X158282Y343662D01*
X158274Y343698D01*
X158237Y343750D01*
X158208Y343807D01*
X158180Y343831D01*
X158158Y343861D01*
X158104Y343895D01*
X158102Y343897D01*
X155999Y346000D01*
X155999Y362000D01*
X158073Y364074D01*
X158120Y364117D01*
X158173Y364153D01*
X158193Y364184D01*
X158221Y364210D01*
X158248Y364268D01*
X158282Y364321D01*
X158289Y364358D01*
X158305Y364392D01*
X158307Y364455D01*
X158318Y364518D01*
X158310Y364555D01*
X158311Y364592D01*
X158286Y364662D01*
X158274Y364714D01*
X158260Y364734D01*
X158250Y364762D01*
X157999Y365196D01*
X157999Y366575D01*
X157998Y366583D01*
X157999Y366591D01*
X157978Y366681D01*
X157960Y366772D01*
X157955Y366778D01*
X157953Y366786D01*
X157851Y366934D01*
X155734Y369051D01*
X155728Y369055D01*
X155723Y369061D01*
X155644Y369110D01*
X155567Y369162D01*
X155559Y369163D01*
X155553Y369167D01*
X155375Y369199D01*
X141062Y369199D01*
X139437Y370137D01*
X138499Y371762D01*
X138499Y375638D01*
X139437Y377263D01*
X140746Y378018D01*
X140801Y378067D01*
X140861Y378110D01*
X140876Y378133D01*
X140896Y378151D01*
X140928Y378217D01*
X140967Y378280D01*
X140972Y378309D01*
X140983Y378331D01*
X140986Y378385D01*
X140999Y378457D01*
X140999Y379282D01*
X140990Y379328D01*
X140991Y379375D01*
X140969Y379432D01*
X140960Y379479D01*
X140941Y379506D01*
X140927Y379543D01*
X137488Y385275D01*
X137453Y385314D01*
X137411Y385373D01*
X137044Y385739D01*
X136501Y387042D01*
X136501Y387125D01*
X136499Y387131D01*
X136499Y387142D01*
X136500Y387146D01*
X136499Y387149D01*
X136499Y387748D01*
X136499Y387749D01*
X136498Y388243D01*
X136497Y388248D01*
X136498Y388252D01*
X136477Y388347D01*
X136458Y388439D01*
X136456Y388443D01*
X136455Y388448D01*
X136399Y388527D01*
X136345Y388605D01*
X136341Y388608D01*
X136339Y388611D01*
X136257Y388662D01*
X136177Y388714D01*
X136172Y388715D01*
X136168Y388717D01*
X135991Y388749D01*
X135009Y388749D01*
X135004Y388748D01*
X135000Y388749D01*
X134907Y388729D01*
X134813Y388710D01*
X134809Y388707D01*
X134804Y388706D01*
X134726Y388651D01*
X134647Y388597D01*
X134644Y388593D01*
X134640Y388590D01*
X134589Y388508D01*
X134537Y388429D01*
X134537Y388424D01*
X134534Y388420D01*
X134502Y388243D01*
X134501Y387748D01*
X134501Y387747D01*
X134501Y387131D01*
X134500Y387130D01*
X134499Y387125D01*
X134499Y387042D01*
X133956Y385739D01*
X133589Y385373D01*
X133559Y385329D01*
X133512Y385275D01*
X130073Y379543D01*
X130057Y379499D01*
X130033Y379460D01*
X130022Y379399D01*
X130006Y379354D01*
X130008Y379321D01*
X130001Y379282D01*
X130001Y378457D01*
X130015Y378385D01*
X130022Y378311D01*
X130035Y378287D01*
X130040Y378261D01*
X130082Y378200D01*
X130117Y378134D01*
X130139Y378116D01*
X130153Y378095D01*
X130198Y378066D01*
X130254Y378018D01*
X131563Y377263D01*
X132501Y375638D01*
X132501Y371762D01*
X131563Y370137D01*
X129938Y369199D01*
X113625Y369199D01*
X113617Y369198D01*
X113609Y369199D01*
X113519Y369178D01*
X113428Y369160D01*
X113422Y369155D01*
X113414Y369153D01*
X113266Y369051D01*
X111149Y366934D01*
X111145Y366927D01*
X111139Y366923D01*
X111090Y366844D01*
X111038Y366767D01*
X111037Y366759D01*
X111033Y366753D01*
X111001Y366575D01*
X111001Y365196D01*
X110750Y364762D01*
X110738Y364726D01*
X110718Y364695D01*
X110706Y364632D01*
X110686Y364572D01*
X110689Y364534D01*
X110682Y364498D01*
X110696Y364435D01*
X110701Y364372D01*
X110718Y364338D01*
X110726Y364302D01*
X110763Y364250D01*
X110792Y364193D01*
X110820Y364169D01*
X110842Y364139D01*
X110896Y364105D01*
X110898Y364103D01*
X111149Y363852D01*
X112852Y362149D01*
X113001Y362000D01*
X113001Y346000D01*
X110927Y343926D01*
X110880Y343883D01*
X110827Y343847D01*
X110807Y343816D01*
X110779Y343790D01*
X110752Y343732D01*
X110718Y343679D01*
X110711Y343642D01*
X110695Y343608D01*
X110693Y343545D01*
X110682Y343482D01*
X110690Y343445D01*
X110689Y343408D01*
X110714Y343338D01*
X110726Y343286D01*
X110740Y343266D01*
X110750Y343238D01*
X111001Y342804D01*
X111001Y333854D01*
X111001Y333851D01*
X111001Y333849D01*
X111021Y333754D01*
X111040Y333657D01*
X111042Y333655D01*
X111042Y333653D01*
X111098Y333572D01*
X111153Y333492D01*
X111155Y333490D01*
X111157Y333488D01*
X111240Y333435D01*
X111321Y333382D01*
X111324Y333382D01*
X111326Y333381D01*
X111422Y333364D01*
X111518Y333347D01*
X111521Y333347D01*
X111523Y333347D01*
X111618Y333369D01*
X111714Y333390D01*
X111716Y333392D01*
X111719Y333393D01*
X111867Y333495D01*
X113412Y335041D01*
X117588Y335041D01*
X120541Y332088D01*
X120541Y331508D01*
X120542Y331503D01*
X120541Y331498D01*
X120562Y331405D01*
X120580Y331311D01*
X120583Y331307D01*
X120584Y331302D01*
X120640Y331224D01*
X120693Y331146D01*
X120697Y331143D01*
X120700Y331139D01*
X120782Y331088D01*
X120861Y331036D01*
X120866Y331036D01*
X120871Y331033D01*
X121048Y331001D01*
X133952Y331001D01*
X133957Y331002D01*
G37*
G36*
X243957Y111002D02*
X243957Y111002D01*
X243962Y111001D01*
X244055Y111022D01*
X244149Y111040D01*
X244153Y111043D01*
X244158Y111044D01*
X244236Y111100D01*
X244314Y111153D01*
X244317Y111157D01*
X244321Y111160D01*
X244372Y111242D01*
X244424Y111321D01*
X244424Y111326D01*
X244427Y111331D01*
X244459Y111508D01*
X244459Y112088D01*
X246485Y114113D01*
X246489Y114120D01*
X246495Y114124D01*
X246544Y114203D01*
X246596Y114280D01*
X246597Y114288D01*
X246601Y114295D01*
X246633Y114472D01*
X246633Y117278D01*
X246632Y117283D01*
X246633Y117288D01*
X246612Y117381D01*
X246594Y117475D01*
X246591Y117479D01*
X246590Y117484D01*
X246534Y117562D01*
X246481Y117640D01*
X246477Y117643D01*
X246474Y117647D01*
X246392Y117698D01*
X246313Y117750D01*
X246308Y117750D01*
X246303Y117753D01*
X246126Y117785D01*
X235284Y117785D01*
X235277Y117784D01*
X235269Y117785D01*
X235179Y117764D01*
X235088Y117746D01*
X235081Y117741D01*
X235074Y117739D01*
X234926Y117637D01*
X234256Y116967D01*
X231744Y116967D01*
X231074Y117637D01*
X231068Y117641D01*
X231063Y117647D01*
X230985Y117696D01*
X230907Y117748D01*
X230900Y117749D01*
X230893Y117753D01*
X230716Y117785D01*
X230398Y117785D01*
X230397Y117786D01*
X230397Y118104D01*
X230396Y118108D01*
X230397Y118113D01*
X230396Y118116D01*
X230397Y118119D01*
X230376Y118209D01*
X230358Y118300D01*
X230354Y118305D01*
X230354Y118308D01*
X230353Y118310D01*
X230351Y118314D01*
X230249Y118462D01*
X229967Y118744D01*
X229967Y121256D01*
X229985Y121274D01*
X229989Y121280D01*
X229995Y121285D01*
X230044Y121363D01*
X230096Y121441D01*
X230097Y121448D01*
X230101Y121455D01*
X230133Y121632D01*
X230133Y122108D01*
X230329Y122447D01*
X230339Y122475D01*
X230342Y122481D01*
X230344Y122489D01*
X230365Y122524D01*
X230377Y122590D01*
X230393Y122637D01*
X230391Y122667D01*
X230397Y122701D01*
X230397Y128000D01*
X230398Y128001D01*
X237792Y128001D01*
X237797Y128002D01*
X237802Y128001D01*
X237895Y128022D01*
X237989Y128040D01*
X237993Y128043D01*
X237998Y128044D01*
X238076Y128100D01*
X238154Y128153D01*
X238157Y128157D01*
X238161Y128160D01*
X238212Y128242D01*
X238264Y128321D01*
X238264Y128326D01*
X238267Y128331D01*
X238299Y128508D01*
X238299Y143083D01*
X238417Y143201D01*
X251583Y143201D01*
X251701Y143083D01*
X251701Y128417D01*
X251583Y128299D01*
X249524Y128299D01*
X249519Y128298D01*
X249514Y128299D01*
X249421Y128278D01*
X249327Y128260D01*
X249323Y128257D01*
X249318Y128256D01*
X249240Y128200D01*
X249162Y128147D01*
X249159Y128143D01*
X249155Y128140D01*
X249104Y128058D01*
X249052Y127979D01*
X249052Y127974D01*
X249049Y127969D01*
X249017Y127792D01*
X249017Y126558D01*
X249031Y126485D01*
X249038Y126411D01*
X249051Y126388D01*
X249056Y126361D01*
X249098Y126300D01*
X249133Y126235D01*
X249155Y126216D01*
X249169Y126195D01*
X249214Y126166D01*
X249270Y126118D01*
X250125Y125625D01*
X252367Y121742D01*
X252367Y114472D01*
X252368Y114464D01*
X252367Y114457D01*
X252388Y114367D01*
X252406Y114276D01*
X252411Y114269D01*
X252413Y114261D01*
X252515Y114113D01*
X254541Y112088D01*
X254541Y111508D01*
X254542Y111503D01*
X254541Y111498D01*
X254562Y111405D01*
X254580Y111311D01*
X254583Y111307D01*
X254584Y111302D01*
X254640Y111224D01*
X254693Y111146D01*
X254697Y111143D01*
X254700Y111139D01*
X254782Y111088D01*
X254861Y111036D01*
X254866Y111036D01*
X254871Y111033D01*
X255048Y111001D01*
X267492Y111001D01*
X267497Y111002D01*
X267502Y111001D01*
X267595Y111022D01*
X267689Y111040D01*
X267693Y111043D01*
X267698Y111044D01*
X267776Y111100D01*
X267854Y111153D01*
X267857Y111157D01*
X267861Y111160D01*
X267912Y111242D01*
X267964Y111321D01*
X267964Y111326D01*
X267967Y111331D01*
X267999Y111508D01*
X267999Y122804D01*
X268250Y123238D01*
X268262Y123274D01*
X268282Y123305D01*
X268294Y123368D01*
X268314Y123428D01*
X268311Y123466D01*
X268318Y123502D01*
X268304Y123565D01*
X268299Y123628D01*
X268282Y123662D01*
X268274Y123698D01*
X268237Y123750D01*
X268208Y123807D01*
X268180Y123831D01*
X268158Y123861D01*
X268104Y123895D01*
X268102Y123897D01*
X265999Y126000D01*
X265999Y142000D01*
X268073Y144074D01*
X268120Y144117D01*
X268173Y144153D01*
X268193Y144184D01*
X268221Y144210D01*
X268248Y144268D01*
X268282Y144321D01*
X268289Y144358D01*
X268305Y144392D01*
X268307Y144455D01*
X268318Y144518D01*
X268310Y144555D01*
X268311Y144592D01*
X268286Y144662D01*
X268274Y144714D01*
X268260Y144734D01*
X268250Y144762D01*
X267999Y145196D01*
X267999Y146575D01*
X267998Y146583D01*
X267999Y146591D01*
X267978Y146681D01*
X267960Y146772D01*
X267955Y146778D01*
X267953Y146786D01*
X267851Y146934D01*
X265734Y149051D01*
X265727Y149055D01*
X265723Y149061D01*
X265644Y149110D01*
X265567Y149162D01*
X265559Y149163D01*
X265553Y149167D01*
X265375Y149199D01*
X251062Y149199D01*
X249437Y150137D01*
X248499Y151762D01*
X248499Y155638D01*
X249437Y157263D01*
X250746Y158018D01*
X250801Y158067D01*
X250861Y158110D01*
X250876Y158133D01*
X250896Y158151D01*
X250928Y158217D01*
X250967Y158280D01*
X250972Y158309D01*
X250983Y158331D01*
X250986Y158385D01*
X250999Y158457D01*
X250999Y159282D01*
X250990Y159328D01*
X250991Y159375D01*
X250969Y159432D01*
X250960Y159479D01*
X250941Y159506D01*
X250927Y159543D01*
X247488Y165275D01*
X247453Y165314D01*
X247411Y165373D01*
X247044Y165739D01*
X246501Y167042D01*
X246501Y167125D01*
X246499Y167131D01*
X246499Y167142D01*
X246500Y167146D01*
X246499Y167149D01*
X246499Y167748D01*
X246499Y167749D01*
X246498Y168243D01*
X246497Y168248D01*
X246498Y168252D01*
X246477Y168347D01*
X246458Y168439D01*
X246456Y168443D01*
X246455Y168448D01*
X246399Y168527D01*
X246345Y168605D01*
X246341Y168608D01*
X246339Y168611D01*
X246257Y168662D01*
X246177Y168714D01*
X246172Y168715D01*
X246168Y168717D01*
X245991Y168749D01*
X245009Y168749D01*
X245004Y168748D01*
X245000Y168749D01*
X244907Y168729D01*
X244813Y168710D01*
X244809Y168707D01*
X244804Y168706D01*
X244726Y168651D01*
X244647Y168597D01*
X244644Y168593D01*
X244640Y168590D01*
X244589Y168508D01*
X244537Y168429D01*
X244537Y168424D01*
X244534Y168420D01*
X244502Y168243D01*
X244501Y167748D01*
X244501Y167747D01*
X244501Y167131D01*
X244500Y167130D01*
X244499Y167125D01*
X244499Y167042D01*
X243956Y165739D01*
X243589Y165373D01*
X243560Y165329D01*
X243512Y165275D01*
X240073Y159543D01*
X240057Y159499D01*
X240033Y159460D01*
X240022Y159399D01*
X240006Y159354D01*
X240008Y159321D01*
X240001Y159282D01*
X240001Y158457D01*
X240015Y158385D01*
X240022Y158311D01*
X240035Y158287D01*
X240040Y158261D01*
X240082Y158200D01*
X240117Y158134D01*
X240139Y158116D01*
X240153Y158095D01*
X240198Y158066D01*
X240254Y158018D01*
X241563Y157263D01*
X242501Y155638D01*
X242501Y151762D01*
X241563Y150137D01*
X239938Y149199D01*
X223625Y149199D01*
X223617Y149198D01*
X223609Y149199D01*
X223519Y149178D01*
X223428Y149160D01*
X223422Y149155D01*
X223414Y149153D01*
X223266Y149051D01*
X221149Y146934D01*
X221145Y146927D01*
X221139Y146923D01*
X221090Y146844D01*
X221038Y146767D01*
X221037Y146759D01*
X221033Y146753D01*
X221001Y146575D01*
X221001Y145196D01*
X220750Y144762D01*
X220738Y144726D01*
X220718Y144695D01*
X220706Y144632D01*
X220686Y144572D01*
X220689Y144534D01*
X220682Y144498D01*
X220696Y144435D01*
X220701Y144372D01*
X220718Y144338D01*
X220726Y144302D01*
X220763Y144250D01*
X220792Y144193D01*
X220820Y144169D01*
X220842Y144139D01*
X220896Y144105D01*
X220898Y144103D01*
X223001Y142000D01*
X223001Y126000D01*
X220927Y123926D01*
X220880Y123883D01*
X220827Y123847D01*
X220807Y123816D01*
X220779Y123790D01*
X220752Y123732D01*
X220718Y123679D01*
X220711Y123642D01*
X220695Y123608D01*
X220693Y123545D01*
X220682Y123482D01*
X220690Y123445D01*
X220689Y123408D01*
X220714Y123338D01*
X220726Y123286D01*
X220740Y123266D01*
X220750Y123238D01*
X221001Y122804D01*
X221001Y113854D01*
X221001Y113851D01*
X221001Y113849D01*
X221021Y113754D01*
X221040Y113657D01*
X221042Y113655D01*
X221042Y113653D01*
X221098Y113572D01*
X221153Y113492D01*
X221155Y113490D01*
X221157Y113488D01*
X221240Y113435D01*
X221321Y113382D01*
X221324Y113382D01*
X221326Y113381D01*
X221422Y113364D01*
X221518Y113347D01*
X221521Y113347D01*
X221523Y113347D01*
X221618Y113369D01*
X221714Y113390D01*
X221716Y113392D01*
X221719Y113393D01*
X221867Y113495D01*
X223412Y115041D01*
X227588Y115041D01*
X230541Y112088D01*
X230541Y111508D01*
X230542Y111503D01*
X230541Y111498D01*
X230562Y111405D01*
X230580Y111311D01*
X230583Y111307D01*
X230584Y111302D01*
X230640Y111224D01*
X230693Y111146D01*
X230697Y111143D01*
X230700Y111139D01*
X230782Y111088D01*
X230861Y111036D01*
X230866Y111036D01*
X230871Y111033D01*
X231048Y111001D01*
X243952Y111001D01*
X243957Y111002D01*
G37*
G36*
X23957Y221002D02*
X23957Y221002D01*
X23962Y221001D01*
X24055Y221022D01*
X24149Y221040D01*
X24153Y221043D01*
X24158Y221044D01*
X24236Y221100D01*
X24314Y221153D01*
X24317Y221157D01*
X24321Y221160D01*
X24372Y221242D01*
X24424Y221321D01*
X24424Y221326D01*
X24427Y221331D01*
X24459Y221508D01*
X24459Y222088D01*
X26485Y224113D01*
X26489Y224120D01*
X26495Y224124D01*
X26544Y224203D01*
X26596Y224280D01*
X26597Y224288D01*
X26601Y224295D01*
X26633Y224472D01*
X26633Y227278D01*
X26632Y227283D01*
X26633Y227288D01*
X26612Y227381D01*
X26594Y227475D01*
X26591Y227479D01*
X26590Y227484D01*
X26534Y227562D01*
X26481Y227640D01*
X26477Y227643D01*
X26474Y227647D01*
X26392Y227698D01*
X26313Y227750D01*
X26308Y227750D01*
X26303Y227753D01*
X26126Y227785D01*
X15284Y227785D01*
X15277Y227784D01*
X15269Y227785D01*
X15179Y227764D01*
X15088Y227746D01*
X15081Y227741D01*
X15074Y227739D01*
X14926Y227637D01*
X14256Y226967D01*
X11744Y226967D01*
X11074Y227637D01*
X11068Y227641D01*
X11063Y227647D01*
X10985Y227696D01*
X10907Y227748D01*
X10900Y227749D01*
X10893Y227753D01*
X10716Y227785D01*
X10398Y227785D01*
X10397Y227786D01*
X10397Y228104D01*
X10396Y228108D01*
X10397Y228113D01*
X10396Y228116D01*
X10397Y228119D01*
X10376Y228209D01*
X10358Y228300D01*
X10354Y228305D01*
X10354Y228308D01*
X10353Y228310D01*
X10351Y228314D01*
X10249Y228462D01*
X9967Y228744D01*
X9967Y231256D01*
X9985Y231274D01*
X9989Y231280D01*
X9995Y231285D01*
X10044Y231363D01*
X10096Y231441D01*
X10097Y231448D01*
X10101Y231455D01*
X10133Y231632D01*
X10133Y232108D01*
X10329Y232447D01*
X10339Y232475D01*
X10342Y232481D01*
X10344Y232489D01*
X10365Y232524D01*
X10377Y232590D01*
X10393Y232637D01*
X10391Y232667D01*
X10397Y232701D01*
X10397Y238000D01*
X10398Y238001D01*
X17792Y238001D01*
X17797Y238002D01*
X17802Y238001D01*
X17895Y238022D01*
X17989Y238040D01*
X17993Y238043D01*
X17998Y238044D01*
X18076Y238100D01*
X18154Y238153D01*
X18157Y238157D01*
X18161Y238160D01*
X18212Y238242D01*
X18264Y238321D01*
X18264Y238326D01*
X18267Y238331D01*
X18299Y238508D01*
X18299Y253083D01*
X18417Y253201D01*
X31583Y253201D01*
X31701Y253083D01*
X31701Y238417D01*
X31583Y238299D01*
X29524Y238299D01*
X29519Y238298D01*
X29514Y238299D01*
X29421Y238278D01*
X29327Y238260D01*
X29323Y238257D01*
X29318Y238256D01*
X29240Y238200D01*
X29162Y238147D01*
X29159Y238143D01*
X29155Y238140D01*
X29104Y238058D01*
X29052Y237979D01*
X29052Y237974D01*
X29049Y237969D01*
X29017Y237792D01*
X29017Y236558D01*
X29031Y236485D01*
X29038Y236411D01*
X29051Y236388D01*
X29056Y236361D01*
X29098Y236300D01*
X29133Y236235D01*
X29155Y236216D01*
X29169Y236195D01*
X29214Y236166D01*
X29270Y236118D01*
X30125Y235625D01*
X32367Y231742D01*
X32367Y224472D01*
X32368Y224464D01*
X32367Y224457D01*
X32388Y224367D01*
X32406Y224276D01*
X32411Y224269D01*
X32413Y224261D01*
X32515Y224113D01*
X34541Y222088D01*
X34541Y221508D01*
X34542Y221503D01*
X34541Y221498D01*
X34562Y221405D01*
X34580Y221311D01*
X34583Y221307D01*
X34584Y221302D01*
X34640Y221224D01*
X34693Y221146D01*
X34697Y221143D01*
X34700Y221139D01*
X34782Y221088D01*
X34861Y221036D01*
X34866Y221036D01*
X34871Y221033D01*
X35048Y221001D01*
X47492Y221001D01*
X47497Y221002D01*
X47502Y221001D01*
X47595Y221022D01*
X47689Y221040D01*
X47693Y221043D01*
X47698Y221044D01*
X47776Y221100D01*
X47854Y221153D01*
X47857Y221157D01*
X47861Y221160D01*
X47912Y221242D01*
X47964Y221321D01*
X47964Y221326D01*
X47967Y221331D01*
X47999Y221508D01*
X47999Y232804D01*
X48250Y233238D01*
X48262Y233274D01*
X48282Y233305D01*
X48294Y233368D01*
X48314Y233428D01*
X48311Y233466D01*
X48318Y233502D01*
X48304Y233565D01*
X48299Y233628D01*
X48282Y233662D01*
X48274Y233698D01*
X48237Y233750D01*
X48208Y233807D01*
X48180Y233831D01*
X48158Y233861D01*
X48104Y233895D01*
X48102Y233897D01*
X45999Y236000D01*
X45999Y252000D01*
X48073Y254074D01*
X48120Y254117D01*
X48173Y254153D01*
X48193Y254184D01*
X48221Y254210D01*
X48248Y254268D01*
X48282Y254321D01*
X48289Y254358D01*
X48305Y254392D01*
X48307Y254455D01*
X48318Y254518D01*
X48310Y254555D01*
X48311Y254592D01*
X48286Y254662D01*
X48274Y254714D01*
X48260Y254734D01*
X48250Y254762D01*
X47999Y255196D01*
X47999Y256575D01*
X47998Y256583D01*
X47999Y256591D01*
X47978Y256681D01*
X47960Y256772D01*
X47955Y256778D01*
X47953Y256786D01*
X47851Y256934D01*
X45734Y259051D01*
X45727Y259055D01*
X45723Y259061D01*
X45644Y259110D01*
X45567Y259162D01*
X45559Y259163D01*
X45553Y259167D01*
X45375Y259199D01*
X31062Y259199D01*
X29437Y260137D01*
X28499Y261762D01*
X28499Y265638D01*
X29437Y267263D01*
X30746Y268018D01*
X30801Y268067D01*
X30861Y268110D01*
X30876Y268133D01*
X30896Y268151D01*
X30928Y268217D01*
X30967Y268280D01*
X30972Y268309D01*
X30983Y268331D01*
X30986Y268385D01*
X30999Y268457D01*
X30999Y269282D01*
X30990Y269328D01*
X30991Y269375D01*
X30969Y269432D01*
X30960Y269479D01*
X30941Y269506D01*
X30927Y269543D01*
X27488Y275275D01*
X27453Y275314D01*
X27411Y275373D01*
X27044Y275739D01*
X26501Y277042D01*
X26501Y277125D01*
X26499Y277131D01*
X26499Y277142D01*
X26500Y277146D01*
X26499Y277149D01*
X26499Y277748D01*
X26499Y277749D01*
X26498Y278243D01*
X26497Y278248D01*
X26498Y278252D01*
X26477Y278347D01*
X26458Y278439D01*
X26456Y278443D01*
X26455Y278448D01*
X26399Y278527D01*
X26345Y278605D01*
X26341Y278608D01*
X26339Y278611D01*
X26257Y278662D01*
X26177Y278714D01*
X26172Y278715D01*
X26168Y278717D01*
X25991Y278749D01*
X25009Y278749D01*
X25004Y278748D01*
X25000Y278749D01*
X24907Y278729D01*
X24813Y278710D01*
X24809Y278707D01*
X24804Y278706D01*
X24726Y278651D01*
X24647Y278597D01*
X24644Y278593D01*
X24640Y278590D01*
X24589Y278508D01*
X24537Y278429D01*
X24537Y278424D01*
X24534Y278420D01*
X24502Y278243D01*
X24501Y277748D01*
X24501Y277745D01*
X24501Y277744D01*
X24501Y277742D01*
X24501Y277131D01*
X24500Y277130D01*
X24499Y277125D01*
X24499Y277042D01*
X23956Y275739D01*
X23589Y275373D01*
X23559Y275329D01*
X23512Y275275D01*
X20073Y269543D01*
X20057Y269499D01*
X20033Y269460D01*
X20022Y269399D01*
X20006Y269354D01*
X20008Y269321D01*
X20001Y269282D01*
X20001Y268457D01*
X20015Y268385D01*
X20022Y268311D01*
X20035Y268287D01*
X20040Y268261D01*
X20082Y268200D01*
X20117Y268134D01*
X20139Y268116D01*
X20153Y268095D01*
X20198Y268066D01*
X20254Y268018D01*
X21563Y267263D01*
X22501Y265638D01*
X22501Y261762D01*
X21563Y260137D01*
X19938Y259199D01*
X3625Y259199D01*
X3617Y259198D01*
X3609Y259199D01*
X3519Y259178D01*
X3428Y259160D01*
X3422Y259155D01*
X3414Y259153D01*
X3266Y259051D01*
X1149Y256934D01*
X1145Y256927D01*
X1139Y256923D01*
X1090Y256844D01*
X1038Y256767D01*
X1037Y256759D01*
X1033Y256753D01*
X1001Y256575D01*
X1001Y255196D01*
X750Y254762D01*
X738Y254726D01*
X718Y254695D01*
X706Y254632D01*
X686Y254572D01*
X689Y254534D01*
X682Y254498D01*
X696Y254435D01*
X701Y254372D01*
X718Y254338D01*
X726Y254302D01*
X763Y254250D01*
X792Y254193D01*
X820Y254169D01*
X842Y254139D01*
X896Y254105D01*
X898Y254103D01*
X1149Y253852D01*
X2852Y252149D01*
X3001Y252000D01*
X3001Y236000D01*
X927Y233926D01*
X880Y233883D01*
X827Y233847D01*
X807Y233816D01*
X779Y233790D01*
X752Y233732D01*
X718Y233679D01*
X711Y233642D01*
X695Y233608D01*
X693Y233545D01*
X682Y233482D01*
X690Y233445D01*
X689Y233408D01*
X714Y233338D01*
X726Y233286D01*
X740Y233266D01*
X750Y233238D01*
X1001Y232804D01*
X1001Y223854D01*
X1001Y223851D01*
X1001Y223849D01*
X1021Y223754D01*
X1040Y223657D01*
X1042Y223655D01*
X1042Y223653D01*
X1098Y223572D01*
X1153Y223492D01*
X1155Y223490D01*
X1157Y223488D01*
X1240Y223435D01*
X1321Y223382D01*
X1324Y223382D01*
X1326Y223381D01*
X1422Y223364D01*
X1518Y223347D01*
X1521Y223347D01*
X1523Y223347D01*
X1618Y223369D01*
X1714Y223390D01*
X1716Y223392D01*
X1719Y223393D01*
X1867Y223495D01*
X3412Y225041D01*
X7588Y225041D01*
X10541Y222088D01*
X10541Y221508D01*
X10542Y221503D01*
X10541Y221498D01*
X10562Y221405D01*
X10580Y221311D01*
X10583Y221307D01*
X10584Y221302D01*
X10640Y221224D01*
X10693Y221146D01*
X10697Y221143D01*
X10700Y221139D01*
X10782Y221088D01*
X10861Y221036D01*
X10866Y221036D01*
X10871Y221033D01*
X11048Y221001D01*
X23952Y221001D01*
X23957Y221002D01*
G37*
G36*
X353957Y1002D02*
X353957Y1002D01*
X353962Y1001D01*
X354055Y1022D01*
X354149Y1040D01*
X354153Y1043D01*
X354158Y1044D01*
X354236Y1100D01*
X354314Y1153D01*
X354317Y1157D01*
X354321Y1160D01*
X354372Y1242D01*
X354424Y1321D01*
X354424Y1326D01*
X354427Y1331D01*
X354459Y1508D01*
X354459Y2088D01*
X356485Y4113D01*
X356489Y4120D01*
X356495Y4124D01*
X356544Y4203D01*
X356596Y4280D01*
X356597Y4288D01*
X356601Y4295D01*
X356633Y4472D01*
X356633Y7278D01*
X356632Y7283D01*
X356633Y7288D01*
X356612Y7381D01*
X356594Y7475D01*
X356591Y7479D01*
X356590Y7484D01*
X356534Y7562D01*
X356481Y7640D01*
X356477Y7643D01*
X356474Y7647D01*
X356392Y7698D01*
X356313Y7750D01*
X356308Y7750D01*
X356303Y7753D01*
X356126Y7785D01*
X345284Y7785D01*
X345277Y7784D01*
X345269Y7785D01*
X345179Y7764D01*
X345088Y7746D01*
X345081Y7741D01*
X345074Y7739D01*
X344926Y7637D01*
X344256Y6967D01*
X341744Y6967D01*
X341074Y7637D01*
X341068Y7641D01*
X341063Y7647D01*
X340985Y7696D01*
X340907Y7748D01*
X340900Y7749D01*
X340893Y7753D01*
X340716Y7785D01*
X340398Y7785D01*
X340397Y7786D01*
X340397Y8104D01*
X340396Y8108D01*
X340397Y8113D01*
X340396Y8116D01*
X340397Y8119D01*
X340376Y8209D01*
X340358Y8300D01*
X340354Y8305D01*
X340354Y8308D01*
X340353Y8310D01*
X340351Y8314D01*
X340249Y8462D01*
X339967Y8744D01*
X339967Y11256D01*
X339985Y11274D01*
X339989Y11280D01*
X339995Y11285D01*
X340044Y11363D01*
X340096Y11441D01*
X340097Y11448D01*
X340101Y11455D01*
X340133Y11632D01*
X340133Y12108D01*
X340329Y12447D01*
X340339Y12475D01*
X340342Y12481D01*
X340344Y12489D01*
X340365Y12524D01*
X340377Y12590D01*
X340393Y12637D01*
X340391Y12667D01*
X340397Y12701D01*
X340397Y18000D01*
X340398Y18001D01*
X347792Y18001D01*
X347797Y18002D01*
X347802Y18001D01*
X347895Y18022D01*
X347989Y18040D01*
X347993Y18043D01*
X347998Y18044D01*
X348076Y18100D01*
X348154Y18153D01*
X348157Y18157D01*
X348161Y18160D01*
X348212Y18242D01*
X348264Y18321D01*
X348264Y18326D01*
X348267Y18331D01*
X348299Y18508D01*
X348299Y33083D01*
X348417Y33201D01*
X361583Y33201D01*
X361701Y33083D01*
X361701Y18417D01*
X361583Y18299D01*
X359524Y18299D01*
X359519Y18298D01*
X359514Y18299D01*
X359421Y18278D01*
X359327Y18260D01*
X359323Y18257D01*
X359318Y18256D01*
X359240Y18200D01*
X359162Y18147D01*
X359159Y18143D01*
X359155Y18140D01*
X359104Y18058D01*
X359052Y17979D01*
X359052Y17974D01*
X359049Y17969D01*
X359017Y17792D01*
X359017Y16558D01*
X359031Y16485D01*
X359038Y16411D01*
X359051Y16388D01*
X359056Y16361D01*
X359098Y16300D01*
X359133Y16235D01*
X359155Y16216D01*
X359169Y16195D01*
X359214Y16166D01*
X359270Y16118D01*
X360125Y15625D01*
X362367Y11742D01*
X362367Y4472D01*
X362368Y4464D01*
X362367Y4457D01*
X362388Y4367D01*
X362406Y4276D01*
X362411Y4269D01*
X362413Y4261D01*
X362515Y4113D01*
X364541Y2088D01*
X364541Y1508D01*
X364542Y1503D01*
X364541Y1498D01*
X364562Y1405D01*
X364580Y1311D01*
X364583Y1307D01*
X364584Y1302D01*
X364640Y1224D01*
X364693Y1146D01*
X364697Y1143D01*
X364700Y1139D01*
X364782Y1088D01*
X364861Y1036D01*
X364866Y1036D01*
X364871Y1033D01*
X365048Y1001D01*
X377492Y1001D01*
X377497Y1002D01*
X377502Y1001D01*
X377595Y1022D01*
X377689Y1040D01*
X377693Y1043D01*
X377698Y1044D01*
X377776Y1100D01*
X377854Y1153D01*
X377857Y1157D01*
X377861Y1160D01*
X377912Y1242D01*
X377964Y1321D01*
X377964Y1326D01*
X377967Y1331D01*
X377999Y1508D01*
X377999Y12804D01*
X378250Y13238D01*
X378262Y13274D01*
X378282Y13305D01*
X378294Y13368D01*
X378314Y13428D01*
X378311Y13466D01*
X378318Y13502D01*
X378304Y13565D01*
X378299Y13628D01*
X378282Y13662D01*
X378274Y13698D01*
X378237Y13750D01*
X378208Y13807D01*
X378180Y13831D01*
X378158Y13861D01*
X378104Y13895D01*
X378102Y13897D01*
X375999Y16000D01*
X375999Y32000D01*
X378073Y34074D01*
X378120Y34117D01*
X378173Y34153D01*
X378193Y34184D01*
X378221Y34210D01*
X378248Y34268D01*
X378282Y34321D01*
X378289Y34358D01*
X378305Y34392D01*
X378307Y34455D01*
X378318Y34518D01*
X378310Y34555D01*
X378311Y34592D01*
X378286Y34662D01*
X378274Y34714D01*
X378260Y34734D01*
X378250Y34762D01*
X377999Y35196D01*
X377999Y36575D01*
X377998Y36583D01*
X377999Y36591D01*
X377978Y36681D01*
X377960Y36772D01*
X377955Y36778D01*
X377953Y36786D01*
X377851Y36934D01*
X375734Y39051D01*
X375727Y39055D01*
X375723Y39061D01*
X375644Y39110D01*
X375567Y39162D01*
X375559Y39163D01*
X375553Y39167D01*
X375375Y39199D01*
X361062Y39199D01*
X359437Y40137D01*
X358499Y41762D01*
X358499Y45638D01*
X359437Y47263D01*
X360746Y48018D01*
X360801Y48067D01*
X360861Y48110D01*
X360876Y48133D01*
X360896Y48151D01*
X360928Y48217D01*
X360967Y48280D01*
X360972Y48309D01*
X360983Y48331D01*
X360986Y48385D01*
X360999Y48457D01*
X360999Y49282D01*
X360990Y49328D01*
X360991Y49375D01*
X360969Y49432D01*
X360960Y49479D01*
X360941Y49506D01*
X360927Y49543D01*
X357488Y55275D01*
X357453Y55314D01*
X357411Y55373D01*
X356502Y56278D01*
X356501Y57125D01*
X356499Y57131D01*
X356499Y57142D01*
X356500Y57146D01*
X356499Y57149D01*
X356499Y57743D01*
X356499Y57747D01*
X356499Y57748D01*
X356498Y58243D01*
X356497Y58248D01*
X356498Y58252D01*
X356477Y58347D01*
X356458Y58439D01*
X356456Y58443D01*
X356455Y58448D01*
X356399Y58527D01*
X356345Y58605D01*
X356341Y58608D01*
X356339Y58611D01*
X356257Y58662D01*
X356177Y58714D01*
X356172Y58715D01*
X356168Y58717D01*
X355991Y58749D01*
X355009Y58749D01*
X355004Y58748D01*
X355000Y58749D01*
X354907Y58729D01*
X354813Y58710D01*
X354809Y58707D01*
X354804Y58706D01*
X354726Y58651D01*
X354647Y58597D01*
X354644Y58593D01*
X354640Y58590D01*
X354589Y58508D01*
X354537Y58429D01*
X354537Y58424D01*
X354534Y58420D01*
X354502Y58243D01*
X354501Y57748D01*
X354501Y57747D01*
X354501Y57131D01*
X354499Y57125D01*
X354498Y56278D01*
X353589Y55373D01*
X353559Y55329D01*
X353512Y55275D01*
X350073Y49543D01*
X350057Y49499D01*
X350033Y49460D01*
X350022Y49399D01*
X350006Y49354D01*
X350008Y49321D01*
X350001Y49282D01*
X350001Y48457D01*
X350015Y48385D01*
X350022Y48311D01*
X350035Y48287D01*
X350040Y48261D01*
X350082Y48200D01*
X350117Y48134D01*
X350139Y48116D01*
X350153Y48095D01*
X350198Y48066D01*
X350254Y48018D01*
X351563Y47263D01*
X352501Y45638D01*
X352501Y41762D01*
X351563Y40137D01*
X349938Y39199D01*
X333625Y39199D01*
X333617Y39198D01*
X333609Y39199D01*
X333519Y39178D01*
X333428Y39160D01*
X333422Y39155D01*
X333414Y39153D01*
X333266Y39051D01*
X331149Y36934D01*
X331145Y36928D01*
X331139Y36923D01*
X331090Y36844D01*
X331038Y36767D01*
X331037Y36759D01*
X331033Y36753D01*
X331001Y36575D01*
X331001Y35196D01*
X330750Y34762D01*
X330738Y34726D01*
X330718Y34695D01*
X330706Y34632D01*
X330686Y34572D01*
X330689Y34534D01*
X330682Y34498D01*
X330696Y34435D01*
X330701Y34372D01*
X330718Y34338D01*
X330726Y34302D01*
X330763Y34250D01*
X330792Y34193D01*
X330820Y34169D01*
X330842Y34139D01*
X330896Y34105D01*
X330898Y34103D01*
X331149Y33852D01*
X332852Y32149D01*
X333001Y32000D01*
X333001Y16000D01*
X330927Y13926D01*
X330880Y13883D01*
X330827Y13847D01*
X330807Y13816D01*
X330779Y13790D01*
X330752Y13732D01*
X330718Y13679D01*
X330711Y13642D01*
X330695Y13608D01*
X330693Y13545D01*
X330682Y13482D01*
X330690Y13445D01*
X330689Y13408D01*
X330714Y13338D01*
X330726Y13286D01*
X330740Y13266D01*
X330750Y13238D01*
X331001Y12804D01*
X331001Y3854D01*
X331001Y3851D01*
X331001Y3849D01*
X331021Y3754D01*
X331040Y3657D01*
X331042Y3655D01*
X331042Y3653D01*
X331098Y3572D01*
X331153Y3492D01*
X331155Y3490D01*
X331157Y3488D01*
X331240Y3435D01*
X331321Y3382D01*
X331324Y3382D01*
X331326Y3381D01*
X331422Y3364D01*
X331518Y3347D01*
X331521Y3347D01*
X331523Y3347D01*
X331618Y3369D01*
X331714Y3390D01*
X331716Y3392D01*
X331719Y3393D01*
X331867Y3495D01*
X333412Y5041D01*
X337588Y5041D01*
X340541Y2088D01*
X340541Y1508D01*
X340542Y1503D01*
X340541Y1498D01*
X340562Y1405D01*
X340580Y1311D01*
X340583Y1307D01*
X340584Y1302D01*
X340640Y1224D01*
X340693Y1146D01*
X340697Y1143D01*
X340700Y1139D01*
X340782Y1088D01*
X340861Y1036D01*
X340866Y1036D01*
X340871Y1033D01*
X341048Y1001D01*
X353952Y1001D01*
X353957Y1002D01*
G37*
G36*
X353957Y111002D02*
X353957Y111002D01*
X353962Y111001D01*
X354055Y111022D01*
X354149Y111040D01*
X354153Y111043D01*
X354158Y111044D01*
X354236Y111100D01*
X354314Y111153D01*
X354317Y111157D01*
X354321Y111160D01*
X354372Y111242D01*
X354424Y111321D01*
X354424Y111326D01*
X354427Y111331D01*
X354459Y111508D01*
X354459Y112088D01*
X356485Y114113D01*
X356489Y114120D01*
X356495Y114124D01*
X356544Y114203D01*
X356596Y114280D01*
X356597Y114288D01*
X356601Y114295D01*
X356633Y114472D01*
X356633Y117278D01*
X356632Y117283D01*
X356633Y117288D01*
X356612Y117381D01*
X356594Y117475D01*
X356591Y117479D01*
X356590Y117484D01*
X356534Y117562D01*
X356481Y117640D01*
X356477Y117643D01*
X356474Y117647D01*
X356392Y117698D01*
X356313Y117750D01*
X356308Y117750D01*
X356303Y117753D01*
X356126Y117785D01*
X345284Y117785D01*
X345277Y117784D01*
X345269Y117785D01*
X345179Y117764D01*
X345088Y117746D01*
X345081Y117741D01*
X345074Y117739D01*
X344926Y117637D01*
X344256Y116967D01*
X341744Y116967D01*
X341074Y117637D01*
X341068Y117641D01*
X341063Y117647D01*
X340985Y117696D01*
X340907Y117748D01*
X340900Y117749D01*
X340893Y117753D01*
X340716Y117785D01*
X340398Y117785D01*
X340397Y117786D01*
X340397Y118104D01*
X340396Y118108D01*
X340397Y118113D01*
X340396Y118116D01*
X340397Y118119D01*
X340376Y118209D01*
X340358Y118300D01*
X340354Y118305D01*
X340354Y118308D01*
X340353Y118310D01*
X340351Y118314D01*
X340249Y118462D01*
X339967Y118744D01*
X339967Y121256D01*
X339985Y121274D01*
X339989Y121280D01*
X339995Y121285D01*
X340044Y121363D01*
X340096Y121441D01*
X340097Y121448D01*
X340101Y121455D01*
X340133Y121632D01*
X340133Y122108D01*
X340329Y122447D01*
X340339Y122475D01*
X340342Y122481D01*
X340344Y122489D01*
X340365Y122524D01*
X340377Y122589D01*
X340393Y122637D01*
X340391Y122667D01*
X340397Y122701D01*
X340397Y128000D01*
X340398Y128001D01*
X347792Y128001D01*
X347797Y128002D01*
X347802Y128001D01*
X347895Y128022D01*
X347989Y128040D01*
X347993Y128043D01*
X347998Y128044D01*
X348076Y128100D01*
X348154Y128153D01*
X348157Y128157D01*
X348161Y128160D01*
X348212Y128242D01*
X348264Y128321D01*
X348264Y128326D01*
X348267Y128331D01*
X348299Y128508D01*
X348299Y143083D01*
X348417Y143201D01*
X361583Y143201D01*
X361701Y143083D01*
X361701Y128417D01*
X361583Y128299D01*
X359524Y128299D01*
X359519Y128298D01*
X359514Y128299D01*
X359421Y128278D01*
X359327Y128260D01*
X359323Y128257D01*
X359318Y128256D01*
X359240Y128200D01*
X359162Y128147D01*
X359159Y128143D01*
X359155Y128140D01*
X359104Y128058D01*
X359052Y127979D01*
X359052Y127974D01*
X359049Y127969D01*
X359017Y127792D01*
X359017Y126558D01*
X359031Y126485D01*
X359038Y126411D01*
X359051Y126388D01*
X359056Y126361D01*
X359098Y126300D01*
X359133Y126235D01*
X359155Y126216D01*
X359169Y126195D01*
X359214Y126166D01*
X359270Y126118D01*
X360125Y125625D01*
X362367Y121742D01*
X362367Y114472D01*
X362368Y114464D01*
X362367Y114457D01*
X362388Y114367D01*
X362406Y114276D01*
X362411Y114269D01*
X362413Y114261D01*
X362515Y114113D01*
X364541Y112088D01*
X364541Y111508D01*
X364542Y111503D01*
X364541Y111498D01*
X364562Y111405D01*
X364580Y111311D01*
X364583Y111307D01*
X364584Y111302D01*
X364640Y111224D01*
X364693Y111146D01*
X364697Y111143D01*
X364700Y111139D01*
X364782Y111088D01*
X364861Y111036D01*
X364866Y111036D01*
X364871Y111033D01*
X365048Y111001D01*
X377492Y111001D01*
X377497Y111002D01*
X377502Y111001D01*
X377595Y111022D01*
X377689Y111040D01*
X377693Y111043D01*
X377698Y111044D01*
X377776Y111100D01*
X377854Y111153D01*
X377857Y111157D01*
X377861Y111160D01*
X377912Y111242D01*
X377964Y111321D01*
X377964Y111326D01*
X377967Y111331D01*
X377999Y111508D01*
X377999Y122804D01*
X378250Y123238D01*
X378262Y123274D01*
X378282Y123305D01*
X378294Y123368D01*
X378314Y123428D01*
X378311Y123466D01*
X378318Y123502D01*
X378304Y123565D01*
X378299Y123628D01*
X378282Y123662D01*
X378274Y123698D01*
X378237Y123750D01*
X378208Y123807D01*
X378180Y123831D01*
X378158Y123861D01*
X378104Y123895D01*
X378102Y123897D01*
X375999Y126000D01*
X375999Y142000D01*
X376148Y142149D01*
X377851Y143852D01*
X378073Y144074D01*
X378120Y144117D01*
X378173Y144153D01*
X378193Y144184D01*
X378221Y144210D01*
X378248Y144268D01*
X378282Y144321D01*
X378289Y144358D01*
X378305Y144392D01*
X378307Y144455D01*
X378318Y144518D01*
X378310Y144555D01*
X378311Y144592D01*
X378286Y144662D01*
X378274Y144714D01*
X378260Y144734D01*
X378250Y144762D01*
X377999Y145196D01*
X377999Y146575D01*
X377998Y146583D01*
X377999Y146591D01*
X377978Y146681D01*
X377960Y146772D01*
X377955Y146778D01*
X377953Y146786D01*
X377851Y146934D01*
X375734Y149051D01*
X375727Y149055D01*
X375723Y149061D01*
X375644Y149110D01*
X375567Y149162D01*
X375559Y149163D01*
X375553Y149167D01*
X375375Y149199D01*
X361062Y149199D01*
X359437Y150137D01*
X358499Y151762D01*
X358499Y155638D01*
X359437Y157263D01*
X360746Y158018D01*
X360801Y158067D01*
X360861Y158110D01*
X360876Y158133D01*
X360896Y158151D01*
X360928Y158217D01*
X360967Y158280D01*
X360972Y158309D01*
X360983Y158331D01*
X360986Y158385D01*
X360999Y158457D01*
X360999Y159282D01*
X360990Y159328D01*
X360991Y159375D01*
X360969Y159432D01*
X360960Y159479D01*
X360941Y159506D01*
X360927Y159543D01*
X357488Y165275D01*
X357453Y165314D01*
X357411Y165373D01*
X356502Y166278D01*
X356501Y167125D01*
X356499Y167131D01*
X356499Y167142D01*
X356500Y167146D01*
X356499Y167149D01*
X356499Y167743D01*
X356499Y167745D01*
X356499Y167747D01*
X356499Y167751D01*
X356498Y168243D01*
X356497Y168248D01*
X356498Y168252D01*
X356477Y168347D01*
X356458Y168439D01*
X356456Y168443D01*
X356455Y168448D01*
X356399Y168527D01*
X356345Y168605D01*
X356341Y168608D01*
X356339Y168611D01*
X356257Y168662D01*
X356177Y168714D01*
X356172Y168715D01*
X356168Y168717D01*
X355991Y168749D01*
X355009Y168749D01*
X355004Y168748D01*
X355000Y168749D01*
X354907Y168729D01*
X354813Y168710D01*
X354809Y168707D01*
X354804Y168706D01*
X354726Y168651D01*
X354647Y168597D01*
X354644Y168593D01*
X354640Y168590D01*
X354589Y168508D01*
X354537Y168429D01*
X354537Y168424D01*
X354534Y168420D01*
X354502Y168243D01*
X354501Y167748D01*
X354501Y167747D01*
X354501Y167131D01*
X354499Y167125D01*
X354498Y166278D01*
X353589Y165373D01*
X353559Y165329D01*
X353512Y165275D01*
X350073Y159543D01*
X350057Y159499D01*
X350033Y159460D01*
X350022Y159399D01*
X350006Y159354D01*
X350008Y159321D01*
X350001Y159282D01*
X350001Y158457D01*
X350015Y158385D01*
X350022Y158311D01*
X350035Y158287D01*
X350040Y158261D01*
X350082Y158200D01*
X350117Y158134D01*
X350139Y158116D01*
X350153Y158095D01*
X350198Y158066D01*
X350254Y158018D01*
X351563Y157263D01*
X352501Y155638D01*
X352501Y151762D01*
X351563Y150137D01*
X349938Y149199D01*
X333625Y149199D01*
X333617Y149198D01*
X333609Y149199D01*
X333519Y149178D01*
X333428Y149160D01*
X333422Y149155D01*
X333414Y149153D01*
X333266Y149051D01*
X331149Y146934D01*
X331145Y146928D01*
X331139Y146923D01*
X331090Y146844D01*
X331038Y146767D01*
X331037Y146759D01*
X331033Y146753D01*
X331001Y146575D01*
X331001Y145196D01*
X330750Y144762D01*
X330738Y144726D01*
X330718Y144695D01*
X330706Y144632D01*
X330686Y144572D01*
X330689Y144534D01*
X330682Y144498D01*
X330696Y144435D01*
X330701Y144372D01*
X330718Y144338D01*
X330726Y144302D01*
X330763Y144250D01*
X330792Y144193D01*
X330820Y144169D01*
X330842Y144139D01*
X330896Y144105D01*
X330898Y144103D01*
X333001Y142000D01*
X333001Y126000D01*
X330927Y123926D01*
X330880Y123883D01*
X330827Y123847D01*
X330807Y123816D01*
X330779Y123790D01*
X330752Y123732D01*
X330718Y123679D01*
X330711Y123642D01*
X330695Y123608D01*
X330693Y123545D01*
X330682Y123482D01*
X330690Y123445D01*
X330689Y123408D01*
X330714Y123338D01*
X330726Y123286D01*
X330740Y123266D01*
X330750Y123238D01*
X331001Y122804D01*
X331001Y113854D01*
X331001Y113851D01*
X331001Y113849D01*
X331021Y113754D01*
X331040Y113657D01*
X331042Y113655D01*
X331042Y113653D01*
X331098Y113572D01*
X331153Y113492D01*
X331155Y113490D01*
X331157Y113488D01*
X331240Y113435D01*
X331321Y113382D01*
X331324Y113382D01*
X331326Y113381D01*
X331422Y113364D01*
X331518Y113347D01*
X331521Y113347D01*
X331523Y113347D01*
X331618Y113369D01*
X331714Y113390D01*
X331716Y113392D01*
X331719Y113393D01*
X331867Y113495D01*
X333412Y115041D01*
X337588Y115041D01*
X340541Y112088D01*
X340541Y111508D01*
X340542Y111503D01*
X340541Y111498D01*
X340562Y111405D01*
X340580Y111311D01*
X340583Y111307D01*
X340584Y111302D01*
X340640Y111224D01*
X340693Y111146D01*
X340697Y111143D01*
X340700Y111139D01*
X340782Y111088D01*
X340861Y111036D01*
X340866Y111036D01*
X340871Y111033D01*
X341048Y111001D01*
X353952Y111001D01*
X353957Y111002D01*
G37*
G36*
X353957Y221002D02*
X353957Y221002D01*
X353962Y221001D01*
X354055Y221022D01*
X354149Y221040D01*
X354153Y221043D01*
X354158Y221044D01*
X354236Y221100D01*
X354314Y221153D01*
X354317Y221157D01*
X354321Y221160D01*
X354372Y221242D01*
X354424Y221321D01*
X354424Y221326D01*
X354427Y221331D01*
X354459Y221508D01*
X354459Y222088D01*
X356485Y224113D01*
X356489Y224120D01*
X356495Y224124D01*
X356544Y224203D01*
X356596Y224280D01*
X356597Y224288D01*
X356601Y224295D01*
X356633Y224472D01*
X356633Y227278D01*
X356632Y227283D01*
X356633Y227288D01*
X356612Y227381D01*
X356594Y227475D01*
X356591Y227479D01*
X356590Y227484D01*
X356534Y227562D01*
X356481Y227640D01*
X356477Y227643D01*
X356474Y227647D01*
X356392Y227698D01*
X356313Y227750D01*
X356308Y227750D01*
X356303Y227753D01*
X356126Y227785D01*
X345284Y227785D01*
X345277Y227784D01*
X345269Y227785D01*
X345179Y227764D01*
X345088Y227746D01*
X345081Y227741D01*
X345074Y227739D01*
X344926Y227637D01*
X344256Y226967D01*
X341744Y226967D01*
X341074Y227637D01*
X341068Y227641D01*
X341063Y227647D01*
X340985Y227696D01*
X340907Y227748D01*
X340900Y227749D01*
X340893Y227753D01*
X340716Y227785D01*
X340398Y227785D01*
X340397Y227786D01*
X340397Y228104D01*
X340396Y228108D01*
X340397Y228113D01*
X340396Y228116D01*
X340397Y228119D01*
X340376Y228209D01*
X340358Y228300D01*
X340354Y228305D01*
X340354Y228308D01*
X340353Y228310D01*
X340351Y228314D01*
X340249Y228462D01*
X339967Y228744D01*
X339967Y231256D01*
X339985Y231274D01*
X339989Y231280D01*
X339995Y231285D01*
X340044Y231363D01*
X340096Y231441D01*
X340097Y231448D01*
X340101Y231455D01*
X340133Y231632D01*
X340133Y232108D01*
X340329Y232447D01*
X340339Y232475D01*
X340342Y232481D01*
X340344Y232489D01*
X340365Y232524D01*
X340377Y232590D01*
X340393Y232637D01*
X340391Y232667D01*
X340397Y232701D01*
X340397Y238000D01*
X340398Y238001D01*
X347792Y238001D01*
X347797Y238002D01*
X347802Y238001D01*
X347895Y238022D01*
X347989Y238040D01*
X347993Y238043D01*
X347998Y238044D01*
X348076Y238100D01*
X348154Y238153D01*
X348157Y238157D01*
X348161Y238160D01*
X348212Y238242D01*
X348264Y238321D01*
X348264Y238326D01*
X348267Y238331D01*
X348299Y238508D01*
X348299Y253083D01*
X348417Y253201D01*
X361583Y253201D01*
X361701Y253083D01*
X361701Y238417D01*
X361583Y238299D01*
X359524Y238299D01*
X359519Y238298D01*
X359514Y238299D01*
X359421Y238278D01*
X359327Y238260D01*
X359323Y238257D01*
X359318Y238256D01*
X359240Y238200D01*
X359162Y238147D01*
X359159Y238143D01*
X359155Y238140D01*
X359104Y238058D01*
X359052Y237979D01*
X359052Y237974D01*
X359049Y237969D01*
X359017Y237792D01*
X359017Y236558D01*
X359031Y236485D01*
X359038Y236411D01*
X359051Y236388D01*
X359056Y236361D01*
X359098Y236300D01*
X359133Y236235D01*
X359155Y236216D01*
X359169Y236195D01*
X359214Y236166D01*
X359270Y236118D01*
X360125Y235625D01*
X362367Y231742D01*
X362367Y224472D01*
X362368Y224464D01*
X362367Y224457D01*
X362388Y224367D01*
X362406Y224276D01*
X362411Y224269D01*
X362413Y224261D01*
X362515Y224113D01*
X364541Y222088D01*
X364541Y221508D01*
X364542Y221503D01*
X364541Y221498D01*
X364562Y221405D01*
X364580Y221311D01*
X364583Y221307D01*
X364584Y221302D01*
X364640Y221224D01*
X364693Y221146D01*
X364697Y221143D01*
X364700Y221139D01*
X364782Y221088D01*
X364861Y221036D01*
X364866Y221036D01*
X364871Y221033D01*
X365048Y221001D01*
X377492Y221001D01*
X377497Y221002D01*
X377502Y221001D01*
X377595Y221022D01*
X377689Y221040D01*
X377693Y221043D01*
X377698Y221044D01*
X377776Y221100D01*
X377854Y221153D01*
X377857Y221157D01*
X377861Y221160D01*
X377912Y221242D01*
X377964Y221321D01*
X377964Y221326D01*
X377967Y221331D01*
X377999Y221508D01*
X377999Y232804D01*
X378250Y233238D01*
X378262Y233274D01*
X378282Y233305D01*
X378294Y233368D01*
X378314Y233428D01*
X378311Y233466D01*
X378318Y233502D01*
X378304Y233565D01*
X378299Y233628D01*
X378282Y233662D01*
X378274Y233698D01*
X378237Y233750D01*
X378208Y233807D01*
X378180Y233831D01*
X378158Y233861D01*
X378104Y233895D01*
X378102Y233897D01*
X375999Y236000D01*
X375999Y252000D01*
X378073Y254074D01*
X378120Y254117D01*
X378173Y254153D01*
X378193Y254184D01*
X378221Y254210D01*
X378248Y254268D01*
X378282Y254321D01*
X378289Y254358D01*
X378305Y254392D01*
X378307Y254455D01*
X378318Y254518D01*
X378310Y254555D01*
X378311Y254592D01*
X378286Y254662D01*
X378274Y254714D01*
X378260Y254734D01*
X378250Y254762D01*
X377999Y255196D01*
X377999Y256575D01*
X377998Y256583D01*
X377999Y256591D01*
X377978Y256681D01*
X377960Y256772D01*
X377955Y256778D01*
X377953Y256786D01*
X377851Y256934D01*
X375734Y259051D01*
X375727Y259055D01*
X375723Y259061D01*
X375644Y259110D01*
X375567Y259162D01*
X375559Y259163D01*
X375553Y259167D01*
X375375Y259199D01*
X361062Y259199D01*
X359437Y260137D01*
X358499Y261762D01*
X358499Y265638D01*
X359437Y267263D01*
X360746Y268018D01*
X360801Y268067D01*
X360861Y268110D01*
X360876Y268133D01*
X360896Y268151D01*
X360928Y268217D01*
X360967Y268280D01*
X360972Y268309D01*
X360983Y268331D01*
X360986Y268385D01*
X360999Y268457D01*
X360999Y269282D01*
X360990Y269328D01*
X360991Y269375D01*
X360969Y269432D01*
X360960Y269479D01*
X360941Y269506D01*
X360927Y269543D01*
X357488Y275275D01*
X357453Y275314D01*
X357411Y275373D01*
X356502Y276278D01*
X356501Y277125D01*
X356499Y277131D01*
X356499Y277134D01*
X356500Y277139D01*
X356499Y277143D01*
X356499Y277748D01*
X356499Y277749D01*
X356498Y278243D01*
X356497Y278248D01*
X356498Y278252D01*
X356477Y278347D01*
X356458Y278439D01*
X356456Y278443D01*
X356455Y278448D01*
X356399Y278527D01*
X356345Y278605D01*
X356341Y278608D01*
X356339Y278611D01*
X356257Y278662D01*
X356177Y278714D01*
X356172Y278715D01*
X356168Y278717D01*
X355991Y278749D01*
X355009Y278749D01*
X355004Y278748D01*
X355000Y278749D01*
X354907Y278729D01*
X354813Y278710D01*
X354809Y278707D01*
X354804Y278706D01*
X354726Y278651D01*
X354647Y278597D01*
X354644Y278593D01*
X354640Y278590D01*
X354589Y278508D01*
X354537Y278429D01*
X354537Y278424D01*
X354534Y278420D01*
X354502Y278243D01*
X354501Y277748D01*
X354501Y277747D01*
X354501Y277131D01*
X354499Y277125D01*
X354498Y276278D01*
X353589Y275373D01*
X353559Y275329D01*
X353512Y275275D01*
X350073Y269543D01*
X350057Y269499D01*
X350033Y269460D01*
X350022Y269399D01*
X350006Y269354D01*
X350008Y269321D01*
X350001Y269282D01*
X350001Y268457D01*
X350015Y268385D01*
X350022Y268311D01*
X350035Y268287D01*
X350040Y268261D01*
X350082Y268200D01*
X350117Y268134D01*
X350139Y268116D01*
X350153Y268095D01*
X350198Y268066D01*
X350254Y268018D01*
X351563Y267263D01*
X352501Y265638D01*
X352501Y261762D01*
X351563Y260137D01*
X349938Y259199D01*
X333625Y259199D01*
X333617Y259198D01*
X333609Y259199D01*
X333519Y259178D01*
X333428Y259160D01*
X333422Y259155D01*
X333414Y259153D01*
X333266Y259051D01*
X331149Y256934D01*
X331145Y256928D01*
X331139Y256923D01*
X331090Y256844D01*
X331038Y256767D01*
X331037Y256759D01*
X331033Y256753D01*
X331001Y256575D01*
X331001Y255196D01*
X330750Y254762D01*
X330738Y254726D01*
X330718Y254695D01*
X330706Y254632D01*
X330686Y254572D01*
X330689Y254534D01*
X330682Y254498D01*
X330696Y254435D01*
X330701Y254372D01*
X330718Y254338D01*
X330726Y254302D01*
X330763Y254250D01*
X330792Y254193D01*
X330820Y254169D01*
X330842Y254139D01*
X330896Y254105D01*
X330898Y254103D01*
X333001Y252000D01*
X333001Y236000D01*
X330927Y233926D01*
X330880Y233883D01*
X330827Y233847D01*
X330807Y233816D01*
X330779Y233790D01*
X330752Y233732D01*
X330718Y233679D01*
X330711Y233642D01*
X330695Y233608D01*
X330693Y233545D01*
X330682Y233482D01*
X330690Y233445D01*
X330689Y233408D01*
X330714Y233338D01*
X330726Y233286D01*
X330740Y233266D01*
X330750Y233238D01*
X331001Y232804D01*
X331001Y223854D01*
X331001Y223851D01*
X331001Y223849D01*
X331021Y223754D01*
X331040Y223657D01*
X331042Y223655D01*
X331042Y223653D01*
X331098Y223572D01*
X331153Y223492D01*
X331155Y223490D01*
X331157Y223488D01*
X331240Y223435D01*
X331321Y223382D01*
X331324Y223382D01*
X331326Y223381D01*
X331422Y223364D01*
X331518Y223347D01*
X331521Y223347D01*
X331523Y223347D01*
X331618Y223369D01*
X331714Y223390D01*
X331716Y223392D01*
X331719Y223393D01*
X331867Y223495D01*
X333412Y225041D01*
X337588Y225041D01*
X340541Y222088D01*
X340541Y221508D01*
X340542Y221503D01*
X340541Y221498D01*
X340562Y221405D01*
X340580Y221311D01*
X340583Y221307D01*
X340584Y221302D01*
X340640Y221224D01*
X340693Y221146D01*
X340697Y221143D01*
X340700Y221139D01*
X340782Y221088D01*
X340861Y221036D01*
X340866Y221036D01*
X340871Y221033D01*
X341048Y221001D01*
X353952Y221001D01*
X353957Y221002D01*
G37*
G36*
X353957Y331002D02*
X353957Y331002D01*
X353962Y331001D01*
X354055Y331022D01*
X354149Y331040D01*
X354153Y331043D01*
X354158Y331044D01*
X354236Y331100D01*
X354314Y331153D01*
X354317Y331157D01*
X354321Y331160D01*
X354372Y331242D01*
X354424Y331321D01*
X354424Y331326D01*
X354427Y331331D01*
X354459Y331508D01*
X354459Y332088D01*
X356485Y334113D01*
X356489Y334120D01*
X356495Y334124D01*
X356544Y334203D01*
X356596Y334280D01*
X356597Y334288D01*
X356601Y334295D01*
X356633Y334472D01*
X356633Y337278D01*
X356632Y337283D01*
X356633Y337288D01*
X356612Y337381D01*
X356594Y337475D01*
X356591Y337479D01*
X356590Y337484D01*
X356534Y337562D01*
X356481Y337640D01*
X356477Y337643D01*
X356474Y337647D01*
X356392Y337698D01*
X356313Y337750D01*
X356308Y337750D01*
X356303Y337753D01*
X356126Y337785D01*
X345284Y337785D01*
X345277Y337784D01*
X345269Y337785D01*
X345179Y337764D01*
X345088Y337746D01*
X345081Y337741D01*
X345074Y337739D01*
X344926Y337637D01*
X344256Y336967D01*
X341744Y336967D01*
X341074Y337637D01*
X341068Y337641D01*
X341063Y337647D01*
X340985Y337696D01*
X340907Y337748D01*
X340900Y337749D01*
X340893Y337753D01*
X340716Y337785D01*
X340398Y337785D01*
X340397Y337786D01*
X340397Y338104D01*
X340396Y338108D01*
X340397Y338113D01*
X340396Y338116D01*
X340397Y338119D01*
X340376Y338209D01*
X340358Y338300D01*
X340354Y338305D01*
X340354Y338308D01*
X340353Y338310D01*
X340351Y338314D01*
X340249Y338462D01*
X339967Y338744D01*
X339967Y341256D01*
X339985Y341274D01*
X339989Y341280D01*
X339995Y341285D01*
X340044Y341363D01*
X340096Y341441D01*
X340097Y341448D01*
X340101Y341455D01*
X340133Y341632D01*
X340133Y342108D01*
X340329Y342447D01*
X340339Y342475D01*
X340342Y342481D01*
X340344Y342489D01*
X340365Y342524D01*
X340377Y342589D01*
X340393Y342637D01*
X340391Y342667D01*
X340397Y342701D01*
X340397Y348000D01*
X340398Y348001D01*
X347792Y348001D01*
X347797Y348002D01*
X347802Y348001D01*
X347895Y348022D01*
X347989Y348040D01*
X347993Y348043D01*
X347998Y348044D01*
X348076Y348100D01*
X348154Y348153D01*
X348157Y348157D01*
X348161Y348160D01*
X348212Y348242D01*
X348264Y348321D01*
X348264Y348326D01*
X348267Y348331D01*
X348299Y348508D01*
X348299Y363083D01*
X348417Y363201D01*
X361583Y363201D01*
X361701Y363083D01*
X361701Y348417D01*
X361583Y348299D01*
X359524Y348299D01*
X359519Y348298D01*
X359514Y348299D01*
X359421Y348278D01*
X359327Y348260D01*
X359323Y348257D01*
X359318Y348256D01*
X359240Y348200D01*
X359162Y348147D01*
X359159Y348143D01*
X359155Y348140D01*
X359104Y348058D01*
X359052Y347979D01*
X359052Y347974D01*
X359049Y347969D01*
X359017Y347792D01*
X359017Y346558D01*
X359031Y346485D01*
X359038Y346411D01*
X359051Y346388D01*
X359056Y346361D01*
X359098Y346300D01*
X359133Y346235D01*
X359155Y346216D01*
X359169Y346195D01*
X359214Y346166D01*
X359270Y346118D01*
X360125Y345625D01*
X362367Y341742D01*
X362367Y334472D01*
X362368Y334464D01*
X362367Y334457D01*
X362388Y334367D01*
X362406Y334276D01*
X362411Y334269D01*
X362413Y334261D01*
X362515Y334113D01*
X364541Y332088D01*
X364541Y331508D01*
X364542Y331503D01*
X364541Y331498D01*
X364562Y331405D01*
X364580Y331311D01*
X364583Y331307D01*
X364584Y331302D01*
X364640Y331224D01*
X364693Y331146D01*
X364697Y331143D01*
X364700Y331139D01*
X364782Y331088D01*
X364861Y331036D01*
X364866Y331036D01*
X364871Y331033D01*
X365048Y331001D01*
X377492Y331001D01*
X377497Y331002D01*
X377502Y331001D01*
X377595Y331022D01*
X377689Y331040D01*
X377693Y331043D01*
X377698Y331044D01*
X377776Y331100D01*
X377854Y331153D01*
X377857Y331157D01*
X377861Y331160D01*
X377912Y331242D01*
X377964Y331321D01*
X377964Y331326D01*
X377967Y331331D01*
X377999Y331508D01*
X377999Y342804D01*
X378250Y343238D01*
X378262Y343274D01*
X378282Y343305D01*
X378294Y343368D01*
X378314Y343428D01*
X378311Y343466D01*
X378318Y343502D01*
X378304Y343565D01*
X378299Y343628D01*
X378282Y343662D01*
X378274Y343698D01*
X378237Y343750D01*
X378208Y343807D01*
X378180Y343831D01*
X378158Y343861D01*
X378104Y343895D01*
X378102Y343897D01*
X375999Y346000D01*
X375999Y362000D01*
X376148Y362149D01*
X377851Y363852D01*
X378073Y364074D01*
X378120Y364117D01*
X378173Y364153D01*
X378193Y364184D01*
X378221Y364210D01*
X378248Y364268D01*
X378282Y364321D01*
X378289Y364358D01*
X378305Y364392D01*
X378307Y364455D01*
X378318Y364518D01*
X378310Y364555D01*
X378311Y364592D01*
X378286Y364662D01*
X378274Y364714D01*
X378260Y364734D01*
X378250Y364762D01*
X377999Y365196D01*
X377999Y366575D01*
X377998Y366583D01*
X377999Y366591D01*
X377978Y366681D01*
X377960Y366772D01*
X377955Y366778D01*
X377953Y366786D01*
X377851Y366934D01*
X375734Y369051D01*
X375727Y369055D01*
X375723Y369061D01*
X375644Y369110D01*
X375567Y369162D01*
X375559Y369163D01*
X375553Y369167D01*
X375375Y369199D01*
X361062Y369199D01*
X359437Y370137D01*
X358499Y371762D01*
X358499Y375638D01*
X359437Y377263D01*
X360746Y378018D01*
X360801Y378067D01*
X360861Y378110D01*
X360876Y378133D01*
X360896Y378151D01*
X360928Y378217D01*
X360967Y378280D01*
X360972Y378309D01*
X360983Y378331D01*
X360986Y378385D01*
X360999Y378457D01*
X360999Y379282D01*
X360990Y379328D01*
X360991Y379375D01*
X360969Y379432D01*
X360960Y379479D01*
X360941Y379506D01*
X360927Y379543D01*
X357488Y385275D01*
X357453Y385314D01*
X357411Y385373D01*
X356502Y386278D01*
X356501Y387125D01*
X356499Y387131D01*
X356499Y387134D01*
X356500Y387139D01*
X356499Y387143D01*
X356499Y387748D01*
X356499Y387749D01*
X356498Y388243D01*
X356497Y388248D01*
X356498Y388252D01*
X356477Y388347D01*
X356458Y388439D01*
X356456Y388443D01*
X356455Y388448D01*
X356399Y388527D01*
X356345Y388605D01*
X356341Y388608D01*
X356339Y388611D01*
X356257Y388662D01*
X356177Y388714D01*
X356172Y388715D01*
X356168Y388717D01*
X355991Y388749D01*
X355009Y388749D01*
X355004Y388748D01*
X355000Y388749D01*
X354907Y388729D01*
X354813Y388710D01*
X354809Y388707D01*
X354804Y388706D01*
X354726Y388651D01*
X354647Y388597D01*
X354644Y388593D01*
X354640Y388590D01*
X354589Y388508D01*
X354537Y388429D01*
X354537Y388424D01*
X354534Y388420D01*
X354502Y388243D01*
X354501Y387748D01*
X354501Y387747D01*
X354501Y387131D01*
X354500Y387130D01*
X354499Y387125D01*
X354498Y386278D01*
X353589Y385373D01*
X353559Y385329D01*
X353512Y385275D01*
X350073Y379543D01*
X350057Y379499D01*
X350033Y379460D01*
X350022Y379399D01*
X350006Y379354D01*
X350008Y379321D01*
X350001Y379282D01*
X350001Y378457D01*
X350015Y378385D01*
X350022Y378311D01*
X350035Y378287D01*
X350040Y378261D01*
X350082Y378200D01*
X350117Y378134D01*
X350139Y378116D01*
X350153Y378095D01*
X350198Y378066D01*
X350254Y378018D01*
X351563Y377263D01*
X352501Y375638D01*
X352501Y371762D01*
X351563Y370137D01*
X349938Y369199D01*
X333625Y369199D01*
X333617Y369198D01*
X333609Y369199D01*
X333519Y369178D01*
X333428Y369160D01*
X333422Y369155D01*
X333414Y369153D01*
X333266Y369051D01*
X331149Y366934D01*
X331145Y366927D01*
X331139Y366923D01*
X331090Y366844D01*
X331038Y366767D01*
X331037Y366759D01*
X331033Y366753D01*
X331001Y366575D01*
X331001Y365196D01*
X330750Y364762D01*
X330738Y364726D01*
X330718Y364695D01*
X330706Y364632D01*
X330686Y364572D01*
X330689Y364534D01*
X330682Y364498D01*
X330696Y364435D01*
X330701Y364372D01*
X330718Y364338D01*
X330726Y364302D01*
X330763Y364250D01*
X330792Y364193D01*
X330820Y364169D01*
X330842Y364139D01*
X330896Y364105D01*
X330898Y364103D01*
X333001Y362000D01*
X333001Y346000D01*
X331149Y344148D01*
X330927Y343926D01*
X330880Y343883D01*
X330827Y343847D01*
X330807Y343816D01*
X330779Y343790D01*
X330752Y343732D01*
X330718Y343679D01*
X330711Y343642D01*
X330695Y343608D01*
X330693Y343545D01*
X330682Y343482D01*
X330690Y343445D01*
X330689Y343408D01*
X330714Y343338D01*
X330726Y343286D01*
X330740Y343266D01*
X330750Y343238D01*
X331001Y342804D01*
X331001Y333854D01*
X331001Y333851D01*
X331001Y333849D01*
X331021Y333754D01*
X331040Y333657D01*
X331042Y333655D01*
X331042Y333653D01*
X331098Y333572D01*
X331153Y333492D01*
X331155Y333490D01*
X331157Y333488D01*
X331240Y333435D01*
X331321Y333382D01*
X331324Y333382D01*
X331326Y333381D01*
X331422Y333364D01*
X331518Y333347D01*
X331521Y333347D01*
X331523Y333347D01*
X331618Y333369D01*
X331714Y333390D01*
X331716Y333392D01*
X331719Y333393D01*
X331867Y333495D01*
X333412Y335041D01*
X337588Y335041D01*
X340541Y332088D01*
X340541Y331508D01*
X340542Y331503D01*
X340541Y331498D01*
X340562Y331405D01*
X340580Y331311D01*
X340583Y331307D01*
X340584Y331302D01*
X340640Y331224D01*
X340693Y331146D01*
X340697Y331143D01*
X340700Y331139D01*
X340782Y331088D01*
X340861Y331036D01*
X340866Y331036D01*
X340871Y331033D01*
X341048Y331001D01*
X353952Y331001D01*
X353957Y331002D01*
G37*
D10*
X190000Y-40000D03*
X190000Y420000D03*
D11*
X80000Y190000D03*
X190000Y190000D03*
X300000Y190000D03*
D12*
X-40000Y187500D03*
D13*
X420000Y252500D03*
D14*
X25500Y15000D03*
D15*
X15500Y26000D03*
D16*
X25500Y36000D03*
D15*
X35500Y26000D03*
D17*
X5500Y0D03*
X17500Y0D03*
X29500Y0D03*
X42500Y0D03*
D14*
X135500Y15000D03*
D15*
X125500Y26000D03*
D16*
X135500Y36000D03*
D15*
X145500Y26000D03*
D17*
X115500Y0D03*
X127500Y0D03*
X139500Y0D03*
X152500Y0D03*
D14*
X245500Y15000D03*
D15*
X235500Y26000D03*
D16*
X245500Y36000D03*
D15*
X255500Y26000D03*
D17*
X225500Y0D03*
X237500Y0D03*
X249500Y0D03*
X262500Y0D03*
D14*
X355500Y15000D03*
D15*
X345500Y26000D03*
D16*
X355500Y36000D03*
D15*
X365500Y26000D03*
D17*
X335500Y0D03*
X347500Y0D03*
X359500Y0D03*
X372500Y0D03*
D14*
X25500Y125000D03*
D15*
X15500Y136000D03*
D16*
X25500Y146000D03*
D15*
X35500Y136000D03*
D17*
X5500Y110000D03*
X17500Y110000D03*
X29500Y110000D03*
X42500Y110000D03*
D14*
X135500Y125000D03*
D15*
X125500Y136000D03*
D16*
X135500Y146000D03*
D15*
X145500Y136000D03*
D17*
X115500Y110000D03*
X127500Y110000D03*
X139500Y110000D03*
X152500Y110000D03*
D14*
X245500Y125000D03*
D15*
X235500Y136000D03*
D16*
X245500Y146000D03*
D15*
X255500Y136000D03*
D17*
X225500Y110000D03*
X237500Y110000D03*
X249500Y110000D03*
X262500Y110000D03*
D14*
X355500Y125000D03*
D15*
X345500Y136000D03*
D16*
X355500Y146000D03*
D15*
X365500Y136000D03*
D17*
X335500Y110000D03*
X347500Y110000D03*
X359500Y110000D03*
X372500Y110000D03*
D14*
X25500Y235000D03*
D15*
X15500Y246000D03*
D16*
X25500Y256000D03*
D15*
X35500Y246000D03*
D17*
X5500Y220000D03*
X17500Y220000D03*
X29500Y220000D03*
X42500Y220000D03*
D14*
X135500Y235000D03*
D15*
X125500Y246000D03*
D16*
X135500Y256000D03*
D15*
X145500Y246000D03*
D17*
X115500Y220000D03*
X127500Y220000D03*
X139500Y220000D03*
X152500Y220000D03*
D14*
X245500Y235000D03*
D15*
X235500Y246000D03*
D16*
X245500Y256000D03*
D15*
X255500Y246000D03*
D17*
X225500Y220000D03*
X237500Y220000D03*
X249500Y220000D03*
X262500Y220000D03*
D14*
X355500Y235000D03*
D15*
X345500Y246000D03*
D16*
X355500Y256000D03*
D15*
X365500Y246000D03*
D17*
X335500Y220000D03*
X347500Y220000D03*
X359500Y220000D03*
X372500Y220000D03*
D14*
X25500Y345000D03*
D15*
X15500Y356000D03*
D16*
X25500Y366000D03*
D15*
X35500Y356000D03*
D17*
X5500Y330000D03*
X17500Y330000D03*
X29500Y330000D03*
X42500Y330000D03*
D14*
X135500Y345000D03*
D15*
X125500Y356000D03*
D16*
X135500Y366000D03*
D15*
X145500Y356000D03*
D17*
X115500Y330000D03*
X127500Y330000D03*
X139500Y330000D03*
X152500Y330000D03*
D14*
X245500Y345000D03*
D15*
X235500Y356000D03*
D16*
X245500Y366000D03*
D15*
X255500Y356000D03*
D17*
X225500Y330000D03*
X237500Y330000D03*
X249500Y330000D03*
X262500Y330000D03*
D14*
X355500Y345000D03*
D15*
X345500Y356000D03*
D16*
X355500Y366000D03*
D15*
X365500Y356000D03*
D17*
X335500Y330000D03*
X347500Y330000D03*
X359500Y330000D03*
X372500Y330000D03*
D18*
X-37500Y20000D02*
X-37498Y20099D01*
X-37492Y20199D01*
X-37482Y20298D01*
X-37468Y20396D01*
X-37451Y20494D01*
X-37429Y20591D01*
X-37404Y20687D01*
X-37375Y20782D01*
X-37342Y20876D01*
X-37305Y20968D01*
X-37265Y21059D01*
X-37221Y21148D01*
X-37173Y21236D01*
X-37122Y21321D01*
X-37068Y21404D01*
X-37011Y21486D01*
X-36950Y21564D01*
X-36886Y21641D01*
X-36820Y21714D01*
X-36750Y21785D01*
X-36678Y21853D01*
X-36603Y21919D01*
X-36525Y21981D01*
X-36445Y22040D01*
X-36363Y22096D01*
X-36279Y22148D01*
X-36192Y22197D01*
X-36104Y22243D01*
X-36014Y22285D01*
X-35922Y22324D01*
X-35829Y22359D01*
X-35735Y22390D01*
X-35639Y22417D01*
X-35542Y22440D01*
X-35445Y22460D01*
X-35347Y22476D01*
X-35248Y22488D01*
X-35149Y22496D01*
X-35050Y22500D01*
X-34950Y22500D01*
X-34851Y22496D01*
X-34752Y22488D01*
X-34653Y22476D01*
X-34555Y22460D01*
X-34458Y22440D01*
X-34361Y22417D01*
X-34265Y22390D01*
X-34171Y22359D01*
X-34078Y22324D01*
X-33986Y22285D01*
X-33896Y22243D01*
X-33808Y22197D01*
X-33721Y22148D01*
X-33637Y22096D01*
X-33555Y22040D01*
X-33475Y21981D01*
X-33397Y21919D01*
X-33322Y21853D01*
X-33250Y21785D01*
X-33180Y21714D01*
X-33114Y21641D01*
X-33050Y21564D01*
X-32989Y21486D01*
X-32932Y21404D01*
X-32878Y21321D01*
X-32827Y21236D01*
X-32779Y21148D01*
X-32735Y21059D01*
X-32695Y20968D01*
X-32658Y20876D01*
X-32625Y20782D01*
X-32596Y20687D01*
X-32571Y20591D01*
X-32549Y20494D01*
X-32532Y20396D01*
X-32518Y20298D01*
X-32508Y20199D01*
X-32502Y20099D01*
X-32500Y20000D01*
X-32502Y19901D01*
X-32508Y19801D01*
X-32518Y19702D01*
X-32532Y19604D01*
X-32549Y19506D01*
X-32571Y19409D01*
X-32596Y19313D01*
X-32625Y19218D01*
X-32658Y19124D01*
X-32695Y19032D01*
X-32735Y18941D01*
X-32779Y18852D01*
X-32827Y18764D01*
X-32878Y18679D01*
X-32932Y18596D01*
X-32989Y18514D01*
X-33050Y18436D01*
X-33114Y18359D01*
X-33180Y18286D01*
X-33250Y18215D01*
X-33322Y18147D01*
X-33397Y18081D01*
X-33475Y18019D01*
X-33555Y17960D01*
X-33637Y17904D01*
X-33721Y17852D01*
X-33808Y17803D01*
X-33896Y17757D01*
X-33986Y17715D01*
X-34078Y17676D01*
X-34171Y17641D01*
X-34265Y17610D01*
X-34361Y17583D01*
X-34458Y17560D01*
X-34555Y17540D01*
X-34653Y17524D01*
X-34752Y17512D01*
X-34851Y17504D01*
X-34950Y17500D01*
X-35050Y17500D01*
X-35149Y17504D01*
X-35248Y17512D01*
X-35347Y17524D01*
X-35445Y17540D01*
X-35542Y17560D01*
X-35639Y17583D01*
X-35735Y17610D01*
X-35829Y17641D01*
X-35922Y17676D01*
X-36014Y17715D01*
X-36104Y17757D01*
X-36192Y17803D01*
X-36279Y17852D01*
X-36363Y17904D01*
X-36445Y17960D01*
X-36525Y18019D01*
X-36603Y18081D01*
X-36678Y18147D01*
X-36750Y18215D01*
X-36820Y18286D01*
X-36886Y18359D01*
X-36950Y18436D01*
X-37011Y18514D01*
X-37068Y18596D01*
X-37122Y18679D01*
X-37173Y18764D01*
X-37221Y18852D01*
X-37265Y18941D01*
X-37305Y19032D01*
X-37342Y19124D01*
X-37375Y19218D01*
X-37404Y19313D01*
X-37429Y19409D01*
X-37451Y19506D01*
X-37468Y19604D01*
X-37482Y19702D01*
X-37492Y19801D01*
X-37498Y19901D01*
X-37500Y20000D01*
X412500Y75000D02*
X412502Y75099D01*
X412508Y75199D01*
X412518Y75298D01*
X412532Y75396D01*
X412549Y75494D01*
X412571Y75591D01*
X412596Y75687D01*
X412625Y75782D01*
X412658Y75876D01*
X412695Y75968D01*
X412735Y76059D01*
X412779Y76148D01*
X412827Y76236D01*
X412878Y76321D01*
X412932Y76404D01*
X412989Y76486D01*
X413050Y76564D01*
X413114Y76641D01*
X413180Y76714D01*
X413250Y76785D01*
X413322Y76853D01*
X413397Y76919D01*
X413475Y76981D01*
X413555Y77040D01*
X413637Y77096D01*
X413721Y77148D01*
X413808Y77197D01*
X413896Y77243D01*
X413986Y77285D01*
X414078Y77324D01*
X414171Y77359D01*
X414265Y77390D01*
X414361Y77417D01*
X414458Y77440D01*
X414555Y77460D01*
X414653Y77476D01*
X414752Y77488D01*
X414851Y77496D01*
X414950Y77500D01*
X415050Y77500D01*
X415149Y77496D01*
X415248Y77488D01*
X415347Y77476D01*
X415445Y77460D01*
X415542Y77440D01*
X415639Y77417D01*
X415735Y77390D01*
X415829Y77359D01*
X415922Y77324D01*
X416014Y77285D01*
X416104Y77243D01*
X416192Y77197D01*
X416279Y77148D01*
X416363Y77096D01*
X416445Y77040D01*
X416525Y76981D01*
X416603Y76919D01*
X416678Y76853D01*
X416750Y76785D01*
X416820Y76714D01*
X416886Y76641D01*
X416950Y76564D01*
X417011Y76486D01*
X417068Y76404D01*
X417122Y76321D01*
X417173Y76236D01*
X417221Y76148D01*
X417265Y76059D01*
X417305Y75968D01*
X417342Y75876D01*
X417375Y75782D01*
X417404Y75687D01*
X417429Y75591D01*
X417451Y75494D01*
X417468Y75396D01*
X417482Y75298D01*
X417492Y75199D01*
X417498Y75099D01*
X417500Y75000D01*
X417498Y74901D01*
X417492Y74801D01*
X417482Y74702D01*
X417468Y74604D01*
X417451Y74506D01*
X417429Y74409D01*
X417404Y74313D01*
X417375Y74218D01*
X417342Y74124D01*
X417305Y74032D01*
X417265Y73941D01*
X417221Y73852D01*
X417173Y73764D01*
X417122Y73679D01*
X417068Y73596D01*
X417011Y73514D01*
X416950Y73436D01*
X416886Y73359D01*
X416820Y73286D01*
X416750Y73215D01*
X416678Y73147D01*
X416603Y73081D01*
X416525Y73019D01*
X416445Y72960D01*
X416363Y72904D01*
X416279Y72852D01*
X416192Y72803D01*
X416104Y72757D01*
X416014Y72715D01*
X415922Y72676D01*
X415829Y72641D01*
X415735Y72610D01*
X415639Y72583D01*
X415542Y72560D01*
X415445Y72540D01*
X415347Y72524D01*
X415248Y72512D01*
X415149Y72504D01*
X415050Y72500D01*
X414950Y72500D01*
X414851Y72504D01*
X414752Y72512D01*
X414653Y72524D01*
X414555Y72540D01*
X414458Y72560D01*
X414361Y72583D01*
X414265Y72610D01*
X414171Y72641D01*
X414078Y72676D01*
X413986Y72715D01*
X413896Y72757D01*
X413808Y72803D01*
X413721Y72852D01*
X413637Y72904D01*
X413555Y72960D01*
X413475Y73019D01*
X413397Y73081D01*
X413322Y73147D01*
X413250Y73215D01*
X413180Y73286D01*
X413114Y73359D01*
X413050Y73436D01*
X412989Y73514D01*
X412932Y73596D01*
X412878Y73679D01*
X412827Y73764D01*
X412779Y73852D01*
X412735Y73941D01*
X412695Y74032D01*
X412658Y74124D01*
X412625Y74218D01*
X412596Y74313D01*
X412571Y74409D01*
X412549Y74506D01*
X412532Y74604D01*
X412518Y74702D01*
X412508Y74801D01*
X412502Y74901D01*
X412500Y75000D01*
X-37500Y355000D02*
X-37498Y355099D01*
X-37492Y355199D01*
X-37482Y355298D01*
X-37468Y355396D01*
X-37451Y355494D01*
X-37429Y355591D01*
X-37404Y355687D01*
X-37375Y355782D01*
X-37342Y355876D01*
X-37305Y355968D01*
X-37265Y356059D01*
X-37221Y356148D01*
X-37173Y356236D01*
X-37122Y356321D01*
X-37068Y356404D01*
X-37011Y356486D01*
X-36950Y356564D01*
X-36886Y356641D01*
X-36820Y356714D01*
X-36750Y356785D01*
X-36678Y356853D01*
X-36603Y356919D01*
X-36525Y356981D01*
X-36445Y357040D01*
X-36363Y357096D01*
X-36279Y357148D01*
X-36192Y357197D01*
X-36104Y357243D01*
X-36014Y357285D01*
X-35922Y357324D01*
X-35829Y357359D01*
X-35735Y357390D01*
X-35639Y357417D01*
X-35542Y357440D01*
X-35445Y357460D01*
X-35347Y357476D01*
X-35248Y357488D01*
X-35149Y357496D01*
X-35050Y357500D01*
X-34950Y357500D01*
X-34851Y357496D01*
X-34752Y357488D01*
X-34653Y357476D01*
X-34555Y357460D01*
X-34458Y357440D01*
X-34361Y357417D01*
X-34265Y357390D01*
X-34171Y357359D01*
X-34078Y357324D01*
X-33986Y357285D01*
X-33896Y357243D01*
X-33808Y357197D01*
X-33721Y357148D01*
X-33637Y357096D01*
X-33555Y357040D01*
X-33475Y356981D01*
X-33397Y356919D01*
X-33322Y356853D01*
X-33250Y356785D01*
X-33180Y356714D01*
X-33114Y356641D01*
X-33050Y356564D01*
X-32989Y356486D01*
X-32932Y356404D01*
X-32878Y356321D01*
X-32827Y356236D01*
X-32779Y356148D01*
X-32735Y356059D01*
X-32695Y355968D01*
X-32658Y355876D01*
X-32625Y355782D01*
X-32596Y355687D01*
X-32571Y355591D01*
X-32549Y355494D01*
X-32532Y355396D01*
X-32518Y355298D01*
X-32508Y355199D01*
X-32502Y355099D01*
X-32500Y355000D01*
X-32502Y354901D01*
X-32508Y354801D01*
X-32518Y354702D01*
X-32532Y354604D01*
X-32549Y354506D01*
X-32571Y354409D01*
X-32596Y354313D01*
X-32625Y354218D01*
X-32658Y354124D01*
X-32695Y354032D01*
X-32735Y353941D01*
X-32779Y353852D01*
X-32827Y353764D01*
X-32878Y353679D01*
X-32932Y353596D01*
X-32989Y353514D01*
X-33050Y353436D01*
X-33114Y353359D01*
X-33180Y353286D01*
X-33250Y353215D01*
X-33322Y353147D01*
X-33397Y353081D01*
X-33475Y353019D01*
X-33555Y352960D01*
X-33637Y352904D01*
X-33721Y352852D01*
X-33808Y352803D01*
X-33896Y352757D01*
X-33986Y352715D01*
X-34078Y352676D01*
X-34171Y352641D01*
X-34265Y352610D01*
X-34361Y352583D01*
X-34458Y352560D01*
X-34555Y352540D01*
X-34653Y352524D01*
X-34752Y352512D01*
X-34851Y352504D01*
X-34950Y352500D01*
X-35050Y352500D01*
X-35149Y352504D01*
X-35248Y352512D01*
X-35347Y352524D01*
X-35445Y352540D01*
X-35542Y352560D01*
X-35639Y352583D01*
X-35735Y352610D01*
X-35829Y352641D01*
X-35922Y352676D01*
X-36014Y352715D01*
X-36104Y352757D01*
X-36192Y352803D01*
X-36279Y352852D01*
X-36363Y352904D01*
X-36445Y352960D01*
X-36525Y353019D01*
X-36603Y353081D01*
X-36678Y353147D01*
X-36750Y353215D01*
X-36820Y353286D01*
X-36886Y353359D01*
X-36950Y353436D01*
X-37011Y353514D01*
X-37068Y353596D01*
X-37122Y353679D01*
X-37173Y353764D01*
X-37221Y353852D01*
X-37265Y353941D01*
X-37305Y354032D01*
X-37342Y354124D01*
X-37375Y354218D01*
X-37404Y354313D01*
X-37429Y354409D01*
X-37451Y354506D01*
X-37468Y354604D01*
X-37482Y354702D01*
X-37492Y354801D01*
X-37498Y354901D01*
X-37500Y355000D01*
D19*
X13000Y10000D03*
D20*
X24000Y15000D02*
X25500Y15000D01*
X29500Y9500D02*
X29500Y0D01*
X29500Y9500D02*
X29498Y9646D01*
X29492Y9793D01*
X29482Y9939D01*
X29469Y10085D01*
X29451Y10230D01*
X29430Y10375D01*
X29405Y10519D01*
X29376Y10663D01*
X29343Y10805D01*
X29306Y10947D01*
X29266Y11088D01*
X29222Y11227D01*
X29174Y11366D01*
X29122Y11503D01*
X29067Y11639D01*
X29008Y11773D01*
X28946Y11905D01*
X28880Y12036D01*
X28811Y12165D01*
X28739Y12292D01*
X28663Y12417D01*
X28583Y12540D01*
X28501Y12661D01*
X28415Y12780D01*
X28326Y12896D01*
X28234Y13010D01*
X28139Y13122D01*
X28041Y13231D01*
X27941Y13337D01*
X27837Y13441D01*
X27731Y13541D01*
X27622Y13639D01*
X27510Y13734D01*
X27396Y13826D01*
X27280Y13915D01*
X27161Y14001D01*
X27040Y14083D01*
X26917Y14163D01*
X26792Y14239D01*
X26665Y14311D01*
X26536Y14380D01*
X26405Y14446D01*
X26273Y14508D01*
X26139Y14567D01*
X26003Y14622D01*
X25866Y14674D01*
X25727Y14722D01*
X25588Y14766D01*
X25447Y14806D01*
X25305Y14843D01*
X25163Y14876D01*
X25019Y14905D01*
X24875Y14930D01*
X24730Y14951D01*
X24585Y14969D01*
X24439Y14982D01*
X24293Y14992D01*
X24146Y14998D01*
X24000Y15000D01*
X25500Y15000D02*
X18000Y15000D01*
X17860Y14998D01*
X17720Y14992D01*
X17580Y14982D01*
X17440Y14969D01*
X17301Y14951D01*
X17162Y14929D01*
X17025Y14904D01*
X16887Y14875D01*
X16751Y14842D01*
X16616Y14805D01*
X16482Y14764D01*
X16349Y14719D01*
X16217Y14671D01*
X16087Y14619D01*
X15958Y14564D01*
X15831Y14505D01*
X15705Y14442D01*
X15581Y14376D01*
X15460Y14307D01*
X15340Y14234D01*
X15222Y14157D01*
X15107Y14078D01*
X14993Y13995D01*
X14883Y13909D01*
X14774Y13820D01*
X14668Y13728D01*
X14565Y13633D01*
X14464Y13536D01*
X14367Y13435D01*
X14272Y13332D01*
X14180Y13226D01*
X14091Y13117D01*
X14005Y13007D01*
X13922Y12893D01*
X13843Y12778D01*
X13766Y12660D01*
X13693Y12540D01*
X13624Y12419D01*
X13558Y12295D01*
X13495Y12169D01*
X13436Y12042D01*
X13381Y11913D01*
X13329Y11783D01*
X13281Y11651D01*
X13236Y11518D01*
X13195Y11384D01*
X13158Y11249D01*
X13125Y11113D01*
X13096Y10975D01*
X13071Y10838D01*
X13049Y10699D01*
X13031Y10560D01*
X13018Y10420D01*
X13008Y10280D01*
X13002Y10140D01*
X13000Y10000D01*
D19*
X15408Y22300D03*
X24500Y6000D03*
X3100Y14206D03*
X35300Y22200D03*
X19500Y34800D03*
X13100Y34800D03*
X38484Y10500D03*
X34500Y6000D03*
X35000Y28500D03*
X31300Y34900D03*
X4624Y30708D03*
X7608Y34454D03*
X44300Y33900D03*
X19500Y10000D03*
X12008Y4492D03*
X43754Y12738D03*
X38300Y34900D03*
X123000Y10000D03*
D20*
X134000Y15000D02*
X135500Y15000D01*
X139500Y9500D02*
X139500Y0D01*
X139500Y9500D02*
X139498Y9646D01*
X139492Y9793D01*
X139482Y9939D01*
X139469Y10085D01*
X139451Y10230D01*
X139430Y10375D01*
X139405Y10519D01*
X139376Y10663D01*
X139343Y10805D01*
X139306Y10947D01*
X139266Y11088D01*
X139222Y11227D01*
X139174Y11366D01*
X139122Y11503D01*
X139067Y11639D01*
X139008Y11773D01*
X138946Y11905D01*
X138880Y12036D01*
X138811Y12165D01*
X138739Y12292D01*
X138663Y12417D01*
X138583Y12540D01*
X138501Y12661D01*
X138415Y12780D01*
X138326Y12896D01*
X138234Y13010D01*
X138139Y13122D01*
X138041Y13231D01*
X137941Y13337D01*
X137837Y13441D01*
X137731Y13541D01*
X137622Y13639D01*
X137510Y13734D01*
X137396Y13826D01*
X137280Y13915D01*
X137161Y14001D01*
X137040Y14083D01*
X136917Y14163D01*
X136792Y14239D01*
X136665Y14311D01*
X136536Y14380D01*
X136405Y14446D01*
X136273Y14508D01*
X136139Y14567D01*
X136003Y14622D01*
X135866Y14674D01*
X135727Y14722D01*
X135588Y14766D01*
X135447Y14806D01*
X135305Y14843D01*
X135163Y14876D01*
X135019Y14905D01*
X134875Y14930D01*
X134730Y14951D01*
X134585Y14969D01*
X134439Y14982D01*
X134293Y14992D01*
X134146Y14998D01*
X134000Y15000D01*
X135500Y15000D02*
X128000Y15000D01*
X127860Y14998D01*
X127720Y14992D01*
X127580Y14982D01*
X127440Y14969D01*
X127301Y14951D01*
X127162Y14929D01*
X127025Y14904D01*
X126887Y14875D01*
X126751Y14842D01*
X126616Y14805D01*
X126482Y14764D01*
X126349Y14719D01*
X126217Y14671D01*
X126087Y14619D01*
X125958Y14564D01*
X125831Y14505D01*
X125705Y14442D01*
X125581Y14376D01*
X125460Y14307D01*
X125340Y14234D01*
X125222Y14157D01*
X125107Y14078D01*
X124993Y13995D01*
X124883Y13909D01*
X124774Y13820D01*
X124668Y13728D01*
X124565Y13633D01*
X124464Y13536D01*
X124367Y13435D01*
X124272Y13332D01*
X124180Y13226D01*
X124091Y13117D01*
X124005Y13007D01*
X123922Y12893D01*
X123843Y12778D01*
X123766Y12660D01*
X123693Y12540D01*
X123624Y12419D01*
X123558Y12295D01*
X123495Y12169D01*
X123436Y12042D01*
X123381Y11913D01*
X123329Y11783D01*
X123281Y11651D01*
X123236Y11518D01*
X123195Y11384D01*
X123158Y11249D01*
X123125Y11113D01*
X123096Y10975D01*
X123071Y10838D01*
X123049Y10699D01*
X123031Y10560D01*
X123018Y10420D01*
X123008Y10280D01*
X123002Y10140D01*
X123000Y10000D01*
D19*
X125408Y22300D03*
X134500Y6000D03*
X113100Y14206D03*
X145300Y22200D03*
X129500Y34800D03*
X123100Y34800D03*
X148484Y10500D03*
X144500Y6000D03*
X145000Y28500D03*
X141300Y34900D03*
X114624Y30708D03*
X117608Y34454D03*
X154300Y33900D03*
X129500Y10000D03*
X122008Y4492D03*
X153754Y12738D03*
X148300Y34900D03*
X233000Y10000D03*
D20*
X244000Y15000D02*
X245500Y15000D01*
X249500Y9500D02*
X249500Y0D01*
X249500Y9500D02*
X249498Y9646D01*
X249492Y9793D01*
X249482Y9939D01*
X249469Y10085D01*
X249451Y10230D01*
X249430Y10375D01*
X249405Y10519D01*
X249376Y10663D01*
X249343Y10805D01*
X249306Y10947D01*
X249266Y11088D01*
X249222Y11227D01*
X249174Y11366D01*
X249122Y11503D01*
X249067Y11639D01*
X249008Y11773D01*
X248946Y11905D01*
X248880Y12036D01*
X248811Y12165D01*
X248739Y12292D01*
X248663Y12417D01*
X248583Y12540D01*
X248501Y12661D01*
X248415Y12780D01*
X248326Y12896D01*
X248234Y13010D01*
X248139Y13122D01*
X248041Y13231D01*
X247941Y13337D01*
X247837Y13441D01*
X247731Y13541D01*
X247622Y13639D01*
X247510Y13734D01*
X247396Y13826D01*
X247280Y13915D01*
X247161Y14001D01*
X247040Y14083D01*
X246917Y14163D01*
X246792Y14239D01*
X246665Y14311D01*
X246536Y14380D01*
X246405Y14446D01*
X246273Y14508D01*
X246139Y14567D01*
X246003Y14622D01*
X245866Y14674D01*
X245727Y14722D01*
X245588Y14766D01*
X245447Y14806D01*
X245305Y14843D01*
X245163Y14876D01*
X245019Y14905D01*
X244875Y14930D01*
X244730Y14951D01*
X244585Y14969D01*
X244439Y14982D01*
X244293Y14992D01*
X244146Y14998D01*
X244000Y15000D01*
X245500Y15000D02*
X238000Y15000D01*
X237860Y14998D01*
X237720Y14992D01*
X237580Y14982D01*
X237440Y14969D01*
X237301Y14951D01*
X237162Y14929D01*
X237025Y14904D01*
X236887Y14875D01*
X236751Y14842D01*
X236616Y14805D01*
X236482Y14764D01*
X236349Y14719D01*
X236217Y14671D01*
X236087Y14619D01*
X235958Y14564D01*
X235831Y14505D01*
X235705Y14442D01*
X235581Y14376D01*
X235460Y14307D01*
X235340Y14234D01*
X235222Y14157D01*
X235107Y14078D01*
X234993Y13995D01*
X234883Y13909D01*
X234774Y13820D01*
X234668Y13728D01*
X234565Y13633D01*
X234464Y13536D01*
X234367Y13435D01*
X234272Y13332D01*
X234180Y13226D01*
X234091Y13117D01*
X234005Y13007D01*
X233922Y12893D01*
X233843Y12778D01*
X233766Y12660D01*
X233693Y12540D01*
X233624Y12419D01*
X233558Y12295D01*
X233495Y12169D01*
X233436Y12042D01*
X233381Y11913D01*
X233329Y11783D01*
X233281Y11651D01*
X233236Y11518D01*
X233195Y11384D01*
X233158Y11249D01*
X233125Y11113D01*
X233096Y10975D01*
X233071Y10838D01*
X233049Y10699D01*
X233031Y10560D01*
X233018Y10420D01*
X233008Y10280D01*
X233002Y10140D01*
X233000Y10000D01*
D19*
X235408Y22300D03*
X244500Y6000D03*
X223100Y14206D03*
X255300Y22200D03*
X239500Y34800D03*
X233100Y34800D03*
X258484Y10500D03*
X254500Y6000D03*
X255000Y28500D03*
X251300Y34900D03*
X224624Y30708D03*
X227608Y34454D03*
X264300Y33900D03*
X239500Y10000D03*
X232008Y4492D03*
X263754Y12738D03*
X258300Y34900D03*
X343000Y10000D03*
D20*
X354000Y15000D02*
X355500Y15000D01*
X359500Y9500D02*
X359500Y0D01*
X359500Y9500D02*
X359498Y9646D01*
X359492Y9793D01*
X359482Y9939D01*
X359469Y10085D01*
X359451Y10230D01*
X359430Y10375D01*
X359405Y10519D01*
X359376Y10663D01*
X359343Y10805D01*
X359306Y10947D01*
X359266Y11088D01*
X359222Y11227D01*
X359174Y11366D01*
X359122Y11503D01*
X359067Y11639D01*
X359008Y11773D01*
X358946Y11905D01*
X358880Y12036D01*
X358811Y12165D01*
X358739Y12292D01*
X358663Y12417D01*
X358583Y12540D01*
X358501Y12661D01*
X358415Y12780D01*
X358326Y12896D01*
X358234Y13010D01*
X358139Y13122D01*
X358041Y13231D01*
X357941Y13337D01*
X357837Y13441D01*
X357731Y13541D01*
X357622Y13639D01*
X357510Y13734D01*
X357396Y13826D01*
X357280Y13915D01*
X357161Y14001D01*
X357040Y14083D01*
X356917Y14163D01*
X356792Y14239D01*
X356665Y14311D01*
X356536Y14380D01*
X356405Y14446D01*
X356273Y14508D01*
X356139Y14567D01*
X356003Y14622D01*
X355866Y14674D01*
X355727Y14722D01*
X355588Y14766D01*
X355447Y14806D01*
X355305Y14843D01*
X355163Y14876D01*
X355019Y14905D01*
X354875Y14930D01*
X354730Y14951D01*
X354585Y14969D01*
X354439Y14982D01*
X354293Y14992D01*
X354146Y14998D01*
X354000Y15000D01*
X355500Y15000D02*
X348000Y15000D01*
X347860Y14998D01*
X347720Y14992D01*
X347580Y14982D01*
X347440Y14969D01*
X347301Y14951D01*
X347162Y14929D01*
X347025Y14904D01*
X346887Y14875D01*
X346751Y14842D01*
X346616Y14805D01*
X346482Y14764D01*
X346349Y14719D01*
X346217Y14671D01*
X346087Y14619D01*
X345958Y14564D01*
X345831Y14505D01*
X345705Y14442D01*
X345581Y14376D01*
X345460Y14307D01*
X345340Y14234D01*
X345222Y14157D01*
X345107Y14078D01*
X344993Y13995D01*
X344883Y13909D01*
X344774Y13820D01*
X344668Y13728D01*
X344565Y13633D01*
X344464Y13536D01*
X344367Y13435D01*
X344272Y13332D01*
X344180Y13226D01*
X344091Y13117D01*
X344005Y13007D01*
X343922Y12893D01*
X343843Y12778D01*
X343766Y12660D01*
X343693Y12540D01*
X343624Y12419D01*
X343558Y12295D01*
X343495Y12169D01*
X343436Y12042D01*
X343381Y11913D01*
X343329Y11783D01*
X343281Y11651D01*
X343236Y11518D01*
X343195Y11384D01*
X343158Y11249D01*
X343125Y11113D01*
X343096Y10975D01*
X343071Y10838D01*
X343049Y10699D01*
X343031Y10560D01*
X343018Y10420D01*
X343008Y10280D01*
X343002Y10140D01*
X343000Y10000D01*
D19*
X345408Y22300D03*
X354500Y6000D03*
X333100Y14206D03*
X365300Y22200D03*
X349500Y34800D03*
X343100Y34800D03*
X368484Y10500D03*
X364500Y6000D03*
X365000Y28500D03*
X361300Y34900D03*
X334624Y30708D03*
X337608Y34454D03*
X374300Y33900D03*
X349500Y10000D03*
X342008Y4492D03*
X373754Y12738D03*
X368300Y34900D03*
X13000Y120000D03*
D20*
X24000Y125000D02*
X25500Y125000D01*
X29500Y119500D02*
X29500Y110000D01*
X29500Y119500D02*
X29498Y119646D01*
X29492Y119793D01*
X29482Y119939D01*
X29469Y120085D01*
X29451Y120230D01*
X29430Y120375D01*
X29405Y120519D01*
X29376Y120663D01*
X29343Y120805D01*
X29306Y120947D01*
X29266Y121088D01*
X29222Y121227D01*
X29174Y121366D01*
X29122Y121503D01*
X29067Y121639D01*
X29008Y121773D01*
X28946Y121905D01*
X28880Y122036D01*
X28811Y122165D01*
X28739Y122292D01*
X28663Y122417D01*
X28583Y122540D01*
X28501Y122661D01*
X28415Y122780D01*
X28326Y122896D01*
X28234Y123010D01*
X28139Y123122D01*
X28041Y123231D01*
X27941Y123337D01*
X27837Y123441D01*
X27731Y123541D01*
X27622Y123639D01*
X27510Y123734D01*
X27396Y123826D01*
X27280Y123915D01*
X27161Y124001D01*
X27040Y124083D01*
X26917Y124163D01*
X26792Y124239D01*
X26665Y124311D01*
X26536Y124380D01*
X26405Y124446D01*
X26273Y124508D01*
X26139Y124567D01*
X26003Y124622D01*
X25866Y124674D01*
X25727Y124722D01*
X25588Y124766D01*
X25447Y124806D01*
X25305Y124843D01*
X25163Y124876D01*
X25019Y124905D01*
X24875Y124930D01*
X24730Y124951D01*
X24585Y124969D01*
X24439Y124982D01*
X24293Y124992D01*
X24146Y124998D01*
X24000Y125000D01*
X25500Y125000D02*
X18000Y125000D01*
X17860Y124998D01*
X17720Y124992D01*
X17580Y124982D01*
X17440Y124969D01*
X17301Y124951D01*
X17162Y124929D01*
X17025Y124904D01*
X16887Y124875D01*
X16751Y124842D01*
X16616Y124805D01*
X16482Y124764D01*
X16349Y124719D01*
X16217Y124671D01*
X16087Y124619D01*
X15958Y124564D01*
X15831Y124505D01*
X15705Y124442D01*
X15581Y124376D01*
X15460Y124307D01*
X15340Y124234D01*
X15222Y124157D01*
X15107Y124078D01*
X14993Y123995D01*
X14883Y123909D01*
X14774Y123820D01*
X14668Y123728D01*
X14565Y123633D01*
X14464Y123536D01*
X14367Y123435D01*
X14272Y123332D01*
X14180Y123226D01*
X14091Y123117D01*
X14005Y123007D01*
X13922Y122893D01*
X13843Y122778D01*
X13766Y122660D01*
X13693Y122540D01*
X13624Y122419D01*
X13558Y122295D01*
X13495Y122169D01*
X13436Y122042D01*
X13381Y121913D01*
X13329Y121783D01*
X13281Y121651D01*
X13236Y121518D01*
X13195Y121384D01*
X13158Y121249D01*
X13125Y121113D01*
X13096Y120975D01*
X13071Y120838D01*
X13049Y120699D01*
X13031Y120560D01*
X13018Y120420D01*
X13008Y120280D01*
X13002Y120140D01*
X13000Y120000D01*
D19*
X15408Y132300D03*
X24500Y116000D03*
X3100Y124206D03*
X35300Y132200D03*
X19500Y144800D03*
X13100Y144800D03*
X38484Y120500D03*
X34500Y116000D03*
X35000Y138500D03*
X31300Y144900D03*
X4624Y140708D03*
X7608Y144454D03*
X44300Y143900D03*
X19500Y120000D03*
X12008Y114492D03*
X43754Y122738D03*
X38300Y144900D03*
X123000Y120000D03*
D20*
X134000Y125000D02*
X135500Y125000D01*
X139500Y119500D02*
X139500Y110000D01*
X139500Y119500D02*
X139498Y119646D01*
X139492Y119793D01*
X139482Y119939D01*
X139469Y120085D01*
X139451Y120230D01*
X139430Y120375D01*
X139405Y120519D01*
X139376Y120663D01*
X139343Y120805D01*
X139306Y120947D01*
X139266Y121088D01*
X139222Y121227D01*
X139174Y121366D01*
X139122Y121503D01*
X139067Y121639D01*
X139008Y121773D01*
X138946Y121905D01*
X138880Y122036D01*
X138811Y122165D01*
X138739Y122292D01*
X138663Y122417D01*
X138583Y122540D01*
X138501Y122661D01*
X138415Y122780D01*
X138326Y122896D01*
X138234Y123010D01*
X138139Y123122D01*
X138041Y123231D01*
X137941Y123337D01*
X137837Y123441D01*
X137731Y123541D01*
X137622Y123639D01*
X137510Y123734D01*
X137396Y123826D01*
X137280Y123915D01*
X137161Y124001D01*
X137040Y124083D01*
X136917Y124163D01*
X136792Y124239D01*
X136665Y124311D01*
X136536Y124380D01*
X136405Y124446D01*
X136273Y124508D01*
X136139Y124567D01*
X136003Y124622D01*
X135866Y124674D01*
X135727Y124722D01*
X135588Y124766D01*
X135447Y124806D01*
X135305Y124843D01*
X135163Y124876D01*
X135019Y124905D01*
X134875Y124930D01*
X134730Y124951D01*
X134585Y124969D01*
X134439Y124982D01*
X134293Y124992D01*
X134146Y124998D01*
X134000Y125000D01*
X135500Y125000D02*
X128000Y125000D01*
X127860Y124998D01*
X127720Y124992D01*
X127580Y124982D01*
X127440Y124969D01*
X127301Y124951D01*
X127162Y124929D01*
X127025Y124904D01*
X126887Y124875D01*
X126751Y124842D01*
X126616Y124805D01*
X126482Y124764D01*
X126349Y124719D01*
X126217Y124671D01*
X126087Y124619D01*
X125958Y124564D01*
X125831Y124505D01*
X125705Y124442D01*
X125581Y124376D01*
X125460Y124307D01*
X125340Y124234D01*
X125222Y124157D01*
X125107Y124078D01*
X124993Y123995D01*
X124883Y123909D01*
X124774Y123820D01*
X124668Y123728D01*
X124565Y123633D01*
X124464Y123536D01*
X124367Y123435D01*
X124272Y123332D01*
X124180Y123226D01*
X124091Y123117D01*
X124005Y123007D01*
X123922Y122893D01*
X123843Y122778D01*
X123766Y122660D01*
X123693Y122540D01*
X123624Y122419D01*
X123558Y122295D01*
X123495Y122169D01*
X123436Y122042D01*
X123381Y121913D01*
X123329Y121783D01*
X123281Y121651D01*
X123236Y121518D01*
X123195Y121384D01*
X123158Y121249D01*
X123125Y121113D01*
X123096Y120975D01*
X123071Y120838D01*
X123049Y120699D01*
X123031Y120560D01*
X123018Y120420D01*
X123008Y120280D01*
X123002Y120140D01*
X123000Y120000D01*
D19*
X125408Y132300D03*
X134500Y116000D03*
X113100Y124206D03*
X145300Y132200D03*
X129500Y144800D03*
X123100Y144800D03*
X148484Y120500D03*
X144500Y116000D03*
X145000Y138500D03*
X141300Y144900D03*
X114624Y140708D03*
X117608Y144454D03*
X154300Y143900D03*
X129500Y120000D03*
X122008Y114492D03*
X153754Y122738D03*
X148300Y144900D03*
X233000Y120000D03*
D20*
X244000Y125000D02*
X245500Y125000D01*
X249500Y119500D02*
X249500Y110000D01*
X249500Y119500D02*
X249498Y119646D01*
X249492Y119793D01*
X249482Y119939D01*
X249469Y120085D01*
X249451Y120230D01*
X249430Y120375D01*
X249405Y120519D01*
X249376Y120663D01*
X249343Y120805D01*
X249306Y120947D01*
X249266Y121088D01*
X249222Y121227D01*
X249174Y121366D01*
X249122Y121503D01*
X249067Y121639D01*
X249008Y121773D01*
X248946Y121905D01*
X248880Y122036D01*
X248811Y122165D01*
X248739Y122292D01*
X248663Y122417D01*
X248583Y122540D01*
X248501Y122661D01*
X248415Y122780D01*
X248326Y122896D01*
X248234Y123010D01*
X248139Y123122D01*
X248041Y123231D01*
X247941Y123337D01*
X247837Y123441D01*
X247731Y123541D01*
X247622Y123639D01*
X247510Y123734D01*
X247396Y123826D01*
X247280Y123915D01*
X247161Y124001D01*
X247040Y124083D01*
X246917Y124163D01*
X246792Y124239D01*
X246665Y124311D01*
X246536Y124380D01*
X246405Y124446D01*
X246273Y124508D01*
X246139Y124567D01*
X246003Y124622D01*
X245866Y124674D01*
X245727Y124722D01*
X245588Y124766D01*
X245447Y124806D01*
X245305Y124843D01*
X245163Y124876D01*
X245019Y124905D01*
X244875Y124930D01*
X244730Y124951D01*
X244585Y124969D01*
X244439Y124982D01*
X244293Y124992D01*
X244146Y124998D01*
X244000Y125000D01*
X245500Y125000D02*
X238000Y125000D01*
X237860Y124998D01*
X237720Y124992D01*
X237580Y124982D01*
X237440Y124969D01*
X237301Y124951D01*
X237162Y124929D01*
X237025Y124904D01*
X236887Y124875D01*
X236751Y124842D01*
X236616Y124805D01*
X236482Y124764D01*
X236349Y124719D01*
X236217Y124671D01*
X236087Y124619D01*
X235958Y124564D01*
X235831Y124505D01*
X235705Y124442D01*
X235581Y124376D01*
X235460Y124307D01*
X235340Y124234D01*
X235222Y124157D01*
X235107Y124078D01*
X234993Y123995D01*
X234883Y123909D01*
X234774Y123820D01*
X234668Y123728D01*
X234565Y123633D01*
X234464Y123536D01*
X234367Y123435D01*
X234272Y123332D01*
X234180Y123226D01*
X234091Y123117D01*
X234005Y123007D01*
X233922Y122893D01*
X233843Y122778D01*
X233766Y122660D01*
X233693Y122540D01*
X233624Y122419D01*
X233558Y122295D01*
X233495Y122169D01*
X233436Y122042D01*
X233381Y121913D01*
X233329Y121783D01*
X233281Y121651D01*
X233236Y121518D01*
X233195Y121384D01*
X233158Y121249D01*
X233125Y121113D01*
X233096Y120975D01*
X233071Y120838D01*
X233049Y120699D01*
X233031Y120560D01*
X233018Y120420D01*
X233008Y120280D01*
X233002Y120140D01*
X233000Y120000D01*
D19*
X235408Y132300D03*
X244500Y116000D03*
X223100Y124206D03*
X255300Y132200D03*
X239500Y144800D03*
X233100Y144800D03*
X258484Y120500D03*
X254500Y116000D03*
X255000Y138500D03*
X251300Y144900D03*
X224624Y140708D03*
X227608Y144454D03*
X264300Y143900D03*
X239500Y120000D03*
X232008Y114492D03*
X263754Y122738D03*
X258300Y144900D03*
X343000Y120000D03*
D20*
X354000Y125000D02*
X355500Y125000D01*
X359500Y119500D02*
X359500Y110000D01*
X359500Y119500D02*
X359498Y119646D01*
X359492Y119793D01*
X359482Y119939D01*
X359469Y120085D01*
X359451Y120230D01*
X359430Y120375D01*
X359405Y120519D01*
X359376Y120663D01*
X359343Y120805D01*
X359306Y120947D01*
X359266Y121088D01*
X359222Y121227D01*
X359174Y121366D01*
X359122Y121503D01*
X359067Y121639D01*
X359008Y121773D01*
X358946Y121905D01*
X358880Y122036D01*
X358811Y122165D01*
X358739Y122292D01*
X358663Y122417D01*
X358583Y122540D01*
X358501Y122661D01*
X358415Y122780D01*
X358326Y122896D01*
X358234Y123010D01*
X358139Y123122D01*
X358041Y123231D01*
X357941Y123337D01*
X357837Y123441D01*
X357731Y123541D01*
X357622Y123639D01*
X357510Y123734D01*
X357396Y123826D01*
X357280Y123915D01*
X357161Y124001D01*
X357040Y124083D01*
X356917Y124163D01*
X356792Y124239D01*
X356665Y124311D01*
X356536Y124380D01*
X356405Y124446D01*
X356273Y124508D01*
X356139Y124567D01*
X356003Y124622D01*
X355866Y124674D01*
X355727Y124722D01*
X355588Y124766D01*
X355447Y124806D01*
X355305Y124843D01*
X355163Y124876D01*
X355019Y124905D01*
X354875Y124930D01*
X354730Y124951D01*
X354585Y124969D01*
X354439Y124982D01*
X354293Y124992D01*
X354146Y124998D01*
X354000Y125000D01*
X355500Y125000D02*
X348000Y125000D01*
X347860Y124998D01*
X347720Y124992D01*
X347580Y124982D01*
X347440Y124969D01*
X347301Y124951D01*
X347162Y124929D01*
X347025Y124904D01*
X346887Y124875D01*
X346751Y124842D01*
X346616Y124805D01*
X346482Y124764D01*
X346349Y124719D01*
X346217Y124671D01*
X346087Y124619D01*
X345958Y124564D01*
X345831Y124505D01*
X345705Y124442D01*
X345581Y124376D01*
X345460Y124307D01*
X345340Y124234D01*
X345222Y124157D01*
X345107Y124078D01*
X344993Y123995D01*
X344883Y123909D01*
X344774Y123820D01*
X344668Y123728D01*
X344565Y123633D01*
X344464Y123536D01*
X344367Y123435D01*
X344272Y123332D01*
X344180Y123226D01*
X344091Y123117D01*
X344005Y123007D01*
X343922Y122893D01*
X343843Y122778D01*
X343766Y122660D01*
X343693Y122540D01*
X343624Y122419D01*
X343558Y122295D01*
X343495Y122169D01*
X343436Y122042D01*
X343381Y121913D01*
X343329Y121783D01*
X343281Y121651D01*
X343236Y121518D01*
X343195Y121384D01*
X343158Y121249D01*
X343125Y121113D01*
X343096Y120975D01*
X343071Y120838D01*
X343049Y120699D01*
X343031Y120560D01*
X343018Y120420D01*
X343008Y120280D01*
X343002Y120140D01*
X343000Y120000D01*
D19*
X345408Y132300D03*
X354500Y116000D03*
X333100Y124206D03*
X365300Y132200D03*
X349500Y144800D03*
X343100Y144800D03*
X368484Y120500D03*
X364500Y116000D03*
X365000Y138500D03*
X361300Y144900D03*
X334624Y140708D03*
X337608Y144454D03*
X374300Y143900D03*
X349500Y120000D03*
X342008Y114492D03*
X373754Y122738D03*
X368300Y144900D03*
X13000Y230000D03*
D20*
X24000Y235000D02*
X25500Y235000D01*
X29500Y229500D02*
X29500Y220000D01*
X29500Y229500D02*
X29498Y229646D01*
X29492Y229793D01*
X29482Y229939D01*
X29469Y230085D01*
X29451Y230230D01*
X29430Y230375D01*
X29405Y230519D01*
X29376Y230663D01*
X29343Y230805D01*
X29306Y230947D01*
X29266Y231088D01*
X29222Y231227D01*
X29174Y231366D01*
X29122Y231503D01*
X29067Y231639D01*
X29008Y231773D01*
X28946Y231905D01*
X28880Y232036D01*
X28811Y232165D01*
X28739Y232292D01*
X28663Y232417D01*
X28583Y232540D01*
X28501Y232661D01*
X28415Y232780D01*
X28326Y232896D01*
X28234Y233010D01*
X28139Y233122D01*
X28041Y233231D01*
X27941Y233337D01*
X27837Y233441D01*
X27731Y233541D01*
X27622Y233639D01*
X27510Y233734D01*
X27396Y233826D01*
X27280Y233915D01*
X27161Y234001D01*
X27040Y234083D01*
X26917Y234163D01*
X26792Y234239D01*
X26665Y234311D01*
X26536Y234380D01*
X26405Y234446D01*
X26273Y234508D01*
X26139Y234567D01*
X26003Y234622D01*
X25866Y234674D01*
X25727Y234722D01*
X25588Y234766D01*
X25447Y234806D01*
X25305Y234843D01*
X25163Y234876D01*
X25019Y234905D01*
X24875Y234930D01*
X24730Y234951D01*
X24585Y234969D01*
X24439Y234982D01*
X24293Y234992D01*
X24146Y234998D01*
X24000Y235000D01*
X25500Y235000D02*
X18000Y235000D01*
X17860Y234998D01*
X17720Y234992D01*
X17580Y234982D01*
X17440Y234969D01*
X17301Y234951D01*
X17162Y234929D01*
X17025Y234904D01*
X16887Y234875D01*
X16751Y234842D01*
X16616Y234805D01*
X16482Y234764D01*
X16349Y234719D01*
X16217Y234671D01*
X16087Y234619D01*
X15958Y234564D01*
X15831Y234505D01*
X15705Y234442D01*
X15581Y234376D01*
X15460Y234307D01*
X15340Y234234D01*
X15222Y234157D01*
X15107Y234078D01*
X14993Y233995D01*
X14883Y233909D01*
X14774Y233820D01*
X14668Y233728D01*
X14565Y233633D01*
X14464Y233536D01*
X14367Y233435D01*
X14272Y233332D01*
X14180Y233226D01*
X14091Y233117D01*
X14005Y233007D01*
X13922Y232893D01*
X13843Y232778D01*
X13766Y232660D01*
X13693Y232540D01*
X13624Y232419D01*
X13558Y232295D01*
X13495Y232169D01*
X13436Y232042D01*
X13381Y231913D01*
X13329Y231783D01*
X13281Y231651D01*
X13236Y231518D01*
X13195Y231384D01*
X13158Y231249D01*
X13125Y231113D01*
X13096Y230975D01*
X13071Y230838D01*
X13049Y230699D01*
X13031Y230560D01*
X13018Y230420D01*
X13008Y230280D01*
X13002Y230140D01*
X13000Y230000D01*
D19*
X15408Y242300D03*
X24500Y226000D03*
X3100Y234206D03*
X35300Y242200D03*
X19500Y254800D03*
X13100Y254800D03*
X38484Y230500D03*
X34500Y226000D03*
X35000Y248500D03*
X31300Y254900D03*
X4624Y250708D03*
X7608Y254454D03*
X44300Y253900D03*
X19500Y230000D03*
X12008Y224492D03*
X43754Y232738D03*
X38300Y254900D03*
X123000Y230000D03*
D20*
X134000Y235000D02*
X135500Y235000D01*
X139500Y229500D02*
X139500Y220000D01*
X139500Y229500D02*
X139498Y229646D01*
X139492Y229793D01*
X139482Y229939D01*
X139469Y230085D01*
X139451Y230230D01*
X139430Y230375D01*
X139405Y230519D01*
X139376Y230663D01*
X139343Y230805D01*
X139306Y230947D01*
X139266Y231088D01*
X139222Y231227D01*
X139174Y231366D01*
X139122Y231503D01*
X139067Y231639D01*
X139008Y231773D01*
X138946Y231905D01*
X138880Y232036D01*
X138811Y232165D01*
X138739Y232292D01*
X138663Y232417D01*
X138583Y232540D01*
X138501Y232661D01*
X138415Y232780D01*
X138326Y232896D01*
X138234Y233010D01*
X138139Y233122D01*
X138041Y233231D01*
X137941Y233337D01*
X137837Y233441D01*
X137731Y233541D01*
X137622Y233639D01*
X137510Y233734D01*
X137396Y233826D01*
X137280Y233915D01*
X137161Y234001D01*
X137040Y234083D01*
X136917Y234163D01*
X136792Y234239D01*
X136665Y234311D01*
X136536Y234380D01*
X136405Y234446D01*
X136273Y234508D01*
X136139Y234567D01*
X136003Y234622D01*
X135866Y234674D01*
X135727Y234722D01*
X135588Y234766D01*
X135447Y234806D01*
X135305Y234843D01*
X135163Y234876D01*
X135019Y234905D01*
X134875Y234930D01*
X134730Y234951D01*
X134585Y234969D01*
X134439Y234982D01*
X134293Y234992D01*
X134146Y234998D01*
X134000Y235000D01*
X135500Y235000D02*
X128000Y235000D01*
X127860Y234998D01*
X127720Y234992D01*
X127580Y234982D01*
X127440Y234969D01*
X127301Y234951D01*
X127162Y234929D01*
X127025Y234904D01*
X126887Y234875D01*
X126751Y234842D01*
X126616Y234805D01*
X126482Y234764D01*
X126349Y234719D01*
X126217Y234671D01*
X126087Y234619D01*
X125958Y234564D01*
X125831Y234505D01*
X125705Y234442D01*
X125581Y234376D01*
X125460Y234307D01*
X125340Y234234D01*
X125222Y234157D01*
X125107Y234078D01*
X124993Y233995D01*
X124883Y233909D01*
X124774Y233820D01*
X124668Y233728D01*
X124565Y233633D01*
X124464Y233536D01*
X124367Y233435D01*
X124272Y233332D01*
X124180Y233226D01*
X124091Y233117D01*
X124005Y233007D01*
X123922Y232893D01*
X123843Y232778D01*
X123766Y232660D01*
X123693Y232540D01*
X123624Y232419D01*
X123558Y232295D01*
X123495Y232169D01*
X123436Y232042D01*
X123381Y231913D01*
X123329Y231783D01*
X123281Y231651D01*
X123236Y231518D01*
X123195Y231384D01*
X123158Y231249D01*
X123125Y231113D01*
X123096Y230975D01*
X123071Y230838D01*
X123049Y230699D01*
X123031Y230560D01*
X123018Y230420D01*
X123008Y230280D01*
X123002Y230140D01*
X123000Y230000D01*
D19*
X125408Y242300D03*
X134500Y226000D03*
X113100Y234206D03*
X145300Y242200D03*
X129500Y254800D03*
X123100Y254800D03*
X148484Y230500D03*
X144500Y226000D03*
X145000Y248500D03*
X141300Y254900D03*
X114624Y250708D03*
X117608Y254454D03*
X154300Y253900D03*
X129500Y230000D03*
X122008Y224492D03*
X153754Y232738D03*
X148300Y254900D03*
X233000Y230000D03*
D20*
X244000Y235000D02*
X245500Y235000D01*
X249500Y229500D02*
X249500Y220000D01*
X249500Y229500D02*
X249498Y229646D01*
X249492Y229793D01*
X249482Y229939D01*
X249469Y230085D01*
X249451Y230230D01*
X249430Y230375D01*
X249405Y230519D01*
X249376Y230663D01*
X249343Y230805D01*
X249306Y230947D01*
X249266Y231088D01*
X249222Y231227D01*
X249174Y231366D01*
X249122Y231503D01*
X249067Y231639D01*
X249008Y231773D01*
X248946Y231905D01*
X248880Y232036D01*
X248811Y232165D01*
X248739Y232292D01*
X248663Y232417D01*
X248583Y232540D01*
X248501Y232661D01*
X248415Y232780D01*
X248326Y232896D01*
X248234Y233010D01*
X248139Y233122D01*
X248041Y233231D01*
X247941Y233337D01*
X247837Y233441D01*
X247731Y233541D01*
X247622Y233639D01*
X247510Y233734D01*
X247396Y233826D01*
X247280Y233915D01*
X247161Y234001D01*
X247040Y234083D01*
X246917Y234163D01*
X246792Y234239D01*
X246665Y234311D01*
X246536Y234380D01*
X246405Y234446D01*
X246273Y234508D01*
X246139Y234567D01*
X246003Y234622D01*
X245866Y234674D01*
X245727Y234722D01*
X245588Y234766D01*
X245447Y234806D01*
X245305Y234843D01*
X245163Y234876D01*
X245019Y234905D01*
X244875Y234930D01*
X244730Y234951D01*
X244585Y234969D01*
X244439Y234982D01*
X244293Y234992D01*
X244146Y234998D01*
X244000Y235000D01*
X245500Y235000D02*
X238000Y235000D01*
X237860Y234998D01*
X237720Y234992D01*
X237580Y234982D01*
X237440Y234969D01*
X237301Y234951D01*
X237162Y234929D01*
X237025Y234904D01*
X236887Y234875D01*
X236751Y234842D01*
X236616Y234805D01*
X236482Y234764D01*
X236349Y234719D01*
X236217Y234671D01*
X236087Y234619D01*
X235958Y234564D01*
X235831Y234505D01*
X235705Y234442D01*
X235581Y234376D01*
X235460Y234307D01*
X235340Y234234D01*
X235222Y234157D01*
X235107Y234078D01*
X234993Y233995D01*
X234883Y233909D01*
X234774Y233820D01*
X234668Y233728D01*
X234565Y233633D01*
X234464Y233536D01*
X234367Y233435D01*
X234272Y233332D01*
X234180Y233226D01*
X234091Y233117D01*
X234005Y233007D01*
X233922Y232893D01*
X233843Y232778D01*
X233766Y232660D01*
X233693Y232540D01*
X233624Y232419D01*
X233558Y232295D01*
X233495Y232169D01*
X233436Y232042D01*
X233381Y231913D01*
X233329Y231783D01*
X233281Y231651D01*
X233236Y231518D01*
X233195Y231384D01*
X233158Y231249D01*
X233125Y231113D01*
X233096Y230975D01*
X233071Y230838D01*
X233049Y230699D01*
X233031Y230560D01*
X233018Y230420D01*
X233008Y230280D01*
X233002Y230140D01*
X233000Y230000D01*
D19*
X235408Y242300D03*
X244500Y226000D03*
X223100Y234206D03*
X255300Y242200D03*
X239500Y254800D03*
X233100Y254800D03*
X258484Y230500D03*
X254500Y226000D03*
X255000Y248500D03*
X251300Y254900D03*
X224624Y250708D03*
X227608Y254454D03*
X264300Y253900D03*
X239500Y230000D03*
X232008Y224492D03*
X263754Y232738D03*
X258300Y254900D03*
X343000Y230000D03*
D20*
X354000Y235000D02*
X355500Y235000D01*
X359500Y229500D02*
X359500Y220000D01*
X359500Y229500D02*
X359498Y229646D01*
X359492Y229793D01*
X359482Y229939D01*
X359469Y230085D01*
X359451Y230230D01*
X359430Y230375D01*
X359405Y230519D01*
X359376Y230663D01*
X359343Y230805D01*
X359306Y230947D01*
X359266Y231088D01*
X359222Y231227D01*
X359174Y231366D01*
X359122Y231503D01*
X359067Y231639D01*
X359008Y231773D01*
X358946Y231905D01*
X358880Y232036D01*
X358811Y232165D01*
X358739Y232292D01*
X358663Y232417D01*
X358583Y232540D01*
X358501Y232661D01*
X358415Y232780D01*
X358326Y232896D01*
X358234Y233010D01*
X358139Y233122D01*
X358041Y233231D01*
X357941Y233337D01*
X357837Y233441D01*
X357731Y233541D01*
X357622Y233639D01*
X357510Y233734D01*
X357396Y233826D01*
X357280Y233915D01*
X357161Y234001D01*
X357040Y234083D01*
X356917Y234163D01*
X356792Y234239D01*
X356665Y234311D01*
X356536Y234380D01*
X356405Y234446D01*
X356273Y234508D01*
X356139Y234567D01*
X356003Y234622D01*
X355866Y234674D01*
X355727Y234722D01*
X355588Y234766D01*
X355447Y234806D01*
X355305Y234843D01*
X355163Y234876D01*
X355019Y234905D01*
X354875Y234930D01*
X354730Y234951D01*
X354585Y234969D01*
X354439Y234982D01*
X354293Y234992D01*
X354146Y234998D01*
X354000Y235000D01*
X355500Y235000D02*
X348000Y235000D01*
X347860Y234998D01*
X347720Y234992D01*
X347580Y234982D01*
X347440Y234969D01*
X347301Y234951D01*
X347162Y234929D01*
X347025Y234904D01*
X346887Y234875D01*
X346751Y234842D01*
X346616Y234805D01*
X346482Y234764D01*
X346349Y234719D01*
X346217Y234671D01*
X346087Y234619D01*
X345958Y234564D01*
X345831Y234505D01*
X345705Y234442D01*
X345581Y234376D01*
X345460Y234307D01*
X345340Y234234D01*
X345222Y234157D01*
X345107Y234078D01*
X344993Y233995D01*
X344883Y233909D01*
X344774Y233820D01*
X344668Y233728D01*
X344565Y233633D01*
X344464Y233536D01*
X344367Y233435D01*
X344272Y233332D01*
X344180Y233226D01*
X344091Y233117D01*
X344005Y233007D01*
X343922Y232893D01*
X343843Y232778D01*
X343766Y232660D01*
X343693Y232540D01*
X343624Y232419D01*
X343558Y232295D01*
X343495Y232169D01*
X343436Y232042D01*
X343381Y231913D01*
X343329Y231783D01*
X343281Y231651D01*
X343236Y231518D01*
X343195Y231384D01*
X343158Y231249D01*
X343125Y231113D01*
X343096Y230975D01*
X343071Y230838D01*
X343049Y230699D01*
X343031Y230560D01*
X343018Y230420D01*
X343008Y230280D01*
X343002Y230140D01*
X343000Y230000D01*
D19*
X345408Y242300D03*
X354500Y226000D03*
X333100Y234206D03*
X365300Y242200D03*
X349500Y254800D03*
X343100Y254800D03*
X368484Y230500D03*
X364500Y226000D03*
X365000Y248500D03*
X361300Y254900D03*
X334624Y250708D03*
X337608Y254454D03*
X374300Y253900D03*
X349500Y230000D03*
X342008Y224492D03*
X373754Y232738D03*
X368300Y254900D03*
X13000Y340000D03*
D20*
X24000Y345000D02*
X25500Y345000D01*
X29500Y339500D02*
X29500Y330000D01*
X29500Y339500D02*
X29498Y339646D01*
X29492Y339793D01*
X29482Y339939D01*
X29469Y340085D01*
X29451Y340230D01*
X29430Y340375D01*
X29405Y340519D01*
X29376Y340663D01*
X29343Y340805D01*
X29306Y340947D01*
X29266Y341088D01*
X29222Y341227D01*
X29174Y341366D01*
X29122Y341503D01*
X29067Y341639D01*
X29008Y341773D01*
X28946Y341905D01*
X28880Y342036D01*
X28811Y342165D01*
X28739Y342292D01*
X28663Y342417D01*
X28583Y342540D01*
X28501Y342661D01*
X28415Y342780D01*
X28326Y342896D01*
X28234Y343010D01*
X28139Y343122D01*
X28041Y343231D01*
X27941Y343337D01*
X27837Y343441D01*
X27731Y343541D01*
X27622Y343639D01*
X27510Y343734D01*
X27396Y343826D01*
X27280Y343915D01*
X27161Y344001D01*
X27040Y344083D01*
X26917Y344163D01*
X26792Y344239D01*
X26665Y344311D01*
X26536Y344380D01*
X26405Y344446D01*
X26273Y344508D01*
X26139Y344567D01*
X26003Y344622D01*
X25866Y344674D01*
X25727Y344722D01*
X25588Y344766D01*
X25447Y344806D01*
X25305Y344843D01*
X25163Y344876D01*
X25019Y344905D01*
X24875Y344930D01*
X24730Y344951D01*
X24585Y344969D01*
X24439Y344982D01*
X24293Y344992D01*
X24146Y344998D01*
X24000Y345000D01*
X25500Y345000D02*
X18000Y345000D01*
X17860Y344998D01*
X17720Y344992D01*
X17580Y344982D01*
X17440Y344969D01*
X17301Y344951D01*
X17162Y344929D01*
X17025Y344904D01*
X16887Y344875D01*
X16751Y344842D01*
X16616Y344805D01*
X16482Y344764D01*
X16349Y344719D01*
X16217Y344671D01*
X16087Y344619D01*
X15958Y344564D01*
X15831Y344505D01*
X15705Y344442D01*
X15581Y344376D01*
X15460Y344307D01*
X15340Y344234D01*
X15222Y344157D01*
X15107Y344078D01*
X14993Y343995D01*
X14883Y343909D01*
X14774Y343820D01*
X14668Y343728D01*
X14565Y343633D01*
X14464Y343536D01*
X14367Y343435D01*
X14272Y343332D01*
X14180Y343226D01*
X14091Y343117D01*
X14005Y343007D01*
X13922Y342893D01*
X13843Y342778D01*
X13766Y342660D01*
X13693Y342540D01*
X13624Y342419D01*
X13558Y342295D01*
X13495Y342169D01*
X13436Y342042D01*
X13381Y341913D01*
X13329Y341783D01*
X13281Y341651D01*
X13236Y341518D01*
X13195Y341384D01*
X13158Y341249D01*
X13125Y341113D01*
X13096Y340975D01*
X13071Y340838D01*
X13049Y340699D01*
X13031Y340560D01*
X13018Y340420D01*
X13008Y340280D01*
X13002Y340140D01*
X13000Y340000D01*
D19*
X15408Y352300D03*
X24500Y336000D03*
X3100Y344206D03*
X35300Y352200D03*
X19500Y364800D03*
X13100Y364800D03*
X38484Y340500D03*
X34500Y336000D03*
X35000Y358500D03*
X31300Y364900D03*
X4624Y360708D03*
X7608Y364454D03*
X44300Y363900D03*
X19500Y340000D03*
X12008Y334492D03*
X43754Y342738D03*
X38300Y364900D03*
X123000Y340000D03*
D20*
X134000Y345000D02*
X135500Y345000D01*
X139500Y339500D02*
X139500Y330000D01*
X139500Y339500D02*
X139498Y339646D01*
X139492Y339793D01*
X139482Y339939D01*
X139469Y340085D01*
X139451Y340230D01*
X139430Y340375D01*
X139405Y340519D01*
X139376Y340663D01*
X139343Y340805D01*
X139306Y340947D01*
X139266Y341088D01*
X139222Y341227D01*
X139174Y341366D01*
X139122Y341503D01*
X139067Y341639D01*
X139008Y341773D01*
X138946Y341905D01*
X138880Y342036D01*
X138811Y342165D01*
X138739Y342292D01*
X138663Y342417D01*
X138583Y342540D01*
X138501Y342661D01*
X138415Y342780D01*
X138326Y342896D01*
X138234Y343010D01*
X138139Y343122D01*
X138041Y343231D01*
X137941Y343337D01*
X137837Y343441D01*
X137731Y343541D01*
X137622Y343639D01*
X137510Y343734D01*
X137396Y343826D01*
X137280Y343915D01*
X137161Y344001D01*
X137040Y344083D01*
X136917Y344163D01*
X136792Y344239D01*
X136665Y344311D01*
X136536Y344380D01*
X136405Y344446D01*
X136273Y344508D01*
X136139Y344567D01*
X136003Y344622D01*
X135866Y344674D01*
X135727Y344722D01*
X135588Y344766D01*
X135447Y344806D01*
X135305Y344843D01*
X135163Y344876D01*
X135019Y344905D01*
X134875Y344930D01*
X134730Y344951D01*
X134585Y344969D01*
X134439Y344982D01*
X134293Y344992D01*
X134146Y344998D01*
X134000Y345000D01*
X135500Y345000D02*
X128000Y345000D01*
X127860Y344998D01*
X127720Y344992D01*
X127580Y344982D01*
X127440Y344969D01*
X127301Y344951D01*
X127162Y344929D01*
X127025Y344904D01*
X126887Y344875D01*
X126751Y344842D01*
X126616Y344805D01*
X126482Y344764D01*
X126349Y344719D01*
X126217Y344671D01*
X126087Y344619D01*
X125958Y344564D01*
X125831Y344505D01*
X125705Y344442D01*
X125581Y344376D01*
X125460Y344307D01*
X125340Y344234D01*
X125222Y344157D01*
X125107Y344078D01*
X124993Y343995D01*
X124883Y343909D01*
X124774Y343820D01*
X124668Y343728D01*
X124565Y343633D01*
X124464Y343536D01*
X124367Y343435D01*
X124272Y343332D01*
X124180Y343226D01*
X124091Y343117D01*
X124005Y343007D01*
X123922Y342893D01*
X123843Y342778D01*
X123766Y342660D01*
X123693Y342540D01*
X123624Y342419D01*
X123558Y342295D01*
X123495Y342169D01*
X123436Y342042D01*
X123381Y341913D01*
X123329Y341783D01*
X123281Y341651D01*
X123236Y341518D01*
X123195Y341384D01*
X123158Y341249D01*
X123125Y341113D01*
X123096Y340975D01*
X123071Y340838D01*
X123049Y340699D01*
X123031Y340560D01*
X123018Y340420D01*
X123008Y340280D01*
X123002Y340140D01*
X123000Y340000D01*
D19*
X125408Y352300D03*
X134500Y336000D03*
X113100Y344206D03*
X145300Y352200D03*
X129500Y364800D03*
X123100Y364800D03*
X148484Y340500D03*
X144500Y336000D03*
X145000Y358500D03*
X141300Y364900D03*
X114624Y360708D03*
X117608Y364454D03*
X154300Y363900D03*
X129500Y340000D03*
X122008Y334492D03*
X153754Y342738D03*
X148300Y364900D03*
X233000Y340000D03*
D20*
X244000Y345000D02*
X245500Y345000D01*
X249500Y339500D02*
X249500Y330000D01*
X249500Y339500D02*
X249498Y339646D01*
X249492Y339793D01*
X249482Y339939D01*
X249469Y340085D01*
X249451Y340230D01*
X249430Y340375D01*
X249405Y340519D01*
X249376Y340663D01*
X249343Y340805D01*
X249306Y340947D01*
X249266Y341088D01*
X249222Y341227D01*
X249174Y341366D01*
X249122Y341503D01*
X249067Y341639D01*
X249008Y341773D01*
X248946Y341905D01*
X248880Y342036D01*
X248811Y342165D01*
X248739Y342292D01*
X248663Y342417D01*
X248583Y342540D01*
X248501Y342661D01*
X248415Y342780D01*
X248326Y342896D01*
X248234Y343010D01*
X248139Y343122D01*
X248041Y343231D01*
X247941Y343337D01*
X247837Y343441D01*
X247731Y343541D01*
X247622Y343639D01*
X247510Y343734D01*
X247396Y343826D01*
X247280Y343915D01*
X247161Y344001D01*
X247040Y344083D01*
X246917Y344163D01*
X246792Y344239D01*
X246665Y344311D01*
X246536Y344380D01*
X246405Y344446D01*
X246273Y344508D01*
X246139Y344567D01*
X246003Y344622D01*
X245866Y344674D01*
X245727Y344722D01*
X245588Y344766D01*
X245447Y344806D01*
X245305Y344843D01*
X245163Y344876D01*
X245019Y344905D01*
X244875Y344930D01*
X244730Y344951D01*
X244585Y344969D01*
X244439Y344982D01*
X244293Y344992D01*
X244146Y344998D01*
X244000Y345000D01*
X245500Y345000D02*
X238000Y345000D01*
X237860Y344998D01*
X237720Y344992D01*
X237580Y344982D01*
X237440Y344969D01*
X237301Y344951D01*
X237162Y344929D01*
X237025Y344904D01*
X236887Y344875D01*
X236751Y344842D01*
X236616Y344805D01*
X236482Y344764D01*
X236349Y344719D01*
X236217Y344671D01*
X236087Y344619D01*
X235958Y344564D01*
X235831Y344505D01*
X235705Y344442D01*
X235581Y344376D01*
X235460Y344307D01*
X235340Y344234D01*
X235222Y344157D01*
X235107Y344078D01*
X234993Y343995D01*
X234883Y343909D01*
X234774Y343820D01*
X234668Y343728D01*
X234565Y343633D01*
X234464Y343536D01*
X234367Y343435D01*
X234272Y343332D01*
X234180Y343226D01*
X234091Y343117D01*
X234005Y343007D01*
X233922Y342893D01*
X233843Y342778D01*
X233766Y342660D01*
X233693Y342540D01*
X233624Y342419D01*
X233558Y342295D01*
X233495Y342169D01*
X233436Y342042D01*
X233381Y341913D01*
X233329Y341783D01*
X233281Y341651D01*
X233236Y341518D01*
X233195Y341384D01*
X233158Y341249D01*
X233125Y341113D01*
X233096Y340975D01*
X233071Y340838D01*
X233049Y340699D01*
X233031Y340560D01*
X233018Y340420D01*
X233008Y340280D01*
X233002Y340140D01*
X233000Y340000D01*
D19*
X235408Y352300D03*
X244500Y336000D03*
X223100Y344206D03*
X255300Y352200D03*
X239500Y364800D03*
X233100Y364800D03*
X258484Y340500D03*
X254500Y336000D03*
X255000Y358500D03*
X251300Y364900D03*
X224624Y360708D03*
X227608Y364454D03*
X264300Y363900D03*
X239500Y340000D03*
X232008Y334492D03*
X263754Y342738D03*
X258300Y364900D03*
X343000Y340000D03*
D20*
X354000Y345000D02*
X355500Y345000D01*
X359500Y339500D02*
X359500Y330000D01*
X359500Y339500D02*
X359498Y339646D01*
X359492Y339793D01*
X359482Y339939D01*
X359469Y340085D01*
X359451Y340230D01*
X359430Y340375D01*
X359405Y340519D01*
X359376Y340663D01*
X359343Y340805D01*
X359306Y340947D01*
X359266Y341088D01*
X359222Y341227D01*
X359174Y341366D01*
X359122Y341503D01*
X359067Y341639D01*
X359008Y341773D01*
X358946Y341905D01*
X358880Y342036D01*
X358811Y342165D01*
X358739Y342292D01*
X358663Y342417D01*
X358583Y342540D01*
X358501Y342661D01*
X358415Y342780D01*
X358326Y342896D01*
X358234Y343010D01*
X358139Y343122D01*
X358041Y343231D01*
X357941Y343337D01*
X357837Y343441D01*
X357731Y343541D01*
X357622Y343639D01*
X357510Y343734D01*
X357396Y343826D01*
X357280Y343915D01*
X357161Y344001D01*
X357040Y344083D01*
X356917Y344163D01*
X356792Y344239D01*
X356665Y344311D01*
X356536Y344380D01*
X356405Y344446D01*
X356273Y344508D01*
X356139Y344567D01*
X356003Y344622D01*
X355866Y344674D01*
X355727Y344722D01*
X355588Y344766D01*
X355447Y344806D01*
X355305Y344843D01*
X355163Y344876D01*
X355019Y344905D01*
X354875Y344930D01*
X354730Y344951D01*
X354585Y344969D01*
X354439Y344982D01*
X354293Y344992D01*
X354146Y344998D01*
X354000Y345000D01*
X355500Y345000D02*
X348000Y345000D01*
X347860Y344998D01*
X347720Y344992D01*
X347580Y344982D01*
X347440Y344969D01*
X347301Y344951D01*
X347162Y344929D01*
X347025Y344904D01*
X346887Y344875D01*
X346751Y344842D01*
X346616Y344805D01*
X346482Y344764D01*
X346349Y344719D01*
X346217Y344671D01*
X346087Y344619D01*
X345958Y344564D01*
X345831Y344505D01*
X345705Y344442D01*
X345581Y344376D01*
X345460Y344307D01*
X345340Y344234D01*
X345222Y344157D01*
X345107Y344078D01*
X344993Y343995D01*
X344883Y343909D01*
X344774Y343820D01*
X344668Y343728D01*
X344565Y343633D01*
X344464Y343536D01*
X344367Y343435D01*
X344272Y343332D01*
X344180Y343226D01*
X344091Y343117D01*
X344005Y343007D01*
X343922Y342893D01*
X343843Y342778D01*
X343766Y342660D01*
X343693Y342540D01*
X343624Y342419D01*
X343558Y342295D01*
X343495Y342169D01*
X343436Y342042D01*
X343381Y341913D01*
X343329Y341783D01*
X343281Y341651D01*
X343236Y341518D01*
X343195Y341384D01*
X343158Y341249D01*
X343125Y341113D01*
X343096Y340975D01*
X343071Y340838D01*
X343049Y340699D01*
X343031Y340560D01*
X343018Y340420D01*
X343008Y340280D01*
X343002Y340140D01*
X343000Y340000D01*
D19*
X345408Y352300D03*
X354500Y336000D03*
X333100Y344206D03*
X365300Y352200D03*
X349500Y364800D03*
X343100Y364800D03*
X368484Y340500D03*
X364500Y336000D03*
X365000Y358500D03*
X361300Y364900D03*
X334624Y360708D03*
X337608Y364454D03*
X374300Y363900D03*
X349500Y340000D03*
X342008Y334492D03*
X373754Y342738D03*
X368300Y364900D03*
M02*
