M48
;GenerationSoftware,Autodesk,EAGLE,9.5.1*%
;CreationDate,2022-12-05T21:48:30Z*%
FMAT,2
ICI,OFF
METRIC,TZ,000.000
T3C0.200
T2C0.400
T1C0.500
%
G90
M71
T1
X37250Y33000
X12750Y0
X23750Y22000
X550Y0
X1750Y0
X2950Y0
X4250Y0
X11550Y0
X13950Y0
X15250Y0
X22550Y0
X23750Y0
X24950Y0
X26250Y0
X33550Y0
X34750Y0
X35950Y0
X37250Y0
X550Y11000
X1750Y11000
X2950Y11000
X4250Y11000
X11550Y11000
X12750Y11000
X13950Y11000
X15250Y11000
X22550Y11000
X23750Y11000
X24950Y11000
X26250Y11000
X33550Y11000
X34750Y11000
X35950Y11000
X37250Y11000
X550Y22000
X1750Y22000
X2950Y22000
X4250Y22000
X11550Y22000
X12750Y22000
X13950Y22000
X15250Y22000
X22550Y22000
X24950Y22000
X26250Y22000
X33550Y22000
X34750Y22000
X35950Y22000
X37250Y22000
X550Y33000
X1750Y33000
X2950Y33000
X4250Y33000
X11550Y33000
X12750Y33000
X13950Y33000
X15250Y33000
X22550Y33000
X23750Y33000
X24950Y33000
X26250Y33000
X33550Y33000
X34750Y33000
X35950Y33000
T2
X13550Y28175
X10900Y25000
X10900Y24400
X10900Y23800
X16000Y25000
X16000Y24400
X16000Y23800
X24550Y28175
X21900Y25000
X21900Y24400
X21900Y23800
X27000Y25000
X27000Y24400
X27000Y23800
X35550Y28175
X32900Y25000
X32900Y24400
X32900Y23800
X38000Y25000
X38000Y24400
X38000Y23800
X2550Y39175
X-100Y36000
X-100Y35400
X35550Y6175
X5000Y36000
X5000Y35400
X5000Y34800
X13550Y39175
X10900Y36000
X10900Y35400
X10900Y34800
X16000Y36000
X16000Y35400
X16000Y34800
X24550Y39175
X21900Y36000
X21900Y35400
X21900Y34800
X27000Y36000
X27000Y35400
X27000Y34800
X35550Y39175
X32900Y36000
X32900Y35400
X32900Y34800
X38000Y36000
X38000Y35400
X38000Y34800
X-100Y2400
X2550Y6175
X-100Y3000
X-100Y1800
X5000Y3000
X5000Y2400
X5000Y1800
X13550Y6175
X10900Y3000
X10900Y2400
X10900Y1800
X16000Y3000
X16000Y2400
X16000Y1800
X24550Y6175
X21900Y3000
X21900Y2400
X21900Y1800
X27000Y3000
X27000Y2400
X27000Y1800
X32900Y3000
X32900Y2400
X32900Y1800
X38000Y3000
X38000Y2400
X38000Y1800
X2550Y17175
X-100Y14000
X-100Y13400
X-100Y12800
X5000Y14000
X5000Y13400
X5000Y12800
X13550Y17175
X10900Y14000
X10900Y13400
X10900Y12800
X16000Y14000
X16000Y13400
X-100Y34800
X16000Y12800
X24550Y17175
X21900Y14000
X21900Y13400
X21900Y12800
X27000Y14000
X27000Y13400
X27000Y12800
X35550Y17175
X32900Y14000
X32900Y13400
X32900Y12800
X38000Y14000
X38000Y13400
X38000Y12800
X2550Y28175
X-100Y25000
X-100Y24400
X5000Y25000
X5000Y24400
X5000Y23800
X-100Y23800
T3
X12950Y23000
X12201Y22449
X15375Y23274
X14830Y25490
X23300Y23000
X23541Y24230
X24450Y22600
X22310Y23421
X25530Y24220
X23950Y25480
X23310Y25480
X25848Y23050
X25450Y22600
X25500Y24850
X25130Y25490
X22462Y25071
X22761Y25445
X26430Y25390
X23950Y23000
X23201Y22449
X26375Y23274
X25830Y25490
X34300Y23000
X34541Y24230
X35450Y22600
X33310Y23421
X36530Y24220
X34950Y25480
X34310Y25480
X36848Y23050
X36450Y22600
X36500Y24850
X36130Y25490
X33462Y25071
X33761Y25445
X37430Y25390
X34950Y23000
X34201Y22449
X37375Y23274
X36830Y25490
X1300Y34000
X1541Y35230
X2450Y33600
X310Y34421
X3530Y35220
X1950Y36480
X1310Y36480
X3848Y34050
X3450Y33600
X3500Y35850
X3130Y36490
X462Y36071
X761Y36445
X4430Y36390
X1950Y34000
X1201Y33449
X36530Y2220
X3830Y36490
X12300Y34000
X12541Y35230
X13450Y33600
X11310Y34421
X14530Y35220
X12950Y36480
X12310Y36480
X14848Y34050
X14450Y33600
X14500Y35850
X14130Y36490
X11462Y36071
X11761Y36445
X15430Y36390
X12950Y34000
X12201Y33449
X15375Y34274
X14830Y36490
X23300Y34000
X23541Y35230
X24450Y33600
X22310Y34421
X25530Y35220
X23950Y36480
X23310Y36480
X25848Y34050
X25450Y33600
X25500Y35850
X25130Y36490
X22462Y36071
X22761Y36445
X26430Y36390
X23950Y34000
X23201Y33449
X26375Y34274
X25830Y36490
X34300Y34000
X34541Y35230
X35450Y33600
X33310Y34421
X36530Y35220
X34950Y36480
X34310Y36480
X36848Y34050
X36450Y33600
X36500Y35850
X36130Y36490
X33462Y36071
X33761Y36445
X37430Y36390
X34950Y34000
X34201Y33449
X37375Y34274
X36830Y36490
X1300Y1000
X1541Y2230
X4375Y34274
X2450Y600
X310Y1421
X3530Y2220
X1950Y3480
X1310Y3480
X3848Y1050
X3450Y600
X3500Y2850
X3130Y3490
X462Y3071
X761Y3445
X4430Y3390
X1950Y1000
X1201Y449
X4375Y1274
X3830Y3490
X12300Y1000
X12541Y2230
X13450Y600
X11310Y1421
X14530Y2220
X12950Y3480
X12310Y3480
X14848Y1050
X14450Y600
X14500Y2850
X14130Y3490
X11462Y3071
X11761Y3445
X15430Y3390
X12950Y1000
X12201Y449
X15375Y1274
X14830Y3490
X23300Y1000
X23541Y2230
X24450Y600
X22310Y1421
X25530Y2220
X23950Y3480
X23310Y3480
X25848Y1050
X25450Y600
X25500Y2850
X25130Y3490
X22462Y3071
X22761Y3445
X26430Y3390
X23950Y1000
X23201Y449
X26375Y1274
X25830Y3490
X34300Y1000
X34541Y2230
X35450Y600
X33310Y1421
X34950Y3480
X34310Y3480
X36848Y1050
X36450Y600
X36500Y2850
X36130Y3490
X33462Y3071
X33761Y3445
X37430Y3390
X34950Y1000
X34201Y449
X37375Y1274
X36830Y3490
X1300Y12000
X1541Y13230
X2450Y11600
X310Y12421
X3530Y13220
X1950Y14480
X1310Y14480
X3848Y12050
X3450Y11600
X3500Y13850
X3130Y14490
X462Y14071
X761Y14445
X4430Y14390
X1950Y12000
X1201Y11449
X4375Y12274
X3830Y14490
X12300Y12000
X12541Y13230
X13450Y11600
X11310Y12421
X14530Y13220
X12950Y14480
X12310Y14480
X14848Y12050
X14450Y11600
X14500Y13850
X14130Y14490
X11462Y14071
X11761Y14445
X15430Y14390
X12950Y12000
X12201Y11449
X15375Y12274
X14830Y14490
X23300Y12000
X23541Y13230
X24450Y11600
X22310Y12421
X25530Y13220
X23950Y14480
X23310Y14480
X25848Y12050
X25450Y11600
X11761Y25445
X25500Y13850
X25130Y14490
X22462Y14071
X22761Y14445
X26430Y14390
X23950Y12000
X23201Y11449
X26375Y12274
X25830Y14490
X34300Y12000
X34541Y13230
X35450Y11600
X33310Y12421
X36530Y13220
X34950Y14480
X34310Y14480
X36848Y12050
X36450Y11600
X36500Y13850
X36130Y14490
X33462Y14071
X33761Y14445
X37430Y14390
X34950Y12000
X34201Y11449
X37375Y12274
X36830Y14490
X1300Y23000
X1541Y24230
X2450Y22600
X310Y23421
X3530Y24220
X1950Y25480
X1310Y25480
X3848Y23050
X3450Y22600
X3500Y24850
X3130Y25490
X462Y25071
X761Y25445
X4430Y25390
X1950Y23000
X1201Y22449
X4375Y23274
X3830Y25490
X12300Y23000
X12541Y24230
X13450Y22600
X11310Y23421
X14530Y24220
X12950Y25480
X12310Y25480
X14848Y23050
X14450Y22600
X14500Y24850
X14130Y25490
X11462Y25071
X15430Y25390
M30