G04 EAGLE Gerber RS-274X export*
G75*
%MOMM*%
%FSLAX34Y34*%
%LPD*%
%INSilkscreen Bottom*%
%IPPOS*%
%AMOC8*
5,1,8,0,0,1.08239X$1,22.5*%
G01*
%ADD10C,0.500000*%


D10*
X-47748Y355000D02*
X-47744Y355313D01*
X-47733Y355626D01*
X-47713Y355938D01*
X-47687Y356250D01*
X-47652Y356560D01*
X-47610Y356871D01*
X-47560Y357179D01*
X-47503Y357487D01*
X-47438Y357793D01*
X-47366Y358098D01*
X-47286Y358400D01*
X-47199Y358701D01*
X-47105Y358999D01*
X-47003Y359295D01*
X-46894Y359588D01*
X-46778Y359878D01*
X-46654Y360166D01*
X-46524Y360450D01*
X-46387Y360732D01*
X-46243Y361009D01*
X-46092Y361283D01*
X-45934Y361554D01*
X-45770Y361820D01*
X-45600Y362082D01*
X-45423Y362340D01*
X-45239Y362594D01*
X-45050Y362843D01*
X-44854Y363087D01*
X-44653Y363327D01*
X-44446Y363561D01*
X-44233Y363790D01*
X-44014Y364014D01*
X-43790Y364233D01*
X-43561Y364446D01*
X-43327Y364653D01*
X-43087Y364854D01*
X-42843Y365050D01*
X-42594Y365239D01*
X-42340Y365423D01*
X-42082Y365600D01*
X-41820Y365770D01*
X-41554Y365934D01*
X-41283Y366092D01*
X-41009Y366243D01*
X-40732Y366387D01*
X-40450Y366524D01*
X-40166Y366654D01*
X-39878Y366778D01*
X-39588Y366894D01*
X-39295Y367003D01*
X-38999Y367105D01*
X-38701Y367199D01*
X-38400Y367286D01*
X-38098Y367366D01*
X-37793Y367438D01*
X-37487Y367503D01*
X-37179Y367560D01*
X-36871Y367610D01*
X-36560Y367652D01*
X-36250Y367687D01*
X-35938Y367713D01*
X-35626Y367733D01*
X-35313Y367744D01*
X-35000Y367748D01*
X-34687Y367744D01*
X-34374Y367733D01*
X-34062Y367713D01*
X-33750Y367687D01*
X-33440Y367652D01*
X-33129Y367610D01*
X-32821Y367560D01*
X-32513Y367503D01*
X-32207Y367438D01*
X-31902Y367366D01*
X-31600Y367286D01*
X-31299Y367199D01*
X-31001Y367105D01*
X-30705Y367003D01*
X-30412Y366894D01*
X-30122Y366778D01*
X-29834Y366654D01*
X-29550Y366524D01*
X-29268Y366387D01*
X-28991Y366243D01*
X-28717Y366092D01*
X-28446Y365934D01*
X-28180Y365770D01*
X-27918Y365600D01*
X-27660Y365423D01*
X-27406Y365239D01*
X-27157Y365050D01*
X-26913Y364854D01*
X-26673Y364653D01*
X-26439Y364446D01*
X-26210Y364233D01*
X-25986Y364014D01*
X-25767Y363790D01*
X-25554Y363561D01*
X-25347Y363327D01*
X-25146Y363087D01*
X-24950Y362843D01*
X-24761Y362594D01*
X-24577Y362340D01*
X-24400Y362082D01*
X-24230Y361820D01*
X-24066Y361554D01*
X-23908Y361283D01*
X-23757Y361009D01*
X-23613Y360732D01*
X-23476Y360450D01*
X-23346Y360166D01*
X-23222Y359878D01*
X-23106Y359588D01*
X-22997Y359295D01*
X-22895Y358999D01*
X-22801Y358701D01*
X-22714Y358400D01*
X-22634Y358098D01*
X-22562Y357793D01*
X-22497Y357487D01*
X-22440Y357179D01*
X-22390Y356871D01*
X-22348Y356560D01*
X-22313Y356250D01*
X-22287Y355938D01*
X-22267Y355626D01*
X-22256Y355313D01*
X-22252Y355000D01*
X-22256Y354687D01*
X-22267Y354374D01*
X-22287Y354062D01*
X-22313Y353750D01*
X-22348Y353440D01*
X-22390Y353129D01*
X-22440Y352821D01*
X-22497Y352513D01*
X-22562Y352207D01*
X-22634Y351902D01*
X-22714Y351600D01*
X-22801Y351299D01*
X-22895Y351001D01*
X-22997Y350705D01*
X-23106Y350412D01*
X-23222Y350122D01*
X-23346Y349834D01*
X-23476Y349550D01*
X-23613Y349268D01*
X-23757Y348991D01*
X-23908Y348717D01*
X-24066Y348446D01*
X-24230Y348180D01*
X-24400Y347918D01*
X-24577Y347660D01*
X-24761Y347406D01*
X-24950Y347157D01*
X-25146Y346913D01*
X-25347Y346673D01*
X-25554Y346439D01*
X-25767Y346210D01*
X-25986Y345986D01*
X-26210Y345767D01*
X-26439Y345554D01*
X-26673Y345347D01*
X-26913Y345146D01*
X-27157Y344950D01*
X-27406Y344761D01*
X-27660Y344577D01*
X-27918Y344400D01*
X-28180Y344230D01*
X-28446Y344066D01*
X-28717Y343908D01*
X-28991Y343757D01*
X-29268Y343613D01*
X-29550Y343476D01*
X-29834Y343346D01*
X-30122Y343222D01*
X-30412Y343106D01*
X-30705Y342997D01*
X-31001Y342895D01*
X-31299Y342801D01*
X-31600Y342714D01*
X-31902Y342634D01*
X-32207Y342562D01*
X-32513Y342497D01*
X-32821Y342440D01*
X-33129Y342390D01*
X-33440Y342348D01*
X-33750Y342313D01*
X-34062Y342287D01*
X-34374Y342267D01*
X-34687Y342256D01*
X-35000Y342252D01*
X-35313Y342256D01*
X-35626Y342267D01*
X-35938Y342287D01*
X-36250Y342313D01*
X-36560Y342348D01*
X-36871Y342390D01*
X-37179Y342440D01*
X-37487Y342497D01*
X-37793Y342562D01*
X-38098Y342634D01*
X-38400Y342714D01*
X-38701Y342801D01*
X-38999Y342895D01*
X-39295Y342997D01*
X-39588Y343106D01*
X-39878Y343222D01*
X-40166Y343346D01*
X-40450Y343476D01*
X-40732Y343613D01*
X-41009Y343757D01*
X-41283Y343908D01*
X-41554Y344066D01*
X-41820Y344230D01*
X-42082Y344400D01*
X-42340Y344577D01*
X-42594Y344761D01*
X-42843Y344950D01*
X-43087Y345146D01*
X-43327Y345347D01*
X-43561Y345554D01*
X-43790Y345767D01*
X-44014Y345986D01*
X-44233Y346210D01*
X-44446Y346439D01*
X-44653Y346673D01*
X-44854Y346913D01*
X-45050Y347157D01*
X-45239Y347406D01*
X-45423Y347660D01*
X-45600Y347918D01*
X-45770Y348180D01*
X-45934Y348446D01*
X-46092Y348717D01*
X-46243Y348991D01*
X-46387Y349268D01*
X-46524Y349550D01*
X-46654Y349834D01*
X-46778Y350122D01*
X-46894Y350412D01*
X-47003Y350705D01*
X-47105Y351001D01*
X-47199Y351299D01*
X-47286Y351600D01*
X-47366Y351902D01*
X-47438Y352207D01*
X-47503Y352513D01*
X-47560Y352821D01*
X-47610Y353129D01*
X-47652Y353440D01*
X-47687Y353750D01*
X-47713Y354062D01*
X-47733Y354374D01*
X-47744Y354687D01*
X-47748Y355000D01*
X-47748Y20000D02*
X-47744Y20313D01*
X-47733Y20626D01*
X-47713Y20938D01*
X-47687Y21250D01*
X-47652Y21560D01*
X-47610Y21871D01*
X-47560Y22179D01*
X-47503Y22487D01*
X-47438Y22793D01*
X-47366Y23098D01*
X-47286Y23400D01*
X-47199Y23701D01*
X-47105Y23999D01*
X-47003Y24295D01*
X-46894Y24588D01*
X-46778Y24878D01*
X-46654Y25166D01*
X-46524Y25450D01*
X-46387Y25732D01*
X-46243Y26009D01*
X-46092Y26283D01*
X-45934Y26554D01*
X-45770Y26820D01*
X-45600Y27082D01*
X-45423Y27340D01*
X-45239Y27594D01*
X-45050Y27843D01*
X-44854Y28087D01*
X-44653Y28327D01*
X-44446Y28561D01*
X-44233Y28790D01*
X-44014Y29014D01*
X-43790Y29233D01*
X-43561Y29446D01*
X-43327Y29653D01*
X-43087Y29854D01*
X-42843Y30050D01*
X-42594Y30239D01*
X-42340Y30423D01*
X-42082Y30600D01*
X-41820Y30770D01*
X-41554Y30934D01*
X-41283Y31092D01*
X-41009Y31243D01*
X-40732Y31387D01*
X-40450Y31524D01*
X-40166Y31654D01*
X-39878Y31778D01*
X-39588Y31894D01*
X-39295Y32003D01*
X-38999Y32105D01*
X-38701Y32199D01*
X-38400Y32286D01*
X-38098Y32366D01*
X-37793Y32438D01*
X-37487Y32503D01*
X-37179Y32560D01*
X-36871Y32610D01*
X-36560Y32652D01*
X-36250Y32687D01*
X-35938Y32713D01*
X-35626Y32733D01*
X-35313Y32744D01*
X-35000Y32748D01*
X-34687Y32744D01*
X-34374Y32733D01*
X-34062Y32713D01*
X-33750Y32687D01*
X-33440Y32652D01*
X-33129Y32610D01*
X-32821Y32560D01*
X-32513Y32503D01*
X-32207Y32438D01*
X-31902Y32366D01*
X-31600Y32286D01*
X-31299Y32199D01*
X-31001Y32105D01*
X-30705Y32003D01*
X-30412Y31894D01*
X-30122Y31778D01*
X-29834Y31654D01*
X-29550Y31524D01*
X-29268Y31387D01*
X-28991Y31243D01*
X-28717Y31092D01*
X-28446Y30934D01*
X-28180Y30770D01*
X-27918Y30600D01*
X-27660Y30423D01*
X-27406Y30239D01*
X-27157Y30050D01*
X-26913Y29854D01*
X-26673Y29653D01*
X-26439Y29446D01*
X-26210Y29233D01*
X-25986Y29014D01*
X-25767Y28790D01*
X-25554Y28561D01*
X-25347Y28327D01*
X-25146Y28087D01*
X-24950Y27843D01*
X-24761Y27594D01*
X-24577Y27340D01*
X-24400Y27082D01*
X-24230Y26820D01*
X-24066Y26554D01*
X-23908Y26283D01*
X-23757Y26009D01*
X-23613Y25732D01*
X-23476Y25450D01*
X-23346Y25166D01*
X-23222Y24878D01*
X-23106Y24588D01*
X-22997Y24295D01*
X-22895Y23999D01*
X-22801Y23701D01*
X-22714Y23400D01*
X-22634Y23098D01*
X-22562Y22793D01*
X-22497Y22487D01*
X-22440Y22179D01*
X-22390Y21871D01*
X-22348Y21560D01*
X-22313Y21250D01*
X-22287Y20938D01*
X-22267Y20626D01*
X-22256Y20313D01*
X-22252Y20000D01*
X-22256Y19687D01*
X-22267Y19374D01*
X-22287Y19062D01*
X-22313Y18750D01*
X-22348Y18440D01*
X-22390Y18129D01*
X-22440Y17821D01*
X-22497Y17513D01*
X-22562Y17207D01*
X-22634Y16902D01*
X-22714Y16600D01*
X-22801Y16299D01*
X-22895Y16001D01*
X-22997Y15705D01*
X-23106Y15412D01*
X-23222Y15122D01*
X-23346Y14834D01*
X-23476Y14550D01*
X-23613Y14268D01*
X-23757Y13991D01*
X-23908Y13717D01*
X-24066Y13446D01*
X-24230Y13180D01*
X-24400Y12918D01*
X-24577Y12660D01*
X-24761Y12406D01*
X-24950Y12157D01*
X-25146Y11913D01*
X-25347Y11673D01*
X-25554Y11439D01*
X-25767Y11210D01*
X-25986Y10986D01*
X-26210Y10767D01*
X-26439Y10554D01*
X-26673Y10347D01*
X-26913Y10146D01*
X-27157Y9950D01*
X-27406Y9761D01*
X-27660Y9577D01*
X-27918Y9400D01*
X-28180Y9230D01*
X-28446Y9066D01*
X-28717Y8908D01*
X-28991Y8757D01*
X-29268Y8613D01*
X-29550Y8476D01*
X-29834Y8346D01*
X-30122Y8222D01*
X-30412Y8106D01*
X-30705Y7997D01*
X-31001Y7895D01*
X-31299Y7801D01*
X-31600Y7714D01*
X-31902Y7634D01*
X-32207Y7562D01*
X-32513Y7497D01*
X-32821Y7440D01*
X-33129Y7390D01*
X-33440Y7348D01*
X-33750Y7313D01*
X-34062Y7287D01*
X-34374Y7267D01*
X-34687Y7256D01*
X-35000Y7252D01*
X-35313Y7256D01*
X-35626Y7267D01*
X-35938Y7287D01*
X-36250Y7313D01*
X-36560Y7348D01*
X-36871Y7390D01*
X-37179Y7440D01*
X-37487Y7497D01*
X-37793Y7562D01*
X-38098Y7634D01*
X-38400Y7714D01*
X-38701Y7801D01*
X-38999Y7895D01*
X-39295Y7997D01*
X-39588Y8106D01*
X-39878Y8222D01*
X-40166Y8346D01*
X-40450Y8476D01*
X-40732Y8613D01*
X-41009Y8757D01*
X-41283Y8908D01*
X-41554Y9066D01*
X-41820Y9230D01*
X-42082Y9400D01*
X-42340Y9577D01*
X-42594Y9761D01*
X-42843Y9950D01*
X-43087Y10146D01*
X-43327Y10347D01*
X-43561Y10554D01*
X-43790Y10767D01*
X-44014Y10986D01*
X-44233Y11210D01*
X-44446Y11439D01*
X-44653Y11673D01*
X-44854Y11913D01*
X-45050Y12157D01*
X-45239Y12406D01*
X-45423Y12660D01*
X-45600Y12918D01*
X-45770Y13180D01*
X-45934Y13446D01*
X-46092Y13717D01*
X-46243Y13991D01*
X-46387Y14268D01*
X-46524Y14550D01*
X-46654Y14834D01*
X-46778Y15122D01*
X-46894Y15412D01*
X-47003Y15705D01*
X-47105Y16001D01*
X-47199Y16299D01*
X-47286Y16600D01*
X-47366Y16902D01*
X-47438Y17207D01*
X-47503Y17513D01*
X-47560Y17821D01*
X-47610Y18129D01*
X-47652Y18440D01*
X-47687Y18750D01*
X-47713Y19062D01*
X-47733Y19374D01*
X-47744Y19687D01*
X-47748Y20000D01*
X402252Y75000D02*
X402256Y75313D01*
X402267Y75626D01*
X402287Y75938D01*
X402313Y76250D01*
X402348Y76560D01*
X402390Y76871D01*
X402440Y77179D01*
X402497Y77487D01*
X402562Y77793D01*
X402634Y78098D01*
X402714Y78400D01*
X402801Y78701D01*
X402895Y78999D01*
X402997Y79295D01*
X403106Y79588D01*
X403222Y79878D01*
X403346Y80166D01*
X403476Y80450D01*
X403613Y80732D01*
X403757Y81009D01*
X403908Y81283D01*
X404066Y81554D01*
X404230Y81820D01*
X404400Y82082D01*
X404577Y82340D01*
X404761Y82594D01*
X404950Y82843D01*
X405146Y83087D01*
X405347Y83327D01*
X405554Y83561D01*
X405767Y83790D01*
X405986Y84014D01*
X406210Y84233D01*
X406439Y84446D01*
X406673Y84653D01*
X406913Y84854D01*
X407157Y85050D01*
X407406Y85239D01*
X407660Y85423D01*
X407918Y85600D01*
X408180Y85770D01*
X408446Y85934D01*
X408717Y86092D01*
X408991Y86243D01*
X409268Y86387D01*
X409550Y86524D01*
X409834Y86654D01*
X410122Y86778D01*
X410412Y86894D01*
X410705Y87003D01*
X411001Y87105D01*
X411299Y87199D01*
X411600Y87286D01*
X411902Y87366D01*
X412207Y87438D01*
X412513Y87503D01*
X412821Y87560D01*
X413129Y87610D01*
X413440Y87652D01*
X413750Y87687D01*
X414062Y87713D01*
X414374Y87733D01*
X414687Y87744D01*
X415000Y87748D01*
X415313Y87744D01*
X415626Y87733D01*
X415938Y87713D01*
X416250Y87687D01*
X416560Y87652D01*
X416871Y87610D01*
X417179Y87560D01*
X417487Y87503D01*
X417793Y87438D01*
X418098Y87366D01*
X418400Y87286D01*
X418701Y87199D01*
X418999Y87105D01*
X419295Y87003D01*
X419588Y86894D01*
X419878Y86778D01*
X420166Y86654D01*
X420450Y86524D01*
X420732Y86387D01*
X421009Y86243D01*
X421283Y86092D01*
X421554Y85934D01*
X421820Y85770D01*
X422082Y85600D01*
X422340Y85423D01*
X422594Y85239D01*
X422843Y85050D01*
X423087Y84854D01*
X423327Y84653D01*
X423561Y84446D01*
X423790Y84233D01*
X424014Y84014D01*
X424233Y83790D01*
X424446Y83561D01*
X424653Y83327D01*
X424854Y83087D01*
X425050Y82843D01*
X425239Y82594D01*
X425423Y82340D01*
X425600Y82082D01*
X425770Y81820D01*
X425934Y81554D01*
X426092Y81283D01*
X426243Y81009D01*
X426387Y80732D01*
X426524Y80450D01*
X426654Y80166D01*
X426778Y79878D01*
X426894Y79588D01*
X427003Y79295D01*
X427105Y78999D01*
X427199Y78701D01*
X427286Y78400D01*
X427366Y78098D01*
X427438Y77793D01*
X427503Y77487D01*
X427560Y77179D01*
X427610Y76871D01*
X427652Y76560D01*
X427687Y76250D01*
X427713Y75938D01*
X427733Y75626D01*
X427744Y75313D01*
X427748Y75000D01*
X427744Y74687D01*
X427733Y74374D01*
X427713Y74062D01*
X427687Y73750D01*
X427652Y73440D01*
X427610Y73129D01*
X427560Y72821D01*
X427503Y72513D01*
X427438Y72207D01*
X427366Y71902D01*
X427286Y71600D01*
X427199Y71299D01*
X427105Y71001D01*
X427003Y70705D01*
X426894Y70412D01*
X426778Y70122D01*
X426654Y69834D01*
X426524Y69550D01*
X426387Y69268D01*
X426243Y68991D01*
X426092Y68717D01*
X425934Y68446D01*
X425770Y68180D01*
X425600Y67918D01*
X425423Y67660D01*
X425239Y67406D01*
X425050Y67157D01*
X424854Y66913D01*
X424653Y66673D01*
X424446Y66439D01*
X424233Y66210D01*
X424014Y65986D01*
X423790Y65767D01*
X423561Y65554D01*
X423327Y65347D01*
X423087Y65146D01*
X422843Y64950D01*
X422594Y64761D01*
X422340Y64577D01*
X422082Y64400D01*
X421820Y64230D01*
X421554Y64066D01*
X421283Y63908D01*
X421009Y63757D01*
X420732Y63613D01*
X420450Y63476D01*
X420166Y63346D01*
X419878Y63222D01*
X419588Y63106D01*
X419295Y62997D01*
X418999Y62895D01*
X418701Y62801D01*
X418400Y62714D01*
X418098Y62634D01*
X417793Y62562D01*
X417487Y62497D01*
X417179Y62440D01*
X416871Y62390D01*
X416560Y62348D01*
X416250Y62313D01*
X415938Y62287D01*
X415626Y62267D01*
X415313Y62256D01*
X415000Y62252D01*
X414687Y62256D01*
X414374Y62267D01*
X414062Y62287D01*
X413750Y62313D01*
X413440Y62348D01*
X413129Y62390D01*
X412821Y62440D01*
X412513Y62497D01*
X412207Y62562D01*
X411902Y62634D01*
X411600Y62714D01*
X411299Y62801D01*
X411001Y62895D01*
X410705Y62997D01*
X410412Y63106D01*
X410122Y63222D01*
X409834Y63346D01*
X409550Y63476D01*
X409268Y63613D01*
X408991Y63757D01*
X408717Y63908D01*
X408446Y64066D01*
X408180Y64230D01*
X407918Y64400D01*
X407660Y64577D01*
X407406Y64761D01*
X407157Y64950D01*
X406913Y65146D01*
X406673Y65347D01*
X406439Y65554D01*
X406210Y65767D01*
X405986Y65986D01*
X405767Y66210D01*
X405554Y66439D01*
X405347Y66673D01*
X405146Y66913D01*
X404950Y67157D01*
X404761Y67406D01*
X404577Y67660D01*
X404400Y67918D01*
X404230Y68180D01*
X404066Y68446D01*
X403908Y68717D01*
X403757Y68991D01*
X403613Y69268D01*
X403476Y69550D01*
X403346Y69834D01*
X403222Y70122D01*
X403106Y70412D01*
X402997Y70705D01*
X402895Y71001D01*
X402801Y71299D01*
X402714Y71600D01*
X402634Y71902D01*
X402562Y72207D01*
X402497Y72513D01*
X402440Y72821D01*
X402390Y73129D01*
X402348Y73440D01*
X402313Y73750D01*
X402287Y74062D01*
X402267Y74374D01*
X402256Y74687D01*
X402252Y75000D01*
M02*
