G04 EAGLE Gerber RS-274X export*
G75*
%MOMM*%
%FSLAX34Y34*%
%LPD*%
%INSoldermask Bottom*%
%IPPOS*%
%AMOC8*
5,1,8,0,0,1.08239X$1,22.5*%
G01*
%ADD10C,0.603200*%
%ADD11R,0.903200X1.503200*%
%ADD12R,0.503200X0.603200*%
%ADD13C,1.008000*%
%ADD14R,0.803200X0.553200*%
%ADD15C,0.500000*%


D10*
X25500Y61750D03*
X-1000Y30000D03*
X-1000Y24000D03*
X-1000Y18000D03*
X50000Y30000D03*
X50000Y24000D03*
X50000Y18000D03*
X135500Y61750D03*
X109000Y30000D03*
X109000Y24000D03*
X109000Y18000D03*
X160000Y30000D03*
X160000Y24000D03*
X160000Y18000D03*
X245500Y61750D03*
X219000Y30000D03*
X219000Y24000D03*
X219000Y18000D03*
X270000Y30000D03*
X270000Y24000D03*
X270000Y18000D03*
X355500Y61750D03*
X329000Y30000D03*
X329000Y24000D03*
X329000Y18000D03*
X380000Y30000D03*
X380000Y24000D03*
X380000Y18000D03*
X25500Y171750D03*
X-1000Y140000D03*
X-1000Y134000D03*
X-1000Y128000D03*
X50000Y140000D03*
X50000Y134000D03*
X50000Y128000D03*
X135500Y171750D03*
X109000Y140000D03*
X109000Y134000D03*
X109000Y128000D03*
X160000Y140000D03*
X160000Y134000D03*
X160000Y128000D03*
X245500Y171750D03*
X219000Y140000D03*
X219000Y134000D03*
X219000Y128000D03*
X270000Y140000D03*
X270000Y134000D03*
X270000Y128000D03*
X355500Y171750D03*
X329000Y140000D03*
X329000Y134000D03*
X329000Y128000D03*
X380000Y140000D03*
X380000Y134000D03*
X380000Y128000D03*
X25500Y281750D03*
X-1000Y250000D03*
X-1000Y244000D03*
X-1000Y238000D03*
X50000Y250000D03*
X50000Y244000D03*
X50000Y238000D03*
X135500Y281750D03*
X109000Y250000D03*
X109000Y244000D03*
X109000Y238000D03*
X160000Y250000D03*
X160000Y244000D03*
X160000Y238000D03*
X245500Y281750D03*
X219000Y250000D03*
X219000Y244000D03*
X219000Y238000D03*
X270000Y250000D03*
X270000Y244000D03*
X270000Y238000D03*
X355500Y281750D03*
X329000Y250000D03*
X329000Y244000D03*
X329000Y238000D03*
X380000Y250000D03*
X380000Y244000D03*
X380000Y238000D03*
X25500Y391750D03*
X-1000Y360000D03*
X-1000Y354000D03*
X-1000Y348000D03*
X50000Y360000D03*
X50000Y354000D03*
X50000Y348000D03*
X135500Y391750D03*
X109000Y360000D03*
X109000Y354000D03*
X109000Y348000D03*
X160000Y360000D03*
X160000Y354000D03*
X160000Y348000D03*
X245500Y391750D03*
X219000Y360000D03*
X219000Y354000D03*
X219000Y348000D03*
X270000Y360000D03*
X270000Y354000D03*
X270000Y348000D03*
X355500Y391750D03*
X329000Y360000D03*
X329000Y354000D03*
X329000Y348000D03*
X380000Y360000D03*
X380000Y354000D03*
X380000Y348000D03*
D11*
X42800Y24080D03*
X22800Y24080D03*
D12*
X12800Y9900D03*
X6800Y9900D03*
D13*
X5500Y0D03*
X17500Y0D03*
X29500Y0D03*
X42500Y0D03*
D14*
X15300Y21550D03*
X15300Y15050D03*
D11*
X152800Y24080D03*
X132800Y24080D03*
D12*
X122800Y9900D03*
X116800Y9900D03*
D13*
X115500Y0D03*
X127500Y0D03*
X139500Y0D03*
X152500Y0D03*
D14*
X125300Y21550D03*
X125300Y15050D03*
D11*
X262800Y24080D03*
X242800Y24080D03*
D12*
X232800Y9900D03*
X226800Y9900D03*
D13*
X225500Y0D03*
X237500Y0D03*
X249500Y0D03*
X262500Y0D03*
D14*
X235300Y21550D03*
X235300Y15050D03*
D11*
X372800Y24080D03*
X352800Y24080D03*
D12*
X342800Y9900D03*
X336800Y9900D03*
D13*
X335500Y0D03*
X347500Y0D03*
X359500Y0D03*
X372500Y0D03*
D14*
X345300Y21550D03*
X345300Y15050D03*
D11*
X42800Y134080D03*
X22800Y134080D03*
D12*
X12800Y119900D03*
X6800Y119900D03*
D13*
X5500Y110000D03*
X17500Y110000D03*
X29500Y110000D03*
X42500Y110000D03*
D14*
X15300Y131550D03*
X15300Y125050D03*
D11*
X152800Y134080D03*
X132800Y134080D03*
D12*
X122800Y119900D03*
X116800Y119900D03*
D13*
X115500Y110000D03*
X127500Y110000D03*
X139500Y110000D03*
X152500Y110000D03*
D14*
X125300Y131550D03*
X125300Y125050D03*
D11*
X262800Y134080D03*
X242800Y134080D03*
D12*
X232800Y119900D03*
X226800Y119900D03*
D13*
X225500Y110000D03*
X237500Y110000D03*
X249500Y110000D03*
X262500Y110000D03*
D14*
X235300Y131550D03*
X235300Y125050D03*
D11*
X372800Y134080D03*
X352800Y134080D03*
D12*
X342800Y119900D03*
X336800Y119900D03*
D13*
X335500Y110000D03*
X347500Y110000D03*
X359500Y110000D03*
X372500Y110000D03*
D14*
X345300Y131550D03*
X345300Y125050D03*
D11*
X42800Y244080D03*
X22800Y244080D03*
D12*
X12800Y229900D03*
X6800Y229900D03*
D13*
X5500Y220000D03*
X17500Y220000D03*
X29500Y220000D03*
X42500Y220000D03*
D14*
X15300Y241550D03*
X15300Y235050D03*
D11*
X152800Y244080D03*
X132800Y244080D03*
D12*
X122800Y229900D03*
X116800Y229900D03*
D13*
X115500Y220000D03*
X127500Y220000D03*
X139500Y220000D03*
X152500Y220000D03*
D14*
X125300Y241550D03*
X125300Y235050D03*
D11*
X262800Y244080D03*
X242800Y244080D03*
D12*
X232800Y229900D03*
X226800Y229900D03*
D13*
X225500Y220000D03*
X237500Y220000D03*
X249500Y220000D03*
X262500Y220000D03*
D14*
X235300Y241550D03*
X235300Y235050D03*
D11*
X372800Y244080D03*
X352800Y244080D03*
D12*
X342800Y229900D03*
X336800Y229900D03*
D13*
X335500Y220000D03*
X347500Y220000D03*
X359500Y220000D03*
X372500Y220000D03*
D14*
X345300Y241550D03*
X345300Y235050D03*
D11*
X42800Y354080D03*
X22800Y354080D03*
D12*
X12800Y339900D03*
X6800Y339900D03*
D13*
X5500Y330000D03*
X17500Y330000D03*
X29500Y330000D03*
X42500Y330000D03*
D14*
X15300Y351550D03*
X15300Y345050D03*
D11*
X152800Y354080D03*
X132800Y354080D03*
D12*
X122800Y339900D03*
X116800Y339900D03*
D13*
X115500Y330000D03*
X127500Y330000D03*
X139500Y330000D03*
X152500Y330000D03*
D14*
X125300Y351550D03*
X125300Y345050D03*
D11*
X262800Y354080D03*
X242800Y354080D03*
D12*
X232800Y339900D03*
X226800Y339900D03*
D13*
X225500Y330000D03*
X237500Y330000D03*
X249500Y330000D03*
X262500Y330000D03*
D14*
X235300Y351550D03*
X235300Y345050D03*
D11*
X372800Y354080D03*
X352800Y354080D03*
D12*
X342800Y339900D03*
X336800Y339900D03*
D13*
X335500Y330000D03*
X347500Y330000D03*
X359500Y330000D03*
X372500Y330000D03*
D14*
X345300Y351550D03*
X345300Y345050D03*
D15*
X-37500Y355000D02*
X-37498Y355099D01*
X-37492Y355199D01*
X-37482Y355298D01*
X-37468Y355396D01*
X-37451Y355494D01*
X-37429Y355591D01*
X-37404Y355687D01*
X-37375Y355782D01*
X-37342Y355876D01*
X-37305Y355968D01*
X-37265Y356059D01*
X-37221Y356148D01*
X-37173Y356236D01*
X-37122Y356321D01*
X-37068Y356404D01*
X-37011Y356486D01*
X-36950Y356564D01*
X-36886Y356641D01*
X-36820Y356714D01*
X-36750Y356785D01*
X-36678Y356853D01*
X-36603Y356919D01*
X-36525Y356981D01*
X-36445Y357040D01*
X-36363Y357096D01*
X-36279Y357148D01*
X-36192Y357197D01*
X-36104Y357243D01*
X-36014Y357285D01*
X-35922Y357324D01*
X-35829Y357359D01*
X-35735Y357390D01*
X-35639Y357417D01*
X-35542Y357440D01*
X-35445Y357460D01*
X-35347Y357476D01*
X-35248Y357488D01*
X-35149Y357496D01*
X-35050Y357500D01*
X-34950Y357500D01*
X-34851Y357496D01*
X-34752Y357488D01*
X-34653Y357476D01*
X-34555Y357460D01*
X-34458Y357440D01*
X-34361Y357417D01*
X-34265Y357390D01*
X-34171Y357359D01*
X-34078Y357324D01*
X-33986Y357285D01*
X-33896Y357243D01*
X-33808Y357197D01*
X-33721Y357148D01*
X-33637Y357096D01*
X-33555Y357040D01*
X-33475Y356981D01*
X-33397Y356919D01*
X-33322Y356853D01*
X-33250Y356785D01*
X-33180Y356714D01*
X-33114Y356641D01*
X-33050Y356564D01*
X-32989Y356486D01*
X-32932Y356404D01*
X-32878Y356321D01*
X-32827Y356236D01*
X-32779Y356148D01*
X-32735Y356059D01*
X-32695Y355968D01*
X-32658Y355876D01*
X-32625Y355782D01*
X-32596Y355687D01*
X-32571Y355591D01*
X-32549Y355494D01*
X-32532Y355396D01*
X-32518Y355298D01*
X-32508Y355199D01*
X-32502Y355099D01*
X-32500Y355000D01*
X-32502Y354901D01*
X-32508Y354801D01*
X-32518Y354702D01*
X-32532Y354604D01*
X-32549Y354506D01*
X-32571Y354409D01*
X-32596Y354313D01*
X-32625Y354218D01*
X-32658Y354124D01*
X-32695Y354032D01*
X-32735Y353941D01*
X-32779Y353852D01*
X-32827Y353764D01*
X-32878Y353679D01*
X-32932Y353596D01*
X-32989Y353514D01*
X-33050Y353436D01*
X-33114Y353359D01*
X-33180Y353286D01*
X-33250Y353215D01*
X-33322Y353147D01*
X-33397Y353081D01*
X-33475Y353019D01*
X-33555Y352960D01*
X-33637Y352904D01*
X-33721Y352852D01*
X-33808Y352803D01*
X-33896Y352757D01*
X-33986Y352715D01*
X-34078Y352676D01*
X-34171Y352641D01*
X-34265Y352610D01*
X-34361Y352583D01*
X-34458Y352560D01*
X-34555Y352540D01*
X-34653Y352524D01*
X-34752Y352512D01*
X-34851Y352504D01*
X-34950Y352500D01*
X-35050Y352500D01*
X-35149Y352504D01*
X-35248Y352512D01*
X-35347Y352524D01*
X-35445Y352540D01*
X-35542Y352560D01*
X-35639Y352583D01*
X-35735Y352610D01*
X-35829Y352641D01*
X-35922Y352676D01*
X-36014Y352715D01*
X-36104Y352757D01*
X-36192Y352803D01*
X-36279Y352852D01*
X-36363Y352904D01*
X-36445Y352960D01*
X-36525Y353019D01*
X-36603Y353081D01*
X-36678Y353147D01*
X-36750Y353215D01*
X-36820Y353286D01*
X-36886Y353359D01*
X-36950Y353436D01*
X-37011Y353514D01*
X-37068Y353596D01*
X-37122Y353679D01*
X-37173Y353764D01*
X-37221Y353852D01*
X-37265Y353941D01*
X-37305Y354032D01*
X-37342Y354124D01*
X-37375Y354218D01*
X-37404Y354313D01*
X-37429Y354409D01*
X-37451Y354506D01*
X-37468Y354604D01*
X-37482Y354702D01*
X-37492Y354801D01*
X-37498Y354901D01*
X-37500Y355000D01*
X-37500Y20000D02*
X-37498Y20099D01*
X-37492Y20199D01*
X-37482Y20298D01*
X-37468Y20396D01*
X-37451Y20494D01*
X-37429Y20591D01*
X-37404Y20687D01*
X-37375Y20782D01*
X-37342Y20876D01*
X-37305Y20968D01*
X-37265Y21059D01*
X-37221Y21148D01*
X-37173Y21236D01*
X-37122Y21321D01*
X-37068Y21404D01*
X-37011Y21486D01*
X-36950Y21564D01*
X-36886Y21641D01*
X-36820Y21714D01*
X-36750Y21785D01*
X-36678Y21853D01*
X-36603Y21919D01*
X-36525Y21981D01*
X-36445Y22040D01*
X-36363Y22096D01*
X-36279Y22148D01*
X-36192Y22197D01*
X-36104Y22243D01*
X-36014Y22285D01*
X-35922Y22324D01*
X-35829Y22359D01*
X-35735Y22390D01*
X-35639Y22417D01*
X-35542Y22440D01*
X-35445Y22460D01*
X-35347Y22476D01*
X-35248Y22488D01*
X-35149Y22496D01*
X-35050Y22500D01*
X-34950Y22500D01*
X-34851Y22496D01*
X-34752Y22488D01*
X-34653Y22476D01*
X-34555Y22460D01*
X-34458Y22440D01*
X-34361Y22417D01*
X-34265Y22390D01*
X-34171Y22359D01*
X-34078Y22324D01*
X-33986Y22285D01*
X-33896Y22243D01*
X-33808Y22197D01*
X-33721Y22148D01*
X-33637Y22096D01*
X-33555Y22040D01*
X-33475Y21981D01*
X-33397Y21919D01*
X-33322Y21853D01*
X-33250Y21785D01*
X-33180Y21714D01*
X-33114Y21641D01*
X-33050Y21564D01*
X-32989Y21486D01*
X-32932Y21404D01*
X-32878Y21321D01*
X-32827Y21236D01*
X-32779Y21148D01*
X-32735Y21059D01*
X-32695Y20968D01*
X-32658Y20876D01*
X-32625Y20782D01*
X-32596Y20687D01*
X-32571Y20591D01*
X-32549Y20494D01*
X-32532Y20396D01*
X-32518Y20298D01*
X-32508Y20199D01*
X-32502Y20099D01*
X-32500Y20000D01*
X-32502Y19901D01*
X-32508Y19801D01*
X-32518Y19702D01*
X-32532Y19604D01*
X-32549Y19506D01*
X-32571Y19409D01*
X-32596Y19313D01*
X-32625Y19218D01*
X-32658Y19124D01*
X-32695Y19032D01*
X-32735Y18941D01*
X-32779Y18852D01*
X-32827Y18764D01*
X-32878Y18679D01*
X-32932Y18596D01*
X-32989Y18514D01*
X-33050Y18436D01*
X-33114Y18359D01*
X-33180Y18286D01*
X-33250Y18215D01*
X-33322Y18147D01*
X-33397Y18081D01*
X-33475Y18019D01*
X-33555Y17960D01*
X-33637Y17904D01*
X-33721Y17852D01*
X-33808Y17803D01*
X-33896Y17757D01*
X-33986Y17715D01*
X-34078Y17676D01*
X-34171Y17641D01*
X-34265Y17610D01*
X-34361Y17583D01*
X-34458Y17560D01*
X-34555Y17540D01*
X-34653Y17524D01*
X-34752Y17512D01*
X-34851Y17504D01*
X-34950Y17500D01*
X-35050Y17500D01*
X-35149Y17504D01*
X-35248Y17512D01*
X-35347Y17524D01*
X-35445Y17540D01*
X-35542Y17560D01*
X-35639Y17583D01*
X-35735Y17610D01*
X-35829Y17641D01*
X-35922Y17676D01*
X-36014Y17715D01*
X-36104Y17757D01*
X-36192Y17803D01*
X-36279Y17852D01*
X-36363Y17904D01*
X-36445Y17960D01*
X-36525Y18019D01*
X-36603Y18081D01*
X-36678Y18147D01*
X-36750Y18215D01*
X-36820Y18286D01*
X-36886Y18359D01*
X-36950Y18436D01*
X-37011Y18514D01*
X-37068Y18596D01*
X-37122Y18679D01*
X-37173Y18764D01*
X-37221Y18852D01*
X-37265Y18941D01*
X-37305Y19032D01*
X-37342Y19124D01*
X-37375Y19218D01*
X-37404Y19313D01*
X-37429Y19409D01*
X-37451Y19506D01*
X-37468Y19604D01*
X-37482Y19702D01*
X-37492Y19801D01*
X-37498Y19901D01*
X-37500Y20000D01*
X412500Y75000D02*
X412502Y75099D01*
X412508Y75199D01*
X412518Y75298D01*
X412532Y75396D01*
X412549Y75494D01*
X412571Y75591D01*
X412596Y75687D01*
X412625Y75782D01*
X412658Y75876D01*
X412695Y75968D01*
X412735Y76059D01*
X412779Y76148D01*
X412827Y76236D01*
X412878Y76321D01*
X412932Y76404D01*
X412989Y76486D01*
X413050Y76564D01*
X413114Y76641D01*
X413180Y76714D01*
X413250Y76785D01*
X413322Y76853D01*
X413397Y76919D01*
X413475Y76981D01*
X413555Y77040D01*
X413637Y77096D01*
X413721Y77148D01*
X413808Y77197D01*
X413896Y77243D01*
X413986Y77285D01*
X414078Y77324D01*
X414171Y77359D01*
X414265Y77390D01*
X414361Y77417D01*
X414458Y77440D01*
X414555Y77460D01*
X414653Y77476D01*
X414752Y77488D01*
X414851Y77496D01*
X414950Y77500D01*
X415050Y77500D01*
X415149Y77496D01*
X415248Y77488D01*
X415347Y77476D01*
X415445Y77460D01*
X415542Y77440D01*
X415639Y77417D01*
X415735Y77390D01*
X415829Y77359D01*
X415922Y77324D01*
X416014Y77285D01*
X416104Y77243D01*
X416192Y77197D01*
X416279Y77148D01*
X416363Y77096D01*
X416445Y77040D01*
X416525Y76981D01*
X416603Y76919D01*
X416678Y76853D01*
X416750Y76785D01*
X416820Y76714D01*
X416886Y76641D01*
X416950Y76564D01*
X417011Y76486D01*
X417068Y76404D01*
X417122Y76321D01*
X417173Y76236D01*
X417221Y76148D01*
X417265Y76059D01*
X417305Y75968D01*
X417342Y75876D01*
X417375Y75782D01*
X417404Y75687D01*
X417429Y75591D01*
X417451Y75494D01*
X417468Y75396D01*
X417482Y75298D01*
X417492Y75199D01*
X417498Y75099D01*
X417500Y75000D01*
X417498Y74901D01*
X417492Y74801D01*
X417482Y74702D01*
X417468Y74604D01*
X417451Y74506D01*
X417429Y74409D01*
X417404Y74313D01*
X417375Y74218D01*
X417342Y74124D01*
X417305Y74032D01*
X417265Y73941D01*
X417221Y73852D01*
X417173Y73764D01*
X417122Y73679D01*
X417068Y73596D01*
X417011Y73514D01*
X416950Y73436D01*
X416886Y73359D01*
X416820Y73286D01*
X416750Y73215D01*
X416678Y73147D01*
X416603Y73081D01*
X416525Y73019D01*
X416445Y72960D01*
X416363Y72904D01*
X416279Y72852D01*
X416192Y72803D01*
X416104Y72757D01*
X416014Y72715D01*
X415922Y72676D01*
X415829Y72641D01*
X415735Y72610D01*
X415639Y72583D01*
X415542Y72560D01*
X415445Y72540D01*
X415347Y72524D01*
X415248Y72512D01*
X415149Y72504D01*
X415050Y72500D01*
X414950Y72500D01*
X414851Y72504D01*
X414752Y72512D01*
X414653Y72524D01*
X414555Y72540D01*
X414458Y72560D01*
X414361Y72583D01*
X414265Y72610D01*
X414171Y72641D01*
X414078Y72676D01*
X413986Y72715D01*
X413896Y72757D01*
X413808Y72803D01*
X413721Y72852D01*
X413637Y72904D01*
X413555Y72960D01*
X413475Y73019D01*
X413397Y73081D01*
X413322Y73147D01*
X413250Y73215D01*
X413180Y73286D01*
X413114Y73359D01*
X413050Y73436D01*
X412989Y73514D01*
X412932Y73596D01*
X412878Y73679D01*
X412827Y73764D01*
X412779Y73852D01*
X412735Y73941D01*
X412695Y74032D01*
X412658Y74124D01*
X412625Y74218D01*
X412596Y74313D01*
X412571Y74409D01*
X412549Y74506D01*
X412532Y74604D01*
X412518Y74702D01*
X412508Y74801D01*
X412502Y74901D01*
X412500Y75000D01*
M02*
